<svg id="XMLID_1_" xmlns="http://www.w3.org/2000/svg" width="57.838" height="74" viewBox="0 0 57.838 74">
  <g id="XMLID_5931_" transform="translate(0.723 0.723)">
    <path id="XMLID_3864_" d="M177.082,10.868s-1.662-5.753-9.541-5.753V5.1c-7.878,0-9.541,5.768-9.541,5.768Z" transform="translate(-143.978 -5.1)" fill="#35322b"/>
    <path id="XMLID_3844_" d="M311,178.1c3.686,0,5.493-2.429,5.493-5.045S312.72,170,312.156,170Z" transform="translate(-274.86 -146.162)" fill="#fec9a3"/>
    <path id="XMLID_3831_" d="M311,190.759,314.686,187s1.518,4.105-3.686,5.638Z" transform="translate(-274.86 -160.705)" fill="#f6bc90"/>
    <path id="XMLID_3821_" d="M104.493,178.1c-3.686,0-5.493-2.429-5.493-5.045s3.773-3.05,4.337-3.05Z" transform="translate(-93.507 -146.162)" fill="#fec9a3"/>
    <path id="XMLID_3820_" d="M113.967,190.759,110.281,187s-1.518,4.105,3.686,5.638Z" transform="translate(-102.981 -160.705)" fill="#f6bc90"/>
    <path id="XMLID_3819_" d="M139.357,49.383s2.891-.8,2.891-6.288S137.984,29,125.624,29,109,37.6,109,43.095s2.891,6.288,2.891,6.288" transform="translate(-102.061 -25.545)" fill="#504c43"/>
    <path id="XMLID_3656_" d="M88.9,286.9H80.226v5.493l-15.887,7.416A5.765,5.765,0,0,0,61,305.042V318.7h47.126V305.042a5.8,5.8,0,0,0-3.339-5.247l-15.887-7.4Z" transform="translate(-61 -246.163)" fill="#504c43"/>
    <path id="XMLID_3655_" d="M190.589,305.648c0,3.3-2.457,13.155-2.457,13.155h-8.674S177,308.93,177,305.648s2.458-13.155,2.458-13.155V287h8.674v5.493S190.589,302.367,190.589,305.648Z" transform="translate(-160.231 -246.249)" fill="#fec9a3"/>
    <path id="XMLID_3956_" d="M194,287v4.236a29.931,29.931,0,0,0,4.337,1.691,29.927,29.927,0,0,0,4.337-1.691V287Z" transform="translate(-174.774 -246.249)" fill="#f6bc90"/>
    <path id="XMLID_3654_" d="M180.152,368.7a10.244,10.244,0,0,1-11.536,0L166,375.538v13.155h16.769V375.538Z" transform="translate(-150.821 -316.138)" fill="#d8d6c1"/>
    <path id="XMLID_3653_" d="M146.1,325l-8.081,3.773,2.92,3.455-2.92,6.462s-.52,8.674,4.857,12.62H146.1s-2.458-9.873-2.458-13.155S146.1,325,146.1,325Z" transform="translate(-126.873 -278.755)" fill="#6d6759"/>
    <path id="XMLID_1411_" d="M254,325l8.081,3.773-2.92,3.455,2.92,6.462s.52,8.674-4.857,12.62H254s2.458-9.873,2.458-13.155S254,325,254,325Z" transform="translate(-226.1 -278.755)" fill="#6d6759"/>
    <g id="Grupo_991252" data-name="Grupo 991252" transform="translate(2.674 49.685)">
      <path id="XMLID_1410_" d="M134.624,359.208l2.862-6.332a.736.736,0,0,0-.1-.766l-2.79-3.31-1.359.636L136,352.7l-2.732,6.043a.567.567,0,0,0-.058.26c-.014.347-.448,8.341,4.438,12.663h2.371l-.8-.578C134.537,367.665,134.581,360.278,134.624,359.208Z" transform="translate(-125.43 -348.8)" fill="#35322b"/>
      <path id="XMLID_1409_" d="M272.992,359.208l-2.862-6.332a.736.736,0,0,1,.1-.766l2.79-3.31,1.359.636-2.761,3.267,2.732,6.043a.567.567,0,0,1,.058.26c.014.347.448,8.341-4.438,12.663H267.6l.8-.578C273.079,367.665,273.035,360.278,272.992,359.208Z" transform="translate(-240.408 -348.8)" fill="#35322b"/>
      <path id="XMLID_1407_" d="M79.5,374.765l2.111,9.31,1.417-.318L80.844,374.1l-.665.318A4.992,4.992,0,0,0,79.5,374.765Z" transform="translate(-79.5 -370.443)" fill="#35322b"/>
    </g>
    <path id="XMLID_1383_" d="M156.466,102.42s-.492,9.8-3.469,13.834c-3.036,4.091-10.264,6.115-10.264,6.115s-7.228-2.024-10.264-6.115C129.492,112.236,129,102.42,129,102.42c3.86,0,13.733-11.42,13.733-11.42s9.873,11.42,13.733,11.42Z" transform="translate(-119.17 -78.582)" fill="#fec9a3"/>
    <g id="XMLID_1382_" transform="translate(10.987 23.101)">
      <path id="XMLID_3858_" d="M151.975,171.59s.1,5.638-4.915,5.638S142,170,142,170A27.333,27.333,0,0,1,151.975,171.59Z" transform="translate(-141.277 -169.263)" fill="#d8d6c1"/>
      <path id="XMLID_3859_" d="M142.782,173.588c-4.539,0-5.768-5.2-5.782-7.951a.741.741,0,0,1,.723-.737,27.809,27.809,0,0,1,10.264,1.648.71.71,0,0,1,.434.651,7.536,7.536,0,0,1-1.793,4.886,5.15,5.15,0,0,1-3.845,1.5Zm-4.293-7.214a10.938,10.938,0,0,0,.578,2.674c.737,2.053,1.98,3.094,3.715,3.094a3.749,3.749,0,0,0,2.8-1.055,5.618,5.618,0,0,0,1.359-3.368A28.209,28.209,0,0,0,138.489,166.375Z" transform="translate(-137 -164.9)" fill="#d84861"/>
    </g>
    <g id="XMLID_1381_" transform="translate(24.72 23.115)">
      <path id="XMLID_3848_" d="M237,171.59s-.1,5.638,4.915,5.638,5.06-7.228,5.06-7.228A27.332,27.332,0,0,0,237,171.59Z" transform="translate(-236.276 -169.277)" fill="#d8d6c1"/>
      <path id="XMLID_3850_" d="M237.638,173.674a5.2,5.2,0,0,1-3.845-1.489A7.493,7.493,0,0,1,232,167.3a.71.71,0,0,1,.434-.651A27.808,27.808,0,0,1,242.7,165a.678.678,0,0,1,.506.217.744.744,0,0,1,.217.52C243.406,168.469,242.177,173.674,237.638,173.674Zm-4.163-5.869a5.711,5.711,0,0,0,1.359,3.368,3.806,3.806,0,0,0,2.8,1.055c1.735,0,2.978-1.041,3.715-3.108a11.662,11.662,0,0,0,.578-2.674A28.536,28.536,0,0,0,233.474,167.8Z" transform="translate(-232 -165)" fill="#d84861"/>
    </g>
    <g id="XMLID_1380_" transform="translate(21.684 24.705)">
      <path id="XMLID_3849_" d="M211,176h3.759v1.446H211Z" transform="translate(-211 -176)" fill="#d84861"/>
    </g>
    <path id="XMLID_1379_" d="M330.383,351.314l-9.252,6.924h-1.879L310,351.314V333.1l9.252,6.924h1.879l9.252-6.924Z" transform="translate(-274.005 -285.685)" fill="#d84861"/>
    <path id="XMLID_870_" d="M374,339.939v18.214h1.879l9.252-6.924V333l-9.252,6.939Z" transform="translate(-328.753 -285.599)" fill="#c22945"/>
    <path id="XMLID_1377_" d="M328.157,314c-2.4,0-8.037,3.253-8.037,5.855,0-2.6-5.493-5.855-7.893-5.855L310,316.761l9.252,6.924h1.879l9.252-6.924Z" transform="translate(-274.005 -269.346)" fill="#d8d6c1"/>
    <g id="XMLID_1376_" transform="translate(45.392 50.581)">
      <path id="XMLID_3869_" d="M375,355h1.446v3.759H375Z" transform="translate(-375 -355)" fill="#c5c2a1"/>
    </g>
    <g id="XMLID_1375_" transform="translate(36.846 45.225)">
      <path id="XMLID_3868_" d="M0,0H10.856V1.446H0Z" transform="translate(0.83 0) rotate(35.025)" fill="#c5c2a1"/>
    </g>
    <g id="XMLID_1374_" transform="translate(45.765 45.132)">
      <path id="XMLID_3866_" d="M0,0H1.446V10.842H0Z" transform="translate(8.836 0) rotate(54.609)" fill="#c5c2a1"/>
    </g>
    <path id="XMLID_1373_" d="M406.915,372.3v4.048L402,380.034v-4.048Z" transform="translate(-352.705 -319.218)" fill="#d8d6c1"/>
    <path id="XMLID_3817_" d="M251.782,181.766a4.674,4.674,0,0,0-2.6-.867,5.583,5.583,0,0,0-2.6.838L246,183.5h4.048A1.731,1.731,0,0,0,251.782,181.766Z" transform="translate(-219.257 -155.485)" fill="#ebebdf"/>
    <path id="XMLID_3816_" d="M162,181.766a4.674,4.674,0,0,1,2.6-.867,5.583,5.583,0,0,1,2.6.838l.578,1.764h-4.048A1.731,1.731,0,0,1,162,181.766Z" transform="translate(-147.399 -155.485)" fill="#ebebdf"/>
    <g id="XMLID_3814_" transform="translate(16.046 25.428)">
      <path id="XMLID_3815_" d="M172,181h1.446v2.6H172Z" transform="translate(-172 -181)" fill="#35322b"/>
    </g>
    <g id="XMLID_3812_" transform="translate(16.913 25.428)">
      <path id="XMLID_3813_" d="M178,181h1.446v2.6H178Z" transform="translate(-178 -181)" fill="#35322b"/>
    </g>
    <g id="XMLID_1405_" transform="translate(29.635 25.428)">
      <path id="XMLID_1406_" d="M266,181h1.446v2.6H266Z" transform="translate(-266 -181)" fill="#35322b"/>
    </g>
    <g id="XMLID_1403_" transform="translate(28.767 25.428)">
      <path id="XMLID_1404_" d="M260,181h1.446v2.6H260Z" transform="translate(-260 -181)" fill="#35322b"/>
    </g>
    <g id="XMLID_1401_" transform="translate(14.022 24.705)">
      <path id="XMLID_1402_" d="M158.578,178.313H158v-1.446h.361A5.168,5.168,0,0,1,161.18,176h.029a5.283,5.283,0,0,1,2.559.737,2.071,2.071,0,0,0,.275.13l-.492,1.359c-.145-.058-.289-.13-.463-.217a3.792,3.792,0,0,0-1.865-.578h-.014a3.854,3.854,0,0,0-2.2.737A.742.742,0,0,1,158.578,178.313Z" transform="translate(-158 -176)" fill="#35322b"/>
    </g>
    <g id="XMLID_1398_" transform="translate(27.076 24.719)">
      <path id="XMLID_1400_" d="M254.328,178.4h-.578a.753.753,0,0,1-.419-.13,3.82,3.82,0,0,0-2.2-.737h-.014a3.743,3.743,0,0,0-1.865.578,3.215,3.215,0,0,1-.463.217l-.492-1.359c.043-.014.173-.087.275-.13a4.964,4.964,0,0,1,5.407.13h.361V178.4Z" transform="translate(-248.3 -176.098)" fill="#35322b"/>
    </g>
    <g id="XMLID_1395_" transform="translate(18.981 34.203)">
      <path id="XMLID_1396_" d="M196.883,244.649a6.252,6.252,0,0,1-4.583-1.98l1.084-.969a4.9,4.9,0,0,0,3.513,1.489h.043A4.765,4.765,0,0,0,200.4,241.7l1.084.969a6.289,6.289,0,0,1-4.525,1.98Z" transform="translate(-192.3 -241.7)" fill="#d84861"/>
    </g>
    <g id="XMLID_1393_" transform="translate(13.646 20.368)">
      <path id="XMLID_1394_" d="M156.137,148.212l-.737-1.243a6.912,6.912,0,0,1,3.542-.969h.043a7.132,7.132,0,0,1,3.513.969l-.737,1.243a5.484,5.484,0,0,0-2.776-.766A5.55,5.55,0,0,0,156.137,148.212Z" transform="translate(-155.4 -146)" fill="#35322b"/>
    </g>
    <g id="XMLID_1391_" transform="translate(26.382 20.368)">
      <path id="XMLID_1392_" d="M249.861,148.21a5.594,5.594,0,0,0-2.848-.766,5.438,5.438,0,0,0-2.776.766l-.737-1.243a7.083,7.083,0,0,1,3.513-.969,6.906,6.906,0,0,1,3.585.969Z" transform="translate(-243.5 -145.998)" fill="#35322b"/>
    </g>
  </g>
  <g id="XMLID_446_">
    <g id="XMLID_1253_" transform="translate(11.116 46.219)">
      <path id="XMLID_4361_" d="M141.731,347.607h-3.224a.682.682,0,0,1-.434-.145c-5.638-4.134-5.175-12.88-5.161-13.256a.844.844,0,0,1,.058-.26L135.7,327.9l-2.631-3.108a.722.722,0,0,1,.246-1.128l8.081-3.773a.71.71,0,0,1,.766.1.753.753,0,0,1,.246.737c-.029.1-2.443,9.816-2.443,12.981s2.414,12.88,2.443,12.981a.733.733,0,0,1-.13.622A.642.642,0,0,1,141.731,347.607Zm-2.978-1.446h2.053c-.607-2.53-2.255-9.657-2.255-12.432,0-2.6,1.431-8.963,2.125-11.868l-5.869,2.732,2.313,2.732a.736.736,0,0,1,.1.766l-2.862,6.332C134.33,335.478,134.287,342.692,138.753,346.161Z" transform="translate(-132.899 -319.826)" fill="#272526"/>
    </g>
    <g id="XMLID_1252_" transform="translate(27.906 46.238)">
      <path id="XMLID_4358_" d="M252.981,347.716h-3.224a.712.712,0,0,1-.564-.275.733.733,0,0,1-.13-.622c.029-.1,2.443-9.816,2.443-12.981s-2.414-12.88-2.443-12.981a.724.724,0,0,1,.246-.737.736.736,0,0,1,.766-.1l8.081,3.773a.757.757,0,0,1,.4.506.748.748,0,0,1-.159.622l-2.631,3.108,2.732,6.043a.567.567,0,0,1,.058.26c.029.376.477,9.122-5.161,13.256a.72.72,0,0,1-.419.13Zm-2.3-1.446h2.053c4.481-3.484,4.424-10.683,4.395-11.738l-2.862-6.332a.736.736,0,0,1,.1-.766l2.313-2.732-5.869-2.732c.694,2.906,2.125,9.266,2.125,11.868C252.937,336.614,251.289,343.74,250.682,346.27Z" transform="translate(-249.04 -319.954)" fill="#272526"/>
    </g>
    <g id="XMLID_1251_" transform="translate(3.376 54.209)">
      <path id="XMLID_4357_" d="M0,0H9.743V1.446H0Z" transform="matrix(0.221, 0.975, -0.975, 0.221, 1.409, 0)" fill="#272526"/>
    </g>
    <g id="XMLID_1250_" transform="translate(18.055 52.721)">
      <path id="XMLID_4356_" d="M187.131,367.865a10.221,10.221,0,0,1-6.231-1.952l.925-1.113-.463.564.463-.564a8.972,8.972,0,0,0,5.305,1.619,8.867,8.867,0,0,0,5.305-1.619l.925,1.113A10.221,10.221,0,0,1,187.131,367.865Z" transform="translate(-180.9 -364.8)" fill="#272526"/>
    </g>
    <g id="XMLID_1103_" transform="translate(7.499 26.511)">
      <path id="XMLID_4354_" d="M0,0H4.568V1.446H0Z" transform="matrix(0.7, 0.714, -0.714, 0.7, 1.032, 0)" fill="#272526"/>
    </g>
    <g id="XMLID_1102_" transform="translate(36.844 26.501)">
      <path id="XMLID_4353_" d="M0,0H1.446V4.568H0Z" transform="matrix(0.714, 0.7, -0.7, 0.714, 3.198, 0)" fill="#272526"/>
    </g>
    <g id="XMLID_1100_" transform="translate(19.703 34.926)">
      <path id="XMLID_4352_" d="M196.883,244.649a6.252,6.252,0,0,1-4.583-1.98l1.084-.969a4.9,4.9,0,0,0,3.513,1.489h.043A4.765,4.765,0,0,0,200.4,241.7l1.084.969a6.289,6.289,0,0,1-4.525,1.98Z" transform="translate(-192.3 -241.7)" fill="#272526"/>
    </g>
    <g id="XMLID_1099_" transform="translate(14.369 21.091)">
      <path id="XMLID_4349_" d="M156.137,148.212l-.737-1.243a6.912,6.912,0,0,1,3.542-.969h.043a7.132,7.132,0,0,1,3.513.969l-.737,1.243a5.484,5.484,0,0,0-2.776-.766h-.029A5.666,5.666,0,0,0,156.137,148.212Z" transform="translate(-155.4 -146)" fill="#272526"/>
    </g>
    <g id="XMLID_1098_" transform="translate(16.769 26.151)">
      <path id="XMLID_4348_" d="M172,181h1.446v2.6H172Z" transform="translate(-172 -181)" fill="#272526"/>
    </g>
    <g id="XMLID_1097_" transform="translate(17.636 26.151)">
      <path id="XMLID_4347_" d="M178,181h1.446v2.6H178Z" transform="translate(-178 -181)" fill="#272526"/>
    </g>
    <g id="XMLID_1096_" transform="translate(14.745 25.428)">
      <path id="XMLID_4346_" d="M158.578,178.313H158v-1.446h.361A5.168,5.168,0,0,1,161.18,176h.029a5.283,5.283,0,0,1,2.559.737,2.071,2.071,0,0,0,.275.13l-.492,1.359c-.145-.058-.289-.13-.463-.217a3.792,3.792,0,0,0-1.865-.578h-.014a3.854,3.854,0,0,0-2.2.737A.742.742,0,0,1,158.578,178.313Z" transform="translate(-158 -176)" fill="#272526"/>
    </g>
    <g id="XMLID_1095_" transform="translate(27.105 21.091)">
      <path id="XMLID_4345_" d="M249.861,148.212a5.742,5.742,0,0,0-2.848-.766,5.394,5.394,0,0,0-2.776.766l-.737-1.243a6.986,6.986,0,0,1,7.1,0Z" transform="translate(-243.5 -146)" fill="#272526"/>
    </g>
    <g id="XMLID_1094_" transform="translate(30.357 26.151)">
      <path id="XMLID_4344_" d="M266,181h1.446v2.6H266Z" transform="translate(-266 -181)" fill="#272526"/>
    </g>
    <g id="XMLID_1093_" transform="translate(29.49 26.151)">
      <path id="XMLID_4343_" d="M260,181h1.446v2.6H260Z" transform="translate(-260 -181)" fill="#272526"/>
    </g>
    <g id="XMLID_1092_" transform="translate(27.799 25.442)">
      <path id="XMLID_4342_" d="M254.328,178.4h-.578a.753.753,0,0,1-.419-.13,3.82,3.82,0,0,0-2.2-.737h-.014a3.743,3.743,0,0,0-1.865.578,3.214,3.214,0,0,1-.463.217l-.492-1.359c.043-.014.173-.087.275-.13a5.283,5.283,0,0,1,2.559-.737h.029a5.168,5.168,0,0,1,2.819.867h.361V178.4Z" transform="translate(-248.3 -176.1)" fill="#272526"/>
    </g>
    <g id="XMLID_1085_" transform="translate(5.493 23.838)">
      <g id="XMLID_1087_">
        <path id="XMLID_4341_" d="M100.216,174.541c-4.265,0-6.216-2.992-6.216-5.768,0-3.108,4.062-3.773,5.06-3.773v1.446c-.043,0-3.614.246-3.614,2.327,0,1.995,1.243,4.322,4.77,4.322Z" transform="translate(-94 -165)" fill="#272526"/>
      </g>
      <g id="XMLID_1086_" transform="translate(31.369)">
        <path id="XMLID_4340_" d="M311,174.541V173.1c3.527,0,4.77-2.327,4.77-4.322,0-2.082-3.585-2.327-3.614-2.327V165c1,0,5.06.665,5.06,3.773C317.216,171.549,315.264,174.541,311,174.541Z" transform="translate(-311 -165)" fill="#272526"/>
      </g>
    </g>
    <g id="XMLID_1192_" transform="translate(6.939 3.455)">
      <path id="XMLID_4339_" d="M135.268,45.8l-.39-1.388.188.694-.2-.694c.1-.029,2.371-.8,2.371-5.594.014-5.378-4.221-13.372-15.887-13.372s-15.9,7.994-15.9,13.372c0,4.8,2.27,5.566,2.371,5.594l-.39,1.388c-.145-.043-3.426-1.012-3.426-6.982S108.626,24,121.347,24s17.347,8.861,17.347,14.817S135.413,45.771,135.268,45.8Z" transform="translate(-104 -24)" fill="#272526"/>
    </g>
    <g id="XMLID_1191_" transform="translate(14.051 0)">
      <path id="XMLID_4338_" d="M172.282,6.793c-.058-.217-1.648-5.233-8.847-5.233a.246.246,0,0,1-.1-.014c-7.156.043-8.731,5.19-8.746,5.248l-1.388-.4a8.11,8.11,0,0,1,1.995-3.18A11,11,0,0,1,163.435.1a.318.318,0,0,1,.116.014,11.028,11.028,0,0,1,8.139,3.094,8.436,8.436,0,0,1,1.995,3.18Z" transform="translate(-153.2 -0.1)" fill="#272526"/>
    </g>
    <g id="XMLID_1315_" transform="translate(9.828 12.403)">
      <path id="XMLID_4335_" d="M138.445,118.729a.732.732,0,0,1-.188-.029c-.3-.087-7.5-2.139-10.654-6.39-3.079-4.149-3.585-13.82-3.614-14.225a.676.676,0,0,1,.2-.535.724.724,0,0,1,.52-.231c2.573,0,9.454-6.852,13.184-11.174a.7.7,0,0,1,.549-.246.724.724,0,0,1,.549.246c3.73,4.322,10.625,11.174,13.184,11.174a.7.7,0,0,1,.52.231.793.793,0,0,1,.2.535c-.014.4-.535,10.076-3.614,14.225-3.151,4.25-10.35,6.3-10.654,6.39A.732.732,0,0,1,138.445,118.729Zm-12.967-20.05c.173,2.241.9,9.555,3.281,12.779,2.588,3.484,8.529,5.435,9.685,5.8,1.156-.347,7.1-2.313,9.686-5.8,2.385-3.209,3.108-10.538,3.281-12.779-1.821-.434-4.467-2.356-8.052-5.811-2.125-2.053-4.019-4.134-4.915-5.132-.9,1-2.79,3.079-4.915,5.132-3.585,3.455-6.231,5.378-8.052,5.811Z" transform="translate(-123.987 -85.9)" fill="#272526"/>
    </g>
    <g id="XMLID_652_" transform="translate(11.709 23.823)">
      <path id="XMLID_4332_" d="M142.782,173.588c-4.539,0-5.768-5.2-5.782-7.951a.741.741,0,0,1,.723-.737,27.809,27.809,0,0,1,10.264,1.648.71.71,0,0,1,.434.651,7.536,7.536,0,0,1-1.793,4.886,5.15,5.15,0,0,1-3.845,1.5Zm-4.293-7.214a10.938,10.938,0,0,0,.578,2.674c.737,2.053,1.98,3.094,3.715,3.094a3.749,3.749,0,0,0,2.8-1.055,5.618,5.618,0,0,0,1.359-3.368A28.209,28.209,0,0,0,138.489,166.375Z" transform="translate(-137 -164.9)" fill="#272526"/>
    </g>
    <g id="XMLID_653_" transform="translate(25.442 23.838)">
      <path id="XMLID_4329_" d="M237.638,173.674a5.2,5.2,0,0,1-3.845-1.489A7.493,7.493,0,0,1,232,167.3a.71.71,0,0,1,.434-.651A27.808,27.808,0,0,1,242.7,165a.678.678,0,0,1,.506.217.744.744,0,0,1,.217.52C243.406,168.469,242.177,173.674,237.638,173.674Zm-4.163-5.869a5.711,5.711,0,0,0,1.359,3.368,3.806,3.806,0,0,0,2.8,1.055c1.735,0,2.978-1.041,3.715-3.108a11.662,11.662,0,0,0,.578-2.674A28.536,28.536,0,0,0,233.474,167.8Z" transform="translate(-232 -165)" fill="#272526"/>
    </g>
    <g id="XMLID_1316_" transform="translate(22.407 25.428)">
      <path id="XMLID_4328_" d="M211,176h3.759v1.446H211Z" transform="translate(-211 -176)" fill="#272526"/>
    </g>
    <g id="XMLID_2466_" transform="translate(35.995 48.124)">
      <path id="XMLID_4327_" d="M316.854,358.876h-1.879a.779.779,0,0,1-.434-.145l-9.252-6.924a.693.693,0,0,1-.289-.578V333h1.446v17.868l8.775,6.563h1.4l8.775-6.563V335.891h1.446v15.338a.693.693,0,0,1-.289.578l-9.266,6.924A.682.682,0,0,1,316.854,358.876Z" transform="translate(-305 -333)" fill="#272526"/>
    </g>
    <g id="XMLID_1320_" transform="translate(35.988 44.64)">
      <path id="XMLID_4324_" d="M316.811,320.046h-1.879a.779.779,0,0,1-.434-.145l-9.252-6.924a.723.723,0,0,1-.289-.491.708.708,0,0,1,.159-.549l2.226-2.761a.712.712,0,0,1,.564-.275,10.744,10.744,0,0,1,5.247,2.082,10.385,10.385,0,0,1,2.66,2.5c1.706-2.443,5.956-4.568,8.023-4.568a.734.734,0,0,1,.564.275l2.226,2.761a.722.722,0,0,1-.13,1.041l-9.252,6.91a.779.779,0,0,1-.434.145Zm-1.634-1.446h1.4l8.457-6.332-1.518-1.879c-2.284.275-6.982,3.166-6.982,5.117a.723.723,0,0,1-1.446,0c0-.9-1.041-2.154-2.732-3.31a10.905,10.905,0,0,0-4.105-1.807l-1.518,1.879Z" transform="translate(-304.95 -308.9)" fill="#272526"/>
    </g>
    <g id="XMLID_1317_" transform="translate(46.114 51.304)">
      <path id="XMLID_4323_" d="M375,355h1.446v3.759H375Z" transform="translate(-375 -355)" fill="#272526"/>
    </g>
    <g id="XMLID_1319_" transform="translate(37.569 45.948)">
      <path id="XMLID_4322_" d="M0,0H10.856V1.446H0Z" transform="translate(0.83 0) rotate(35.025)" fill="#272526"/>
    </g>
    <g id="XMLID_1321_" transform="translate(46.487 45.855)">
      <path id="XMLID_4321_" d="M0,0H1.446V10.842H0Z" transform="translate(8.836 0) rotate(54.609)" fill="#272526"/>
    </g>
    <g id="XMLID_1105_" transform="translate(49.295 53.084)">
      <path id="XMLID_4318_" d="M397.723,376.491a.788.788,0,0,1-.318-.072.723.723,0,0,1-.4-.651v-4.048a.693.693,0,0,1,.289-.578l4.915-3.686a.74.74,0,0,1,.752-.072.723.723,0,0,1,.4.651v4.048a.693.693,0,0,1-.289.578l-4.915,3.686A.779.779,0,0,1,397.723,376.491Zm.723-4.409v2.241l3.469-2.6V369.48Z" transform="translate(-397 -367.313)" fill="#272526"/>
    </g>
    <g id="XMLID_3805_" transform="translate(27.9 43.238)">
      <path id="XMLID_3734_" d="M249,299.2h1.446v3.73H249Z" transform="translate(-249 -299.2)" fill="#272526"/>
    </g>
    <g id="XMLID_3306_" transform="translate(0 43.281)">
      <path id="XMLID_3733_" d="M97.633,330.2H56.723a.716.716,0,0,1-.723-.723V315.821a6.539,6.539,0,0,1,3.759-5.9l15.468-7.214V299.5h1.446v3.672a.712.712,0,0,1-.419.651l-15.887,7.416a5.069,5.069,0,0,0-2.92,4.583v12.938H97.633Z" transform="translate(-56 -299.5)" fill="#272526"/>
    </g>
  </g>
</svg>
