<svg xmlns="http://www.w3.org/2000/svg" xmlns:xlink="http://www.w3.org/1999/xlink" width="400" height="558" viewBox="0 0 400 558">
  <defs>
    <clipPath id="clip-path">
      <rect id="Rectángulo_45180" data-name="Rectángulo 45180" width="343.827" height="512.725" transform="translate(0 0)" fill="#fff" stroke="#707070" stroke-width="1"/>
    </clipPath>
    <clipPath id="clip-path-2">
      <rect id="Rectángulo_45318" data-name="Rectángulo 45318" width="281.611" height="504.2" fill="none"/>
    </clipPath>
  </defs>
  <g id="Grupo_991023" data-name="Grupo 991023" transform="translate(-180 -705)">
    <g id="Grupo_991022" data-name="Grupo 991022">
      <rect id="Rectángulo_341381" data-name="Rectángulo 341381" width="558" height="193" rx="17" transform="translate(428 705) rotate(90)" fill="#ffbfc1"/>
      <path id="Rectángulo_45161" data-name="Rectángulo 45161" d="M17,0H344a17,17,0,0,1,17,17V193a0,0,0,0,1,0,0H17A17,17,0,0,1,0,176V17A17,17,0,0,1,17,0Z" transform="translate(219 1070)" fill="#ff9fa3"/>
    </g>
    <g id="Grupo_293" data-name="Grupo 293" transform="translate(180 750.275)" clip-path="url(#clip-path)">
      <g id="Grupo_174786" data-name="Grupo 174786" transform="translate(-21.679 7.942)">
        <g id="Grupo_174773" data-name="Grupo 174773" transform="translate(0 246.126)">
          <rect id="Rectángulo_45175" data-name="Rectángulo 45175" width="260.409" height="258.073" transform="translate(0)" fill="#fff0f1"/>
          <path id="Rectángulo_45176" data-name="Rectángulo 45176" d="M0,0H226.507a139,139,0,0,1,139,139v9.3a0,0,0,0,1,0,0H0a0,0,0,0,1,0,0V0A0,0,0,0,1,0,0Z" transform="translate(0 109.769)" fill="#fc5f65"/>
        </g>
        <g id="Grupo_175093" data-name="Grupo 175093" transform="translate(32.623 0)">
          <g id="Grupo_175092" data-name="Grupo 175092" clip-path="url(#clip-path-2)">
            <path id="Trazado_183915" data-name="Trazado 183915" d="M181.385,356.51a1.474,1.474,0,0,0,.26-.021,1.582,1.582,0,0,0,1.3-1.818l-31.014-187.1c-1.99-12-11.185-20.713-21.864-20.713H61.98a1.582,1.582,0,0,0,0,3.163h68.09c9.125,0,17.007,7.6,18.743,18.065l31.014,187.1a1.581,1.581,0,0,0,1.558,1.324" transform="translate(56.66 137.766)" fill="#12263f"/>
            <path id="Trazado_183916" data-name="Trazado 183916" d="M174.628,260.768H72.406A64.546,64.546,0,0,1,7.859,196.221V69.817a42.7,42.7,0,0,1,42.7-42.7h54.723a42.7,42.7,0,0,1,42.7,42.66l.124,118.1,66.613,8.26v24.533a40.1,40.1,0,0,1-40.1,40.1" transform="translate(7.373 25.435)" fill="#e1e8ff"/>
            <path id="Trazado_183917" data-name="Trazado 183917" d="M7.043,196.987V70.582A44.336,44.336,0,0,1,51.329,26.3h54.723a44.347,44.347,0,0,1,44.286,44.241l.12,116.705,65.229,8.09a1.579,1.579,0,0,1,1.388,1.568v24.535a41.728,41.728,0,0,1-41.681,41.679H73.169A66.2,66.2,0,0,1,7.043,196.987m141.639-6.778a1.584,1.584,0,0,1-1.388-1.568l-.12-118.1a41.18,41.18,0,0,0-41.123-41.082H51.329A41.17,41.17,0,0,0,10.206,70.582V196.987a63.036,63.036,0,0,0,62.963,62.963H175.393a38.561,38.561,0,0,0,38.518-38.516V198.3Z" transform="translate(6.607 24.669)" fill="#5774cd"/>
            <path id="Trazado_183918" data-name="Trazado 183918" d="M1.584,361.787a1.582,1.582,0,0,0,1.56-1.33L34.578,165.473A19.1,19.1,0,0,1,53.32,150.017H162.829a1.581,1.581,0,1,0,0-3.163H53.32a22.28,22.28,0,0,0-21.856,18.071L.02,359.953a1.584,1.584,0,0,0,1.31,1.814,1.623,1.623,0,0,0,.254.019" transform="translate(0 137.765)" fill="#12263f"/>
            <path id="Trazado_183919" data-name="Trazado 183919" d="M20.142,361.787a1.582,1.582,0,0,0,1.56-1.33L53.136,165.473a19.1,19.1,0,0,1,18.742-15.456h68.09a1.581,1.581,0,1,0,0-3.163H71.878a22.28,22.28,0,0,0-21.856,18.071L18.578,359.953a1.584,1.584,0,0,0,1.31,1.814,1.624,1.624,0,0,0,.254.019" transform="translate(17.409 137.765)" fill="#12263f"/>
            <path id="Trazado_183920" data-name="Trazado 183920" d="M126.956,90.612l-16.4,3.394-9.018-21.523,19.141-1.518Z" transform="translate(95.254 66.574)" fill="#e8926d"/>
            <path id="Trazado_183921" data-name="Trazado 183921" d="M110.142,81.011l6.993,38.175a1.412,1.412,0,0,0,2.262.855l48.472-38.119a1.406,1.406,0,0,0,.516-1.362l-6.995-38.175a1.412,1.412,0,0,0-2.262-.857l-48.47,38.119a1.4,1.4,0,0,0-.516,1.364" transform="translate(103.303 38.673)" fill="#5774cd"/>
            <path id="Trazado_183922" data-name="Trazado 183922" d="M109.623,83.126l7.931,34.229a1.412,1.412,0,0,0,2.25.791L166.477,81.3a1.41,1.41,0,0,0,.516-1.351l-6.184-35.465a1.412,1.412,0,0,0-2.264-.866L110.125,81.7a1.411,1.411,0,0,0-.5,1.428" transform="translate(102.804 40.636)" fill="#fff"/>
            <path id="Trazado_183923" data-name="Trazado 183923" d="M87.495,126.7,178.446,335.2l-21.1,6.752L58.373,164.689Z" transform="translate(54.76 118.862)" fill="#e8926d"/>
            <path id="Trazado_183924" data-name="Trazado 183924" d="M83.679,120.236l27-56.471a25.913,25.913,0,0,0-.436-23.224l-3.405-6.483-62.888,90.19,17.858,11Z" transform="translate(41.234 31.95)" fill="#fff"/>
            <path id="Trazado_183925" data-name="Trazado 183925" d="M62.163,136.326a.736.736,0,0,1-.382-.109l-17.856-11a.725.725,0,0,1-.215-1.035L106.6,33.994a.727.727,0,0,1,1.24.078l3.405,6.485a26.753,26.753,0,0,1,.448,23.874l-27,56.473a.708.708,0,0,1-.244.285L62.574,136.2a.724.724,0,0,1-.411.128M45.342,124.384l16.8,10.348L83.459,120.1l26.918-56.3a25.293,25.293,0,0,0-.423-22.571L107.1,35.806Zm38.689-3.795h0Z" transform="translate(40.882 31.598)"/>
            <path id="Trazado_183926" data-name="Trazado 183926" d="M67.568,186.089l-9.194-16.468,32.9-42.918,6.433,14.745Z" transform="translate(54.761 118.862)"/>
            <path id="Trazado_183927" data-name="Trazado 183927" d="M156.3,98.092,73.74,134.825,54.6,113.2l90.324-42.231Z" transform="translate(51.225 66.574)" fill="#fff"/>
            <path id="Trazado_183928" data-name="Trazado 183928" d="M74.09,135.9a.724.724,0,0,1-.543-.246L54.412,114.032a.727.727,0,0,1,.236-1.14l90.324-42.233a.728.728,0,0,1,.979.378l11.365,27.126a.726.726,0,0,1-.374.944L74.386,135.842a.754.754,0,0,1-.3.062M56.145,113.8l18.137,20.5L155.7,98.068,144.9,72.3Z" transform="translate(50.874 66.222)"/>
            <path id="Trazado_183929" data-name="Trazado 183929" d="M66.309,245.439l61.667-83.678L87.648,142.438l25.205-34.613,55.87,31.45a16.7,16.7,0,0,1,4.4,25.519L87.481,263.081Z" transform="translate(62.205 101.152)" fill="#e8926d"/>
            <path id="Trazado_183930" data-name="Trazado 183930" d="M99.371,153,77.319,142.438l25.2-34.613,9.817,5.526Z" transform="translate(72.534 101.152)"/>
            <path id="Trazado_183931" data-name="Trazado 183931" d="M31.185,153.13c-1.289,11.179-.382,17.476,16.137,49.147S90.036,270.4,90.036,270.4l62.584-88.13L89.693,150.737l7.274-118.6s-20.009,18.93-32.2,40.431c-15.877,28.01-31,58.132-33.586,80.561" transform="translate(28.875 30.149)" fill="#fc5f65"/>
            <path id="Trazado_183932" data-name="Trazado 183932" d="M106.253,39.1,86.344,54.028l-14.8-17.082L91.994,20.936Z" transform="translate(67.121 19.641)" fill="#e8926d"/>
            <path id="Trazado_183933" data-name="Trazado 183933" d="M99.787,48.819,66.132,132.35l-15.937-8.7L92.087,41.9Z" transform="translate(47.089 39.311)" fill="#fd521b"/>
            <path id="Trazado_183934" data-name="Trazado 183934" d="M95.615,85.237a31,31,0,0,0,22.17-.479c12.259-4.807,22.769-25.046,22.769-25.046s-30.57,2.056-40.179,6.378-4.76,19.147-4.76,19.147" transform="translate(88.55 56.016)" fill="#e8926d"/>
            <path id="Trazado_183935" data-name="Trazado 183935" d="M95.355,64.739,99.474,63l6.593,20.935-5.436-.3Z" transform="translate(89.454 59.104)"/>
            <path id="Trazado_183936" data-name="Trazado 183936" d="M101.042,83.358l24.4,35.2a1.414,1.414,0,0,0,2.035.3l48.755-38.344a1.409,1.409,0,0,0,.289-1.913l-24.407-35.2a1.413,1.413,0,0,0-2.031-.3L101.327,81.445a1.413,1.413,0,0,0-.285,1.913" transform="translate(94.552 40.152)" fill="#5774cd"/>
            <path id="Trazado_183937" data-name="Trazado 183937" d="M157.867,115.747,69.551,160.692A24.212,24.212,0,0,1,37.272,127.6L84.638,39.992a18.684,18.684,0,0,1,31.708,19.775L75.478,125.788l75.268-38.5Z" transform="translate(32.232 29.311)" fill="#fff"/>
            <path id="Trazado_183938" data-name="Trazado 183938" d="M58.937,164.4A24.934,24.934,0,0,1,36.978,127.6L84.344,40a19.41,19.41,0,0,1,32.965,20.5L77.814,124.3l72.949-37.311a.736.736,0,0,1,.632-.014.724.724,0,0,1,.4.485l7.121,28.457a.728.728,0,0,1-.376.824L70.227,161.688a24.842,24.842,0,0,1-11.29,2.708m41.931-132.08a18.179,18.179,0,0,0-3.392.32A17.773,17.773,0,0,0,85.6,40.728l-47.34,87.564a23.485,23.485,0,0,0,31.31,32.1l87.8-44.681L150.61,88.7l-74.454,38.08a.727.727,0,0,1-.95-1.029l40.869-66.024a18.062,18.062,0,0,0-4.589-23.887,17.765,17.765,0,0,0-10.617-3.529" transform="translate(31.886 28.96)"/>
            <path id="Trazado_183939" data-name="Trazado 183939" d="M135.857,69.325,133.05,84.908a3.357,3.357,0,0,1-1.512,2.233l-.091.058a3.517,3.517,0,0,1-5.407-3.458l2.9-15.642a3.39,3.39,0,0,1,2.076-2.51,3.505,3.505,0,0,1,4.843,3.737" transform="translate(118.185 61.276)" fill="#e8926d"/>
            <path id="Trazado_183940" data-name="Trazado 183940" d="M133.084,71.588,130.014,88.4a3.587,3.587,0,0,1-1.68,2.4l-.1.062c-2.868,1.762-6.646-.583-6.049-3.756l3.171-16.871a3.655,3.655,0,0,1,2.306-2.7c2.857-1.114,5.946,1.192,5.423,4.053" transform="translate(114.564 63.087)" fill="#e8926d"/>
            <path id="Trazado_183941" data-name="Trazado 183941" d="M127.3,75.467l-2.271,11.879a2.485,2.485,0,0,1-1.3,1.688l-.079.045c-2.235,1.223-5.215-.469-4.774-2.709l2.351-11.921a2.6,2.6,0,0,1,1.785-1.894c2.233-.767,4.671.892,4.285,2.913" transform="translate(111.483 67.884)" fill="#e8926d"/>
            <path id="Trazado_183942" data-name="Trazado 183942" d="M124.11,78.563l-2.052,9.813a2.044,2.044,0,0,1-1.264,1.378l-.079.033c-2.208.975-5.214-.483-4.814-2.333l2.132-9.846a2.248,2.248,0,0,1,1.75-1.537c2.211-.6,4.677.824,4.328,2.492" transform="translate(108.694 71.232)" fill="#e8926d"/>
            <path id="Trazado_183943" data-name="Trazado 183943" d="M140.4,39.181c3.1-18.7-7.813-36.072-24.366-38.815S83.55,10.559,80.455,29.254s7.813,36.074,24.366,38.815S137.3,57.876,140.4,39.181" transform="translate(74.983 0)" fill="#e8926d"/>
            <path id="Trazado_183944" data-name="Trazado 183944" d="M102.27,29.611s-4.169,33.64.876,45.548L77,46.409l4.184-5.966-7.673,2.13L65.74,34.034s14.222-7.6,19-11.189S108.853,1.584,115.391,1.288,98.942,21.554,98.942,21.554Z" transform="translate(61.671 1.205)"/>
            <path id="Trazado_183945" data-name="Trazado 183945" d="M89.276,19.559s11.185,12.644,23.635-3.675l.2,6.654,9.669,7.615,3.737-9-.843,11.39,8.072,9.3s-.789-19.261-3.68-25.3c-1.642-3.43-9.506-11.871-9.506-11.871l-17.678-.3Z" transform="translate(83.751 4.094)"/>
            <path id="Trazado_183946" data-name="Trazado 183946" d="M106.375,30.028l5.194,7.623-9.512-1.822Z" transform="translate(95.741 28.169)" fill="#e8926d"/>
            <path id="Trazado_183947" data-name="Trazado 183947" d="M109.416,39.567s8.146-15.069-7.623-21.385c0,0-7.03,21.385,7.623,21.385" transform="translate(93.913 17.057)" fill="#fff"/>
            <path id="Trazado_183948" data-name="Trazado 183948" d="M101.885,40.376a28.793,28.793,0,0,1-5.746,1.058l2.878-12.757Z" transform="translate(90.189 26.903)" fill="#5774cd"/>
            <path id="Trazado_183949" data-name="Trazado 183949" d="M123.06,17.99,86.714,25.134,85.445,9.12C92.211,2.34,101.431-1.195,110.859.367c10.76,1.781,19.106,9.766,22.8,20.259Z" transform="translate(80.157 0.001)"/>
            <path id="Trazado_183950" data-name="Trazado 183950" d="M99.65,30.517a7.983,7.983,0,1,0,7.983-7.983,7.983,7.983,0,0,0-7.983,7.983" transform="translate(93.483 21.139)"/>
            <path id="Trazado_183951" data-name="Trazado 183951" d="M111.1,27.431a.883.883,0,0,1-.172-.017.869.869,0,0,1-.682-1.025c.527-2.634-3.182-6-4.655-7.08a.871.871,0,0,1,1.025-1.409c.252.186,6.194,4.566,5.338,8.832a.872.872,0,0,1-.853.7" transform="translate(98.715 16.634)"/>
            <path id="Trazado_183952" data-name="Trazado 183952" d="M82.875,13.835c1.963-4.965,7.171-7.256,11.633-5.119s6.485,7.9,4.522,12.865S91.856,28.84,87.4,26.7s-6.485-7.9-4.522-12.865" transform="translate(77.042 7.426)" fill="#e8926d"/>
            <path id="Trazado_183953" data-name="Trazado 183953" d="M88.771,22.106a.871.871,0,0,1-.866-.791L86.893,10.357a.872.872,0,0,1,.787-.95.883.883,0,0,1,.948.787l1.012,10.96a.87.87,0,0,1-.787.948c-.027,0-.054,0-.081,0" transform="translate(81.512 8.822)"/>
            <path id="Trazado_183954" data-name="Trazado 183954" d="M85.009,15.278a.87.87,0,0,1-.017-1.74l5.861-.124a.822.822,0,0,1,.89.853.873.873,0,0,1-.853.89l-5.863.122Z" transform="translate(78.932 12.577)"/>
            <path id="Trazado_183955" data-name="Trazado 183955" d="M123.552,214.867l16.7,38-21.267,6.754L99.417,224.828Z" transform="translate(93.264 201.569)" fill="#d7e5ff"/>
            <path id="Trazado_183956" data-name="Trazado 183956" d="M64.935,194.1l21.73-29.488,22.577,21.292-22.4,25.705Z" transform="translate(60.916 154.428)" fill="#d7e5ff"/>
            <path id="Trazado_183957" data-name="Trazado 183957" d="M106.868,240.575l5.043,19.614-5.14,26.188H180l1.322-8.842a6.518,6.518,0,0,0-5.524-7.466c-9.832-1.343-27.951-5.494-34.9-18.112-1.254-2.277-.8-19.765-.8-19.765Z" transform="translate(100.163 217.823)" fill="#ffd947"/>
            <path id="Trazado_183958" data-name="Trazado 183958" d="M71.668,192.147a.715.715,0,0,1-.43-.141.727.727,0,0,1-.153-1.017l28.981-39.326a.728.728,0,1,1,1.171.864L72.254,191.854a.73.73,0,0,1-.585.293" transform="translate(66.552 141.997)"/>
            <path id="Trazado_183959" data-name="Trazado 183959" d="M80.762,199.754a.726.726,0,0,1-.548-1.2l25.9-29.731a.727.727,0,1,1,1.1.954L81.31,199.5a.732.732,0,0,1-.548.25" transform="translate(75.082 158.138)"/>
            <path id="Trazado_183960" data-name="Trazado 183960" d="M81.749,174.958,70.1,194.872l-18.838,7.654,33.6,67.462,7.433-2.316a6.489,6.489,0,0,0,4.258-8.2c-3.1-9.378-12.036-32.12-3.793-43.848,1.487-2.116,13.507-17.765,13.507-17.765Z" transform="translate(48.09 164.13)" fill="#ffd947"/>
            <path id="Trazado_183961" data-name="Trazado 183961" d="M180.6,258.293H107.634a.643.643,0,1,1,0-1.287H180.6a.643.643,0,1,1,0,1.287" transform="translate(100.369 241.1)"/>
            <path id="Trazado_183962" data-name="Trazado 183962" d="M86.554,257.453a.64.64,0,0,1-.581-.372l-31.7-68.652a.64.64,0,1,1,1.161-.537l31.706,68.652a.642.642,0,0,1-.314.851.653.653,0,0,1-.267.058" transform="translate(50.854 175.914)"/>
            <path id="Trazado_183963" data-name="Trazado 183963" d="M59.21,215.477a.64.64,0,0,1-.531-1l23.918-35.6a.64.64,0,1,1,1.062.713l-23.918,35.6a.638.638,0,0,1-.531.283" transform="translate(54.946 167.543)"/>
            <path id="Trazado_183964" data-name="Trazado 183964" d="M120.2,279.181a.643.643,0,0,1-.634-.537l-7.332-43.154a.642.642,0,0,1,.525-.742.65.65,0,0,1,.742.527l7.334,43.156a.646.646,0,0,1-.527.742,1.029,1.029,0,0,1-.109.008" transform="translate(105.276 220.212)"/>
            <path id="Trazado_183965" data-name="Trazado 183965" d="M138.243,73.947a.725.725,0,0,1-.6-.322L123.162,52.031a.727.727,0,0,1,1.207-.81l14.476,21.594a.729.729,0,0,1-.2,1.01.718.718,0,0,1-.4.122" transform="translate(115.425 47.749)" fill="#ffb6c8"/>
            <path id="Trazado_183966" data-name="Trazado 183966" d="M135.908,75.973a.725.725,0,0,1-.6-.322L120.827,54.059a.727.727,0,1,1,1.207-.81l14.476,21.592a.729.729,0,0,1-.2,1.01.718.718,0,0,1-.4.122" transform="translate(113.234 49.651)" fill="#ffb6c8"/>
            <path id="Trazado_183967" data-name="Trazado 183967" d="M119.752,85.574a.727.727,0,0,1-.6-.312l-12.509-18.04a.726.726,0,1,1,1.194-.828l12.511,18.038a.727.727,0,0,1-.184,1.012.708.708,0,0,1-.413.13" transform="translate(99.923 61.992)" fill="#ffb6c8"/>
            <path id="Trazado_183968" data-name="Trazado 183968" d="M23.164,99.851S96.679,138.169,94.681,192l-32.14-3.21a54.4,54.4,0,0,1-47.067-39.786l-2.665-9.745Z" transform="translate(12.016 93.671)" fill="#e1e8ff"/>
            <path id="Trazado_183969" data-name="Trazado 183969" d="M90.039,194.352a1.621,1.621,0,0,0,2.033-1.506c.835-22.507-11.454-45.858-35.545-67.528A202.326,202.326,0,0,0,19.686,99.2a1.621,1.621,0,0,0-1.5,2.874c.727.378,72.584,38.473,70.646,90.653a1.621,1.621,0,0,0,1.206,1.628" transform="translate(16.245 92.888)" fill="#5774cd"/>
          </g>
        </g>
      </g>
    </g>
  </g>
</svg>
