<svg xmlns="http://www.w3.org/2000/svg" xmlns:xlink="http://www.w3.org/1999/xlink" width="139" height="139" viewBox="0 0 139 139">
  <defs>
    <clipPath id="clip-path">
      <path id="path4791" d="M0-682.665H84.583v84.583H0Z" transform="translate(0 682.665)"/>
    </clipPath>
  </defs>
  <g id="Grupo_991677" data-name="Grupo 991677" transform="translate(4157 5025.711)">
    <rect id="Rectángulo_339720" data-name="Rectángulo 339720" width="139" height="139" rx="10" transform="translate(-4157 -5025.711)" fill="#feb0b3"/>
    <g id="g4785" transform="translate(-4128.583 -4316.046)">
      <g id="g4787" transform="translate(0 -682.665)">
        <g id="g4789" clip-path="url(#clip-path)">
          <g id="g4795" transform="translate(18.594 1.239)">
            <path id="path4797" d="M-252.52-146.32h-35.712v-20.693h35.712a3.338,3.338,0,0,1,3.338,3.338v14.018a3.338,3.338,0,0,1-3.338,3.338" transform="translate(288.233 167.013)" fill="#dff6fd"/>
          </g>
          <g id="g4799" transform="translate(18.595 1.239)">
            <path id="path4801" d="M0-146.32H8.009a8.629,8.629,0,0,0,.668-3.338v-14.018a8.629,8.629,0,0,0-.668-3.338H0Z" transform="translate(0 167.013)" fill="#c8effe"/>
          </g>
          <g id="g4803" transform="translate(1.239 1.239)">
            <path id="path4805" d="M-122.72-146.32h-14.018a3.338,3.338,0,0,1-3.338-3.338v-14.018a3.338,3.338,0,0,1,3.338-3.338h14.018a3.338,3.338,0,0,1,3.338,3.338v14.018a3.338,3.338,0,0,1-3.338,3.338" transform="translate(140.076 167.013)" fill="#fe7ab6"/>
          </g>
          <g id="g4807" transform="translate(13.254 1.239)">
            <path id="path4809" d="M-37.76,0H-43.1a3.338,3.338,0,0,1,3.338,3.338V17.356A3.338,3.338,0,0,1-43.1,20.693h5.34a3.338,3.338,0,0,0,3.338-3.338V3.338A3.338,3.338,0,0,0-37.76,0" transform="translate(43.1)" fill="#fe5ca7"/>
          </g>
          <g id="g4811" transform="translate(25.603 31.945)">
            <path id="path4813" d="M-252.52-146.32h-35.712v-20.693h35.712a3.338,3.338,0,0,1,3.338,3.338v14.018a3.338,3.338,0,0,1-3.338,3.338" transform="translate(288.233 167.013)" fill="#dff6fd"/>
          </g>
          <g id="g4815" transform="translate(25.603 31.945)">
            <path id="path4817" d="M0-146.32H8.009a8.629,8.629,0,0,0,.668-3.338v-14.018a8.629,8.629,0,0,0-.668-3.338H0Z" transform="translate(0 167.013)" fill="#c8effe"/>
          </g>
          <g id="g4819" transform="translate(8.248 31.945)">
            <path id="path4821" d="M-122.72-146.32h-14.018a3.338,3.338,0,0,1-3.338-3.338v-14.018a3.338,3.338,0,0,1,3.338-3.338h14.018a3.338,3.338,0,0,1,3.338,3.338v14.018a3.338,3.338,0,0,1-3.338,3.338" transform="translate(140.076 167.013)" fill="#ffe177"/>
          </g>
          <g id="g4823" transform="translate(20.263 31.945)">
            <path id="path4825" d="M-37.76,0H-43.1a3.338,3.338,0,0,1,3.338,3.338V17.356A3.338,3.338,0,0,1-43.1,20.693h5.34a3.338,3.338,0,0,0,3.338-3.338V3.338A3.338,3.338,0,0,0-37.76,0" transform="translate(43.1)" fill="#ffd15b"/>
          </g>
          <g id="g4827" transform="translate(18.594 62.651)">
            <path id="path4829" d="M-252.52-146.32h-35.712v-20.693h35.712a3.338,3.338,0,0,1,3.338,3.338v14.018a3.338,3.338,0,0,1-3.338,3.338" transform="translate(288.233 167.013)" fill="#dff6fd"/>
          </g>
          <g id="g4831" transform="translate(18.595 62.651)">
            <path id="path4833" d="M0-146.32H8.009a8.629,8.629,0,0,0,.668-3.338v-14.018a8.629,8.629,0,0,0-.668-3.338H0Z" transform="translate(0 167.013)" fill="#c8effe"/>
          </g>
          <g id="g4835" transform="translate(1.239 62.651)">
            <path id="path4837" d="M-122.72-146.32h-14.018a3.338,3.338,0,0,1-3.338-3.338v-14.018a3.338,3.338,0,0,1,3.338-3.338h14.018a3.338,3.338,0,0,1,3.338,3.338v14.018a3.338,3.338,0,0,1-3.338,3.338" transform="translate(140.076 167.013)" fill="#6b8dfc"/>
          </g>
          <g id="g4839" transform="translate(13.254 62.651)">
            <path id="path4841" d="M-37.76,0H-43.1a3.338,3.338,0,0,1,3.338,3.338V17.356A3.338,3.338,0,0,1-43.1,20.693h5.34a3.338,3.338,0,0,0,3.338-3.338V3.338A3.338,3.338,0,0,0-37.76,0" transform="translate(43.1)" fill="#a6bbff"/>
          </g>
          <g id="g4843" transform="translate(63.21 1.239)">
            <path id="path4845" d="M-139.6-60.6l-7.788-7.788a2.67,2.67,0,0,0-3.776,0l-7.788,7.788a1.335,1.335,0,0,0,0,1.888l1.888,1.888a1.335,1.335,0,0,0,1.888,0l3.23-3.23V11.6a1.335,1.335,0,0,0,1.335,1.335h2.67A1.335,1.335,0,0,0-146.61,11.6V-60.053l3.23,3.23a1.335,1.335,0,0,0,1.888,0l1.888-1.888a1.335,1.335,0,0,0,0-1.888" transform="translate(159.348 69.169)" fill="#528fd8"/>
          </g>
          <g id="g4847" transform="translate(18.595 21.932)">
            <path id="path4849" d="M-171.894,0H-196.2" transform="translate(196.204)" fill="none" stroke="#000" stroke-linecap="round" stroke-linejoin="round" stroke-miterlimit="10" stroke-width="2"/>
          </g>
          <g id="g4851" transform="translate(18.595 1.239)">
            <path id="path4853" d="M0,0H35.712a3.337,3.337,0,0,1,3.337,3.337V17.356a3.337,3.337,0,0,1-3.337,3.337h-5.62" fill="none" stroke="#000" stroke-linecap="round" stroke-linejoin="round" stroke-miterlimit="10" stroke-width="2"/>
          </g>
          <g id="g4855" transform="translate(1.239 1.239)">
            <path id="path4857" d="M-122.72-146.32h-14.018a3.338,3.338,0,0,1-3.338-3.338v-14.018a3.338,3.338,0,0,1,3.338-3.338h14.018a3.338,3.338,0,0,1,3.338,3.338v14.018A3.338,3.338,0,0,1-122.72-146.32Z" transform="translate(140.076 167.013)" fill="none" stroke="#000" stroke-linecap="round" stroke-linejoin="round" stroke-miterlimit="10" stroke-width="2"/>
          </g>
          <g id="g4859" transform="translate(9.303 6.245)">
            <path id="path4861" d="M0,0H2.283V10.68" fill="none" stroke="#000" stroke-linecap="round" stroke-linejoin="round" stroke-miterlimit="10" stroke-width="2"/>
          </g>
          <g id="g4863" transform="translate(39.288 8.915)">
            <path id="path4865" d="M-92.04,0h-13.017" transform="translate(105.057)" fill="none" stroke="#000" stroke-linecap="round" stroke-linejoin="round" stroke-miterlimit="10" stroke-width="2"/>
          </g>
          <g id="g4867" transform="translate(30.61 8.915)">
            <path id="path4869" d="M-23.6,0h-3.338" transform="translate(26.937)" fill="none" stroke="#000" stroke-linecap="round" stroke-linejoin="round" stroke-miterlimit="10" stroke-width="2"/>
          </g>
          <g id="g4871" transform="translate(27.272 14.256)">
            <path id="path4873" d="M-84.96,0H-96.976" transform="translate(96.976)" fill="none" stroke="#000" stroke-linecap="round" stroke-linejoin="round" stroke-miterlimit="10" stroke-width="2"/>
          </g>
          <g id="g4875" transform="translate(44.628 14.256)">
            <path id="path4877" d="M-30.68,0h-4.339" transform="translate(35.019)" fill="none" stroke="#000" stroke-linecap="round" stroke-linejoin="round" stroke-miterlimit="10" stroke-width="2"/>
          </g>
          <g id="g4879" transform="translate(25.603 31.945)">
            <path id="path4881" d="M0,0H35.712A3.338,3.338,0,0,1,39.05,3.338V17.356a3.338,3.338,0,0,1-3.338,3.338H0" fill="none" stroke="#000" stroke-linecap="round" stroke-linejoin="round" stroke-miterlimit="10" stroke-width="2"/>
          </g>
          <g id="g4883" transform="translate(8.248 31.945)">
            <path id="path4885" d="M-122.72-146.32h-14.018a3.338,3.338,0,0,1-3.338-3.338v-14.018a3.338,3.338,0,0,1,3.338-3.338h14.018a3.338,3.338,0,0,1,3.338,3.338v14.018A3.338,3.338,0,0,1-122.72-146.32Z" transform="translate(140.076 167.013)" fill="none" stroke="#000" stroke-linecap="round" stroke-linejoin="round" stroke-miterlimit="10" stroke-width="2"/>
          </g>
          <g id="g4887" transform="translate(46.297 39.621)">
            <path id="path4889" d="M-92.04,0h-13.017" transform="translate(105.057)" fill="none" stroke="#000" stroke-linecap="round" stroke-linejoin="round" stroke-miterlimit="10" stroke-width="2"/>
          </g>
          <g id="g4891" transform="translate(37.619 39.621)">
            <path id="path4893" d="M-23.6,0h-3.338" transform="translate(26.937)" fill="none" stroke="#000" stroke-linecap="round" stroke-linejoin="round" stroke-miterlimit="10" stroke-width="2"/>
          </g>
          <g id="g4895" transform="translate(34.281 44.962)">
            <path id="path4897" d="M-84.96,0H-96.976" transform="translate(96.976)" fill="none" stroke="#000" stroke-linecap="round" stroke-linejoin="round" stroke-miterlimit="10" stroke-width="2"/>
          </g>
          <g id="g4899" transform="translate(51.637 44.962)">
            <path id="path4901" d="M-30.68,0h-4.339" transform="translate(35.019)" fill="none" stroke="#000" stroke-linecap="round" stroke-linejoin="round" stroke-miterlimit="10" stroke-width="2"/>
          </g>
          <g id="g4903" transform="translate(15.706 36.951)">
            <path id="path4905" d="M-40.846-75.52H-46.2s.389-.507,3.743-5.3a4.956,4.956,0,0,0,1.17-2.689A2.691,2.691,0,0,0-43.982-86.2a2.692,2.692,0,0,0-2.64,2.169" transform="translate(46.623 86.2)" fill="none" stroke="#000" stroke-linecap="round" stroke-linejoin="round" stroke-miterlimit="10" stroke-width="2"/>
          </g>
          <g id="g4907" transform="translate(18.595 62.651)">
            <path id="path4909" d="M-117.2,0h19.137a3.337,3.337,0,0,1,3.337,3.337V17.356a3.337,3.337,0,0,1-3.337,3.337h-35.712" transform="translate(133.773)" fill="none" stroke="#000" stroke-linecap="round" stroke-linejoin="round" stroke-miterlimit="10" stroke-width="2"/>
          </g>
          <g id="g4911" transform="translate(18.595 62.651)">
            <path id="path4913" d="M-76.314,0H-87.106" transform="translate(87.106)" fill="none" stroke="#000" stroke-linecap="round" stroke-linejoin="round" stroke-miterlimit="10" stroke-width="2"/>
          </g>
          <g id="g4915" transform="translate(1.239 62.651)">
            <path id="path4917" d="M-122.72-146.32h-14.018a3.338,3.338,0,0,1-3.338-3.338v-14.018a3.338,3.338,0,0,1,3.338-3.338h14.018a3.338,3.338,0,0,1,3.338,3.338v14.018A3.338,3.338,0,0,1-122.72-146.32Z" transform="translate(140.076 167.013)" fill="none" stroke="#000" stroke-linecap="round" stroke-linejoin="round" stroke-miterlimit="10" stroke-width="2"/>
          </g>
          <g id="g4919" transform="translate(39.288 70.327)">
            <path id="path4921" d="M-92.04,0h-13.017" transform="translate(105.057)" fill="none" stroke="#000" stroke-linecap="round" stroke-linejoin="round" stroke-miterlimit="10" stroke-width="2"/>
          </g>
          <g id="g4923" transform="translate(30.61 70.327)">
            <path id="path4925" d="M-23.6,0h-3.338" transform="translate(26.937)" fill="none" stroke="#000" stroke-linecap="round" stroke-linejoin="round" stroke-miterlimit="10" stroke-width="2"/>
          </g>
          <g id="g4927" transform="translate(27.272 75.667)">
            <path id="path4929" d="M-84.96,0H-96.976" transform="translate(96.976)" fill="none" stroke="#000" stroke-linecap="round" stroke-linejoin="round" stroke-miterlimit="10" stroke-width="2"/>
          </g>
          <g id="g4931" transform="translate(44.628 75.667)">
            <path id="path4933" d="M-30.68,0h-4.339" transform="translate(35.019)" fill="none" stroke="#000" stroke-linecap="round" stroke-linejoin="round" stroke-miterlimit="10" stroke-width="2"/>
          </g>
          <g id="g4935" transform="translate(8.916 67.657)">
            <path id="path4937" d="M-.354-15.221a2.671,2.671,0,0,1,2.62-2.153,2.67,2.67,0,0,1,2.67,2.67,2.67,2.67,0,0,1-2.67,2.67,2.67,2.67,0,0,1,2.67,2.67,2.67,2.67,0,0,1-2.67,2.67,2.67,2.67,0,0,1-2.644-2.3A2.687,2.687,0,0,1-.4-9.363" transform="translate(0.404 17.373)" fill="none" stroke="#000" stroke-linecap="round" stroke-linejoin="round" stroke-miterlimit="10" stroke-width="2"/>
          </g>
          <g id="g4939" transform="translate(63.209 1.239)">
            <path id="path4941" d="M-90.063-217.777v49.972a1.334,1.334,0,0,1-1.335,1.335h-2.67a1.335,1.335,0,0,1-1.335-1.335V-239.46l-3.23,3.23a1.334,1.334,0,0,1-1.888,0l-1.888-1.887a1.334,1.334,0,0,1,0-1.888l7.788-7.789a2.671,2.671,0,0,1,3.776,0L-83.057-240a1.334,1.334,0,0,1,0,1.888l-1.888,1.887a1.332,1.332,0,0,1-1.887,0l-3.231-3.23v15.9" transform="translate(102.8 248.576)" fill="none" stroke="#000" stroke-linecap="round" stroke-linejoin="round" stroke-miterlimit="10" stroke-width="2"/>
          </g>
        </g>
      </g>
    </g>
  </g>
</svg>
