<svg xmlns="http://www.w3.org/2000/svg" xmlns:xlink="http://www.w3.org/1999/xlink" width="226" height="598" viewBox="0 0 226 598">
  <defs>
    <clipPath id="clip-path">
      <rect id="Rectángulo_341554" data-name="Rectángulo 341554" width="226" height="598" transform="translate(180 776.638)" fill="#fff" stroke="#707070" stroke-width="1"/>
    </clipPath>
    <clipPath id="clip-path-2">
      <rect id="Rectángulo_341322" data-name="Rectángulo 341322" width="279.282" height="553.094" fill="#fff" stroke="#707070" stroke-width="1" opacity="0.58"/>
    </clipPath>
    <clipPath id="clip-path-3">
      <path id="Trazado_693006" data-name="Trazado 693006" d="M38,0H267.913V408.156H0V38A38,38,0,0,1,38,0Z" fill="#a6bbff" stroke="#707070" stroke-width="1" opacity="0.58"/>
    </clipPath>
    <clipPath id="clip-path-4">
      <rect id="Rectángulo_341564" data-name="Rectángulo 341564" width="207" height="545" transform="translate(193 916)" fill="#fff" stroke="#707070" stroke-width="1" opacity="0.31"/>
    </clipPath>
    <clipPath id="clip-path-5">
      <rect id="Rectángulo_341563" data-name="Rectángulo 341563" width="211.346" height="545.138" fill="none"/>
    </clipPath>
    <clipPath id="clip-path-7">
      <path id="Trazado_692968" data-name="Trazado 692968" d="M85.172,28.376s4.591,8.7,13.306,2.113a6.31,6.31,0,0,0-6.12-4.446,14.843,14.843,0,0,0-7.186,2.333" transform="translate(-85.172 -26.043)" fill="none"/>
    </clipPath>
    <clipPath id="clip-path-9">
      <path id="Trazado_692972" data-name="Trazado 692972" d="M101.187,30.663c7.084,5.529,9.351-2.71,9.351-2.71a6.188,6.188,0,0,0-4.1-1.978c-3.468,0-5.247,4.687-5.247,4.687" transform="translate(-101.187 -25.976)" fill="none"/>
    </clipPath>
    <clipPath id="clip-path-11">
      <rect id="Rectángulo_341560" data-name="Rectángulo 341560" width="17.206" height="15.172" fill="none"/>
    </clipPath>
    <clipPath id="clip-path-12">
      <rect id="Rectángulo_341561" data-name="Rectángulo 341561" width="19.881" height="14.877" fill="none"/>
    </clipPath>
  </defs>
  <g id="Grupo_991719" data-name="Grupo 991719" transform="translate(-180 -863)">
    <g id="Enmascarar_grupo_985003" data-name="Enmascarar grupo 985003" transform="translate(0 86.362)" clip-path="url(#clip-path)">
      <g id="Grupo_991596" data-name="Grupo 991596" transform="translate(180.656 777.376)">
        <g id="Grupo_990933" data-name="Grupo 990933" transform="translate(0 0)">
          <rect id="Rectángulo_338981" data-name="Rectángulo 338981" width="211.935" height="597.262" transform="translate(82.409)" fill="#6b8dfc"/>
          <path id="Rectángulo_338982" data-name="Rectángulo 338982" d="M21,0H142.86a21,21,0,0,1,21,21V569.366a0,0,0,0,1,0,0H21a21,21,0,0,1-21-21V21A21,21,0,0,1,21,0Z" transform="translate(0 27.896)" fill="#3c3fa7"/>
          <g id="Enmascarar_grupo_984978" data-name="Enmascarar grupo 984978" transform="translate(0 44.168)" clip-path="url(#clip-path-2)">
            <path id="Unión_149" data-name="Unión 149" d="M109.175,33.738C94.291,15.182,74.041,1.517,53.206-2.053,16.1-8.41-8.814,19.668-2.433,60.665s41.638,79.385,78.748,85.743c22.049,3.778,39.791-4.6,49.221-20.626,19.275,30.614,49.805,54.184,81.385,59.594,27.369,4.689,49.544-5.285,61.832-24.633,14.74,26.651,40.4,47.678,67.007,52.237,37.109,6.358,62.02-21.721,55.639-62.717s-41.638-79.385-78.748-85.743c-17.748-3.041-32.705,1.8-42.783,12.155C253.045,36.086,216.007,2.331,177.4-4.284,144.277-9.958,118.764,5.839,109.175,33.738Z" transform="matrix(-0.809, -0.588, 0.588, -0.809, 201.149, 806.655)" fill="#1d206f"/>
          </g>
        </g>
        <g id="Enmascarar_grupo_985005" data-name="Enmascarar grupo 985005" transform="translate(26.431 189.105)" clip-path="url(#clip-path-3)">
          <g id="Grupo_990934" data-name="Grupo 990934" transform="translate(-146.115)">
            <path id="Trazado_692023" data-name="Trazado 692023" d="M23.489,224.446H500.915V0H23.489C10.517,0,0,9.79,0,21.869V202.577c0,12.079,10.517,21.869,23.489,21.869" transform="translate(4.635)" fill="#c3cef1"/>
            <path id="Trazado_692024" data-name="Trazado 692024" d="M8.517,140.569H505.551v-16.2H8.517c-4.7,0-8.517,3.549-8.517,7.929v.343c0,4.378,3.812,7.929,8.517,7.929" transform="translate(0 91.283)" fill="#eeecf1"/>
            <path id="Trazado_692025" data-name="Trazado 692025" d="M37.784,133.126H86.935V121.071c0-5.245-4.567-9.5-10.2-9.5H47.983c-5.632,0-10.2,4.25-10.2,9.5Z" transform="translate(348.246 82.524)" fill="#e8e8e8"/>
            <path id="Trazado_692027" data-name="Trazado 692027" d="M24.157,19.756H264.2a1.9,1.9,0,1,0,0-3.8H24.157a1.9,1.9,0,1,0,0,3.8" transform="translate(198.119 11.713)" fill="#fff"/>
            <path id="Trazado_692028" data-name="Trazado 692028" d="M23.826,27.513H248.913a1.911,1.911,0,0,0,1.976-1.84v-.12a1.911,1.911,0,0,0-1.976-1.838H23.826a1.911,1.911,0,0,0-1.976,1.838v.12a1.911,1.911,0,0,0,1.976,1.84" transform="translate(213.968 17.407)" fill="#fff"/>
            <path id="Trazado_692029" data-name="Trazado 692029" d="M23.675,35.27H215.743a1.765,1.765,0,0,0,1.825-1.7v-.4a1.766,1.766,0,0,0-1.825-1.7H23.675a1.765,1.765,0,0,0-1.825,1.7v.4a1.764,1.764,0,0,0,1.825,1.7" transform="translate(247.288 23.101)" fill="#fff"/>
            <path id="Trazado_692030" data-name="Trazado 692030" d="M24.3,57.866H264.345a1.9,1.9,0,1,0,0-3.8H24.3a1.9,1.9,0,1,0,0,3.8" transform="translate(197.701 39.686)" fill="#fff"/>
            <path id="Trazado_692031" data-name="Trazado 692031" d="M23.972,65.623H249.061a1.911,1.911,0,0,0,1.974-1.84v-.118a1.911,1.911,0,0,0-1.974-1.84H23.972A1.911,1.911,0,0,0,22,63.666v.118a1.912,1.912,0,0,0,1.976,1.84" transform="translate(213.55 45.379)" fill="#fff"/>
            <path id="Trazado_692032" data-name="Trazado 692032" d="M23.823,73.381H215.891a1.766,1.766,0,0,0,1.825-1.7v-.4a1.766,1.766,0,0,0-1.825-1.7H23.823A1.767,1.767,0,0,0,22,71.283v.4a1.767,1.767,0,0,0,1.827,1.7" transform="translate(246.869 51.073)" fill="#fff"/>
          </g>
        </g>
      </g>
    </g>
    <g id="Enmascarar_grupo_985004" data-name="Enmascarar grupo 985004" transform="translate(-5)" clip-path="url(#clip-path-4)">
      <g id="Grupo_991615" data-name="Grupo 991615" transform="translate(187.327 915.862)">
        <g id="Grupo_991614" data-name="Grupo 991614" clip-path="url(#clip-path-5)">
          <rect id="Rectángulo_341555" data-name="Rectángulo 341555" width="23.66" height="32.403" transform="translate(134.604 497.108)" fill="#fff"/>
          <g id="Grupo_991599" data-name="Grupo 991599">
            <g id="Grupo_991598" data-name="Grupo 991598" clip-path="url(#clip-path-5)">
              <path id="Trazado_692932" data-name="Trazado 692932" d="M120.57,377.96l-9.336,6.225-10.384-3.279a3.63,3.63,0,0,0-4.723,3.461v13.3h69.846s-.09-11.654-17.391-8.848l-24.467-11.143a3.66,3.66,0,0,0-3.545.285" transform="translate(36.435 143.025)"/>
              <rect id="Rectángulo_341556" data-name="Rectángulo 341556" width="17.246" height="4.449" transform="translate(132.562 540.689)"/>
              <path id="Trazado_692933" data-name="Trazado 692933" d="M108.633,392.08l9.146,4.449h43.455V392.08Z" transform="translate(41.175 148.609)"/>
              <path id="Trazado_692934" data-name="Trazado 692934" d="M50.358,360.477h23.66l-4.126,32.4H46.232Z" transform="translate(17.523 136.631)" fill="#fff"/>
              <path id="Trazado_692935" data-name="Trazado 692935" d="M69.19,377.96l-9.336,6.225-10.385-3.279a3.63,3.63,0,0,0-4.722,3.461v13.3h69.846s-.09-11.654-17.391-8.848L72.736,377.674a3.66,3.66,0,0,0-3.545.285" transform="translate(16.96 143.025)"/>
              <rect id="Rectángulo_341557" data-name="Rectángulo 341557" width="17.246" height="4.449" transform="translate(61.707 540.689)"/>
              <path id="Trazado_692936" data-name="Trazado 692936" d="M57.253,392.08l9.146,4.449h43.455V392.08Z" transform="translate(21.701 148.609)"/>
              <path id="Trazado_692937" data-name="Trazado 692937" d="M142.9,142.67s2.339,4.565,3.8,47.906c.3,8.909,1.724,24.856,1.82,39.191L147.9,456.708H111.139l-4.176-237.14-27.01,237.14-37.206-.974L64.68,151.06,99.5,146.811Z" transform="translate(16.202 54.076)" fill="#12263f"/>
              <line id="Línea_1647" data-name="Línea 1647" y1="7.958" x2="18.486" transform="translate(123.164 265.684)" fill="none" stroke="#000" stroke-linecap="round" stroke-linejoin="round" stroke-width="0.457"/>
              <path id="Trazado_692938" data-name="Trazado 692938" d="M114.17,156.645l35.4,76.951,11.257-.779c-13.663-52.529-13.64-52.447-23.674-84.843-1.59-5.131-11.935-6.36-16.922-4.363-4.674,1.871-7.927,8.36-6.061,13.035" transform="translate(43.071 54.088)" fill="#e9b089"/>
              <path id="Trazado_692939" data-name="Trazado 692939" d="M139.213,204.613s-2.961,10.459,2.011,19.953L140.2,235a3.147,3.147,0,0,0,2.492,3.409A3.381,3.381,0,0,0,146.615,236l1.676-6.113.593,2.1a15.467,15.467,0,0,1-.64,10.161l-3.859,9.257c-.439,1.052-1.652.865-.946,1.728a3.137,3.137,0,0,0,5.129-.527l7.968-10.157a17.668,17.668,0,0,0,1.434-14.521l-10.2-26.952Z" transform="translate(52.434 76.172)" fill="#e9b089"/>
              <path id="Trazado_692940" data-name="Trazado 692940" d="M141.714,172.2l-3.059-48.98c-4.334-37.532-27.765-47.545-27.765-47.545l-1.976,63.886,7.106-3.9,5.047,66.607,21.492,49.962,21.041-8.765Z" transform="translate(41.281 28.684)" fill="#212e38"/>
              <path id="Trazado_692941" data-name="Trazado 692941" d="M94.977,69.269a104.434,104.434,0,0,0-29.1,6.622A76.2,76.2,0,0,0,58.3,79.284c-6.641,3.475-4.654,10.983-3.82,18.649l3.9,103.651,81.048-1.966a6.511,6.511,0,0,0,6.346-6.868l-3.206-83.126c-.306-14.587-2.831-28.78-12.607-32.228-10.952-3.861-24.321-8.186-30.148-8.538Z" transform="translate(20.293 26.099)" fill="#39505e"/>
              <path id="Trazado_692942" data-name="Trazado 692942" d="M118.54,75.686s-15.393-6.028-25.218-6.829c0,0-13.425.571-22.655,3.414l33.622,44.249Z" transform="translate(26.785 26.099)" fill="#fff"/>
              <path id="Trazado_692943" data-name="Trazado 692943" d="M93.616,74.4,86.84,82.944,94.9,88.8l6.414-6.8Z" transform="translate(32.915 28.198)" fill="#212e38"/>
              <path id="Trazado_692944" data-name="Trazado 692944" d="M92.56,82.2,88.5,99.577l9.033,11.887,3.151-9.031L95.294,82.2Z" transform="translate(33.543 31.156)" fill="#212e38"/>
              <path id="Trazado_692945" data-name="Trazado 692945" d="M90.126,81.427l-1.869,2.816-10.9-4.625" transform="translate(29.322 30.177)" fill="none" stroke="#e0e0e0" stroke-linecap="round" stroke-linejoin="round" stroke-width="0.75"/>
              <path id="Trazado_692946" data-name="Trazado 692946" d="M97.334,80.466l2.492,2.343,5.706-4.374" transform="translate(36.892 29.729)" fill="none" stroke="#e0e0e0" stroke-linecap="round" stroke-linejoin="round" stroke-width="0.75"/>
              <path id="Trazado_692947" data-name="Trazado 692947" d="M71.564,75.845S55.669,79.311,2.352,151.7l27.467,21.462L73.86,122.192c17.282-22.562-2.3-46.347-2.3-46.347" transform="translate(9.153 28.533)" fill="#212e38"/>
              <path id="Trazado_692948" data-name="Trazado 692948" d="M48.409,92.936l59.484,21.623-4.977,14.43L45.251,107.382Z" transform="translate(17.151 35.225)" fill="#284194"/>
              <path id="Trazado_692949" data-name="Trazado 692949" d="M102.281,121.907l2.191-7.012L48.36,94.986l-2.006,7.192Z" transform="translate(17.569 36.002)" fill="#fff"/>
              <path id="Trazado_692950" data-name="Trazado 692950" d="M56.11,97.807,27.244,180.692,86.69,201.168l29.6-81.964Z" transform="translate(10.326 37.071)" fill="#6b8dfc"/>
              <path id="Trazado_692951" data-name="Trazado 692951" d="M56.383,99.652l-.876-6.716L26.524,175.448l.993,7.09Z" transform="translate(10.053 35.226)" fill="#284194"/>
              <path id="Trazado_692952" data-name="Trazado 692952" d="M86.558,136.715l-37.708-13.4,3.409-9.963,37.708,13.4Z" transform="translate(18.516 42.965)" fill="#fff"/>
              <path id="Trazado_692953" data-name="Trazado 692953" d="M34.14,135.4l43.736,15.881L75.7,167.661l-44.711-8.353Z" transform="translate(11.746 51.321)" fill="#e9b089"/>
              <path id="Trazado_692954" data-name="Trazado 692954" d="M65.587,147.994s27.923-9.463,28.376,1.018-1.08,35.611-30.552,15.362Z" transform="translate(24.035 54.608)" fill="#e9b089"/>
              <path id="Trazado_692955" data-name="Trazado 692955" d="M64.435,151.5l3.266-4.74a16.577,16.577,0,0,1,7.637-6.042l5.728-2.23a3.188,3.188,0,0,1,3.285,5.345l-7.7,6.9Z" transform="translate(24.423 52.409)" fill="#e9b089"/>
              <path id="Trazado_692956" data-name="Trazado 692956" d="M23.827,127.562l56.7,18.371-5.247,28.855-63.29-15.8a16.829,16.829,0,1,1,11.835-31.424" transform="translate(8.261 47.772)" fill="#212e38"/>
              <line id="Línea_1648" data-name="Línea 1648" x1="15.386" y1="4.985" transform="translate(30.711 177.563)" fill="none" stroke="#e0e0e0" stroke-linecap="round" stroke-linejoin="round" stroke-width="0.75"/>
              <path id="Trazado_692957" data-name="Trazado 692957" d="M89.553,5.424s19.166-8.59,29.093,1.866c7.787,8.2-5.469,22.491-12.563,21.691S89.553,5.424,89.553,5.424" transform="translate(33.943 0.798)" fill="#fff"/>
              <path id="Trazado_692958" data-name="Trazado 692958" d="M101.186,43.894a22.467,22.467,0,0,1,2.292-8.2c1.8-3.562,4.574-6.989,8.833-5.04,7.252,3.319.281,15.149-7.1,16.193-2.172.306-4.181-1.172-4.025-2.951" transform="translate(38.349 11.404)" fill="#d7896d"/>
              <path id="Trazado_692959" data-name="Trazado 692959" d="M124.356,30.417c.218,15.405-11.274,28.029-27.862,28.263S66.28,46.618,66.062,31.213,79.114,3.129,95.7,2.893s28.436,12.119,28.653,27.524" transform="translate(25.038 1.095)" fill="#fff"/>
              <path id="Trazado_692960" data-name="Trazado 692960" d="M82.953,39.332,79.575,81.074l16.8,6.611,6.313-4.806-1.83-39Z" transform="translate(30.161 14.908)" fill="#e9b089"/>
              <path id="Trazado_692961" data-name="Trazado 692961" d="M100.067,65.543,84.576,50.855l14.466-6.141Z" transform="translate(32.057 16.948)" fill="#d7896d"/>
              <path id="Trazado_692962" data-name="Trazado 692962" d="M88.474,7.893a33.467,33.467,0,0,1,15.635-.838c7.01,1.374,16.033,5.642,17.334,18.406,2.171,21.273-.178,38.48-10.628,43.449-8.022,3.814-13.921,2.468-23.293-2.816-3.488-1.966-6.913-10.471-7.909-14.535L75.463,40.223s-11.2-25.344,13.011-32.33" transform="translate(27.622 2.46)" fill="#e9b089"/>
              <path id="Trazado_692963" data-name="Trazado 692963" d="M99.346,31.3l2.524,4.868-1.909,1.547" transform="translate(37.655 11.862)" fill="none" stroke="#000" stroke-linecap="round" stroke-linejoin="round" stroke-width="0.447"/>
              <path id="Trazado_692964" data-name="Trazado 692964" d="M101.474,18.488a2.826,2.826,0,0,0,2.439,3.639,20.979,20.979,0,0,1,5.477,1.321,1.655,1.655,0,0,0,2.177-.807,2.31,2.31,0,0,0-.008-2.223,8.056,8.056,0,0,0-5.484-4.009c-3.89-.724-4.6,2.078-4.6,2.078" transform="translate(38.424 6.174)" fill="#fff"/>
              <path id="Trazado_692965" data-name="Trazado 692965" d="M98.83,18.4s1.117,3.06-3.478,3.707a53.007,53.007,0,0,0-9.621,2.707,2.692,2.692,0,0,1-3.021-.749,1.752,1.752,0,0,1,.057-2.224,18.94,18.94,0,0,1,9.682-5.4c5.444-.829,6.382,1.957,6.382,1.957" transform="translate(31.208 6.174)" fill="#fff"/>
              <path id="Trazado_692966" data-name="Trazado 692966" d="M98.48,30.489s-2.295-8.4-13.308-2.111c0,0,4.592,8.7,13.308,2.111" transform="translate(32.283 9.871)" fill="#fff"/>
            </g>
          </g>
          <g id="Grupo_991601" data-name="Grupo 991601" transform="translate(117.455 35.914)">
            <g id="Grupo_991600" data-name="Grupo 991600" clip-path="url(#clip-path-7)">
              <path id="Trazado_692967" data-name="Trazado 692967" d="M95.337,29.39A3.847,3.847,0,1,1,91,25.966a3.907,3.907,0,0,1,4.334,3.424" transform="translate(-84.222 -26.085)"/>
            </g>
          </g>
          <g id="Grupo_991603" data-name="Grupo 991603">
            <g id="Grupo_991602" data-name="Grupo 991602" clip-path="url(#clip-path-5)">
              <path id="Trazado_692969" data-name="Trazado 692969" d="M85.09,28.277a11.628,11.628,0,0,1,3.475-1.818,12.633,12.633,0,0,1,3.886-.669,7.855,7.855,0,0,1,3.879,1.026,5.421,5.421,0,0,1,2.464,3.319.5.5,0,1,1-.979.236l0-.017L97.8,30.3a4.53,4.53,0,0,0-1.936-2.753,7.048,7.048,0,0,0-3.439-1.032,11.927,11.927,0,0,0-3.679.523,11.065,11.065,0,0,0-3.361,1.627.244.244,0,0,1-.342-.048.25.25,0,0,1,.047-.341" transform="translate(32.216 9.776)"/>
              <path id="Trazado_692970" data-name="Trazado 692970" d="M101.187,30.663s3.187-8.4,9.351-2.71c0,0-2.267,8.24-9.351,2.71" transform="translate(38.353 9.846)" fill="#fff"/>
            </g>
          </g>
          <g id="Grupo_991605" data-name="Grupo 991605" transform="translate(139.54 35.822)">
            <g id="Grupo_991604" data-name="Grupo 991604" clip-path="url(#clip-path-9)">
              <path id="Trazado_692971" data-name="Trazado 692971" d="M102.745,29.047c-.3,2,.735,3.817,2.318,4.056s3.112-1.186,3.416-3.187-.735-3.816-2.318-4.054-3.112,1.187-3.416,3.186" transform="translate(-100.616 -26.029)"/>
            </g>
          </g>
          <g id="Grupo_991613" data-name="Grupo 991613">
            <g id="Grupo_991612" data-name="Grupo 991612" clip-path="url(#clip-path-5)">
              <path id="Trazado_692973" data-name="Trazado 692973" d="M110.433,28.135a4.344,4.344,0,0,0-1.809-1.481,3.623,3.623,0,0,0-2.255-.168l-.04.01a5.384,5.384,0,0,0-2.754,1.414A7.187,7.187,0,0,0,101.85,30.5l-.011.028a.425.425,0,1,1-.793-.3l0-.011a7.815,7.815,0,0,1,.865-1.542,7.71,7.71,0,0,1,1.171-1.3,6.1,6.1,0,0,1,1.467-.968,6.012,6.012,0,0,1,1.682-.5l-.04.008a3.95,3.95,0,0,1,1.351-.072,4.071,4.071,0,0,1,1.28.353,4.807,4.807,0,0,1,1.944,1.713.206.206,0,0,1-.338.236" transform="translate(38.288 9.781)"/>
              <path id="Trazado_692974" data-name="Trazado 692974" d="M105.189,38.109a2.862,2.862,0,0,0-1.991-1.744c-1.527-.383-4.242-.444-7.015,2.515-4.2,4.483-8.127,4.2-9.528,3.221,0,0,7.565,9.667,17.373,1.542,0,0,2.229-2.748,1.161-5.534" transform="translate(32.845 13.712)" fill="#fff"/>
              <path id="Trazado_692975" data-name="Trazado 692975" d="M99.264,40.394a3.56,3.56,0,0,1,4.061-4.185,7.136,7.136,0,0,1,4.318,2.423c3.839,4.094,6.189,3.838,7.469,2.943,0,0-5.677,8.829-14.634,1.407a6.861,6.861,0,0,1-1.214-2.587" transform="translate(37.594 13.712)" fill="#fff"/>
              <g id="Grupo_991608" data-name="Grupo 991608" transform="translate(138.566 31.78)" opacity="0.22">
                <g id="Grupo_991607" data-name="Grupo 991607">
                  <g id="Grupo_991606" data-name="Grupo 991606" clip-path="url(#clip-path-11)">
                    <path id="Trazado_692976" data-name="Trazado 692976" d="M110.08,23.4l7.607,8.281s.058,5.944-5.5,6.537L100.481,25.084s.663-3.057,9.6-1.685" transform="translate(-100.481 -23.045)" fill="#fff"/>
                  </g>
                </g>
              </g>
              <g id="Grupo_991611" data-name="Grupo 991611" transform="translate(112.593 32.118)" opacity="0.22">
                <g id="Grupo_991610" data-name="Grupo 991610">
                  <g id="Grupo_991609" data-name="Grupo 991609" clip-path="url(#clip-path-12)">
                    <path id="Trazado_692977" data-name="Trazado 692977" d="M92.56,23.305l8.968,9.39s0,6.037-6.861,5.428L81.646,24.269s2.693-1.127,10.914-.964" transform="translate(-81.647 -23.29)" fill="#fff"/>
                  </g>
                </g>
              </g>
              <path id="Trazado_692978" data-name="Trazado 692978" d="M102.6,27.364a22.746,22.746,0,0,1-1.875,8.409,4.313,4.313,0,0,1-3.646,2.353l-10.847-.037a4.811,4.811,0,0,1-4.322-3.923,20.5,20.5,0,0,1-.254-6.548,4.472,4.472,0,0,1,3.594-3.845c3.494-.637,14.605-.327,14.605-.327A3.683,3.683,0,0,1,102.6,27.364Z" transform="translate(30.89 8.858)" fill="none" stroke="#000" stroke-linecap="round" stroke-linejoin="round" stroke-width="1.009"/>
              <path id="Trazado_692979" data-name="Trazado 692979" d="M87.477,23.019,80.36,23.4a.766.766,0,0,0-.725.793l.048,1.313a.765.765,0,0,0,.327.6l2.353,1.645s1.27-4.3,5.115-4.731" transform="translate(30.183 8.725)"/>
              <path id="Trazado_692980" data-name="Trazado 692980" d="M100.5,27.237c.179,2.226.279,5.691,1.72,8.562a4.312,4.312,0,0,0,3.646,2.353l7.15-.037a4.811,4.811,0,0,0,4.322-3.923,20.5,20.5,0,0,0,.254-6.548A4.472,4.472,0,0,0,114,23.8a75.6,75.6,0,0,0-10.752-.48C101.144,23.472,100.353,25.434,100.5,27.237Z" transform="translate(38.085 8.832)" fill="none" stroke="#000" stroke-linecap="round" stroke-linejoin="round" stroke-width="1.009"/>
              <path id="Trazado_692981" data-name="Trazado 692981" d="M109.178,23.019l7.117.381a.766.766,0,0,1,.725.793l-.048,1.313a.765.765,0,0,1-.327.6l-2.353,1.645s-1.27-4.3-5.115-4.731" transform="translate(41.382 8.725)"/>
              <path id="Trazado_692982" data-name="Trazado 692982" d="M101.933,28.77s-1.793-1.82-5.272.25" transform="translate(36.637 10.624)" fill="none" stroke="#000" stroke-linecap="round" stroke-linejoin="round" stroke-width="1.009"/>
              <line id="Línea_1649" data-name="Línea 1649" y1="8.976" x2="9.16" transform="translate(103.434 34.656)" fill="none" stroke="#000" stroke-linecap="round" stroke-linejoin="round" stroke-width="1.009"/>
              <path id="Trazado_692983" data-name="Trazado 692983" d="M84.283,43.986a23.621,23.621,0,0,0-3.573-8.216c-2.388-3.452-5.778-6.623-9.935-3.976-7.079,4.507,1.9,15.828,9.74,15.849,2.306.006,4.187-1.826,3.768-3.657" transform="translate(25.852 11.678)" fill="#e9b089"/>
              <path id="Trazado_692984" data-name="Trazado 692984" d="M71.538,35.775C77.072,33.8,80.122,40,80.122,40" transform="translate(27.115 13.413)" fill="none" stroke="#000" stroke-linecap="round" stroke-linejoin="round" stroke-width="0.447"/>
              <path id="Trazado_692985" data-name="Trazado 692985" d="M105.168,7.8s-7.2-2-9.939,5.218c-3.8,10-15.266,14.42-25.144,11.389,0,0,2.262-14.24,16.9-18.418S105.168,7.8,105.168,7.8" transform="translate(26.565 1.71)" fill="#fff"/>
              <path id="Trazado_692986" data-name="Trazado 692986" d="M106.828,6.222S103.616-1.317,90.159.2C74.088,2.017,64.613,15.642,67.145,23.675,69.1,29.863,81.942,21,81.942,21Z" transform="translate(25.296 0)" fill="#fff"/>
            </g>
          </g>
        </g>
      </g>
    </g>
  </g>
</svg>
