<svg xmlns="http://www.w3.org/2000/svg" width="139" height="139" viewBox="0 0 139 139">
  <g id="Grupo_991627" data-name="Grupo 991627" transform="translate(4157 11506.217)">
    <rect id="Rect치ngulo_339040" data-name="Rect치ngulo 339040" width="139" height="139" rx="10" transform="translate(-4157 -11506.217)" fill="#feb0b3"/>
    <g id="Grupo_991479" data-name="Grupo 991479" transform="translate(-4125.5 -11475.8)">
      <g id="Grupo_991478" data-name="Grupo 991478">
        <g id="presentacion" transform="translate(0 0)">
          <g id="Grupo_987306" data-name="Grupo 987306" transform="translate(1.239 1.239)">
            <path id="Trazado_604162" data-name="Trazado 604162" d="M28.229,26.148h75.256v57.1H28.229Z" transform="translate(-24.846 -23.067)" fill="#9ed3fd"/>
            <path id="Trazado_604163" data-name="Trazado 604163" d="M449.789,26.148H455.4v57.1h-5.614Z" transform="translate(-376.764 -23.067)" fill="#66a7da"/>
            <path id="Trazado_604164" data-name="Trazado 604164" d="M88.452,12.781H9.07a1.32,1.32,0,0,1-1.32-1.32V8.82A1.32,1.32,0,0,1,9.07,7.5H88.452a1.32,1.32,0,0,1,1.32,1.32v2.641A1.32,1.32,0,0,1,88.452,12.781Z" transform="translate(-7.75 -7.5)" fill="#0268b4"/>
            <path id="Trazado_604165" data-name="Trazado 604165" d="M88.452,361.063H9.07a1.32,1.32,0,0,1-1.32-1.32V357.1a1.32,1.32,0,0,1,1.32-1.32H88.452a1.32,1.32,0,0,1,1.32,1.32v2.641A1.32,1.32,0,0,1,88.452,361.063Z" transform="translate(-7.75 -298.246)" fill="#0268b4"/>
            <g id="Grupo_987305" data-name="Grupo 987305" transform="translate(10.538 19.694)">
              <path id="Trazado_604166" data-name="Trazado 604166" d="M77.871,400.479a6.33,6.33,0,0,0-6.329,6.329v10.855h37.965V406.809a6.33,6.33,0,0,0-6.329-6.329Z" transform="translate(-71.542 -355.253)" fill="#c4e2ff"/>
              <path id="Trazado_604167" data-name="Trazado 604167" d="M150.951,326.694V336.2l5.843,3.9,5.843-3.9v-9.506Z" transform="translate(-137.833 -293.657)" fill="#ffbfb1"/>
              <path id="Trazado_604168" data-name="Trazado 604168" d="M104.966,183.678c-.065,0-.13,0-.195,0a14.1,14.1,0,0,0-27.813,0c-.065,0-.13,0-.195,0a4.788,4.788,0,1,0,0,9.576c.065,0,.13,0,.195,0a14.1,14.1,0,0,0,27.813,0c.065,0,.13,0,.195,0a4.788,4.788,0,1,0,0-9.576Z" transform="translate(-71.903 -164.455)" fill="#ffcebf"/>
              <path id="Trazado_604169" data-name="Trazado 604169" d="M171.185,407.814l-2.995,3.127,1.085,4.254h3.819l1.086-4.254Z" transform="translate(-152.224 -361.376)" fill="#fd544d"/>
              <path id="Trazado_604170" data-name="Trazado 604170" d="M166.231,452.49l-1.688,8.592h7.194l-1.688-8.592Z" transform="translate(-149.179 -398.672)" fill="#fd544d"/>
              <path id="Trazado_604171" data-name="Trazado 604171" d="M125.994,384.236l-4.939,2.683,6.968,5.193,3.814-3.982Z" transform="translate(-112.875 -341.693)" fill="#b3dafe"/>
              <g id="Grupo_987302" data-name="Grupo 987302" transform="translate(8.221 29.04)">
                <path id="Trazado_604172" data-name="Trazado 604172" d="M123.876,304.543h-1.549a1.021,1.021,0,0,1,0-2.043h1.549a1.021,1.021,0,0,1,0,2.043Z" transform="translate(-121.306 -302.5)" fill="#ffb09e"/>
              </g>
              <path id="Trazado_604173" data-name="Trazado 604173" d="M169.944,305.133c0,3.014-1.812,5.457-4.047,5.457s-4.047-2.443-4.047-5.457Z" transform="translate(-146.931 -275.658)" fill="#ffb09e"/>
              <path id="Trazado_604174" data-name="Trazado 604174" d="M190.963,183.678c-.065,0-.13,0-.195,0a14.105,14.105,0,0,0-15.778-11.634,14.11,14.11,0,0,1,12.035,11.634c.065,0,.13,0,.195,0a4.788,4.788,0,1,1,0,9.576c-.065,0-.13,0-.195,0a14.109,14.109,0,0,1-12.035,11.634,14.105,14.105,0,0,0,15.778-11.634c.065,0,.13,0,.195,0a4.788,4.788,0,1,0,0-9.576Z" transform="translate(-157.901 -164.455)" fill="#ffbfb1"/>
              <path id="Trazado_604175" data-name="Trazado 604175" d="M107.73,129.529a5.965,5.965,0,0,0-5.068-2.816H91.192A10.582,10.582,0,0,0,80.61,137.295v8.646h20.029a7.963,7.963,0,0,0,5.332-2.04,5.388,5.388,0,0,0,4.225,2.04h5.339v-8.5A7.918,7.918,0,0,0,107.73,129.529Z" transform="translate(-79.112 -126.713)" fill="#c4573a"/>
              <g id="Grupo_987303" data-name="Grupo 987303" transform="translate(18.872 0)">
                <path id="Trazado_604176" data-name="Trazado 604176" d="M195.523,129.529a5.965,5.965,0,0,0-5.068-2.816h-4.678a5.965,5.965,0,0,1,5.068,2.816,7.918,7.918,0,0,1,7.806,7.916v8.5h4.678v-8.5A7.918,7.918,0,0,0,195.523,129.529Z" transform="translate(-185.777 -126.713)" fill="#a74b30"/>
              </g>
              <g id="Grupo_987304" data-name="Grupo 987304" transform="translate(26.153 29.04)">
                <path id="Trazado_604177" data-name="Trazado 604177" d="M232.421,304.543h-1.549a1.021,1.021,0,1,1,0-2.043h1.549a1.021,1.021,0,0,1,0,2.043Z" transform="translate(-229.851 -302.5)" fill="#ffb09e"/>
              </g>
              <path id="Trazado_604178" data-name="Trazado 604178" d="M239.4,400.479h-4.678a6.33,6.33,0,0,1,6.329,6.329v10.855h4.678V406.809A6.33,6.33,0,0,0,239.4,400.479Z" transform="translate(-207.766 -355.253)" fill="#b3dafe"/>
              <path id="Trazado_604179" data-name="Trazado 604179" d="M192.161,384.236l4.939,2.683-6.968,5.193-3.813-3.982Z" transform="translate(-167.357 -341.693)" fill="#b3dafe"/>
              <path id="Trazado_604180" data-name="Trazado 604180" d="M202.569,384.236l-1.891,1.26,2.619,1.423-4.511,3.362,1.754,1.831,6.968-5.193Z" transform="translate(-177.765 -341.693)" fill="#8ac9fe"/>
            </g>
            <path id="Trazado_604182" data-name="Trazado 604182" d="M467.89,7.5h-5.614a1.32,1.32,0,0,1,1.32,1.32v2.641a1.32,1.32,0,0,1-1.32,1.32h5.614a1.32,1.32,0,0,0,1.32-1.32V8.82A1.32,1.32,0,0,0,467.89,7.5Z" transform="translate(-387.188 -7.5)" fill="#015a9a"/>
            <path id="Trazado_604183" data-name="Trazado 604183" d="M467.89,355.782h-5.614a1.32,1.32,0,0,1,1.32,1.32v2.641a1.32,1.32,0,0,1-1.32,1.32h5.614a1.32,1.32,0,0,0,1.32-1.32V357.1A1.32,1.32,0,0,0,467.89,355.782Z" transform="translate(-387.188 -298.246)" fill="#015a9a"/>
          </g>
          <g id="Grupo_987307" data-name="Grupo 987307">
            <path id="Trazado_604185" data-name="Trazado 604185" d="M82.191,7.759A2.562,2.562,0,0,0,84.75,5.2V2.559A2.562,2.562,0,0,0,82.191,0h-8.26a1.239,1.239,0,1,0,0,2.478h8.26a.081.081,0,0,1,.081.081V5.2a.081.081,0,0,1-.081.081H2.809A.081.081,0,0,1,2.728,5.2V2.559a.081.081,0,0,1,.081-.081h65.34a1.239,1.239,0,1,0,0-2.478H2.809A2.562,2.562,0,0,0,.25,2.559V5.2A2.562,2.562,0,0,0,2.809,7.759h.824V57.536H2.809A2.562,2.562,0,0,0,.25,60.1v2.641A2.562,2.562,0,0,0,2.809,65.3h13.2a7.581,7.581,0,0,0-5.219,7.193V83.344a1.239,1.239,0,0,0,1.239,1.239h4.7a1.239,1.239,0,1,0,0-2.478H13.266V72.489a5.1,5.1,0,0,1,5.09-5.09H19.8l6.638,4.948a1.245,1.245,0,0,0,.814.242l.561,2.2L26.372,82.1h-3.86a1.239,1.239,0,1,0,0,2.478H49.993a1.239,1.239,0,0,0,1.239-1.239V72.489A7.58,7.58,0,0,0,46.013,65.3H82.191a2.562,2.562,0,0,0,2.559-2.559V60.1a2.562,2.562,0,0,0-2.559-2.559h-.824V7.759Zm-76.08,0H53.955c-1.937,1.2,2.823-.06,8.266,0,5.388.061,11.527,1.326,9.394,0h7.274V57.536h-36.4a15.191,15.191,0,0,0,3.428-6.622A6.034,6.034,0,0,0,49.5,40.824a1.231,1.231,0,0,0,.194-.664V31.665a9.2,9.2,0,0,0-8.372-9.122,7.164,7.164,0,0,0-5.741-2.849H24.107A11.834,11.834,0,0,0,12.287,31.515V40.16a1.233,1.233,0,0,0,.194.664,6.034,6.034,0,0,0,3.577,10.09,15.191,15.191,0,0,0,3.428,6.622H6.111ZM30.989,65.882l-4.572-3.048-.032-.021V62.02a15.389,15.389,0,0,0,9.207,0v.793l-4.6,3.069Zm1.624,4.976-.677,2.654H30.042l-.677-2.654,1.624-1.7Zm4.035-5.77.249-.166,2.58,1.4L34.939,69.7l-2.034-2.123Zm-5.659-4.841A12.867,12.867,0,0,1,18.3,49.523c-.125-.744-.661-1.03-1.417-1.03a3.549,3.549,0,0,1-.169-7.094H33.554a9.213,9.213,0,0,0,5.217-1.616A6.6,6.6,0,0,0,43.112,41.4h2.146a3.548,3.548,0,0,1-.314,7.09,1.239,1.239,0,0,0-1.271,1.034A12.87,12.87,0,0,1,30.989,60.246ZM14.765,38.921V31.515a9.353,9.353,0,0,1,9.343-9.343h11.47A4.708,4.708,0,0,1,39.594,24.4a1.239,1.239,0,0,0,1.034.583,6.705,6.705,0,0,1,6.584,6.677v7.256h-4.1a4.141,4.141,0,0,1-3.256-1.573,1.241,1.241,0,0,0-1.8-.151,6.759,6.759,0,0,1-4.505,1.724H14.765ZM2.809,62.817a.081.081,0,0,1-.081-.081V60.1a.081.081,0,0,1,.081-.081H22.288a15.731,15.731,0,0,0,1.619.977v1.748l-.035.019-.109.059H2.809ZM27.037,69.7,22.5,66.323l2.58-1.4,3.99,2.66ZM28.9,82.1l1.2-6.114h1.779l1.2,6.114Zm19.856-9.616V82.1H35.6l-1.437-7.316.561-2.2a1.248,1.248,0,0,0,.814-.242L42.181,67.4h1.483a5.1,5.1,0,0,1,5.09,5.09ZM82.191,60.014a.081.081,0,0,1,.081.081v2.641a.081.081,0,0,1-.081.081H38.215l-.109-.059-.035-.019V60.991a15.844,15.844,0,0,0,1.619-.977h42.5Z" transform="translate(-0.25 0)"/>
            <path id="Trazado_604186" data-name="Trazado 604186" d="M138.392,262.893a1.239,1.239,0,0,0-1.239,1.239v2.6a1.239,1.239,0,0,0,2.478,0v-2.6A1.239,1.239,0,0,0,138.392,262.893Z" transform="translate(-114.537 -219.463)"/>
            <path id="Trazado_604187" data-name="Trazado 604187" d="M222.96,266.729v-2.6a1.239,1.239,0,1,0-2.478,0v2.6a1.239,1.239,0,0,0,2.478,0Z" transform="translate(-184.1 -219.463)"/>
            <path id="Trazado_604188" data-name="Trazado 604188" d="M163.684,297.632H155.59a1.239,1.239,0,0,0-1.239,1.239c0,3.692,2.371,6.7,5.286,6.7s5.286-3,5.286-6.7A1.239,1.239,0,0,0,163.684,297.632Zm-4.047,5.457c-1.236,0-2.317-1.275-2.679-2.979h5.358C161.954,301.814,160.873,303.089,159.637,303.089Z" transform="translate(-128.893 -248.463)"/>
          </g>
        </g>
        <rect id="Rect치ngulo_341545" data-name="Rect치ngulo 341545" width="67" height="3" transform="translate(6.5 7.8)" fill="#9ed3fd"/>
      </g>
      <g id="Grupo_991477" data-name="Grupo 991477" transform="translate(49.493 9.8)">
        <path id="Trazado_692887" data-name="Trazado 692887" d="M10,0A10,10,0,1,1,0,10,10,10,0,0,1,10,0Z" transform="translate(1.007 1)" fill="#fed947"/>
        <path id="Trazado_692885" data-name="Trazado 692885" d="M31.157,12.1l-1.864,1.864,1.544,1.544,2.184-2.184a1.092,1.092,0,0,0,.32-.772V6H31.157Z" transform="translate(-21.323 -0.541)"/>
        <path id="Trazado_692886" data-name="Trazado 692886" d="M32.919,22.837a10.974,10.974,0,0,0,6.866-2.426l-1.37-1.7a8.877,8.877,0,1,1,3.175-5.787l-1.246-1.662L38.6,12.574l3.276,4.367a1.092,1.092,0,0,0,1.747,0l3.276-4.367-1.747-1.31-1.381,1.842a10.918,10.918,0,1,0-10.847,9.732Z" transform="translate(-21.994 -1)"/>
      </g>
    </g>
  </g>
</svg>
