<svg xmlns="http://www.w3.org/2000/svg" width="139" height="139" viewBox="0 0 139 139">
  <g id="Grupo_991720" data-name="Grupo 991720" transform="translate(4157 10773)">
    <rect id="Rectángulo_339670" data-name="Rectángulo 339670" width="139" height="139" rx="10" transform="translate(-4157 -10773)" fill="#feb0b3"/>
    <g id="Fill_out_line" data-name="Fill out line" transform="translate(-4130 -10746)">
      <g id="Grupo_987346" data-name="Grupo 987346" transform="translate(1.41 1.41)">
        <path id="Trazado_604231" data-name="Trazado 604231" d="M418.721,335.318a40.689,40.689,0,0,0,2.7,5.027,1.413,1.413,0,0,0,2.072.36l3.338-2.642a1.415,1.415,0,0,0,.32-1.853,33.779,33.779,0,0,1-1.85-3.449,1.415,1.415,0,0,0-1.745-.751l-4.016,1.388a1.413,1.413,0,0,0-.821,1.921Z" transform="translate(-415.198 -277.672)" fill="#f3b73f"/>
        <path id="Trazado_604232" data-name="Trazado 604232" d="M442.664,276.211a40.513,40.513,0,0,0,.894,4.87,1.412,1.412,0,0,0,1.831,1l4.016-1.388a1.415,1.415,0,0,0,.908-1.669,33.5,33.5,0,0,1-.606-3.3,1.414,1.414,0,0,0-1.445-1.236l-4.245.139a1.412,1.412,0,0,0-1.354,1.584Z" transform="translate(-442.426 -230.349)" fill="#f3b73f"/>
        <path id="Trazado_604233" data-name="Trazado 604233" d="M449.109,237.6l4.541-.149a1.083,1.083,0,0,0,1.046-1.02v-.02a1.083,1.083,0,0,0-.94-1.136l-4.5-.594a1.411,1.411,0,0,0-1.593,1.317q0,.056-.006.113a1.411,1.411,0,0,0,1.455,1.49Z" transform="translate(-447.652 -197.544)" fill="#f3b73f"/>
        <path id="Trazado_604234" data-name="Trazado 604234" d="M30.2,88.9a33.83,33.83,0,1,0,4.484-51.785l.179.155a2.115,2.115,0,0,1-1.006,3.684l-7.368,1.323A2.114,2.114,0,0,1,24,40.135l.213-7.483a2.115,2.115,0,0,1,3.493-1.542L29.2,32.4a40.881,40.881,0,1,1-4.325,61.149,1.412,1.412,0,0,1,.127-2.1L28.339,88.8a1.4,1.4,0,0,1,1.859.1Z" transform="translate(-13.202 -23.997)" fill="#f3b73f"/>
      </g>
      <rect id="Rectángulo_339673" data-name="Rectángulo 339673" width="3.986" height="35.879" rx="1.993" transform="translate(14.046 39.473) rotate(-135)" fill="#f57a08"/>
      <rect id="Rectángulo_339674" data-name="Rectángulo 339674" width="3.986" height="35.879" rx="1.993" transform="translate(47.878 73.298) rotate(-135)" fill="#f57a08"/>
      <path id="Trazado_604235" data-name="Trazado 604235" d="M104,126.555l5.7,5.7a7.042,7.042,0,0,0,6.569,1.884l7.926-1.829a4.231,4.231,0,0,1,5.073,5.073l-1.829,7.926a7.042,7.042,0,0,0,1.884,6.569l5.7,5.7,22.555-22.555-5.7-5.7a7.042,7.042,0,0,0-6.569-1.884l-7.926,1.829a4.231,4.231,0,0,1-5.073-5.073l1.829-7.926a7.042,7.042,0,0,0-1.884-6.569l-5.7-5.7-15.008,15.008-1,1Z" transform="translate(-88.556 -88.493)" fill="#e7f2da"/>
      <path id="Trazado_604236" data-name="Trazado 604236" d="M270.671,166.047l-.621,2.69A7,7,0,0,0,271.4,174.7a4.8,4.8,0,0,1,1.147,5.49,7.038,7.038,0,0,0-8.5-5.455l-7.926,1.829a4.228,4.228,0,0,1-3.941-1.13l-5.7-5.7,10.694-10.694C263.566,158.211,272.245,159.841,270.671,166.047Z" transform="translate(-229.048 -133.674)" fill="#f3b73f"/>
      <path id="Trazado_604237" data-name="Trazado 604237" d="M171.04,328l-12.1,12.1-5.7-5.7a4.2,4.2,0,0,1-1.2-3.588c1.14,1.645,4.752,1.615,4.047-2.819,2.819,2.819,7.9,7.048,14.948,0Z" transform="translate(-110.486 -273.022)" fill="#f3b73f"/>
      <ellipse id="Elipse_4905" data-name="Elipse 4905" cx="1.41" cy="1.41" rx="1.41" ry="1.41" transform="translate(43.638 49.339)" fill="#f3b73f"/>
      <path id="Trazado_604238" data-name="Trazado 604238" d="M230.115,292A2.115,2.115,0,1,1,228,294.114,2.115,2.115,0,0,1,230.115,292Zm0,2.819a.7.7,0,1,0-.7-.7A.7.7,0,0,0,230.115,294.819Z" transform="translate(-185.067 -243.366)"/>
      <path id="Trazado_604239" data-name="Trazado 604239" d="M412.5,325.467l4.016-1.388a2.818,2.818,0,0,1,3.484,1.49,32.495,32.495,0,0,0,1.772,3.305,2.828,2.828,0,0,1-.647,3.7l-3.338,2.642a2.823,2.823,0,0,1-4.139-.713,42.249,42.249,0,0,1-2.795-5.2,2.824,2.824,0,0,1,1.646-3.831Zm.282,2.964a40.118,40.118,0,0,0,2.654,4.94.718.718,0,0,0,.485.325.705.705,0,0,0,.554-.141l3.338-2.642a.712.712,0,0,0,.157-.931,34.619,34.619,0,0,1-1.888-3.521.716.716,0,0,0-.647-.42.7.7,0,0,0-.228.038l-4.016,1.388a.7.7,0,0,0-.415.385A.721.721,0,0,0,412.779,328.43Z" transform="translate(-407.204 -269.664)"/>
      <path id="Trazado_604240" data-name="Trazado 604240" d="M437.373,266.626l4.245-.139a2.813,2.813,0,0,1,2.888,2.46c.14,1.058.336,2.121.581,3.159a2.819,2.819,0,0,1-1.82,3.325l-4.017,1.388a2.821,2.821,0,0,1-3.659-1.991,42.093,42.093,0,0,1-.925-5.039,2.822,2.822,0,0,1,2.707-3.163Zm-.608,2.908a40.011,40.011,0,0,0,.878,4.785.707.707,0,0,0,.916.5l4.016-1.388a.71.71,0,0,0,.453-.84c-.261-1.106-.47-2.239-.619-3.367a.7.7,0,0,0-.7-.625h-.024l-4.244.139a.705.705,0,0,0-.511.245A.715.715,0,0,0,436.765,269.534Z" transform="translate(-434.417 -222.347)"/>
      <path id="Trazado_604241" data-name="Trazado 604241" d="M449.517,229.919a2.481,2.481,0,0,1-2.407,2.348l-4.538.149-.1,0a2.821,2.821,0,0,1-2.816-2.983l.007-.113a2.821,2.821,0,0,1,3.184-2.632l4.5.594a2.5,2.5,0,0,1,2.164,2.6Zm-2.438-.539-4.506-.594a.675.675,0,0,0-.091-.006.707.707,0,0,0-.7.665l-.007.11a.707.707,0,0,0,.705.748l4.564-.149a.369.369,0,0,0,.365-.344l0-.035A.383.383,0,0,0,447.078,229.38Z" transform="translate(-439.655 -189.544)"/>
      <path id="Trazado_604242" data-name="Trazado 604242" d="M17.535,83.751l3.338-2.642a2.814,2.814,0,0,1,3.726.2,32.214,32.214,0,0,0,22.825,9.4c.176,0,.353,0,.53,0A32.423,32.423,0,1,0,30.123,30.867a3.533,3.533,0,0,1-2.61,4.885l-7.368,1.323A3.525,3.525,0,0,1,16,33.506l.213-7.483a3.524,3.524,0,0,1,5.822-2.57l.637.548a41.907,41.907,0,0,1,24.772-8h.32A42.29,42.29,0,1,1,17.278,87.943a2.822,2.822,0,0,1,.257-4.193Zm1.25,2.71A40.194,40.194,0,1,0,47.748,18.114h-.3A39.829,39.829,0,0,0,23.259,26.2a1.057,1.057,0,0,1-1.327-.043l-1.277-1.1a1.41,1.41,0,0,0-2.329,1.028l-.213,7.483a1.41,1.41,0,0,0,1.658,1.428L27.14,33.67A1.41,1.41,0,0,0,27.9,31.3a1.057,1.057,0,0,1,.162-1.614A34.539,34.539,0,1,1,23.11,82.811a.7.7,0,0,0-.925-.043l-3.337,2.641a.705.705,0,0,0-.266.508.713.713,0,0,0,.2.543Z" transform="translate(-5.201 -15.998)"/>
      <path id="Trazado_604243" data-name="Trazado 604243" d="M102.011,111.193l-7.926,1.829a8.411,8.411,0,0,1-7.883-2.261l-4.914-4.913a3.4,3.4,0,0,1-3.6-5.6L100.243,77.7a3.405,3.405,0,0,1,5.6,3.6l4.913,4.914a8.409,8.409,0,0,1,2.261,7.882l-1.829,7.927a2.819,2.819,0,0,0,3.381,3.381l7.926-1.829a8.413,8.413,0,0,1,7.882,2.261l4.914,4.913a3.4,3.4,0,0,1,3.6,5.6L116.333,138.9a3.405,3.405,0,0,1-5.595-3.6l-4.913-4.914a8.409,8.409,0,0,1-2.261-7.882l1.829-7.927a2.819,2.819,0,0,0-3.381-3.381Zm5.441,3.856-1.829,7.926a6.307,6.307,0,0,0,1.7,5.912l5.2,5.2,1-1-5.2-5.2a4.885,4.885,0,0,1-1.4-4.187.7.7,0,0,1,1.277-.3,1.715,1.715,0,0,0,1.921.6c.784-.315,1.095-1.374.851-2.906a.7.7,0,0,1,1.194-.609c3.449,3.449,7.8,6.147,13.952,0l7.96-7.96-5.2-5.2a6.309,6.309,0,0,0-5.912-1.7l-7.926,1.829a4.934,4.934,0,0,1-5.917-5.917l1.829-7.926a6.307,6.307,0,0,0-1.7-5.912l-5.2-5.2-8,8c4.292-.221,9.018.615,11.237,3.113a5.183,5.183,0,0,1,1.069,4.92l-.621,2.69a6.3,6.3,0,0,0,1.186,5.338,5.464,5.464,0,0,1,1.274,6.224.7.7,0,0,1-.653.44l-.065,0a.705.705,0,0,1-.626-.561,6.363,6.363,0,0,0-6.2-5.074,6.427,6.427,0,0,0-1.444.166l-7.926,1.829a4.932,4.932,0,0,1-4.6-1.319l-5.2-5.2-1,1,5.2,5.2a6.306,6.306,0,0,0,5.912,1.7l7.926-1.829a4.934,4.934,0,0,1,5.917,5.917Zm5.562,22.353a1.289,1.289,0,0,0,1.823,0l22.555-22.555a1.289,1.289,0,1,0-1.823-1.823L113.015,135.58A1.289,1.289,0,0,0,113.015,137.4Zm8.4-12.216a8.011,8.011,0,0,1-4.007.188,11.3,11.3,0,0,1-4.979-2.706,2.977,2.977,0,0,1-1.786,2.641,3.04,3.04,0,0,1-2.26-.045,3.511,3.511,0,0,0,.93,1.629l5.2,5.2ZM79.183,103.571a1.289,1.289,0,0,0,1.823,0L103.56,81.016a1.289,1.289,0,0,0-1.823-1.823L79.183,101.748a1.289,1.289,0,0,0,0,1.823Zm27.192-2.658.624-2.7a3.748,3.748,0,0,0-.753-3.652c-1.529-1.721-5.84-3.221-11.73-2.5l-4.96,4.96c6.445,6.066,11.46,3.56,14.186,2.2a.7.7,0,1,1,.631,1.261,14.221,14.221,0,0,1-6.495,1.845c-2.659,0-5.828-1.007-9.319-4.305l-4.066,4.066,5.2,5.2a3.523,3.523,0,0,0,3.284.942l7.926-1.829a7.731,7.731,0,0,1,8.287,3.393,4.324,4.324,0,0,0-1.276-2.24.712.712,0,0,1-.056-.062,7.705,7.705,0,0,1-1.481-6.564Z" transform="translate(-66.06 -66.007)"/>
      <path id="Trazado_604244" data-name="Trazado 604244" d="M181.008,254.715a7.844,7.844,0,0,0,1.761-.2l5.406-1.248a.7.7,0,1,0-.317-1.374l-5.406,1.248a6.429,6.429,0,0,1-1.444.166.7.7,0,1,0,0,1.41Z" transform="translate(-133.155 -210.311)"/>
      <path id="Trazado_604245" data-name="Trazado 604245" d="M148.283,250.608a.7.7,0,0,0,.5-1.2,4.933,4.933,0,0,0-4.6-1.319.7.7,0,0,0,.317,1.374,3.523,3.523,0,0,1,3.284.942A.7.7,0,0,0,148.283,250.608Z" transform="translate(-86.96 -207.085)"/>
    </g>
  </g>
</svg>
