<svg xmlns="http://www.w3.org/2000/svg" width="139" height="139" viewBox="0 0 139 139">
  <g id="Grupo_991635" data-name="Grupo 991635" transform="translate(4157 9982)">
    <rect id="Rect치ngulo_339679" data-name="Rect치ngulo 339679" width="139" height="139" rx="10" transform="translate(-4157 -9982)" fill="#feb0b3"/>
    <g id="Fill_out_line" data-name="Fill out line" transform="translate(-4129.76 -9954.791)">
      <g id="Grupo_987363" data-name="Grupo 987363" transform="translate(1.41 1.41)">
        <path id="Trazado_604246" data-name="Trazado 604246" d="M427.239,335.318a40.688,40.688,0,0,1-2.7,5.027,1.413,1.413,0,0,1-2.072.36l-3.338-2.642a1.415,1.415,0,0,1-.32-1.853,33.8,33.8,0,0,0,1.85-3.449,1.415,1.415,0,0,1,1.745-.751l4.016,1.388a1.413,1.413,0,0,1,.821,1.921Z" transform="translate(-349.062 -277.671)" fill="#07689f"/>
        <path id="Trazado_604247" data-name="Trazado 604247" d="M450.343,276.211a40.521,40.521,0,0,1-.894,4.87,1.412,1.412,0,0,1-1.831,1L443.6,280.69a1.415,1.415,0,0,1-.908-1.669,33.521,33.521,0,0,0,.606-3.3,1.414,1.414,0,0,1,1.445-1.236l4.245.139a1.412,1.412,0,0,1,1.354,1.584Z" transform="translate(-368.882 -230.348)" fill="#07689f"/>
        <path id="Trazado_604248" data-name="Trazado 604248" d="M453.243,237.6l-4.541-.149a1.083,1.083,0,0,1-1.046-1.021v-.02a1.083,1.083,0,0,1,.94-1.136l4.5-.594a1.411,1.411,0,0,1,1.593,1.317q0,.056.006.113a1.411,1.411,0,0,1-1.455,1.49Z" transform="translate(-373 -197.543)" fill="#07689f"/>
        <path id="Trazado_604249" data-name="Trazado 604249" d="M88.7,88.9a33.83,33.83,0,1,1-4.484-51.786l-.179.155a2.115,2.115,0,0,0,1.006,3.684l7.368,1.323A2.115,2.115,0,0,0,94.9,40.135l-.213-7.483a2.115,2.115,0,0,0-3.493-1.542L89.7,32.4a40.881,40.881,0,1,0,4.325,61.15,1.412,1.412,0,0,0-.127-2.1l-3.338-2.642a1.4,1.4,0,0,0-1.859.1Z" transform="translate(-23.999 -23.997)" fill="#07689f"/>
      </g>
      <path id="Trazado_604254" data-name="Trazado 604254" d="M420.293,325.467l-4.016-1.388a2.818,2.818,0,0,0-3.484,1.49,32.488,32.488,0,0,1-1.772,3.305,2.828,2.828,0,0,0,.647,3.7l3.338,2.642a2.823,2.823,0,0,0,4.139-.713,42.262,42.262,0,0,0,2.795-5.2,2.824,2.824,0,0,0-1.646-3.831Zm-.282,2.964a40.138,40.138,0,0,1-2.654,4.94.718.718,0,0,1-.485.325.705.705,0,0,1-.554-.141l-3.338-2.642a.712.712,0,0,1-.157-.931,34.628,34.628,0,0,0,1.888-3.521.716.716,0,0,1,.647-.42.7.7,0,0,1,.228.038l4.016,1.388a.7.7,0,0,1,.415.385.721.721,0,0,1-.006.58Z" transform="translate(-341.067 -269.663)"/>
      <path id="Trazado_604255" data-name="Trazado 604255" d="M442.438,266.626l-4.245-.139a2.813,2.813,0,0,0-2.888,2.46c-.14,1.058-.336,2.121-.581,3.159a2.819,2.819,0,0,0,1.82,3.325l4.017,1.388a2.821,2.821,0,0,0,3.659-1.991,42.081,42.081,0,0,0,.925-5.039,2.822,2.822,0,0,0-2.707-3.163Zm.608,2.908a40.009,40.009,0,0,1-.878,4.785.707.707,0,0,1-.917.5l-4.016-1.388a.71.71,0,0,1-.453-.84c.261-1.106.47-2.239.619-3.367a.7.7,0,0,1,.7-.624h.024l4.245.139a.705.705,0,0,1,.511.245A.715.715,0,0,1,443.046,269.534Z" transform="translate(-360.875 -222.346)"/>
      <path id="Trazado_604256" data-name="Trazado 604256" d="M439.66,229.919a2.481,2.481,0,0,0,2.407,2.348l4.538.148.1,0a2.821,2.821,0,0,0,2.816-2.983l-.007-.113a2.821,2.821,0,0,0-3.184-2.632l-4.5.594a2.5,2.5,0,0,0-2.164,2.6Zm2.438-.539,4.506-.594a.677.677,0,0,1,.091-.006.707.707,0,0,1,.7.665l.007.11a.707.707,0,0,1-.705.748l-4.564-.149a.369.369,0,0,1-.365-.344l0-.035A.383.383,0,0,1,442.1,229.38Z" transform="translate(-365.002 -189.543)"/>
      <path id="Trazado_604257" data-name="Trazado 604257" d="M88.184,83.752,84.846,81.11a2.814,2.814,0,0,0-3.726.2,32.215,32.215,0,0,1-22.825,9.4c-.176,0-.353,0-.53,0A32.423,32.423,0,1,1,75.6,30.867a3.533,3.533,0,0,0,2.61,4.885l7.368,1.323a3.525,3.525,0,0,0,4.145-3.569l-.213-7.483a3.524,3.524,0,0,0-5.822-2.57L83.047,24a41.908,41.908,0,0,0-24.772-8h-.32A42.291,42.291,0,1,0,88.441,87.944a2.822,2.822,0,0,0-.257-4.193Zm-1.25,2.71A40.195,40.195,0,1,1,57.971,18.114h.3A39.83,39.83,0,0,1,82.46,26.2a1.057,1.057,0,0,0,1.327-.043l1.277-1.1a1.41,1.41,0,0,1,2.329,1.028l.213,7.483a1.41,1.41,0,0,1-1.658,1.428l-7.368-1.323a1.41,1.41,0,0,1-.763-2.369,1.057,1.057,0,0,0-.162-1.614,34.539,34.539,0,1,0,4.956,53.124.7.7,0,0,1,.925-.043l3.337,2.641a.705.705,0,0,1,.266.508.713.713,0,0,1-.2.543Z" transform="translate(-15.999 -15.998)"/>
      <g id="Grupo_987366" data-name="Grupo 987366" transform="translate(10.632 10.697)">
        <rect id="Rect치ngulo_339680" data-name="Rect치ngulo 339680" width="3.986" height="35.88" rx="1.993" transform="translate(34.408 3.406) rotate(-45)" fill="#07689f"/>
        <path id="Trazado_692888" data-name="Trazado 692888" d="M1.993,0A1.993,1.993,0,0,1,3.986,1.993V33.886a1.993,1.993,0,1,1-3.986,0V1.993A1.993,1.993,0,0,1,1.993,0Z" transform="translate(0.576 37.231) rotate(-45)" fill="#07689f"/>
        <path id="Trazado_604250" data-name="Trazado 604250" d="M157.568,126.555l-5.7,5.7a7.042,7.042,0,0,1-6.569,1.884l-7.926-1.829a4.231,4.231,0,0,0-5.073,5.073l1.829,7.926a7.042,7.042,0,0,1-1.884,6.569l-5.7,5.7L104,135.014l5.7-5.7a7.042,7.042,0,0,1,6.569-1.884l7.926,1.829a4.231,4.231,0,0,0,5.073-5.073l-1.829-7.926a7.042,7.042,0,0,1,1.884-6.569l5.7-5.7,15.008,15.008,1,1Z" transform="translate(-99.188 -99.191)" fill="#f0f4ff"/>
        <path id="Trazado_604251" data-name="Trazado 604251" d="M248.767,166.047l.621,2.69a7,7,0,0,1-1.346,5.967,4.8,4.8,0,0,0-1.147,5.49,7.038,7.038,0,0,1,8.5-5.455l7.926,1.829a4.228,4.228,0,0,0,3.941-1.13l5.7-5.7-10.694-10.694C255.871,158.211,247.193,159.841,248.767,166.047Z" transform="translate(-216.565 -144.37)" fill="#a2d5f2"/>
        <path id="Trazado_604252" data-name="Trazado 604252" d="M152,328l12.1,12.1,5.7-5.7a4.2,4.2,0,0,0,1.2-3.588c-1.14,1.645-4.752,1.615-4.047-2.819-2.819,2.819-7.9,7.049-14.949,0Z" transform="translate(-138.729 -283.719)" fill="#a2d5f2"/>
        <path id="Trazado_604261" data-name="Trazado 604261" d="M1.546,0A1.546,1.546,0,1,1,0,1.546,1.546,1.546,0,0,1,1.546,0Z" transform="translate(27.344 38.395)" fill="#a2d5f2"/>
        <path id="Trazado_604253" data-name="Trazado 604253" d="M230.115,292a2.115,2.115,0,1,0,2.115,2.115A2.115,2.115,0,0,0,230.115,292Zm0,2.819a.7.7,0,1,1,.7-.7A.7.7,0,0,1,230.115,294.819Z" transform="translate(-201.337 -254.063)"/>
        <path id="Trazado_604258" data-name="Trazado 604258" d="M114.564,111.194l7.926,1.829a8.411,8.411,0,0,0,7.883-2.261l4.914-4.913a3.4,3.4,0,0,0,3.6-5.6L116.333,77.7a3.405,3.405,0,0,0-5.6,3.6l-4.913,4.914a8.41,8.41,0,0,0-2.261,7.882l1.829,7.927a2.819,2.819,0,0,1-3.381,3.381l-7.927-1.829a8.413,8.413,0,0,0-7.882,2.261l-4.914,4.913a3.4,3.4,0,0,0-3.6,5.6L100.243,138.9a3.405,3.405,0,0,0,5.6-3.6l4.913-4.914a8.41,8.41,0,0,0,2.261-7.882l-1.829-7.927a2.819,2.819,0,0,1,3.381-3.381Zm-5.441,3.857,1.829,7.926a6.308,6.308,0,0,1-1.7,5.912l-5.2,5.2-1-1,5.2-5.2a4.886,4.886,0,0,0,1.4-4.187.7.7,0,0,0-1.277-.3,1.715,1.715,0,0,1-1.921.6c-.784-.315-1.095-1.374-.851-2.906a.7.7,0,0,0-1.194-.609c-3.449,3.449-7.8,6.147-13.952,0l-7.96-7.96,5.2-5.2a6.309,6.309,0,0,1,5.912-1.7l7.926,1.829a4.934,4.934,0,0,0,5.917-5.917l-1.829-7.926a6.308,6.308,0,0,1,1.7-5.912l5.2-5.2,8,8c-4.292-.221-9.018.615-11.237,3.113a5.184,5.184,0,0,0-1.069,4.921l.621,2.69a6.3,6.3,0,0,1-1.186,5.338,5.465,5.465,0,0,0-1.274,6.225.7.7,0,0,0,.653.44l.065,0a.705.705,0,0,0,.626-.561,6.363,6.363,0,0,1,6.2-5.074,6.428,6.428,0,0,1,1.444.166l7.926,1.829a4.932,4.932,0,0,0,4.6-1.319l5.2-5.2,1,1-5.2,5.2a6.306,6.306,0,0,1-5.912,1.7l-7.926-1.829a4.934,4.934,0,0,0-5.917,5.917ZM103.561,137.4a1.289,1.289,0,0,1-1.823,0L79.183,114.849a1.289,1.289,0,1,1,1.823-1.823l22.555,22.555A1.289,1.289,0,0,1,103.561,137.4Zm-8.4-12.216a8.011,8.011,0,0,0,4.007.188,11.3,11.3,0,0,0,4.979-2.706,2.977,2.977,0,0,0,1.786,2.641,3.04,3.04,0,0,0,2.26-.045,3.511,3.511,0,0,1-.93,1.629l-5.2,5.2Zm42.232-21.617a1.289,1.289,0,0,1-1.823,0L113.015,81.016a1.289,1.289,0,1,1,1.823-1.823l22.555,22.555A1.289,1.289,0,0,1,137.393,103.571ZM110.2,100.913l-.624-2.7a3.748,3.748,0,0,1,.753-3.652c1.529-1.721,5.84-3.221,11.73-2.5l4.96,4.96c-6.445,6.066-11.46,3.56-14.187,2.2a.7.7,0,1,0-.631,1.261,14.221,14.221,0,0,0,6.495,1.845c2.659,0,5.828-1.007,9.319-4.306l4.066,4.066-5.2,5.2a3.523,3.523,0,0,1-3.285.942l-7.926-1.829a7.731,7.731,0,0,0-8.287,3.393,4.324,4.324,0,0,1,1.276-2.24.713.713,0,0,0,.056-.062,7.705,7.705,0,0,0,1.481-6.564Z" transform="translate(-76.692 -76.704)"/>
        <path id="Trazado_604259" data-name="Trazado 604259" d="M188.017,254.715a7.845,7.845,0,0,1-1.761-.2l-5.406-1.248a.7.7,0,1,1,.317-1.374l5.406,1.248a6.429,6.429,0,0,0,1.444.166.7.7,0,1,1,0,1.41Z" transform="translate(-162.045 -221.007)"/>
        <path id="Trazado_604260" data-name="Trazado 604260" d="M144.341,250.608a.7.7,0,0,1-.5-1.2,4.933,4.933,0,0,1,4.6-1.319.7.7,0,1,1-.317,1.374,3.523,3.523,0,0,0-3.285.942.7.7,0,0,1-.5.206Z" transform="translate(-131.84 -217.782)"/>
      </g>
    </g>
  </g>
</svg>
