<svg xmlns="http://www.w3.org/2000/svg" width="139" height="139" viewBox="0 0 139 139">
  <g id="Grupo_991661" data-name="Grupo 991661" transform="translate(4157 6716.712)">
    <rect id="Rectángulo_339710" data-name="Rectángulo 339710" width="139" height="139" rx="10" transform="translate(-4157 -6716.712)" fill="#feb0b3"/>
    <g id="seguimiento" transform="translate(-4146 -6705.712)">
      <path id="Trazado_604320" data-name="Trazado 604320" d="M136,24v81.557h56.246V40.874L175.372,24Z" transform="translate(-98.908 -6.594)" fill="#e9eef2"/>
      <g id="Grupo_987416" data-name="Grupo 987416" transform="translate(44.123 31.468)">
        <path id="Trazado_604321" data-name="Trazado 604321" d="M178.812,344a2.812,2.812,0,1,0,2.812,2.812A2.812,2.812,0,0,0,178.812,344Z" transform="translate(-176 -301.815)" fill="#c3c6c7"/>
        <path id="Trazado_604322" data-name="Trazado 604322" d="M248,104h11.249v5.625H248Z" transform="translate(-235.345 -104)" fill="#c3c6c7"/>
        <path id="Trazado_604323" data-name="Trazado 604323" d="M248,184h11.249v5.625H248Z" transform="translate(-235.345 -169.938)" fill="#c3c6c7"/>
      </g>
      <path id="Trazado_604324" data-name="Trazado 604324" d="M248,264h11.249v5.625H248Z" transform="translate(-191.222 -204.409)" fill="#8284d2"/>
      <path id="Trazado_604325" data-name="Trazado 604325" d="M248,344h11.249v5.625H248Z" transform="translate(-191.222 -270.348)" fill="#c3c6c7"/>
      <path id="Trazado_604326" data-name="Trazado 604326" d="M178.812,424a2.812,2.812,0,1,0,2.812,2.812A2.812,2.812,0,0,0,178.812,424Z" transform="translate(-131.877 -336.286)" fill="#c3c6c7"/>
      <path id="Trazado_604327" data-name="Trazado 604327" d="M248,424h11.249v5.625H248Z" transform="translate(-191.222 -336.286)" fill="#c3c6c7"/>
      <path id="Trazado_604328" data-name="Trazado 604328" d="M368.437,314.812V312L360,317.625l8.437,5.625v-2.812h2.812a5.625,5.625,0,0,1,0,11.249H360v5.625h11.249a11.249,11.249,0,0,0,0-22.5Z" transform="translate(-283.535 -243.972)" fill="#6b8dfc"/>
      <path id="Trazado_604329" data-name="Trazado 604329" d="M24,74.812v22.5a2.812,2.812,0,0,0,2.812,2.812v11.249l14.062-11.249H54.935a2.812,2.812,0,0,0,2.812-2.812v-22.5A2.812,2.812,0,0,0,54.935,72H26.812A2.812,2.812,0,0,0,24,74.812Z" transform="translate(-6.594 -46.157)" fill="#fed947"/>
      <path id="Trazado_604330" data-name="Trazado 604330" d="M360,40.874h16.874L360,24Z" transform="translate(-283.535 -6.594)" fill="#dadcde"/>
      <path id="Trazado_604331" data-name="Trazado 604331" d="M172.218,336a4.218,4.218,0,1,0,4.218,4.218A4.218,4.218,0,0,0,172.218,336Zm0,5.625a1.406,1.406,0,1,1,1.406-1.406A1.406,1.406,0,0,1,172.218,341.625Z" transform="translate(-125.283 -263.754)"/>
      <path id="Trazado_604332" data-name="Trazado 604332" d="M169.554,263.659a1.406,1.406,0,0,0,1.131.772q.063.005.127.006a1.406,1.406,0,0,0,1.125-.562l4.218-5.625a1.406,1.406,0,0,0-2.25-1.687l-2.853,3.8-.389-.777a1.406,1.406,0,1,0-2.515,1.258Z" transform="translate(-125.282 -197.815)"/>
      <path id="Trazado_604333" data-name="Trazado 604333" d="M252.655,96H241.406A1.406,1.406,0,0,0,240,97.406v5.625a1.406,1.406,0,0,0,1.406,1.406h4.218v5.625h-4.218A1.406,1.406,0,0,0,240,111.468v5.625a1.406,1.406,0,0,0,1.406,1.406h4.218v5.625h-4.218A1.406,1.406,0,0,0,240,125.529v5.625a1.406,1.406,0,0,0,1.406,1.406h4.218v5.625h-4.218A1.406,1.406,0,0,0,240,139.591v5.625a1.406,1.406,0,0,0,1.406,1.406h4.218v5.625h-4.218A1.406,1.406,0,0,0,240,153.652v5.625a1.406,1.406,0,0,0,1.406,1.406h11.249a1.406,1.406,0,0,0,1.406-1.406v-5.625a1.406,1.406,0,0,0-1.406-1.406h-4.218v-5.625h4.218a1.406,1.406,0,0,0,1.406-1.406v-5.625a1.406,1.406,0,0,0-1.406-1.406h-4.218V132.56h4.218a1.406,1.406,0,0,0,1.406-1.406v-5.625a1.406,1.406,0,0,0-1.406-1.406h-4.218V118.5h4.218a1.406,1.406,0,0,0,1.406-1.406v-5.625a1.406,1.406,0,0,0-1.406-1.406h-4.218v-5.625h4.218a1.406,1.406,0,0,0,1.406-1.406V97.406A1.406,1.406,0,0,0,252.655,96Zm-1.406,59.058v2.812h-8.437v-2.812Zm0-11.249h-8.437V141h8.437Zm0-14.062h-8.437v-2.812h8.437Zm0-14.062h-8.437v-2.812h8.437Zm0-14.062h-8.437V98.812h8.437Z" transform="translate(-184.628 -65.938)"/>
      <path id="Trazado_604334" data-name="Trazado 604334" d="M361.406,162.812h8.437a1.406,1.406,0,1,0,0-2.812h-8.437a1.406,1.406,0,1,0,0,2.812Z" transform="translate(-283.535 -118.689)"/>
      <path id="Trazado_604335" data-name="Trazado 604335" d="M369.843,240h-8.437a1.406,1.406,0,1,0,0,2.812h8.437a1.406,1.406,0,1,0,0-2.812Z" transform="translate(-283.535 -184.628)"/>
      <path id="Trazado_604336" data-name="Trazado 604336" d="M337.406,194.812h12.655a1.406,1.406,0,1,0,0-2.812H337.406a1.406,1.406,0,1,0,0,2.812Z" transform="translate(-263.754 -145.065)"/>
      <path id="Trazado_604337" data-name="Trazado 604337" d="M351.468,273.406A1.406,1.406,0,0,0,350.062,272H337.406a1.406,1.406,0,1,0,0,2.812h12.655A1.406,1.406,0,0,0,351.468,273.406Z" transform="translate(-263.754 -211.003)"/>
      <path id="Trazado_604338" data-name="Trazado 604338" d="M172.218,416a4.218,4.218,0,1,0,4.218,4.218A4.218,4.218,0,0,0,172.218,416Zm0,5.625a1.406,1.406,0,1,1,1.406-1.406A1.406,1.406,0,0,1,172.218,421.625Z" transform="translate(-125.283 -329.692)"/>
      <path id="Trazado_604339" data-name="Trazado 604339" d="M100.369,82.089a12.653,12.653,0,0,0-5.625-10.517V34.28a1.406,1.406,0,0,0-.412-.994L77.459,16.412A1.406,1.406,0,0,0,76.465,16H37.092a1.406,1.406,0,0,0-1.406,1.406v7.031H20.218A4.223,4.223,0,0,0,16,28.655v22.5a4.226,4.226,0,0,0,2.812,3.977V65.215a1.406,1.406,0,0,0,2.285,1.1L34.773,55.372h.913V98.963a1.406,1.406,0,0,0,1.406,1.406H93.338a1.406,1.406,0,0,0,1.406-1.406V92.606a12.653,12.653,0,0,0,5.625-10.517Zm-2.812,0a9.854,9.854,0,0,1-9.843,9.843H77.871V89.12h9.843a7.031,7.031,0,0,0,0-14.062H84.9A1.406,1.406,0,0,0,83.5,76.465v.185l-4.5-3,4.5-3v.185A1.406,1.406,0,0,0,84.9,72.246h2.812a9.854,9.854,0,0,1,9.843,9.843ZM77.871,20.8,89.944,32.874H77.871ZM34.28,52.56a1.406,1.406,0,0,0-.879.308L21.625,62.289V53.966a1.406,1.406,0,0,0-1.406-1.406,1.408,1.408,0,0,1-1.406-1.406v-22.5a1.408,1.408,0,0,1,1.406-1.406H48.341a1.408,1.408,0,0,1,1.406,1.406v22.5a1.408,1.408,0,0,1-1.406,1.406Zm57.652,45H38.5V55.372h9.843a4.223,4.223,0,0,0,4.218-4.218v-22.5a4.223,4.223,0,0,0-4.218-4.218H38.5V18.812h36.56V34.28a1.406,1.406,0,0,0,1.406,1.406H91.932V70.159a12.6,12.6,0,0,0-4.218-.726H86.308V68.028a1.406,1.406,0,0,0-2.186-1.17l-8.437,5.625a1.406,1.406,0,0,0,0,2.34l8.437,5.625a1.406,1.406,0,0,0,2.186-1.17V77.871h1.406a4.218,4.218,0,1,1,0,8.437H76.465a1.406,1.406,0,0,0-1.406,1.406v5.625a1.406,1.406,0,0,0,1.406,1.406H87.714a12.6,12.6,0,0,0,4.218-.726Z"/>
      <path id="Trazado_604340" data-name="Trazado 604340" d="M65.406,114.812h5.625a1.406,1.406,0,0,0,0-2.812H65.406a1.406,1.406,0,1,0,0,2.812Z" transform="translate(-39.563 -79.126)"/>
      <path id="Trazado_604341" data-name="Trazado 604341" d="M129.406,114.812h8.437a1.406,1.406,0,0,0,0-2.812h-8.437a1.406,1.406,0,0,0,0,2.812Z" transform="translate(-92.314 -79.126)"/>
      <path id="Trazado_604342" data-name="Trazado 604342" d="M126.062,177.406A1.406,1.406,0,0,0,124.655,176H113.406a1.406,1.406,0,1,0,0,2.812h11.249A1.406,1.406,0,0,0,126.062,177.406Z" transform="translate(-79.126 -131.877)"/>
      <path id="Trazado_604343" data-name="Trazado 604343" d="M49.406,146.812H71.9a1.406,1.406,0,1,0,0-2.812h-22.5a1.406,1.406,0,1,0,0,2.812Z" transform="translate(-26.375 -105.502)"/>
      <path id="Trazado_604344" data-name="Trazado 604344" d="M55.031,176H49.406a1.406,1.406,0,1,0,0,2.812h5.625a1.406,1.406,0,1,0,0-2.812Z" transform="translate(-26.375 -131.877)"/>
      <path id="Trazado_604345" data-name="Trazado 604345" d="M263.031,58.812h-5.625a1.406,1.406,0,0,1,0-2.812h5.625a1.406,1.406,0,0,1,0,2.812Z" transform="translate(-197.815 -32.969)"/>
    </g>
  </g>
</svg>
