<svg xmlns="http://www.w3.org/2000/svg" width="139" height="139" viewBox="0 0 139 139">
  <g id="Grupo_991721" data-name="Grupo 991721" transform="translate(4157 6191.712)">
    <rect id="Rectángulo_339715" data-name="Rectángulo 339715" width="139" height="139" rx="10" transform="translate(-4157 -6191.712)" fill="#feb0b3"/>
    <g id="Presentation-File-Document-Graph-Report" transform="translate(-4134 -6166.5)">
      <path id="Trazado_604346" data-name="Trazado 604346" d="M81.9,8.9V82.65a5.9,5.9,0,0,1-5.9,5.9H22.9a5.9,5.9,0,0,1-5.9-5.9V20.7H31.75a2.959,2.959,0,0,0,2.95-2.95V3H76A5.9,5.9,0,0,1,81.9,8.9Z" transform="translate(7.125 0.475)" fill="#5aaae7"/>
      <path id="Trazado_604347" data-name="Trazado 604347" d="M31.75,5V19.75A2.959,2.959,0,0,1,28.8,22.7H17V19.75Z" transform="translate(7.125 1.425)" fill="#3d9ae2"/>
      <path id="Trazado_604348" data-name="Trazado 604348" d="M34.7,3V17.75a2.959,2.959,0,0,1-2.95,2.95H17Z" transform="translate(7.125 0.475)" fill="#1e81ce"/>
      <path id="Trazado_604349" data-name="Trazado 604349" d="M52.4,48.4v2.95a2.959,2.959,0,0,1-2.95,2.95L42.783,73.357a8.85,8.85,0,0,1-13.039,4.573l-2.419-1.5V83.8H22.9A5.9,5.9,0,0,1,17,77.9V15.95L19.95,13v2.95h5.9V26.275h1.475a2.95,2.95,0,1,1,0,5.9H25.85V33.65a11.811,11.811,0,0,1-7.373,10.944l0,3.806,1.3,1.947,7.832,2.847a11.813,11.813,0,0,1,7.729,10.1l.369,4.469L40.6,54.3V51.35a2.959,2.959,0,0,1,2.95-2.95Z" transform="translate(7.125 5.225)" fill="#3d9ae2"/>
      <path id="Trazado_604350" data-name="Trazado 604350" d="M10.375,72.723H3V50.008a11.765,11.765,0,0,1,7.773-11.077l7.154-2.611H29.373l7.832,2.847a11.813,11.813,0,0,1,7.729,10.1L45.3,53.74l4.9-13.467h8.85L52.383,59.33A8.85,8.85,0,0,1,39.344,63.9l-2.419-1.5V72.723Z" transform="translate(0.475 16.302)" fill="#e6e7e8"/>
      <path id="Trazado_604351" data-name="Trazado 604351" d="M22.723,36.947,21.425,35,17,42.375,22.9,46.8l1.475-7.375Z" transform="translate(7.125 15.675)" fill="#bcbec0"/>
      <path id="Trazado_604352" data-name="Trazado 604352" d="M14.95,35l-1.3,1.947L12,39.425,13.475,46.8l5.9-4.425Z" transform="translate(4.75 15.675)" fill="#bcbec0"/>
      <path id="Trazado_604353" data-name="Trazado 604353" d="M46.8,35v2.95a2.959,2.959,0,0,1-2.95,2.95H35V37.95A2.959,2.959,0,0,1,37.95,35Z" transform="translate(15.675 15.675)" fill="#ffc477"/>
      <path id="Trazado_604354" data-name="Trazado 604354" d="M11.9,20v5.9H8.95a2.95,2.95,0,1,1,0-5.9Z" transform="translate(1.9 8.55)" fill="#ffb655"/>
      <path id="Trazado_604355" data-name="Trazado 604355" d="M26.95,20a2.95,2.95,0,1,1,0,5.9H24V20Z" transform="translate(10.45 8.55)" fill="#ffb655"/>
      <path id="Trazado_604356" data-name="Trazado 604356" d="M22.85,31.42V36.7l-4.425,7.375L14,36.7V31.42a11.872,11.872,0,0,0,8.85,0Z" transform="translate(5.7 13.974)" fill="#ffc477"/>
      <path id="Trazado_604357" data-name="Trazado 604357" d="M22.85,31.42v4.425a11.872,11.872,0,0,1-8.85,0V31.42a11.872,11.872,0,0,0,8.85,0Z" transform="translate(5.7 13.974)" fill="#ffb655"/>
      <path id="Trazado_604358" data-name="Trazado 604358" d="M25.225,39.744A11.8,11.8,0,0,1,9,28.8V19.95A2.959,2.959,0,0,1,11.95,17h17.7a2.959,2.959,0,0,1,2.95,2.95V28.8a11.811,11.811,0,0,1-7.373,10.944Z" transform="translate(3.325 7.125)" fill="#ffc477"/>
      <path id="Trazado_604359" data-name="Trazado 604359" d="M25.85,18.9H17A5.9,5.9,0,0,0,22.9,13h5.9v8.85A2.959,2.959,0,0,0,25.85,18.9Z" transform="translate(7.125 5.225)" fill="#787680"/>
      <path id="Trazado_604360" data-name="Trazado 604360" d="M26.7,14.425a5.9,5.9,0,0,1-5.9,5.9H11.95A2.959,2.959,0,0,0,9,23.275V15.9A5.9,5.9,0,0,1,14.9,10H26.7Z" transform="translate(3.325 3.8)" fill="#57565c"/>
      <path id="Trazado_604361" data-name="Trazado 604361" d="M47.269,12A13.266,13.266,0,1,0,60.544,25.272,13.266,13.266,0,0,0,47.269,12Zm0,20.65A7.353,7.353,0,1,1,52.491,30.5,7.353,7.353,0,0,1,47.269,32.65Z" transform="translate(15.206 4.75)" fill="#3d9ae2"/>
      <path id="Trazado_604362" data-name="Trazado 604362" d="M54.5,24.222l4.159,4.16A13.266,13.266,0,0,1,36,19h5.9a7.384,7.384,0,0,0,12.6,5.221Z" transform="translate(16.15 8.075)" fill="#ff5023"/>
      <path id="Trazado_604363" data-name="Trazado 604363" d="M45,10a13.266,13.266,0,0,1,9.381,22.656l-4.16-4.16A7.384,7.384,0,0,0,45,15.9Z" transform="translate(20.425 3.8)" fill="#ff9811"/>
      <path id="Trazado_604364" data-name="Trazado 604364" d="M49.275,10v5.9A7.375,7.375,0,0,0,41.9,23.275H36A13.275,13.275,0,0,1,49.275,10Z" transform="translate(16.15 3.8)" fill="#1e81ce"/>
      <path id="Trazado_604365" data-name="Trazado 604365" d="M13,21h2.95v2.95H13Z" transform="translate(5.225 9.025)"/>
      <path id="Trazado_604366" data-name="Trazado 604366" d="M19,21h2.95v2.95H19Z" transform="translate(8.075 9.025)"/>
      <path id="Trazado_604367" data-name="Trazado 604367" d="M23.451,28.463,21.5,26.25a4.534,4.534,0,0,1-5.85,0l-1.954,2.213A7.375,7.375,0,0,0,23.451,28.463Z" transform="translate(5.554 11.519)"/>
      <path id="Trazado_604368" data-name="Trazado 604368" d="M83.125,2h-41.3a1.524,1.524,0,0,0-1.047.428L30.7,12.517a1.342,1.342,0,0,0-.679-.192h-11.8A7.375,7.375,0,0,0,10.85,19.7v7.375a4.425,4.425,0,1,0,0,8.85A13.287,13.287,0,0,0,18.225,47.8v2.434L17.443,51.4l-6.7,2.448A13.254,13.254,0,0,0,2,66.31V89.025A1.475,1.475,0,0,0,3.475,90.5h79.65A7.375,7.375,0,0,0,90.5,83.125V9.375A7.375,7.375,0,0,0,83.125,2ZM10.85,32.975a1.475,1.475,0,1,1,0-2.95ZM31.5,15.88l8.85-8.85v11.2A1.475,1.475,0,0,1,38.875,19.7H37.4V18.225a1.475,1.475,0,0,0-1.475-1.475H31.5Zm5.9,14.145a1.475,1.475,0,1,1,0,2.95ZM31.352,19.7h3.1v3.215a4.425,4.425,0,0,0-1.475-.265H29.981a7.139,7.139,0,0,0,1.372-2.95ZM13.8,19.7a4.438,4.438,0,0,1,4.425-4.425H28.55v2.95a4.438,4.438,0,0,1-4.425,4.425h-8.85a4.425,4.425,0,0,0-1.475.266Zm0,16.225v-8.85A1.475,1.475,0,0,1,15.275,25.6h17.7a1.475,1.475,0,0,1,1.475,1.475v8.85a10.325,10.325,0,0,1-20.65,0Zm7.375,14.337v-1.4a13,13,0,0,0,5.9,0v1.4l-2.95,4.926Zm1,7.4-2.965,2.227-.9-4.484,1.327-1.976Zm6.431-4.233,1.328,1.976-.9,4.484-2.965-2.227Zm7.316,11.992V87.55h-23.6V65.425H9.375V87.55H4.95V66.31a10.307,10.307,0,0,1,6.8-9.69l3.556-1.3V55.4l1.475,7.375a1.475,1.475,0,0,0,.914,1.077,1.36,1.36,0,0,0,.531.1,1.518,1.518,0,0,0,.885-.3l5.015-3.761,5.015,3.761a1.518,1.518,0,0,0,.885.3,1.36,1.36,0,0,0,.531-.1,1.475,1.475,0,0,0,.915-1.077L32.945,55.4v-.074l4.233,1.534a10.34,10.34,0,0,1,6.755,8.835l.354,4.145-.9,2.463,2.773,1L51.707,58.05h5.738l-5.974,17.1A7.375,7.375,0,0,1,40.6,78.951l-1.726-1.062V65.425ZM52.15,55.1V53.625a1.475,1.475,0,0,1,1.475-1.475H61v1.475A1.475,1.475,0,0,1,59.525,55.1Zm35.4,28.025a4.438,4.438,0,0,1-4.425,4.425H38.875V81.355l.162.1a10.239,10.239,0,0,0,5.458,1.578,10.125,10.125,0,0,0,3.422-.59,10.245,10.245,0,0,0,6.328-6.328l6.387-18.231a4.413,4.413,0,0,0,3.319-4.263v-2.95A1.475,1.475,0,0,0,62.475,49.2h-8.85A4.438,4.438,0,0,0,49.2,53.625v2.685l-2.625,7.228a13.341,13.341,0,0,0-8.393-9.455L30.807,51.4l-.782-1.165V47.8A13.287,13.287,0,0,0,37.4,35.925a4.425,4.425,0,1,0,0-8.85V22.65h1.475A4.438,4.438,0,0,0,43.3,18.225V4.95H83.125A4.438,4.438,0,0,1,87.55,9.375Z" transform="translate(0)"/>
      <path id="Trazado_604369" data-name="Trazado 604369" d="M64.5,23.75A14.75,14.75,0,1,0,49.75,38.5,14.75,14.75,0,0,0,64.5,23.75Zm-2.95,0a11.723,11.723,0,0,1-2.49,7.227l-2.1-2.1a8.826,8.826,0,0,0-5.73-13.841V12.052A11.812,11.812,0,0,1,61.55,23.75Zm-11.8-5.9a5.9,5.9,0,1,1-5.9,5.9A5.9,5.9,0,0,1,49.75,17.85Zm-1.475-5.8v2.981a8.862,8.862,0,0,0-7.242,7.242H38.052A11.812,11.812,0,0,1,48.275,12.052ZM38.052,25.225h2.981a8.826,8.826,0,0,0,13.837,5.73l2.108,2.1a11.772,11.772,0,0,1-18.926-7.835Z" transform="translate(15.675 3.325)"/>
      <path id="Trazado_604370" data-name="Trazado 604370" d="M52,8h5.9v2.95H52Z" transform="translate(23.75 2.85)"/>
      <path id="Trazado_604371" data-name="Trazado 604371" d="M34,29h5.9v2.95H34Z" transform="translate(15.2 12.825)"/>
      <path id="Trazado_604372" data-name="Trazado 604372" d="M52,29h5.9v2.95H52Z" transform="translate(23.75 12.825)"/>
      <path id="Trazado_604373" data-name="Trazado 604373" d="M34,8h5.9v2.95H34Z" transform="translate(15.2 2.85)"/>
      <path id="Trazado_604374" data-name="Trazado 604374" d="M46,34H60.75v2.95H46Z" transform="translate(20.9 15.2)"/>
      <path id="Trazado_604375" data-name="Trazado 604375" d="M46,38H60.75v2.95H46Z" transform="translate(20.9 17.1)"/>
      <path id="Trazado_604376" data-name="Trazado 604376" d="M44,42H61.7v2.95H44Z" transform="translate(19.95 19)"/>
      <path id="Trazado_604377" data-name="Trazado 604377" d="M44,46H61.7v2.95H44Z" transform="translate(19.95 20.9)"/>
      <path id="Trazado_604378" data-name="Trazado 604378" d="M42,50H62.65v2.95H42Z" transform="translate(19 22.8)"/>
      <path id="Trazado_604379" data-name="Trazado 604379" d="M42,54H62.65v2.95H42Z" transform="translate(19 24.7)"/>
    </g>
  </g>
</svg>
