<svg id="Grupo_991350" data-name="Grupo 991350" xmlns="http://www.w3.org/2000/svg" xmlns:xlink="http://www.w3.org/1999/xlink" width="190" height="140" viewBox="0 0 190 140">
  <defs>
    <clipPath id="clip-path">
      <rect id="Rect치ngulo_338989" data-name="Rect치ngulo 338989" width="101.735" height="112.203" fill="none"/>
    </clipPath>
  </defs>
  <rect id="Rect치ngulo_338945" data-name="Rect치ngulo 338945" width="190" height="140" rx="12" fill="#3c3fa7"/>
  <g id="Grupo_984112" data-name="Grupo 984112" transform="translate(43.663 13.898)">
    <g id="Grupo_984111" data-name="Grupo 984111" clip-path="url(#clip-path)">
      <path id="Trazado_212234" data-name="Trazado 212234" d="M4.576,0A8.652,8.652,0,0,0,1.833,1.491,5.652,5.652,0,0,0,.01,5.685q-.021,14.845,0,29.691a3.127,3.127,0,0,0,2.448,3.209A3.082,3.082,0,0,0,6.18,37.05c1.388-2.226,2.777-4.453,4.109-6.713a1.647,1.647,0,0,1,1.644-.919q15.339.044,30.678.015c3.077,0,5.24-1.608,5.887-4.361a7.807,7.807,0,0,0,.141-1.737q.014-8.271.005-16.544c0-3.955-.994-5.415-4.623-6.792Z" transform="translate(53.089)"/>
      <path id="Trazado_212235" data-name="Trazado 212235" d="M51.334,144.608c3.615,0,7.23-.012,10.845,0a31.4,31.4,0,0,0,17.569-5.16q9.587-6.214,19.175-12.428c1.185-.768,1.473-1.388.946-2.535C94.26,112.276,86.581,101.7,75.317,94.078A20.035,20.035,0,0,0,63.529,90.29a20.524,20.524,0,0,0-11.572,3.755c-.454.319-.757.487-1.323.107-7.65-5.133-15.4-5.121-23.172-.3-6.4,3.971-11.4,9.415-15.877,15.37A71.258,71.258,0,0,0,2.74,124.135c-.65,1.529-.5,2.054.858,2.923,6.623,4.254,13.238,8.52,19.882,12.739a30.7,30.7,0,0,0,16.68,4.809c3.725.013,7.449,0,11.174,0" transform="translate(0.095 -32.409)"/>
      <path id="Trazado_212236" data-name="Trazado 212236" d="M100.8,28.251c-1.44-.115-2.9.255-4.327-.219-.54.677-.954,1.505-1.961,1.619-1.534.11-3.066.011-4.6.051-1.274.033-1.666.353-1.977,1.591a6.693,6.693,0,0,0-.172,1.628q-.006,8.371,0,16.743a3.919,3.919,0,0,0,.96,3.035,4.15,4.15,0,0,0,1.936.222c8.575.006,17.151.021,25.725-.01,1.918-.007,3.816-.125,5.164,1.613a2.965,2.965,0,0,0,1.077.147,2.468,2.468,0,0,1,2.149,1.088,4.348,4.348,0,0,0,.557.672c.528.476.8.39.947-.293a3.14,3.14,0,0,0,.038-.654c-.006-7.981.026-15.962-.013-23.944a2.487,2.487,0,0,0-2.275-2.036,8.167,8.167,0,0,0-1.529-.059c-6.091,0-12.183-.025-18.274.019a3.929,3.929,0,0,1-3.434-1.215" transform="translate(-80.842 -10.064)" fill="#e9f8f9"/>
      <path id="Trazado_212237" data-name="Trazado 212237" d="M123.545,53.5c-.7-1.441-1.879-1.724-3.409-1.714-9.367.063-18.733.032-28.1.028-.435,0-.87-.044-1.3-.067a2.836,2.836,0,0,0-1.888-.363c-1.672-.039-2.3-.631-2.364-2.308-.042-1.019-.013-2.039-.013-3.059q0-6.937,0-13.873c0-2.147.673-2.682,2.778-2.908,2.54-.273,5.081-.073,7.615-.27a1.756,1.756,0,0,0,1.576-1.79,1.806,1.806,0,0,0-2.051-1.533c-2.629.026-5.258-.011-7.887.013a5.572,5.572,0,0,0-5.671,5.7q-.038,8.982,0,17.963a5.534,5.534,0,0,0,5.694,5.774c2.7.059,5.4.015,8.105.015,7.667,0,15.335.01,23-.015a1.467,1.467,0,0,1,1.482.808c1.31,2.229,2.687,4.42,4.048,6.619,1.011,1.634,2.218,2.168,3.839,1.726,1.651-.451,2.463-1.6,2.464-3.526q0-14.513,0-29.027a5.661,5.661,0,0,0-6.021-6.036q-10.242-.011-20.484,0c-1.433,0-1.836.33-2.191,1.743.29,1.194,1.079,1.563,2.262,1.558,6.811-.031,13.623-.018,20.434-.012a2.245,2.245,0,0,1,2.54,1.72,2.474,2.474,0,0,1,.094,1.183c.007,5.951-.032,11.9.019,17.851.029,3.354-.158,6.7-.287,10.147-1.044-1.479-1.858-3.017-2.813-4.464a5.537,5.537,0,0,0-1.468-1.88" transform="translate(-82.812 -9.205)"/>
      <path id="Trazado_212238" data-name="Trazado 212238" d="M5.729,30.116a5.385,5.385,0,0,0,.488-.709,2.5,2.5,0,0,1,2.572-1.435C19.2,28,29.6,27.99,40.012,27.989c.4,0,.805.012,1.2-.021a2.209,2.209,0,0,0,2.2-2.264q.035-9.147,0-18.295a2.265,2.265,0,0,0-2.532-2.279q-6.19-.021-12.38,0-11.173.013-22.346.035a2.054,2.054,0,0,0-.99,2.047c-.047,1.495-.017,2.99-.017,4.486,0,5.617-.013,11.233.016,16.85,0,.553-.247,1.278.568,1.572" transform="translate(55.018 -1.839)" fill="#e9f8f9"/>
      <path id="Trazado_212239" data-name="Trazado 212239" d="M67.663,30.12c-.4-.352-.226-.821-.227-1.237-.011-7.043,0-14.085-.022-21.128a4.41,4.41,0,0,1,.672-2.589c-.728-.012-1.456-.041-2.184-.032a2.382,2.382,0,0,0-2.6,2.573c-.028,1.749-.007,3.5-.007,5.25,0,7.981,0,15.963.208,24.06l4.161-6.9" transform="translate(-6.916 -1.842)" fill="#c8eef1"/>
      <path id="Trazado_212240" data-name="Trazado 212240" d="M37.313,160.538c7.517,0,15.036.1,22.551-.033a23.155,23.155,0,0,0,11.759-3.362c5.964-3.646,11.8-7.5,17.992-11.465-1.886-.227-3.442-.442-5-.6a180.669,180.669,0,0,0-22.831-1.142c-4.814.129-9.625.392-14.191,2.184a1.7,1.7,0,0,1-1.28-.015c-4.6-1.806-9.451-2.052-14.3-2.169a155.324,155.324,0,0,0-19.886.907c-.056.592.4.816.792,1.065,6.372,4.1,12.732,8.22,19.144,12.257a17.031,17.031,0,0,0,5.254,2.372" transform="translate(4.352 -51.663)" fill="#e659a9"/>
      <path id="Trazado_212241" data-name="Trazado 212241" d="M86.6,119.922C81.421,111.441,75.36,103.747,66.8,98.4c-7.156-4.471-13.987-3.97-20.638,1.3-.9.715-1.546.686-2.529-.134a16.076,16.076,0,0,0-7.885-3.739,16.749,16.749,0,0,0-4.694,2.707,61.421,61.421,0,0,0-8.967,8.441,85.486,85.486,0,0,0-7.857,10.47c-.278.424-.783.834-.383,1.455,5.307-2.111,10.661-4.114,15.9-6.382a10.277,10.277,0,0,1,7.688-.478c5.878,1.823,11.821,1.154,17.633-.731,1.482-.481,2.093-.212,2.638,1.175.283.593.842.5,1.335.5,2.076.021,4.154.055,6.228-.006a11.212,11.212,0,0,1,4.677.912c4.915,2.031,9.856,4,14.8,5.968a5.725,5.725,0,0,0,1.129.4c.3.051.676.177.722-.343" transform="translate(6.354 -34.239)" fill="#e659a9"/>
      <path id="Trazado_212242" data-name="Trazado 212242" d="M71.466,123.4a2.725,2.725,0,0,1-1.558,1.107c-7.172,2.335-14.362,2.695-21.581.222a1.507,1.507,0,0,0-1.14-.007q-10.984,4.426-21.98,8.821a6.463,6.463,0,0,0-.6.358,50.452,50.452,0,0,0,6.31-.3c7.59-.423,15.175-.673,22.721.558a26.916,26.916,0,0,1,3.93.923,3.892,3.892,0,0,0,2.5-.015,49.915,49.915,0,0,1,13.3-1.763c6.686-.187,13.352.21,20.057.679q-3.614-1.45-7.228-2.9-4.608-1.852-9.215-3.709c-1.415-.574-1.6-.887-1.519-2.382a8.388,8.388,0,0,0-4-1.588" transform="translate(-7.47 -44.303)" fill="#fefefe"/>
      <path id="Trazado_212243" data-name="Trazado 212243" d="M105.923,118.912a2.106,2.106,0,0,1,.514-1.174,85.385,85.385,0,0,1,8.037-10.68A55.718,55.718,0,0,1,124.6,97.851c1.053-.7,2.149-1.343,3.225-2.013a14.287,14.287,0,0,0-9.594.992,35.026,35.026,0,0,0-10.1,7.037,77.56,77.56,0,0,0-14.607,19.3c-.12.221-.226.449-.495.986l12.893-5.243" transform="translate(-85.718 -34.253)" fill="#df3d9b"/>
      <path id="Trazado_212244" data-name="Trazado 212244" d="M126.323,161.07c-1.963-1.1-4.082-1.876-5.975-3.132-3.691-2.448-7.456-4.786-11.191-7.169q-3.581-2.286-7.165-4.568a2.9,2.9,0,0,1-.858-.825l-7.416.738c.161.513.546.6.831.786q7.576,4.881,15.167,9.742a27.83,27.83,0,0,0,16.608,4.427" transform="translate(-84.657 -52.194)" fill="#df3d9b"/>
      <path id="Trazado_212245" data-name="Trazado 212245" d="M10.034,122.92l4,1.588c.926-1.113,1.393-1.22,2.851-.635L40.367,133.3c.263.106.527.209.975.387a28.837,28.837,0,0,0-2.351-4.173c-.29.369-.578.124-.874,0q-7.973-3.219-15.951-6.43a9.953,9.953,0,0,0-4.02-.823c-2.256.062-4.515.017-6.773.016a2.091,2.091,0,0,1-1.269-.208l-.069.851" transform="translate(53.962 -43.826)" fill="#df3d9b"/>
      <path id="Trazado_212246" data-name="Trazado 212246" d="M147.556,30.81c-2.774-.009-5.548-.041-8.322-.019a2.27,2.27,0,0,0-2.421,2.4q-.029,9.037,0,18.074a2.21,2.21,0,0,0,2.213,2.36c.8.053,1.6-.019,2.4-.034a8.2,8.2,0,0,1-.674-3.5c.037-5.366.015-10.734.015-16.1,0-.219-.005-.438,0-.657.057-1.99.41-2.3,2.344-2.354a17.994,17.994,0,0,0,4.443-.167" transform="translate(-133.505 -11.052)" fill="#c8eef1"/>
      <path id="Trazado_212247" data-name="Trazado 212247" d="M87.9,56.307l4.411,7.324.23-.079V58.685q0-11.975-.005-23.951c0-.424.122-.879-.181-1.265v25.01C91.284,56.8,89.923,55.89,87.9,56.307" transform="translate(-47.167 -12.016)" fill="#c8eef1"/>
      <path id="Trazado_212248" data-name="Trazado 212248" d="M119.945,49.734a1.685,1.685,0,0,0,1.67-1.677,1.642,1.642,0,0,0-3.28-.056,1.691,1.691,0,0,0,1.61,1.734" transform="translate(-95.728 -16.68)" fill="#030303"/>
      <path id="Trazado_212249" data-name="Trazado 212249" d="M107.652,46.465a1.643,1.643,0,0,0-1.669,1.655,1.724,1.724,0,0,0,1.631,1.615,1.649,1.649,0,0,0,1.636-1.687,1.581,1.581,0,0,0-1.6-1.583" transform="translate(-75.447 -16.682)" fill="#020202"/>
      <path id="Trazado_212250" data-name="Trazado 212250" d="M130.71,48.063a1.653,1.653,0,0,0,1.653,1.673,1.72,1.72,0,0,0,1.614-1.631,1.645,1.645,0,0,0-1.681-1.64,1.583,1.583,0,0,0-1.586,1.6" transform="translate(-116.023 -16.682)" fill="#020202"/>
      <path id="Trazado_212251" data-name="Trazado 212251" d="M24.579,20.859a1.642,1.642,0,1,0-.015,3.283,1.642,1.642,0,0,0,.015-3.283" transform="translate(60.844 -7.489)" fill="#020202"/>
      <path id="Trazado_212252" data-name="Trazado 212252" d="M36.913,20.858a1.642,1.642,0,0,0-.007,3.283,1.642,1.642,0,1,0,.007-3.283" transform="translate(40.567 -7.489)" fill="#020202"/>
      <path id="Trazado_212253" data-name="Trazado 212253" d="M49.3,24.143a1.64,1.64,0,1,0-.025-3.28,1.64,1.64,0,0,0,.025,3.28" transform="translate(20.246 -7.49)" fill="#010101"/>
    </g>
  </g>
</svg>
