<svg id="Grupo_991352" data-name="Grupo 991352" xmlns="http://www.w3.org/2000/svg" xmlns:xlink="http://www.w3.org/1999/xlink" width="90" height="90" viewBox="0 0 90 90">
  <defs>
    <clipPath id="clip-path">
      <rect id="Rectángulo_41973" data-name="Rectángulo 41973" width="45.806" height="71.714" fill="none"/>
    </clipPath>
  </defs>
  <path id="Trazado_212900" data-name="Trazado 212900" d="M45,0A45,45,0,1,1,0,45,45,45,0,0,1,45,0Z" transform="translate(0 0)" fill="#ffe891"/>
  <g id="Grupo_167996" data-name="Grupo 167996" transform="translate(22.194 9.001)">
    <g id="Grupo_167996-2" data-name="Grupo 167996" transform="translate(0 0)" clip-path="url(#clip-path)">
      <path id="Trazado_157712" data-name="Trazado 157712" d="M4.717,14.374c0,.427-2.217,20.607,1.077,22.561s5.834-21.929,5.834-21.929Z" transform="translate(0 0)" fill="#704c44"/>
      <path id="Trazado_157713" data-name="Trazado 157713" d="M2.731,40.8A5.254,5.254,0,0,0,8.6,45.326a5.254,5.254,0,0,0,3.912-6.294A5.254,5.254,0,0,0,6.643,34.5,5.254,5.254,0,0,0,2.731,40.8" transform="translate(0 0)" fill="#de937a"/>
      <rect id="Rectángulo_41971" data-name="Rectángulo 41971" width="2.735" height="0.889" transform="translate(4.368 37.806) rotate(-10.691)" fill="#fff"/>
      <path id="Trazado_157714" data-name="Trazado 157714" d="M33.622,51.558V67.77a1.685,1.685,0,0,1-.638,1.331c-1.885,1.473-7.767,5.077-15.235-.031a1.7,1.7,0,0,1-.72-1.4V56.7Z" transform="translate(0 0)" fill="#fab39b"/>
      <path id="Trazado_157715" data-name="Trazado 157715" d="M17.029,62.026c3.708.243,12.389-.1,16.593-7.866v-2.6L17.029,56.7Z" transform="translate(0 0)" fill="#de937a"/>
      <path id="Trazado_157716" data-name="Trazado 157716" d="M6.76,20.963S2.107,59.187,17.886,59.839c11.226.465,15.98-2.053,18.443-11.511,1.736-6.663,2.957-17.612,1.328-24.563-.668-2.847,2.927-6.637.838-8.683C33.719,10.4,25.681,7.968,19.207,8.8,12.356,9.676,7.718,14.07,6.76,20.963" transform="translate(0 0)" fill="#fab39b"/>
      <path id="Trazado_157717" data-name="Trazado 157717" d="M35.853,35.987,34.694,23.2S13.542,27.613,6.037,21.406C-9.21,8.8,6.464-6.521,30.287,8.638c5.5,3.5,10.224,4.876,12.092,5.989a4.944,4.944,0,0,1,2.408,3.745c.321,3.211.181,19.133-2.444,24.8Z" transform="translate(0 0)" fill="#704c44"/>
      <path id="Trazado_157718" data-name="Trazado 157718" d="M45.7,40.716c-.61,3.384-3.583,5.681-6.64,5.13s-5.041-3.742-4.43-7.127,3.583-5.681,6.64-5.129,5.041,3.742,4.43,7.126" transform="translate(0 0)" fill="#fab39b"/>
      <path id="Trazado_157719" data-name="Trazado 157719" d="M40.835,41.538c-.426-.826-2.058-1.043-2.65-1.057l-.391-.009.1-.377a4.193,4.193,0,0,1,2.039-2.889,3.093,3.093,0,0,1,2.406-.047l-.246.559a2.513,2.513,0,0,0-1.906.043,3.381,3.381,0,0,0-1.6,2.138c.732.075,2.263.352,2.783,1.359Z" transform="translate(0 0)" fill="#38261f"/>
      <path id="Trazado_157720" data-name="Trazado 157720" d="M22.4,29.111c.556-.852,2.744-.317,3.957.2,1.529.65,2.86,1.845,2.682,2.2-.121.244-.832-.115-2.458-.224-2.208-.149-2.961.373-3.677-.231a1.7,1.7,0,0,1-.5-1.947" transform="translate(0 0)" fill="#704c44"/>
      <path id="Trazado_157721" data-name="Trazado 157721" d="M12.668,28.774c-.628-.788-2.736-.057-3.885.566-1.446.783-2.648,2.086-2.438,2.422.143.229.809-.191,2.4-.45,2.164-.353,2.955.092,3.6-.571a1.679,1.679,0,0,0,.317-1.967" transform="translate(0 0)" fill="#704c44"/>
      <path id="Trazado_157722" data-name="Trazado 157722" d="M28.5,42.283H21.218a1.926,1.926,0,0,1-1.924-1.924V35.932a1.927,1.927,0,0,1,1.924-1.924H28.5a1.927,1.927,0,0,1,1.924,1.924v4.427A1.926,1.926,0,0,1,28.5,42.283M21.218,34.9a1.036,1.036,0,0,0-1.035,1.035v4.427a1.036,1.036,0,0,0,1.035,1.035H28.5a1.036,1.036,0,0,0,1.035-1.035V35.932A1.036,1.036,0,0,0,28.5,34.9Z" transform="translate(0 0)" fill="#fff"/>
      <path id="Trazado_157723" data-name="Trazado 157723" d="M11.311,42.283h-5.5a1.926,1.926,0,0,1-1.924-1.924V35.932a1.927,1.927,0,0,1,1.924-1.924h5.5a1.927,1.927,0,0,1,1.924,1.924v4.427a1.926,1.926,0,0,1-1.924,1.924M5.808,34.9a1.036,1.036,0,0,0-1.035,1.035v4.427a1.036,1.036,0,0,0,1.035,1.035h5.5a1.036,1.036,0,0,0,1.035-1.035V35.932A1.036,1.036,0,0,0,11.311,34.9Z" transform="translate(0 0)" fill="#fff"/>
      <path id="Trazado_157724" data-name="Trazado 157724" d="M18.026,50.029a7.75,7.75,0,0,1-2.74-.6l.328-.692c.184.086,4.555,2.061,9.984-2.125l.469.606a12,12,0,0,1-8.041,2.81" transform="translate(0 0)" fill="#38261f"/>
      <path id="Trazado_157725" data-name="Trazado 157725" d="M15.57,44.476a3.6,3.6,0,0,1-2.637-1.853c-.483-1.172-.052-2.678,1.28-4.478l.616.457c-1.143,1.544-1.555,2.832-1.189,3.726a2.876,2.876,0,0,0,2.047,1.39Z" transform="translate(0 0)" fill="#38261f"/>
      <path id="Trazado_157726" data-name="Trazado 157726" d="M25.209,38.406c-.185.935-.776,1.6-1.321,1.5s-.837-.953-.652-1.888.776-1.6,1.321-1.5.837.953.652,1.888" transform="translate(0 0)" fill="#38261f"/>
      <path id="Trazado_157727" data-name="Trazado 157727" d="M10.493,38.107c-.168.852-.707,1.463-1.2,1.365s-.762-.868-.594-1.72.707-1.463,1.2-1.365.762.868.594,1.72" transform="translate(0 0)" fill="#38261f"/>
      <path id="Trazado_157728" data-name="Trazado 157728" d="M19.479,38.1c-3.836-2.755-6.406-.165-6.514-.054l-.644-.613c.032-.033,3.2-3.271,7.676-.055Z" transform="translate(0 0)" fill="#fff"/>
      <rect id="Rectángulo_41972" data-name="Rectángulo 41972" width="6.439" height="0.888" transform="matrix(0.944, -0.329, 0.329, 0.944, 29.832, 37.315)" fill="#fff"/>
      <path id="Trazado_157729" data-name="Trazado 157729" d="M34.685,12.925c-2.719-3.625-8.7-9.957-18.21-11.634A27.26,27.26,0,0,0,6.4,1.432L6.224.56a28.115,28.115,0,0,1,10.4-.144C26.439,2.146,32.6,8.662,35.4,12.391Z" transform="translate(0 0)" fill="#704c44"/>
      <path id="Trazado_157730" data-name="Trazado 157730" d="M17.769,51.665s-6.14,6.022-10.149-3.6c0,0-1.113,9.632,4.009,14.951,3.4,3.535,19.945,4.791,24.43-1.981S38.6,41.839,38.6,41.839l-4.209.985a3.348,3.348,0,0,0-1.92,2.334c-.823,3.618-3.633,11.623-11.8,6.294Z" transform="translate(0 0)" fill="#704c44"/>
      <path id="Trazado_157731" data-name="Trazado 157731" d="M12.4,63.626C10.311,62.2,8.24,60.5,7.209,57.754A11.16,11.16,0,0,1,7.576,49.2l.789.409a10.365,10.365,0,0,0-.323,7.828,11.833,11.833,0,0,0,4.857,5.45Z" transform="translate(0 0)" fill="#704c44"/>
    </g>
  </g>
</svg>
