<svg xmlns="http://www.w3.org/2000/svg" xmlns:xlink="http://www.w3.org/1999/xlink" width="117" height="116" viewBox="0 0 117 116">
  <defs>
    <filter id="Elipse_4893" x="0" y="0" width="117" height="116" filterUnits="userSpaceOnUse">
      <feOffset dy="3" input="SourceAlpha"/>
      <feGaussianBlur stdDeviation="3" result="blur"/>
      <feFlood flood-opacity="0.161"/>
      <feComposite operator="in" in2="blur"/>
      <feComposite in="SourceGraphic"/>
    </filter>
  </defs>
  <g id="Grupo_991085" data-name="Grupo 991085" transform="translate(8.52 5.908)">
    <g transform="matrix(1, 0, 0, 1, -8.52, -5.91)" filter="url(#Elipse_4893)">
      <ellipse id="Elipse_4893-2" data-name="Elipse 4893" cx="49.5" cy="49" rx="49.5" ry="49" transform="translate(9 6)" fill="#3c3fa7"/>
    </g>
    <g id="objetivo_5_" data-name="objetivo (5)" transform="translate(16.028 15.092)">
      <g id="Grupo_991101" data-name="Grupo 991101" transform="translate(3.286 1.095)">
        <g id="Grupo_991086" data-name="Grupo 991086" transform="translate(42.112 4.644)">
          <path id="Trazado_692499" data-name="Trazado 692499" d="M51.69,11.768l-4.644,4.644-.011.011a23.991,23.991,0,0,0-5.586-4.173l.164-.493a8.251,8.251,0,0,0,.438-2.683V5.24a30.8,30.8,0,0,1,9.638,6.528Z" transform="translate(-41.45 -5.24)" fill="#ef7385"/>
        </g>
        <g id="Grupo_991087" data-name="Grupo 991087" transform="translate(43.185 49.888)">
          <path id="Trazado_692500" data-name="Trazado 692500" d="M46.953,46.561,51.6,51.2a30.8,30.8,0,0,1-9.167,6.319l.887-.887a6.563,6.563,0,0,0,1.928-4.655V48.105a18.909,18.909,0,0,0,1.7-1.555Z" transform="translate(-42.43 -46.55)" fill="#ef7385"/>
        </g>
        <g id="Grupo_991088" data-name="Grupo 991088" transform="translate(47.697 11.171)">
          <path id="Trazado_692501" data-name="Trazado 692501" d="M60.186,32.886H53.614A23.984,23.984,0,0,0,46.55,15.855l.011-.011L51.2,11.2a30.568,30.568,0,0,1,8.981,21.686Z" transform="translate(-46.55 -11.2)" fill="#ef7385"/>
        </g>
        <g id="Grupo_991089" data-name="Grupo 991089" transform="translate(47.697 32.857)">
          <path id="Trazado_692502" data-name="Trazado 692502" d="M53.614,31h6.571A30.614,30.614,0,0,1,51.2,52.686l-4.644-4.644-.011-.011A23.939,23.939,0,0,0,53.614,31Z" transform="translate(-46.55 -31)" fill="#ef7385"/>
        </g>
        <g id="Grupo_991090" data-name="Grupo 991090" transform="translate(0 32.857)">
          <path id="Trazado_692503" data-name="Trazado 692503" d="M16.636,48.031l-.011.011-4.644,4.644A30.568,30.568,0,0,1,3,31H9.571a23.939,23.939,0,0,0,7.064,17.031Z" transform="translate(-3 -31)" fill="#ef7385"/>
        </g>
        <g id="Grupo_991091" data-name="Grupo 991091" transform="translate(8.981 49.888)">
          <path id="Trazado_692504" data-name="Trazado 692504" d="M29.6,58V60.01A30.647,30.647,0,0,1,11.2,51.2l4.644-4.644.011-.011a23.95,23.95,0,0,0,10.5,6.166,6.558,6.558,0,0,0,1.884,3.921Z" transform="translate(-11.2 -46.55)" fill="#ef7385"/>
        </g>
        <g id="Grupo_991092" data-name="Grupo 991092" transform="translate(0 11.171)">
          <path id="Trazado_692505" data-name="Trazado 692505" d="M16.625,15.844l.011.011A24,24,0,0,0,9.571,32.886H3A30.614,30.614,0,0,1,11.981,11.2Z" transform="translate(-3 -11.2)" fill="#ef7385"/>
        </g>
        <g id="Grupo_991093" data-name="Grupo 991093" transform="translate(8.981 4.173)">
          <path id="Trazado_692506" data-name="Trazado 692506" d="M21.276,11.8l.164.5-.044.011a23.662,23.662,0,0,0-5.542,4.151l-.011-.011L11.2,11.809a30.836,30.836,0,0,1,10.81-7,8.418,8.418,0,0,0-1.172,4.3A8.251,8.251,0,0,0,21.276,11.8Z" transform="translate(-11.2 -4.81)" fill="#ef7385"/>
        </g>
        <g id="Grupo_991094" data-name="Grupo 991094" transform="translate(27.381 61.333)">
          <path id="Trazado_692507" data-name="Trazado 692507" d="M43.333,57v4.381H28V57Z" transform="translate(-28 -57)" fill="#b4dd7f"/>
        </g>
        <g id="Grupo_991095" data-name="Grupo 991095" transform="translate(21.905 28.476)">
          <path id="Trazado_692508" data-name="Trazado 692508" d="M33.952,39.048a2.2,2.2,0,0,1,2.19-2.19,2.206,2.206,0,0,1,2.19,2.19v1.1a2.2,2.2,0,0,1,2.19-2.19,2.206,2.206,0,0,1,2.19,2.19v1.1a2.148,2.148,0,0,1,.646-1.555A2.192,2.192,0,0,1,47.1,41.238V53.844A6.563,6.563,0,0,1,45.167,58.5l-.887.887-.471.471H28.476L27.118,58.5a6.558,6.558,0,0,1-1.884-3.921,5.5,5.5,0,0,1-.044-.734v-2.65a19.04,19.04,0,0,0-2-8.488,1.772,1.772,0,0,1,1.588-2.563,4.8,4.8,0,0,1,4.8,4.8V29.19A2.2,2.2,0,0,1,31.762,27a2.206,2.206,0,0,1,2.19,2.19v9.857Z" transform="translate(-23 -27)" fill="#f0d0b4"/>
        </g>
        <g id="Grupo_991096" data-name="Grupo 991096" transform="translate(21.905 24.095)">
          <path id="Trazado_692509" data-name="Trazado 692509" d="M40.524,31.762H33.952v-2.19a2.206,2.206,0,0,0-2.19-2.19,2.2,2.2,0,0,0-2.19,2.19v2.19H23a8.762,8.762,0,1,1,17.524,0Z" transform="translate(-23 -23)" fill="#b4dd7f"/>
        </g>
        <g id="Grupo_991097" data-name="Grupo 991097" transform="translate(18.619)">
          <path id="Trazado_692510" data-name="Trazado 692510" d="M20.756,13.135l-.153-.471-.164-.5A8.251,8.251,0,0,1,20,9.477a8.418,8.418,0,0,1,1.172-4.3,8.945,8.945,0,0,1,1.314-1.687A8.442,8.442,0,0,1,28.477,1H44.1V9.477a8.251,8.251,0,0,1-.438,2.683l-.164.493-.153.482a3.283,3.283,0,0,0-2.53-1.183h-1.1a2.2,2.2,0,0,0-2.19-2.19H32.957a7.486,7.486,0,0,1-5.29-2.19,4.815,4.815,0,0,0-3.286,4.381h-1.1a3.283,3.283,0,0,0-2.53,1.183Z" transform="translate(-20 -1)" fill="#fcd770"/>
        </g>
        <g id="Grupo_991098" data-name="Grupo 991098" transform="translate(38.333 10.952)">
          <path id="Trazado_692511" data-name="Trazado 692511" d="M41.625,12.183a3.29,3.29,0,0,1-2.53,5.389H38V11h1.1a3.283,3.283,0,0,1,2.53,1.183Z" transform="translate(-38 -11)" fill="#f0d0b4"/>
        </g>
        <g id="Grupo_991099" data-name="Grupo 991099" transform="translate(23 6.571)">
          <path id="Trazado_692512" data-name="Trazado 692512" d="M24,11.381A4.815,4.815,0,0,1,27.286,7a7.486,7.486,0,0,0,5.29,2.19h4.567a2.2,2.2,0,0,1,2.19,2.19v6.571a6.577,6.577,0,0,1-6.571,6.571h-2.19A6.577,6.577,0,0,1,24,17.952V11.381Z" transform="translate(-24 -7)" fill="#f0d0b4"/>
        </g>
        <g id="Grupo_991100" data-name="Grupo 991100" transform="translate(18.619 10.952)">
          <path id="Trazado_692513" data-name="Trazado 692513" d="M24.381,11v6.571h-1.1a3.286,3.286,0,1,1,0-6.571Z" transform="translate(-20 -11)" fill="#f0d0b4"/>
        </g>
      </g>
      <g id="Grupo_991102" data-name="Grupo 991102" transform="translate(0 0)">
        <path id="Trazado_692515" data-name="Trazado 692515" d="M67.9,35.047v-2.19H65.673a31.7,31.7,0,0,0-8.507-20.571l1.568-1.568L57.186,9.169l-1.567,1.567A31.78,31.78,0,0,0,47.095,5.05V0H30.386a9.568,9.568,0,0,0-8.039,4.392A31.493,31.493,0,0,0,12.3,10.754L10.719,9.17,9.17,10.719,10.754,12.3A31.9,31.9,0,0,0,2.233,32.857H0v2.19H2.216a31.677,31.677,0,0,0,8.5,20.591L9.17,57.185l1.549,1.549,1.542-1.542A31.6,31.6,0,0,0,29.572,65.4v2.5H47.1V62.882l.026-.026a31.648,31.648,0,0,0,8.487-5.7l1.577,1.577,1.549-1.549-1.578-1.578a31.777,31.777,0,0,0,8.518-20.56Zm-4.421-2.19H59.105a25.157,25.157,0,0,0-6.583-15.926l3.1-3.1a29.514,29.514,0,0,1,7.865,19.022Zm-33.4,27.437a5.507,5.507,0,0,1-1.6-3.874V53.766a20.187,20.187,0,0,0-2.118-8.977.678.678,0,0,1,.606-.98,3.709,3.709,0,0,1,3.7,3.705v2.866h2.19V31.762a1.1,1.1,0,1,1,2.19,0V50.381h2.19V41.619a1.1,1.1,0,0,1,2.19,0v8.762h2.19V42.714a1.1,1.1,0,1,1,2.19,0v7.667H46V43.808a1.1,1.1,0,0,1,2.19,0v12.61a5.445,5.445,0,0,1-1.6,3.873l-1.04,1.039H31.12ZM10.952,33.952A22.989,22.989,0,0,1,20.836,15.07c-.005.089-.026.173-.026.263a4.385,4.385,0,0,0,4.381,4.381h.088a7.677,7.677,0,0,0,3.895,5.624A9.862,9.862,0,0,0,24.1,33.952v1.1h6.571v7.919a5.834,5.834,0,0,0-3.7-1.347,2.868,2.868,0,0,0-2.565,4.15,17.967,17.967,0,0,1,1.888,8v1.863A23.077,23.077,0,0,1,10.952,33.952ZM25.19,17.524a2.19,2.19,0,1,1,0-4.381Zm8.762,10.952a3.29,3.29,0,0,0-3.286,3.286v1.1h-4.3a7.668,7.668,0,0,1,15.178,0h-4.3v-1.1A3.29,3.29,0,0,0,33.952,28.476Zm-1.1-4.381a5.482,5.482,0,0,1-5.476-5.476V12.225A3.706,3.706,0,0,1,29.35,8.948a8.5,8.5,0,0,0,5.51,2h4.568a1.1,1.1,0,0,1,1.1,1.1v6.571A5.482,5.482,0,0,1,35.047,24.1Zm17.524,25.95V43.81a3.291,3.291,0,0,0-3.286-3.287,3.249,3.249,0,0,0-1.611.439,3.237,3.237,0,0,0-4.381-1.1,3.22,3.22,0,0,0-3.865-1.333V35.047h6.571v-1.1a9.862,9.862,0,0,0-5.077-8.614,7.679,7.679,0,0,0,3.895-5.624h.088a4.385,4.385,0,0,0,4.381-4.381c0-.09-.021-.175-.026-.264a22.985,22.985,0,0,1,3.312,34.976Zm-7.667-36.9a2.19,2.19,0,0,1,0,4.381Zm11.354-.855-3.1,3.1A25.193,25.193,0,0,0,46.7,12.235a9.593,9.593,0,0,0,.4-2.658V7.471A29.522,29.522,0,0,1,54.068,12.287ZM30.386,2.19H44.9V9.577a7.356,7.356,0,0,1-.258,1.845,4.315,4.315,0,0,0-1.932-.47h-.2a3.281,3.281,0,0,0-3.084-2.19H34.86a6.343,6.343,0,0,1-4.515-1.87l-.479-.479-.642.214a5.88,5.88,0,0,0-3.879,4.325H25.19a4.332,4.332,0,0,0-1.932.469A7.341,7.341,0,0,1,23,9.577,7.394,7.394,0,0,1,30.386,2.19Zm-9.3,5.141a9.491,9.491,0,0,0-.277,2.245,9.5,9.5,0,0,0,.4,2.658,25.214,25.214,0,0,0-4.271,3.155L13.848,12.3A29.43,29.43,0,0,1,21.086,7.331ZM12.3,13.851l3.081,3.081A25.168,25.168,0,0,0,8.8,32.857H4.424A29.706,29.706,0,0,1,12.3,13.851Zm-7.9,21.2h4.4A25.232,25.232,0,0,0,15.4,50.956l-3.133,3.133a29.507,29.507,0,0,1-7.86-19.042Zm9.4,20.595L16.95,52.5a25.012,25.012,0,0,0,9.5,5.483,7.712,7.712,0,0,0,2.079,3.855l1.04,1.039V63.2A29.414,29.414,0,0,1,13.811,55.642ZM44.9,65.714H31.762v-2.19H44.9ZM50,58.783a7.651,7.651,0,0,0,.376-2.362V53.038c.2-.171.4-.34.591-.516l3.089,3.087A29.529,29.529,0,0,1,50,58.783Zm5.6-4.725-3.091-3.091a25.084,25.084,0,0,0,6.6-15.92h4.371A29.589,29.589,0,0,1,55.607,54.058Z" transform="translate(0 0)"/>
      </g>
    </g>
  </g>
</svg>
