<svg xmlns="http://www.w3.org/2000/svg" xmlns:xlink="http://www.w3.org/1999/xlink" width="400" height="498" viewBox="0 0 400 498">
  <defs>
    <clipPath id="clip-path">
      <rect id="Rectángulo_341416" data-name="Rectángulo 341416" width="400" height="448" rx="26" transform="translate(180 830)" fill="#e1e8ff"/>
    </clipPath>
    <clipPath id="clip-path-2">
      <rect id="Rectángulo_341415" data-name="Rectángulo 341415" width="458.686" height="427.921" fill="none"/>
    </clipPath>
  </defs>
  <g id="Grupo_991588" data-name="Grupo 991588" transform="translate(-180 -694)">
    <g id="Grupo_991032" data-name="Grupo 991032" transform="translate(235 694)">
      <rect id="Rectángulo_341381" data-name="Rectángulo 341381" width="498" height="193" rx="17" transform="translate(193) rotate(90)" fill="#3c3fa7"/>
    </g>
    <rect id="Rectángulo_341414" data-name="Rectángulo 341414" width="400" height="454" rx="26" transform="translate(180 738)" fill="#f0f4ff"/>
    <g id="Enmascarar_grupo_984982" data-name="Enmascarar grupo 984982" transform="translate(0 -86)" clip-path="url(#clip-path)">
      <g id="Grupo_991035" data-name="Grupo 991035" transform="translate(66.48 927.144) rotate(-6)">
        <g id="Grupo_991034" data-name="Grupo 991034" transform="translate(0 0)">
          <g id="Grupo_991033" data-name="Grupo 991033">
            <path id="Trazado_692249" data-name="Trazado 692249" d="M502.659,255.762c-37.865,38.094-76.882,74.9-116.591,111.111,18.143-37.438,37.554-74.363,54.88-112.149,19.639-42.846,42.842-101.09,22.44-144.224C416.88,12.183,283.5,116.543,233.776,169.264c-5.3,5.612-10.375,11.459-15.512,17.248,18.781-41.626,35.928-84.3,33.884-128.29-2.821-60.481-58.717-72.555-108.664-42.2C89.842,48.633,45.51,102.9,8.312,152.057c-31.59,41.748,34.829,77.236,66.16,36.077a602.809,602.809,0,0,1,55.814-63.473q-4.572,7.815-9.225,15.612c-20.549,34.338-40.87,68.8-57.97,104.735C30.34,313.832-17.793,409.223,16.414,478.589c17.241,34.954,61.257,36.64,95.184,20.611,45.6-21.546,78.507-66.122,110.007-104.008,32.88-39.558,62.144-81.314,92.783-122.429,12.808-17.181,25.611-34.6,40.1-50.523.331-.362.684-.7,1.016-1.072l-.394,1.1c-8.713,23.79-19.58,46.729-30.562,69.733-20.447,42.793-46.362,88.036-55.207,134.018C261.51,466.67,276.1,511.2,325.577,506.1c46.505-4.8,85.654-50.427,117.981-81.169,39.155-37.235,77.666-75.15,116.182-113.021C599.951,272.372,542.426,215.76,502.659,255.762Z" transform="translate(7.605 7.428)" fill="#3c3fa7"/>
            <path id="Trazado_692250" data-name="Trazado 692250" d="M328.423,521.248c-18.205.8-33.369-4.8-44.071-16.356-14.876-16.063-20.406-43.052-14.8-72.2,7.3-37.987,25.645-74.88,43.386-110.556,4.24-8.543,8.447-17,12.446-25.358,3.785-7.932,7.768-16.264,11.734-24.876-2.33,3.1-4.638,6.2-6.922,9.275l-2.268,3.04c-7.961,10.68-15.826,21.407-23.691,32.12-22.062,30.09-44.882,61.2-69.378,90.661q-5.367,6.465-10.81,13.14c-28.112,34.317-59.973,73.217-102.1,93.124C84.392,530.985,36.363,528.6,17.2,489.716c-34.448-69.835,10.327-163.638,43.018-232.134l3.718-7.781c9.62-20.232,20.278-40.037,31.52-59.779q-3.806,4.789-7.5,9.633c-19.362,25.449-51.335,26.49-71.067,12.791-16.318-11.33-24.772-33.358-6.856-57.037,39.7-52.471,83.845-105.529,137.527-138.166,29.8-18.1,61.7-22.234,85.383-11.051,20.843,9.845,33.032,30.6,34.335,58.463,1.523,32.677-7.081,64.4-18.86,94.817C288.7,120.634,362.465,64.814,419.4,70.267c26.154,2.518,45.828,17.343,58.463,44.055,20.779,43.93.285,100.658-22.5,150.366C444.52,288.343,432.7,312,421.264,334.865l-4.047,8.091c32.317-30.01,61.276-57.922,87.9-84.7h0c13.165-13.251,29.375-18.613,45.6-15.14,17.818,3.824,32.552,18.195,36.649,35.775,3.773,16.124-1.536,32.265-14.953,45.454l-4.381,4.308c-36.467,35.86-74.174,72.935-111.9,108.806-4.649,4.424-9.431,9.149-14.37,14.021-29.329,28.962-65.834,65.016-108.472,69.416C331.65,521.061,330.032,521.177,328.423,521.248Zm34.962-299.735a6.75,6.75,0,0,1,3.6.8,6.608,6.608,0,0,1,3.18,8.245l-.4,1.1c-9.133,24.939-20.67,49.1-30.848,70.418-4.033,8.438-8.281,16.974-12.562,25.593-17.263,34.717-35.112,70.613-42.019,106.514-4.687,24.381-.265,47.451,11.547,60.206,8.748,9.448,21.248,13.359,37.177,11.77,36.915-3.815,69.659-36.142,98.54-64.671,5.01-4.949,9.878-9.752,14.6-14.238,37.619-35.77,75.279-72.8,111.7-108.612l4.373-4.308c11.862-11.657,12.216-23.25,10.422-30.928-2.916-12.476-13.765-23.087-26.4-25.788-7.686-1.656-19.273-1.159-30.874,10.516h0c-34.4,34.594-72.633,71.034-116.9,111.405a7.732,7.732,0,0,1-9.492.98,6.925,6.925,0,0,1-2.093-8.9c6.856-14.155,13.9-28.23,20.928-42.312,11.376-22.747,23.132-46.273,33.87-69.686,21.344-46.556,40.7-99.371,22.383-138.089-10.654-22.515-26.187-34.456-47.484-36.509-53.08-5.084-130.74,54.876-169.955,96.45-4.176,4.432-8.216,9.014-12.264,13.588l-3.068,3.475a7.86,7.86,0,0,1-9.684,1.9,6.889,6.889,0,0,1-2.63-8.979c17.9-39.644,35.2-81.95,33.2-124.81-1.072-22.974-10.326-39.219-26.759-46.983-19.175-9.047-45.655-5.3-70.86,10.011C103.365,60.816,60.5,112.429,21.814,163.562,9.585,179.72,16.1,193.02,26.264,200.077c13.771,9.559,35.946,9.777,49.933-8.608A612.3,612.3,0,0,1,132.8,127.1a7.743,7.743,0,0,1,9.853-1.144,7.007,7.007,0,0,1,1.681,9.383q-4.6,7.861-9.273,15.68c-20.808,34.77-40.867,68.894-57.6,104.054l-3.719,7.8C42.375,328.593-.578,418.591,30.849,482.309c15.266,30.963,54.621,32.315,85.6,17.687,38.666-18.263,67.922-53.989,96.209-88.528q5.49-6.7,10.89-13.232c24.17-29.067,46.831-59.967,68.756-89.851q11.822-16.125,23.756-32.226l2.267-3.033c12.018-16.141,24.444-32.832,38.352-48.119l.709-.748A9.064,9.064,0,0,1,363.384,221.513Zm146.88,41.677.075,0Z"/>
          </g>
          <path id="Trazado_692251" data-name="Trazado 692251" d="M36.419,4.028C6.253,60.06-12.252,125,9.442,182.843c3.212,8.547,17.933,4.1,14.682-4.578C3.75,123.952,20.7,63.627,49.071,10.924,53.746,2.229,41.118-4.706,36.419,4.028Z" transform="translate(32.362 285.795)"/>
          <path id="Trazado_692252" data-name="Trazado 692252" d="M21.651,39.4c-.127-.009-.246-.041-.365-.058-.192-.4-.369-.819-.431-.934l-.028-.043c-.012-.059.009-.022-.01-.11-.822-3.259-1.371-6.582-1.95-9.91q-2.035-11.6-4.056-23.2C14.153,1.389,9.553-.965,5.785.384A8.315,8.315,0,0,0,.128,9.72L4.716,35.96C6,43.248,8.128,52.78,17.01,53.859c3.837.459,8.332-1.365,9.481-5.582C27.479,44.664,25.763,39.9,21.651,39.4Z" transform="translate(62.967 405.663)"/>
          <path id="Trazado_692253" data-name="Trazado 692253" d="M29.667.787c-8.334-4.11-16.517,9-8.16,13.119C33.034,19.59,36.063,32.06,35.981,44.439c-.09,14.064-2.348,28.622-5.293,42.6A302.156,302.156,0,0,1,1.024,167.708c-4.682,8.7,7.953,15.63,12.652,6.9a317,317,0,0,0,33.388-94.94C51.8,52.821,57.746,14.621,29.667.787Z" transform="translate(400.173 113.887)"/>
        </g>
      </g>
      <g id="Grupo_991037" data-name="Grupo 991037" transform="translate(143.884 850.079)">
        <g id="Grupo_991036" data-name="Grupo 991036" clip-path="url(#clip-path-2)">
          <path id="Trazado_692254" data-name="Trazado 692254" d="M242.261,43.027c2.062-5.19.025-10.822-4.55-12.578s-9.954,1.03-12.015,6.22-.025,10.822,4.55,12.578,9.954-1.029,12.015-6.22" transform="translate(130.42 17.353)" fill="#ed8666"/>
          <path id="Trazado_692255" data-name="Trazado 692255" d="M227.042,40.972a.882.882,0,0,1-.52-1.6l8.859-6.456a.883.883,0,0,1,1.041,1.427l-8.86,6.456a.884.884,0,0,1-.52.169" transform="translate(131.156 18.994)"/>
          <path id="Trazado_692256" data-name="Trazado 692256" d="M232.431,41.3a.878.878,0,0,1-.605-.24l-3.5-3.291a.883.883,0,0,1,1.21-1.286l3.5,3.293a.882.882,0,0,1-.605,1.525" transform="translate(132.252 21.019)"/>
          <path id="Trazado_692257" data-name="Trazado 692257" d="M195.931,54.139l2.364,33.491,24.862-4.315,1.335-31.025Z" transform="translate(113.626 30.324)" fill="#ed8666"/>
          <path id="Trazado_692258" data-name="Trazado 692258" d="M224.492,52.29l-28.56,1.849,1.221,17.31L224.1,61.3Z" transform="translate(113.626 30.324)"/>
          <path id="Trazado_692259" data-name="Trazado 692259" d="M224.986,12.049c0,6.655-6.236,12.049-13.929,12.049S197.129,18.7,197.129,12.049,203.365,0,211.058,0s13.929,5.394,13.929,12.049" transform="translate(114.321 0)" fill="#fed947"/>
          <path id="Trazado_692260" data-name="Trazado 692260" d="M215.632,14.473c1.643,8.056-5.787,16.374-16.6,18.578s-20.9-2.541-22.544-10.6S182.28,6.08,193.087,3.876s20.9,2.541,22.546,10.6" transform="translate(102.221 1.935)" fill="#fed947"/>
          <path id="Trazado_692261" data-name="Trazado 692261" d="M242.913,16.814c1.643,8.056-5.787,16.374-16.6,18.578s-20.9-2.541-22.544-10.6,5.787-16.374,16.594-18.578,20.9,2.541,22.546,10.6" transform="translate(118.042 3.292)" fill="#fed947"/>
          <path id="Trazado_692262" data-name="Trazado 692262" d="M246.3,26.686c1.643,8.056-4.255,16.062-13.175,17.88S215.642,41.329,214,33.272s4.256-16.062,13.175-17.882,17.48,3.239,19.123,11.295" transform="translate(123.945 8.711)" fill="#fed947"/>
          <path id="Trazado_692263" data-name="Trazado 692263" d="M206.286,25.54c1.643,8.056-4.255,16.062-13.175,17.88s-17.48-3.237-19.123-11.293,4.256-16.062,13.175-17.882,17.48,3.239,19.123,11.295" transform="translate(100.741 8.046)" fill="#fed947"/>
          <path id="Trazado_692264" data-name="Trazado 692264" d="M178.822,47.233A39.607,39.607,0,1,1,218.429,86.84a39.608,39.608,0,0,1-39.607-39.607" transform="translate(103.704 4.423)" fill="#ed8666"/>
          <path id="Trazado_692265" data-name="Trazado 692265" d="M207.066,51.469a16.028,16.028,0,0,1-2.493-.2.883.883,0,0,1-.736-1.008.894.894,0,0,1,1.008-.736c9.969,1.555,14.957-7.764,15.006-7.859a.882.882,0,1,1,1.561.82c-.049.1-4.83,8.98-14.346,8.98" transform="translate(118.205 23.891)"/>
          <path id="Trazado_692266" data-name="Trazado 692266" d="M214.178,42.22a.88.88,0,0,1-.861-.7l-1.512-7.083-4.8,7.282a.883.883,0,0,1-1.476-.97l5.959-9.043a.884.884,0,0,1,1.6.3l1.951,9.143a.881.881,0,0,1-.678,1.046.83.83,0,0,1-.186.019" transform="translate(119.109 18.16)"/>
          <path id="Trazado_692267" data-name="Trazado 692267" d="M213.419,39.825s8.377-21.277,21.587-9.457c0,0-4.226,16.75-21.587,9.457" transform="translate(123.768 15.538)" fill="#fff"/>
          <path id="Trazado_692268" data-name="Trazado 692268" d="M212.828,36.864S200.5,18.614,184.35,30.216c0,0,10.723,21.083,28.478,6.648" transform="translate(106.91 15.285)" fill="#fff"/>
          <path id="Trazado_692269" data-name="Trazado 692269" d="M192.63,25.043c-.386-1.251,2.45-3.234,6.331-4.427s7.34-1.145,7.724.107-2.449,3.234-6.331,4.427-7.339,1.144-7.724-.107" transform="translate(111.691 11.455)"/>
          <path id="Trazado_692270" data-name="Trazado 692270" d="M214.5,25.643c-.385-1.251,2.449-3.234,6.329-4.427s7.342-1.145,7.726.107-2.45,3.234-6.332,4.427-7.339,1.144-7.723-.107" transform="translate(124.374 11.803)"/>
          <path id="Trazado_692271" data-name="Trazado 692271" d="M251.313,64.092l2.681,9.554,27.143,79.315L267.283,300.744,157.8,305.906,207.745,90l-2.13-16.632Z" transform="translate(91.515 37.168)"/>
          <path id="Trazado_692272" data-name="Trazado 692272" d="M182,277.4l-14.126-3.255a32.323,32.323,0,0,1-22.429-44.287L202.4,97.662a29.234,29.234,0,0,1,18.1-16.327l1.316-.414Z" transform="translate(82.806 46.928)"/>
          <path id="Trazado_692273" data-name="Trazado 692273" d="M280.161,222.081,209.777,107.015a23.41,23.41,0,0,1,9.938-33.368v0a23.413,23.413,0,0,1,29.777,8.573l85.081,133.521a28.4,28.4,0,0,1-12.5,41.247l-68.8,30.294L241.586,243Z" transform="translate(119.657 41.397)"/>
          <path id="Trazado_692274" data-name="Trazado 692274" d="M221.587,183.1l16.085-.959a4.9,4.9,0,0,1,5.018,4.955,5.062,5.062,0,0,1-4.917,5.378l-16.1-.267a4.376,4.376,0,0,1-4.124-4.707,4.465,4.465,0,0,1,4.035-4.4" transform="translate(126.163 105.621)" fill="#ed8666"/>
          <path id="Trazado_692275" data-name="Trazado 692275" d="M221.075,198.286l19.258.035a4.605,4.605,0,0,0,4.383-3.82l.1-.458c.634-3.044-1.49-5.9-4.342-5.838l-19.354.423a4.7,4.7,0,0,0-4.389,4.588,4.6,4.6,0,0,0,4.348,5.07" transform="translate(125.681 109.144)" fill="#ed8666"/>
          <path id="Trazado_692276" data-name="Trazado 692276" d="M219.612,198.476h0a4.041,4.041,0,0,1,3.828-3.754l12.812-.48a4.2,4.2,0,0,1,4.233,3.616l.166,1.066a4.08,4.08,0,0,1-4.117,4.812l-12.976-.585a4.257,4.257,0,0,1-3.945-4.677" transform="translate(127.349 112.644)" fill="#ed8666"/>
          <path id="Trazado_692277" data-name="Trazado 692277" d="M221.455,202.784h0a3.473,3.473,0,0,1,3.163-2.766l10.581-.179a3.171,3.171,0,0,1,3.045,3.446l-.025,1.224a3.538,3.538,0,0,1-3.607,3.651l-10.556-1.044a3.344,3.344,0,0,1-2.6-4.332" transform="translate(128.357 115.892)" fill="#ed8666"/>
          <path id="Trazado_692278" data-name="Trazado 692278" d="M222.1,190.372a3.512,3.512,0,0,0,3.71-3.37,3.662,3.662,0,0,0-3.822-3.375,3.511,3.511,0,0,0-3.71,3.37,3.663,3.663,0,0,0,3.822,3.375" transform="translate(126.585 106.49)" fill="#ffd4de"/>
          <path id="Trazado_692279" data-name="Trazado 692279" d="M221.5,196.092a3.512,3.512,0,0,0,3.71-3.37,3.662,3.662,0,0,0-3.822-3.375,3.511,3.511,0,0,0-3.71,3.37,3.663,3.663,0,0,0,3.822,3.375" transform="translate(126.239 109.807)" fill="#ffd4de"/>
          <path id="Trazado_692280" data-name="Trazado 692280" d="M223.625,200.846c1.833,0,3.3-1.21,3.274-2.7s-1.531-2.708-3.364-2.71-3.3,1.21-3.274,2.7,1.531,2.708,3.364,2.71" transform="translate(127.736 113.336)" fill="#ffd4de"/>
          <path id="Trazado_692281" data-name="Trazado 692281" d="M224.372,205.414a2.294,2.294,0,0,0,2.387-2.25,2.393,2.393,0,0,0-2.463-2.253,2.294,2.294,0,0,0-2.386,2.25,2.392,2.392,0,0,0,2.462,2.253" transform="translate(128.692 116.514)" fill="#ffd4de"/>
          <path id="Trazado_692282" data-name="Trazado 692282" d="M219.747,189.486a.538.538,0,0,1-.528-.483.5.5,0,0,1,.531-.48l17.038.081a6.6,6.6,0,0,0,2.612-.566.6.6,0,0,1,.757.155.444.444,0,0,1-.15.665,7.657,7.657,0,0,1-3.195.709l-17.03-.079-.035,0" transform="translate(127.131 109.006)"/>
          <path id="Trazado_692283" data-name="Trazado 692283" d="M221.733,195.4a.535.535,0,0,1-.528-.493.5.5,0,0,1,.54-.471l10.178.213c.749.016,4.822-.1,5.858-.2a.559.559,0,0,1,.621.425.48.48,0,0,1-.46.534c-1.1.111-5.22.224-6.008.21l-10.178-.213-.024,0" transform="translate(128.283 112.759)"/>
          <path id="Trazado_692284" data-name="Trazado 692284" d="M223.482,200.738a.533.533,0,0,1-.528-.5.5.5,0,0,1,.547-.466c.136,0,3.326.1,4.307.174,1.032.074,7.244.25,8.266.147a.559.559,0,0,1,.619.425.477.477,0,0,1-.46.534c-1.131.114-7.49-.074-8.478-.144-.953-.07-4.223-.171-4.256-.171l-.017,0" transform="translate(129.297 115.854)"/>
          <path id="Trazado_692285" data-name="Trazado 692285" d="M229.993,15.44c0,6.655-6.236,12.049-13.929,12.049s-13.929-5.394-13.929-12.049,6.236-12.049,13.929-12.049,13.929,5.394,13.929,12.049" transform="translate(117.224 1.967)" fill="#fed947"/>
          <path id="Trazado_692286" data-name="Trazado 692286" d="M194.486,30.92c-2.2,8.347-10.007,13.527-17.447,11.57s-.548-5.817,1.648-14.166-1.134-18.021,6.306-16.063,11.69,10.312,9.494,18.659" transform="translate(100.717 6.962)" fill="#fed947"/>
          <path id="Trazado_692287" data-name="Trazado 692287" d="M217.051,8.573c2.144,6.3-3.847,14.036-13.38,17.281s-19,.768-21.143-5.531,10-7.988,19.531-11.233,12.848-6.816,14.992-.517" transform="translate(105.709 2.957)" fill="#fed947"/>
          <path id="Trazado_692288" data-name="Trazado 692288" d="M243.827,152.275a.792.792,0,0,1-.675-.378l-26.217-42.859a.791.791,0,1,1,1.349-.825L244.5,151.073a.794.794,0,0,1-.262,1.087.78.78,0,0,1-.412.115" transform="translate(125.74 62.538)" fill="#fff"/>
          <path id="Trazado_692289" data-name="Trazado 692289" d="M253.35,172.053a.79.79,0,0,1-.392-1.476l20.03-11.461a.789.789,0,0,1,.784,1.37l-20.03,11.462a.779.779,0,0,1-.392.1" transform="translate(146.467 92.215)" fill="#fff"/>
          <path id="Trazado_692290" data-name="Trazado 692290" d="M255.2,168.009a.8.8,0,0,1-.4-.109.792.792,0,0,1-.28-1.082l8-13.592a.79.79,0,0,1,1.36.8l-7.994,13.592a.789.789,0,0,1-.681.389" transform="translate(147.539 88.635)" fill="#fff"/>
          <path id="Trazado_692291" data-name="Trazado 692291" d="M160.82,270.3a.773.773,0,0,1-.179-.021.789.789,0,0,1-.591-.948L201.548,90.7a.791.791,0,0,1,1.54.357l-41.5,178.631a.789.789,0,0,1-.769.611" transform="translate(92.806 52.244)" fill="#fff"/>
          <path id="Trazado_692292" data-name="Trazado 692292" d="M172.892,180.359l-13.365-2.5c-2.223-.416-4.381,1.948-4.8,5.252-.425,3.4,1.163,6.414,3.477,6.6l13.521,1.1c1.984.161,3.795-2.111,4.015-5.043.2-2.719-1.035-5.064-2.853-5.4" transform="translate(89.694 103.115)" fill="#ed8666"/>
          <path id="Trazado_692293" data-name="Trazado 692293" d="M172.431,197.952l-16.141-1.638c-1.752-.178-3.093-2.168-3.217-4.77l-.025-.534c-.167-3.552,1.953-6.644,4.335-6.323l16.167,2.172c1.942.261,3.308,2.73,3.128,5.651-.194,3.177-2.13,5.656-4.248,5.441" transform="translate(88.752 107.092)" fill="#ed8666"/>
          <path id="Trazado_692294" data-name="Trazado 692294" d="M171.474,198.073h0c.093-2.4-1.081-4.381-2.759-4.643l-10.677-1.668c-1.73-.272-3.446,1.36-3.98,3.782l-.267,1.21c-.652,2.967.728,5.794,2.875,5.884l10.943.46c1.983.084,3.755-2.221,3.865-5.024" transform="translate(89.094 111.19)" fill="#ed8666"/>
          <path id="Trazado_692295" data-name="Trazado 692295" d="M168.083,202.764h0c-.144-1.871-1.1-3.3-2.321-3.452l-8.844-1.128c-1.444-.185-2.763,1.46-2.962,3.692l-.126,1.406c-.218,2.449.992,4.558,2.586,4.508l8.971-.28c1.615-.049,2.885-2.286,2.7-4.746" transform="translate(89.195 114.924)" fill="#ed8666"/>
          <path id="Trazado_692296" data-name="Trazado 692296" d="M166.095,188.132c-1.743-.18-2.954-2.057-2.7-4.192s1.863-3.722,3.605-3.542,2.954,2.055,2.7,4.192-1.863,3.722-3.605,3.542" transform="translate(94.736 104.609)" fill="#ffd4de"/>
          <path id="Trazado_692297" data-name="Trazado 692297" d="M165.911,194.752c-1.743-.18-2.955-2.057-2.7-4.192s1.863-3.722,3.605-3.542,2.954,2.055,2.7,4.192-1.863,3.722-3.605,3.542" transform="translate(94.629 108.449)" fill="#ffd4de"/>
          <path id="Trazado_692298" data-name="Trazado 692298" d="M163.258,200.011a2.928,2.928,0,0,1-2.42-3.391,3.023,3.023,0,0,1,3.142-2.817,2.927,2.927,0,0,1,2.42,3.391,3.022,3.022,0,0,1-3.143,2.817" transform="translate(93.261 112.384)" fill="#ffd4de"/>
          <path id="Trazado_692299" data-name="Trazado 692299" d="M161.516,205.159a2.335,2.335,0,0,1-1.732-2.79A2.41,2.41,0,0,1,162.116,200a2.334,2.334,0,0,1,1.732,2.792,2.409,2.409,0,0,1-2.332,2.371" transform="translate(92.65 115.978)" fill="#ffd4de"/>
          <path id="Trazado_692300" data-name="Trazado 692300" d="M172.186,187.853a.542.542,0,0,0,.5-.51.5.5,0,0,0-.387-.6l-14.286-1.4a4.314,4.314,0,0,1-2.12-.877.421.421,0,0,0-.653.114.622.622,0,0,0,.046.776,5.051,5.051,0,0,0,2.591,1.093l14.281,1.393.028,0" transform="translate(89.962 106.918)"/>
          <path id="Trazado_692301" data-name="Trazado 692301" d="M168.639,194.345a.545.545,0,0,0,.5-.52.493.493,0,0,0-.4-.588l-8.554-.641c-.629-.049-4.029-.536-4.885-.747a.508.508,0,0,0-.57.434.525.525,0,0,0,.322.653c.907.223,4.346.716,5.008.766l8.554.641.021,0" transform="translate(89.725 111.252)"/>
          <path id="Trazado_692302" data-name="Trazado 692302" d="M165.486,200.078a.544.544,0,0,0,.5-.526.49.49,0,0,0-.4-.581c-.114-.008-2.8-.171-3.629-.177-.874,0-6.1-.344-6.945-.551a.507.507,0,0,0-.57.433.528.528,0,0,0,.322.654c.934.229,6.285.567,7.121.574.807,0,3.56.174,3.588.175h.014" transform="translate(89.555 114.959)"/>
          <path id="Trazado_692303" data-name="Trazado 692303" d="M193.536,26.411a9.942,9.942,0,0,0,0,14.937c4.337,1.234,9.694.547,15.921-4.515,0,0-6.361-9.41-15.924-10.421" transform="translate(110.278 15.316)"/>
          <path id="Trazado_692304" data-name="Trazado 692304" d="M217.3,30.667a9.743,9.743,0,0,0,3.458,10.938c9.652-.807,12.292-11.24,12.292-11.24-6.607-5.911-12-3.542-15.75.3" transform="translate(125.725 15.537)"/>
          <path id="Trazado_692305" data-name="Trazado 692305" d="M171.621,38.017c-1.593-5.353.937-10.781,5.648-12.123s9.824,1.91,11.417,7.263-.937,10.781-5.648,12.123-9.824-1.909-11.417-7.263" transform="translate(99.252 14.841)" fill="#ed8666"/>
          <path id="Trazado_692306" data-name="Trazado 692306" d="M184,37.309a.877.877,0,0,1-.581-.218l-8.249-7.217a.882.882,0,1,1,1.161-1.329l8.25,7.217A.883.883,0,0,1,184,37.309" transform="translate(101.412 16.427)"/>
          <path id="Trazado_692307" data-name="Trazado 692307" d="M176.754,36.87a.881.881,0,0,1-.545-1.575l3.779-2.969a.881.881,0,1,1,1.089,1.386L177.3,36.68a.873.873,0,0,1-.545.19" transform="translate(101.993 18.636)"/>
          <path id="Trazado_692308" data-name="Trazado 692308" d="M176.744,169.805l30.783,183.586-152.5-.136s-1.253-91.137,18.01-150.445c17.4-53.585,25.129-65.744,25.129-65.744Z" transform="translate(31.904 79.488)" fill="#fed947"/>
          <path id="Trazado_692309" data-name="Trazado 692309" d="M74.974,163.325h94.12l-3.926-22.839-47.7-2.425H85.718c-1.512,2.861-5.012,10.091-10.744,25.265" transform="translate(43.48 80.065)" fill="#ffa37b"/>
          <path id="Trazado_692310" data-name="Trazado 692310" d="M114.406,49.853l-7.535,35.163,22.685,1.054,8.184-31.922Z" transform="translate(61.978 28.911)" fill="#ffa37b"/>
          <path id="Trazado_692311" data-name="Trazado 692311" d="M76.688,155.416l90.38,1-2.406-14-81.18-2.79c-1.465,3.018-3.71,8-6.794,15.8" transform="translate(44.474 80.969)"/>
          <path id="Trazado_692312" data-name="Trazado 692312" d="M135.526,55.127l-18.224-5.5-4.716,5.122,19.89,12.284Z" transform="translate(65.292 28.779)"/>
          <path id="Trazado_692313" data-name="Trazado 692313" d="M99.287,55.605c-6.811-23.263,5.024-46.7,26.432-52.354s44.285,8.625,51.1,31.889-2.73,46.019-24.14,51.67S106.1,78.868,99.287,55.605" transform="translate(56.463 1.169)" fill="#ffa37b"/>
          <path id="Trazado_692314" data-name="Trazado 692314" d="M122.362,7.941S88.332,3.106,85.987,22.833c-2.038,17.141.9,89.846.9,89.846l22.948,1.665.9-79.538Z" transform="translate(49.449 4.302)" fill="#a6bbff"/>
          <path id="Trazado_692315" data-name="Trazado 692315" d="M98.854,8.082c-5.075,6.928-5.969,26.426,2.059,29.388,9.443,3.485,8.715-23.533,11.682-29.913a66.214,66.214,0,0,0-13.741.525" transform="translate(55.07 4.303)" fill="#3c3fa7"/>
          <path id="Trazado_692316" data-name="Trazado 692316" d="M107.484,143.623l-5.743,50.54,132.091-3.446,13.559,34.574a27.525,27.525,0,0,0,46.564,7.819L373.583,139.8,341.8,105.335l-61.644,73.512-8.468-77.911a31.687,31.687,0,0,0-30.938-28.259l-36.785-.653-34.076-1.531-53.719-1.706a34.529,34.529,0,0,0-29.36,14.678L5.549,199.256A30.452,30.452,0,0,0,23.32,246.35L96.662,264.5l8.159-42.571L43.16,208.711Z" transform="translate(0 39.882)" fill="#fc5f65"/>
          <path id="Trazado_692317" data-name="Trazado 692317" d="M148.588,172.386a.728.728,0,0,1-.117-.01.787.787,0,0,1-.665-.9l9.95-66.889a.8.8,0,0,1,.9-.664.787.787,0,0,1,.665.9l-9.95,66.886a.789.789,0,0,1-.779.675" transform="translate(85.712 60.266)"/>
          <path id="Trazado_692318" data-name="Trazado 692318" d="M109.4,190.992a.707.707,0,0,1-.081,0,.788.788,0,0,1-.706-.864L120.487,70.644a.789.789,0,1,1,1.57.156l-11.873,119.48a.787.787,0,0,1-.784.711" transform="translate(62.986 40.556)"/>
          <path id="Trazado_692319" data-name="Trazado 692319" d="M67.238,121.8a.79.79,0,0,1-.531-1.375L78.87,109.372a.79.79,0,0,1,1.062,1.171L67.769,121.6a.788.788,0,0,1-.531.205" transform="translate(38.535 63.309)"/>
          <path id="Trazado_692320" data-name="Trazado 692320" d="M79.151,114.6a.79.79,0,0,1-.79-.79c0-21.553-12.148-37.5-12.273-37.659a.79.79,0,0,1,1.25-.967c.126.161,12.6,16.515,12.6,38.626a.79.79,0,0,1-.79.79" transform="translate(38.231 43.424)"/>
          <path id="Trazado_692321" data-name="Trazado 692321" d="M125.013,75.062,112.4,62.449,102.159,74.415l11.535,20.373Z" transform="translate(59.245 36.216)" fill="#ffb6c8"/>
          <path id="Trazado_692322" data-name="Trazado 692322" d="M127.7,64.428l11,9.917-9.056,18.542L116.488,73.915Z" transform="translate(67.555 37.363)" fill="#ffb6c8"/>
          <path id="Trazado_692323" data-name="Trazado 692323" d="M155.618,28.412s-12.861-15.6-29.377-3.294c0,0,15.877,13.35,29.377,3.294" transform="translate(73.211 11.825)" fill="#fff"/>
          <path id="Trazado_692324" data-name="Trazado 692324" d="M147.432,30.5l11.794-3.841L147.009,41.984Z" transform="translate(85.255 15.459)" fill="#ffa37b"/>
          <path id="Trazado_692325" data-name="Trazado 692325" d="M149.454,43.792a21.842,21.842,0,0,0-19.368-5.312s9.374,10.958,15.9,9.369c4.631-1.128,4.376-3.3,3.471-4.057" transform="translate(75.441 22.055)"/>
          <path id="Trazado_692326" data-name="Trazado 692326" d="M132.646,15.533c.292-1.109,3.539-1.217,7.255-.239s6.489,2.668,6.2,3.778-3.539,1.217-7.253.239-6.49-2.668-6.2-3.778" transform="translate(76.913 8.482)"/>
          <path id="Trazado_692327" data-name="Trazado 692327" d="M164.422,14.457C154.084,4.337,139.608-.417,125.72,3.249,104.31,8.9,92.477,32.34,99.288,55.6A47.627,47.627,0,0,0,111.725,76.33l5.656-15.49-1.205-19.781S147.213,31.088,138.1,7.954c0,0,14.436-2.514,26.318,6.5" transform="translate(56.463 1.17)" fill="#a6bbff"/>
          <path id="Trazado_692328" data-name="Trazado 692328" d="M81.91,170.281,64.4,166.362a5.455,5.455,0,0,0-6.4,4.552A5.634,5.634,0,0,0,62.45,177.7l17.741,2.572a4.869,4.869,0,0,0,5.367-4.438,4.965,4.965,0,0,0-3.648-5.555" transform="translate(33.573 96.408)" fill="#ffa37b"/>
          <path id="Trazado_692329" data-name="Trazado 692329" d="M80.977,187.291,59.8,183.9a5.131,5.131,0,0,1-4.138-4.98l-.024-.521c-.155-3.459,2.689-6.219,5.813-5.642l21.2,3.91a5.233,5.233,0,0,1,4.007,5.825,5.116,5.116,0,0,1-5.681,4.8" transform="translate(32.266 100.142)" fill="#ffa37b"/>
          <path id="Trazado_692330" data-name="Trazado 692330" d="M79.723,187.3h0a4.5,4.5,0,0,0-3.541-4.808l-13.993-2.809a4.676,4.676,0,0,0-5.3,3.221l-.371,1.142a4.541,4.541,0,0,0,3.665,6.023l14.368,1.668a4.742,4.742,0,0,0,5.17-4.438" transform="translate(32.637 104.153)" fill="#ffa37b"/>
          <path id="Trazado_692331" data-name="Trazado 692331" d="M75.176,191.512h0a3.868,3.868,0,0,0-2.986-3.6l-11.6-2.081a3.529,3.529,0,0,0-3.959,3.247l-.191,1.349a3.94,3.94,0,0,0,3.313,4.656l11.789.73c2.122.133,3.833-1.893,3.631-4.3" transform="translate(32.706 107.737)" fill="#ffa37b"/>
          <path id="Trazado_692332" data-name="Trazado 692332" d="M72.822,177.094a3.91,3.91,0,0,1-3.477-4.364,4.08,4.08,0,0,1,4.8-3.03,3.909,3.909,0,0,1,3.476,4.365,4.077,4.077,0,0,1-4.8,3.029" transform="translate(40.184 98.379)" fill="#ffd4de"/>
          <path id="Trazado_692333" data-name="Trazado 692333" d="M72.458,183.488a3.91,3.91,0,0,1-3.477-4.364,4.08,4.08,0,0,1,4.8-3.03,3.909,3.909,0,0,1,3.476,4.365,4.076,4.076,0,0,1-4.8,3.029" transform="translate(39.973 102.087)" fill="#ffd4de"/>
          <path id="Trazado_692334" data-name="Trazado 692334" d="M68.871,188.307c-2.014-.325-3.411-1.916-3.117-3.555s2.166-2.7,4.181-2.379,3.411,1.916,3.117,3.555-2.166,2.7-4.18,2.379" transform="translate(38.11 105.729)" fill="#ffd4de"/>
          <path id="Trazado_692335" data-name="Trazado 692335" d="M66.484,193.127a2.553,2.553,0,0,1-2.223-2.9,2.666,2.666,0,0,1,3.108-2.038,2.554,2.554,0,0,1,2.223,2.9,2.664,2.664,0,0,1-3.108,2.038" transform="translate(37.245 109.116)" fill="#ffd4de"/>
          <path id="Trazado_692336" data-name="Trazado 692336" d="M80.8,177.617a.6.6,0,0,0,.665-.438.553.553,0,0,0-.5-.622l-18.74-2.945a7.336,7.336,0,0,1-2.768-1.087.669.669,0,0,0-.861.036.493.493,0,0,0,.047.757,8.515,8.515,0,0,0,3.384,1.349l18.733,2.945.038,0" transform="translate(33.895 99.971)"/>
          <path id="Trazado_692337" data-name="Trazado 692337" d="M76.026,183.511a.594.594,0,0,0,.667-.447.554.554,0,0,0-.509-.615L64.96,180.872c-.828-.118-5.283-.968-6.405-1.269a.624.624,0,0,0-.757.357.533.533,0,0,0,.411.668c1.188.318,5.7,1.177,6.565,1.3L76,183.507l.027,0" transform="translate(33.504 104.143)"/>
          <path id="Trazado_692338" data-name="Trazado 692338" d="M71.778,188.714a.593.593,0,0,0,.668-.453.555.555,0,0,0-.518-.608c-.149-.021-3.673-.479-4.763-.577-1.149-.1-8.007-1.014-9.113-1.31a.623.623,0,0,0-.757.355.535.535,0,0,0,.411.67c1.223.325,8.246,1.251,9.344,1.351,1.06.093,4.673.566,4.71.57l.019,0" transform="translate(33.213 107.717)"/>
          <path id="Trazado_692339" data-name="Trazado 692339" d="M104.049,39.387c-1.833-6.16,1.078-12.406,6.5-13.949s11.3,2.2,13.136,8.358-1.077,12.4-6.5,13.949-11.3-2.2-13.136-8.358" transform="translate(60.023 14.55)" fill="#ffa37b"/>
          <path id="Trazado_692340" data-name="Trazado 692340" d="M118.295,38.573a1.007,1.007,0,0,1-.668-.251l-9.492-8.3a1.016,1.016,0,0,1,1.337-1.529l9.492,8.306a1.016,1.016,0,0,1-.668,1.779" transform="translate(62.509 16.375)"/>
          <path id="Trazado_692341" data-name="Trazado 692341" d="M109.956,38.067a1.014,1.014,0,0,1-.627-1.812l4.348-3.417a1.015,1.015,0,1,1,1.253,1.6l-4.346,3.416a1,1,0,0,1-.627.216" transform="translate(63.178 18.916)"/>
          <path id="Trazado_692342" data-name="Trazado 692342" d="M151,28.314s-5.271-6.377-13.392-7.753a9.7,9.7,0,0,0-2.711,10.947A19.1,19.1,0,0,0,151,28.314" transform="translate(77.833 11.924)"/>
          <path id="Trazado_692343" data-name="Trazado 692343" d="M144.738,46.514c4.631-1.128,4.376-3.3,3.471-4.057-.562-.471-1.346-1.128-2.341-1.83a84.036,84.036,0,0,0-13.635-.025c3.323,3.059,8.459,6.9,12.505,5.912" transform="translate(76.686 23.39)" fill="#fd521b"/>
          <path id="Trazado_692344" data-name="Trazado 692344" d="M125.689,315.877a.789.789,0,0,1-.785-.722c-3.795-43.653-7.855-159.62-7.9-160.787a.79.79,0,0,1,.762-.817.812.812,0,0,1,.818.762c.039,1.166,4.1,117.093,7.89,160.707a.789.789,0,0,1-.719.855c-.024,0-.046,0-.07,0" transform="translate(67.855 89.048)"/>
          <path id="Trazado_692345" data-name="Trazado 692345" d="M71.891,164.913a.79.79,0,0,1-.011-1.58l99.449-1.387h.011a.79.79,0,0,1,.011,1.58L71.9,164.913Z" transform="translate(41.233 93.917)"/>
          <path id="Trazado_692346" data-name="Trazado 692346" d="M113.747,165.45a4.788,4.788,0,1,1,4.787-4.789,4.793,4.793,0,0,1-4.787,4.789m0-8a3.208,3.208,0,1,0,3.207,3.207,3.212,3.212,0,0,0-3.207-3.207" transform="translate(63.189 90.395)"/>
          <path id="Trazado_692347" data-name="Trazado 692347" d="M113.984,91.478a.793.793,0,0,1-.689-.4L101.762,70.7a.79.79,0,0,1,1.376-.777l10.845,19.157L124.4,70.574a.79.79,0,0,1,.651-.4.777.777,0,0,1,.686.34L138.12,88.376l8.465-17.332a.79.79,0,1,1,1.419.694L138.95,90.28a.791.791,0,0,1-1.36.1L125.157,72.448,114.673,91.075a.79.79,0,0,1-.687.4Z" transform="translate(58.955 40.318)"/>
          <path id="Trazado_692348" data-name="Trazado 692348" d="M221.018,109.6s9.413-11.3,15.869-15.022c5-2.883,17.423-4.724,21.8-7.546s14.058-6.219,17.465-5.565c6.547,1.258-.652-1.43.7,3.591.079.288-9.772,10.875-9.985,11.094-2.512,2.571,4.555-.316,9.029-.256,3.676.051,5.547,1.463,5.737,1.793,2.171,3.8-5.01,3.967-8.536,5.941-11.584,6.482-17.3,5.892-25.606,4.173-1.419-.294-12.984,16.425-12.984,16.425Z" transform="translate(128.175 47.197)" fill="#f7b386"/>
          <path id="Trazado_692349" data-name="Trazado 692349" d="M250.573,93.828c-.626-.621-3.624-5.767-3.624-5.767-.01.4,11.684-4.678,13.858-5.476,3.536-1.3,8.716-3.266,11.873-4.779a3.3,3.3,0,0,1,4.31,1.387,3.513,3.513,0,0,1-1.144,4.621l-12.8,5.411Z" transform="translate(143.213 44.934)" fill="#f7b386"/>
          <path id="Trazado_692350" data-name="Trazado 692350" d="M252.278,90.684c2.108,2.45-1.194,4.2-2.945,6.239-.983,1.147.2,4.274,1.111,5.184a2.622,2.622,0,0,0,3.755-.4,21.091,21.091,0,0,0,5.588-11.658c.476-3.977-.9-6.228-2.343-7.475-1.215-1.052-2.2-.022-3.912.346L247.9,85.075Z" transform="translate(143.764 47.622)" fill="#f7b386"/>
          <path id="Trazado_692351" data-name="Trazado 692351" d="M249.221,91.04a.507.507,0,0,1-.319-.9c1.784-1.431,9.979-4.6,10.326-4.73a.506.506,0,0,1,.363.945c-.084.032-8.4,3.24-10.055,4.575a.507.507,0,0,1-.316.111" transform="translate(144.236 49.512)"/>
          <path id="Trazado_692352" data-name="Trazado 692352" d="M248.994,92.714a.506.506,0,0,1-.084-1l8.585-1.452a.5.5,0,0,1,.585.414.507.507,0,0,1-.415.583l-8.587,1.452a.376.376,0,0,1-.084.008" transform="translate(144.105 52.338)"/>
          <path id="Trazado_692353" data-name="Trazado 692353" d="M257.937,92.58c-1.945.8-3.092,2.544-2.6,3.907,2.9-1,6.392-1.626,6.8-3.422-.8-.943-2.522-1.18-4.206-.485" transform="translate(148.013 53.457)" fill="#ffd4de"/>
          <path id="Trazado_692354" data-name="Trazado 692354" d="M222.481,96.491l-2.762,3.173,15.795,17.128,4.88-6.879Z" transform="translate(127.422 55.957)"/>
          <path id="Trazado_692355" data-name="Trazado 692355" d="M169.249,156.722a.79.79,0,0,1-.626-1.272l13.218-17.2a.79.79,0,0,1,1.253.964l-13.219,17.2a.785.785,0,0,1-.626.308" transform="translate(97.694 79.997)"/>
          <path id="Trazado_692356" data-name="Trazado 692356" d="M155.934,110.49a.773.773,0,0,1-.264-.046.791.791,0,0,1-.482-1.008L166.245,78.2a.791.791,0,0,1,1.491.528L156.68,109.964a.793.793,0,0,1-.746.526" transform="translate(89.972 45.047)"/>
          <path id="Trazado_692357" data-name="Trazado 692357" d="M276.511,355.491l103.23-2.433,23.079,99.512H276.511Z" transform="translate(-19.188 -18.524)" fill="#202c52"/>
          <path id="Trazado_692358" data-name="Trazado 692358" d="M196.634,310.086c-.37,0-.7-.365-.773-.893l-13.42-96.131a1.142,1.142,0,0,1,.622-1.3c.419-.13.842.27.926.871l13.42,96.131a1.141,1.141,0,0,1-.622,1.3.533.533,0,0,1-.153.022" transform="translate(105.794 122.794)"/>
          <path id="Trazado_692359" data-name="Trazado 692359" d="M169.082,310.9a.7.7,0,0,1-.556-.319,1.317,1.317,0,0,1-.234-.773l-.057-95.923c0-.592.34-1.077.766-1.092l86.895-3.414a.908.908,0,0,1,.787.81l19.068,98.654a1.437,1.437,0,0,1-.136.946.747.747,0,0,1-.626.428l-105.9.684Zm.733-95.954.057,93.765,104.087-.673-18.642-96.452Z" transform="translate(97.564 121.423)"/>
        </g>
      </g>
    </g>
  </g>
</svg>
