<svg xmlns="http://www.w3.org/2000/svg" xmlns:xlink="http://www.w3.org/1999/xlink" width="117" height="116" viewBox="0 0 117 116">
  <defs>
    <filter id="Elipse_4893" x="0" y="0" width="117" height="116" filterUnits="userSpaceOnUse">
      <feOffset dy="3" input="SourceAlpha"/>
      <feGaussianBlur stdDeviation="3" result="blur"/>
      <feFlood flood-opacity="0.161"/>
      <feComposite operator="in" in2="blur"/>
      <feComposite in="SourceGraphic"/>
    </filter>
  </defs>
  <g id="Grupo_991105" data-name="Grupo 991105" transform="translate(8.52 5.908)">
    <g transform="matrix(1, 0, 0, 1, -8.52, -5.91)" filter="url(#Elipse_4893)">
      <ellipse id="Elipse_4893-2" data-name="Elipse 4893" cx="49.5" cy="49" rx="49.5" ry="49" transform="translate(9 6)" fill="#3c3fa7"/>
    </g>
    <g id="atras" transform="translate(56.48 16.448)">
      <path id="Trazado_692443" data-name="Trazado 692443" d="M12.944,10.953V4.046L1.416,15.484,12.944,27.032V20.126s10.089-2.5,17.034,9.173a16.885,16.885,0,0,0-6.025-15.361S20.518,10.725,12.944,10.953Z" transform="translate(-0.604 -1.025)" fill="#fed947"/>
      <path id="Trazado_692444" data-name="Trazado 692444" d="M29.65,29.857l-.769-1.291c-5.856-9.84-13.989-9.289-15.968-8.989v7.816L0,14.458,12.913,1.644v7.7c7.3-.059,10.688,3.02,10.827,3.15a17.6,17.6,0,0,1,6.2,15.889ZM14.7,18.3c3.3,0,9.37,1.111,14.249,8.242a16.41,16.41,0,0,0-5.968-13.191c-.057-.05-3.429-3.08-10.625-2.852l-.59.017V4.4L1.624,14.461,11.766,24.622v-5.97l.436-.108A11.294,11.294,0,0,1,14.7,18.3Z" fill="#fed947"/>
    </g>
    <g id="Grupo_991069" data-name="Grupo 991069" transform="translate(18.533 17.658)">
      <g id="empresario_1_" data-name="empresario (1)" transform="translate(0 0)">
        <path id="Trazado_692411" data-name="Trazado 692411" d="M20.26,33l4.058,4.058L28.375,33l13.173,2.2a6.087,6.087,0,0,1,5.086,6V62.418H2V41.2a6.086,6.086,0,0,1,5.086-6Z" transform="translate(-0.986 -0.563)" fill="#e39854"/>
        <path id="Trazado_692412" data-name="Trazado 692412" d="M61.418,62.317h-28.4A1.015,1.015,0,0,1,32,61.3V41.014A1.015,1.015,0,0,1,33.014,40h28.4a1.015,1.015,0,0,1,1.014,1.014V61.3A1.015,1.015,0,0,1,61.418,62.317Z" transform="translate(-0.553 -0.462)" fill="#606060"/>
        <path id="Trazado_692413" data-name="Trazado 692413" d="M32,57.879c.067,0,.132.01.2.01A19.744,19.744,0,0,0,51.852,40H33.014A1.015,1.015,0,0,0,32,41.014Z" transform="translate(-0.553 -0.462)" fill="#8c8787"/>
        <path id="Trazado_692414" data-name="Trazado 692414" d="M62.433,44.058a6.086,6.086,0,0,1-6.087,6.087H38.087A6.086,6.086,0,0,1,32,44.058V41.014A1.015,1.015,0,0,1,33.014,40h28.4a1.015,1.015,0,0,1,1.014,1.014Z" transform="translate(-0.553 -0.462)" fill="#d5cec2"/>
        <path id="Trazado_692415" data-name="Trazado 692415" d="M51.852,40H33.014A1.015,1.015,0,0,0,32,41.014v3.043a6.086,6.086,0,0,0,6.087,6.087h9.768A19.619,19.619,0,0,0,51.852,40Z" transform="translate(-0.553 -0.462)" fill="#e7e4dd"/>
        <path id="Trazado_692416" data-name="Trazado 692416" d="M62.433,58v3.043a1.015,1.015,0,0,1-1.014,1.014h-28.4A1.015,1.015,0,0,1,32,61.043V58Z" transform="translate(-0.553 -0.202)" fill="#d5cec2"/>
        <path id="Trazado_692417" data-name="Trazado 692417" d="M22.014,35,21,38.043l2.029,3.043h2.029l2.029-3.043L26.072,35" transform="translate(-0.711 -0.534)" fill="#d5cec2"/>
        <path id="Trazado_692418" data-name="Trazado 692418" d="M31.231,11l-1.623,1.217a9.13,9.13,0,0,1-10.956,0L17.029,11,15,15.058v6.087a9.119,9.119,0,0,0,5.072,8.169v4l4.058,4.058,4.058-4.058v-4a9.121,9.121,0,0,0,5.072-8.169V15.058Z" transform="translate(-0.798 -0.88)" fill="#fadfb2"/>
        <path id="Trazado_692419" data-name="Trazado 692419" d="M33.292,16.2,34.46,13.5a7.18,7.18,0,0,0-3.617-9.378l-2.83-1.289a9.219,9.219,0,0,0-9.351,1.014l-1.748,1.32a5.3,5.3,0,0,0-3.622,7.556L15.033,16.2V15.188l2.029-4.058,1.623,1.217a9.13,9.13,0,0,0,10.956,0l1.623-1.217,2.029,4.058Z" transform="translate(-0.831 -1.01)" fill="#c18e59"/>
        <path id="Trazado_692420" data-name="Trazado 692420" d="M15.058,16H13.029a2.029,2.029,0,1,0,0,4.058h2.029" transform="translate(-0.856 -0.808)" fill="#efbe9a"/>
        <path id="Trazado_692421" data-name="Trazado 692421" d="M33,16h2.029a2.029,2.029,0,1,1,0,4.058H33" transform="translate(-0.538 -0.808)" fill="#efbe9a"/>
        <g id="Grupo_991047" data-name="Grupo 991047" transform="translate(10.144 43.595)">
          <path id="Trazado_692422" data-name="Trazado 692422" d="M11,44h2.029V62.258H11Z" transform="translate(-11 -43.999)" fill="#c16b3f"/>
        </g>
        <path id="Trazado_692423" data-name="Trazado 692423" d="M25.058,41l2.029,5.072L24.043,59.26,21,46.072,23.029,41" transform="translate(-0.711 -0.447)" fill="#e7e4dd"/>
        <path id="Trazado_692424" data-name="Trazado 692424" d="M47.029,54.115A2.028,2.028,0,0,1,45,52.087V46h4.058v6.087A2.028,2.028,0,0,1,47.029,54.115Z" transform="translate(-0.365 -0.375)" fill="#f2c351"/>
        <g id="Grupo_991048" data-name="Grupo 991048" transform="translate(38.548 32.436)">
          <path id="Trazado_692425" data-name="Trazado 692425" d="M53.2,40.1V36.042a1.015,1.015,0,0,0-1.014-1.014H42.043a1.015,1.015,0,0,0-1.014,1.014V40.1H39V36.042A3.047,3.047,0,0,1,42.043,33H52.187a3.047,3.047,0,0,1,3.043,3.043V40.1Z" transform="translate(-39 -32.999)" fill="#8c8787"/>
        </g>
        <path id="Trazado_692426" data-name="Trazado 692426" d="M49.058,47.99V46H45v6.087a2.026,2.026,0,0,0,.131.7A19.806,19.806,0,0,0,49.058,47.99Z" transform="translate(-0.365 -0.375)" fill="#f7d881"/>
        <path id="Trazado_692427" data-name="Trazado 692427" d="M61.866,39.548H55.779V36.5a3.047,3.047,0,0,0-3.043-3.043H42.592a3.026,3.026,0,0,0-2.213.969L29.4,32.6V30.059a10.141,10.141,0,0,0,5.072-8.771h1.014a3.043,3.043,0,0,0,0-6.087H35l.556-1.289a8.194,8.194,0,0,0-4.129-10.7L28.6,1.92A10.4,10.4,0,0,0,18.221,3.046l-1.6,1.2,0,0a6.311,6.311,0,0,0-4.071,8.938L13.561,15.2h-.388a3.043,3.043,0,0,0,0,6.087h1.014A10.141,10.141,0,0,0,19.26,30.06V32.6L6.933,34.655A7.078,7.078,0,0,0,1,41.66V62.878a1.014,1.014,0,0,0,1.014,1.014h59.85a2.03,2.03,0,0,0,2.029-2.029V41.577A2.029,2.029,0,0,0,61.866,39.548Zm0,5.071a5.078,5.078,0,0,1-5.073,5.071H50.706V46.648a1.014,1.014,0,0,0-1.014-1.014H45.634a1.014,1.014,0,0,0-1.014,1.014V49.69H38.533a5.077,5.077,0,0,1-5.072-5.066V41.577h28.4Zm-28.4,4.96a7.077,7.077,0,0,0,5.072,2.14h6.087v1.016a3.043,3.043,0,0,0,6.087,0V51.719h6.087a7.079,7.079,0,0,0,5.073-2.141v8.229H33.462Zm13.188,3.157V47.662h2.029v5.073a1.014,1.014,0,0,1-1.014,1.012h0A1.014,1.014,0,0,1,46.649,52.736ZM41.577,36.7a5.071,5.071,0,0,1,3.581,2.845H41.577Zm12.173-.2v3.043H47.328a7.105,7.105,0,0,0-3.285-4.058h8.693A1.015,1.015,0,0,1,53.75,36.5ZM36.5,18.245a1.015,1.015,0,0,1-1.013,1.014H34.476V17.231h1.014A1.015,1.015,0,0,1,36.5,18.245ZM14.526,8.154A4.31,4.31,0,0,1,18.2,6.072a4.738,4.738,0,0,1,3.949,2.113l.319.478,1.689-1.125-.319-.478A6.758,6.758,0,0,0,20.017,4.3a8.345,8.345,0,0,1,7.744-.531l2.831,1.289A6.167,6.167,0,0,1,33.7,13.108l-.069.16-1.288-2.578a1.01,1.01,0,0,0-.675-.534,1.028,1.028,0,0,0-.842.175L29.2,11.55a8.113,8.113,0,0,1-9.739,0L17.84,10.331A1.027,1.027,0,0,0,17,10.156a1.015,1.015,0,0,0-.675.534l-1.376,2.75-.58-1.161a4.268,4.268,0,0,1,.159-4.125Zm-1.353,11.1a1.014,1.014,0,1,1,0-2.029h1.014v2.029Zm3.043,2.029V15.441l1.378-2.756.651.488a10.144,10.144,0,0,0,12.173,0l.65-.488,1.379,2.756v5.847a8.115,8.115,0,1,1-16.231,0Zm8.115,10.144a10.13,10.13,0,0,0,3.043-.468v2.077l-3.043,3.043-3.043-3.043V30.965a10.13,10.13,0,0,0,3.043.468ZM24,42.59h.655l1.657,4.139-1.984,8.6-1.984-8.6Zm2.251-4.207L24.8,40.561H23.86l-1.453-2.178.338-1.015.868.868a1.018,1.018,0,0,0,1.435,0l.868-.868ZM13.172,61.863V44.619H11.143V61.863H3.029V41.66a5.057,5.057,0,0,1,4.237-5l12.659-2.109,1.216,1.216-.816,2.448a1.014,1.014,0,0,0,.118.884l1.733,2.6-1.83,4.575a1.013,1.013,0,0,0-.047.606l3.043,13.188a1.015,1.015,0,0,0,1.977,0l3.043-13.188a1.014,1.014,0,0,0-.047-.606l-1.83-4.575,1.733-2.6a1.014,1.014,0,0,0,.118-.884l-.816-2.448,1.216-1.216,10.826,1.8c0,.052-.015.1-.015.153v3.043H33.462a2.03,2.03,0,0,0-2.029,2.029V61.863Zm21.3,0H33.462V59.835H61.867v2.029Z" transform="translate(-1 -1.024)"/>
      </g>
    </g>
  </g>
</svg>
