<svg xmlns="http://www.w3.org/2000/svg" xmlns:xlink="http://www.w3.org/1999/xlink" width="117" height="116" viewBox="0 0 117 116">
  <defs>
    <filter id="Elipse_4893" x="0" y="0" width="117" height="116" filterUnits="userSpaceOnUse">
      <feOffset dy="3" input="SourceAlpha"/>
      <feGaussianBlur stdDeviation="3" result="blur"/>
      <feFlood flood-opacity="0.161"/>
      <feComposite operator="in" in2="blur"/>
      <feComposite in="SourceGraphic"/>
    </filter>
  </defs>
  <g id="Grupo_991074" data-name="Grupo 991074" transform="translate(8.52 5.908)">
    <g transform="matrix(1, 0, 0, 1, -8.52, -5.91)" filter="url(#Elipse_4893)">
      <ellipse id="Elipse_4893-2" data-name="Elipse 4893" cx="49.5" cy="49" rx="49.5" ry="49" transform="translate(9 6)" fill="#3c3fa7"/>
    </g>
    <g id="malo" transform="translate(15.892 11.541)">
      <path id="Trazado_692485" data-name="Trazado 692485" d="M45.249,44.106,34.481,41.13V37.515a12.96,12.96,0,0,0,7.075-11.544V18.9H37.293A9.38,9.38,0,0,1,28.585,13a9.38,9.38,0,0,1-8.709,5.9H15.613v7.075a12.96,12.96,0,0,0,7.075,11.544V41.13L11.921,44.106A9.434,9.434,0,0,0,5,53.2V66.066H52.17V53.2a9.434,9.434,0,0,0-6.92-9.092Z" transform="translate(0.179 2.151)" fill="#fbe3bc"/>
      <path id="Trazado_692486" data-name="Trazado 692486" d="M34.481,36.854a8.054,8.054,0,0,1-5.693,2.358h-.406a8.053,8.053,0,0,1-5.692-2.358L11.921,39.83A9.434,9.434,0,0,0,5,48.922V61.79H52.17V48.922a9.434,9.434,0,0,0-6.92-9.092Z" transform="translate(0.179 6.426)" fill="#4472b0"/>
      <path id="Trazado_692487" data-name="Trazado 692487" d="M50.72,48.922a9.434,9.434,0,0,0-6.92-9.092L33.031,36.854h0a8.054,8.054,0,0,1-5.693,2.358h-.406a8.053,8.053,0,0,1-5.692-2.358l-8.153,2.251C14.245,51.809,25.9,61.79,40.107,61.79H50.72Z" transform="translate(1.629 6.426)" fill="#698ec0"/>
      <path id="Trazado_692489" data-name="Trazado 692489" d="M14.717,24.358V22H13.538a3.538,3.538,0,0,0,0,7.075h2.077a12.923,12.923,0,0,1-.9-4.717Z" transform="translate(1.075 3.764)" fill="#fdeed7"/>
      <path id="Trazado_692490" data-name="Trazado 692490" d="M37.316,22H36.136v2.358a12.923,12.923,0,0,1-.9,4.717h2.077a3.538,3.538,0,1,0,0-7.075Z" transform="translate(5.599 3.764)" fill="#fdeed7"/>
      <path id="Trazado_692491" data-name="Trazado 692491" d="M40.66,25.585h1.179a3.519,3.519,0,0,1,1.432.308l1.651-6.038a11.488,11.488,0,0,0,.295-5.114,11.623,11.623,0,0,0-4.406-7.278L38.641,5.8a18.552,18.552,0,0,0-23.322.664L14.1,7.513a11.592,11.592,0,0,0-3.879,6.849l-.065.379a11.488,11.488,0,0,0,.295,5.114L12.371,25.8a3.508,3.508,0,0,1,1.166-.212h1.179V20.868H18.98a9.38,9.38,0,0,0,8.709-5.9,9.38,9.38,0,0,0,8.709,5.9H40.66Z" transform="translate(1.075 0.179)" fill="#666e77"/>
      <path id="Trazado_692492" data-name="Trazado 692492" d="M26.792,13a9.38,9.38,0,0,1-8.709,5.9H15v3.538a12.965,12.965,0,0,0,24.551,5.824,13.034,13.034,0,0,0,.213-2.287V18.9H35.5A9.38,9.38,0,0,1,26.792,13Z" transform="translate(1.972 2.151)" fill="#fdeed7"/>
      <path id="Trazado_692494" data-name="Trazado 692494" d="M28.075,31.717h2.358a4.717,4.717,0,1,0-9.434,0h2.358a2.358,2.358,0,1,1,4.717,0Z" transform="translate(3.047 4.66)"/>
      <path id="Trazado_692495" data-name="Trazado 692495" d="M24.075,24.538a3.538,3.538,0,1,0-7.075,0h2.358a1.179,1.179,0,0,1,2.358,0Z" transform="translate(2.33 3.585)"/>
      <path id="Trazado_692496" data-name="Trazado 692496" d="M30.538,23.358a1.179,1.179,0,0,1,1.179,1.179h2.358a3.538,3.538,0,1,0-7.075,0h2.358A1.179,1.179,0,0,1,30.538,23.358Z" transform="translate(4.122 3.585)"/>
      <g id="Grupo_991075" data-name="Grupo 991075" transform="translate(38.198 42.273)">
        <circle id="Elipse_5036" data-name="Elipse 5036" cx="15.5" cy="15.5" r="15.5" transform="translate(-0.198 -0.162)" fill="#c7e2fb"/>
        <path id="Trazado_692488" data-name="Trazado 692488" d="M47.434,36a15.239,15.239,0,0,0-8.1,2.329A16.544,16.544,0,0,0,38,44.844a17.4,17.4,0,0,0,17.689,17.1,18.251,18.251,0,0,0,3.037-.27A15.311,15.311,0,0,0,47.434,36Z" transform="translate(-32.104 -36)" fill="#ebf7fe"/>
        <rect id="Rectángulo_341421" data-name="Rectángulo 341421" width="5" height="9" transform="translate(5.802 9.838)" fill="#4472b0"/>
        <path id="Trazado_692493" data-name="Trazado 692493" d="M42,51.075l3.538,2.358v5.9h0a4.717,4.717,0,0,0,4.717-4.717V52.255h3.538A2.358,2.358,0,0,0,56.151,49.9V46.358A2.358,2.358,0,0,0,53.792,44H45.538L42,46.358Z" transform="translate(-31.387 -34.566)" fill="#fbe3bc"/>
        <path id="Trazado_692497" data-name="Trazado 692497" d="M54.689,43H46.434a1.186,1.186,0,0,0-.654.2l-1.7,1.137v-.156A1.179,1.179,0,0,0,42.9,43H38.179A1.179,1.179,0,0,0,37,44.179v9.434a1.179,1.179,0,0,0,1.179,1.179H42.9a1.179,1.179,0,0,0,1.179-1.179v-.156l1.179.787v5.265a1.179,1.179,0,0,0,1.179,1.179,5.9,5.9,0,0,0,5.9-5.9V53.613h2.358a3.538,3.538,0,0,0,3.538-3.538V46.538A3.538,3.538,0,0,0,54.689,43ZM41.717,52.434H39.358V45.358h2.358Zm14.151-2.358a1.179,1.179,0,0,1-1.179,1.179H51.151a1.179,1.179,0,0,0-1.179,1.179v2.358a3.545,3.545,0,0,1-2.358,3.336V53.613a1.179,1.179,0,0,0-.525-.981l-3.013-2.008V47.169l2.712-1.81h7.9a1.179,1.179,0,0,1,1.179,1.179Z" transform="translate(-32.283 -34.745)"/>
      </g>
      <path id="Trazado_692498" data-name="Trazado 692498" d="M53.528,41.094A16.4,16.4,0,0,0,43.521,44.5l-7.682-2.121V40.358a14.235,14.235,0,0,0,5.778-6.34h1.3a4.708,4.708,0,0,0,2.732-8.547l1.483-5.111A12.707,12.707,0,0,0,42.6,6.705L40.438,5.044a19.731,19.731,0,0,0-24.808.708L14.414,6.8a12.809,12.809,0,0,0-4.271,7.547l-.064.379a12.719,12.719,0,0,0,.323,5.639l1.483,5.11a4.708,4.708,0,0,0,2.728,8.545h1.3a14.235,14.235,0,0,0,5.772,6.34v2.025L11.783,45.12A10.643,10.643,0,0,0,4,55.35V68.216A1.179,1.179,0,0,0,5.179,69.4H42a16.5,16.5,0,1,0,11.532-28.3ZM42.915,31.66h-.472a14.071,14.071,0,0,0,.472-3.538V26.943a2.358,2.358,0,0,1,0,4.717ZM12.663,19.7a10.344,10.344,0,0,1-.263-4.59l.064-.377a10.455,10.455,0,0,1,3.485-6.153l1.217-1.047A17.371,17.371,0,0,1,39,6.916l2.17,1.662a10.351,10.351,0,0,1,3.7,11.126l-1.432,4.933a4.686,4.686,0,0,0-.519-.052V21.047a1.179,1.179,0,0,0-1.179-1.179H37.473a8.163,8.163,0,0,1-7.614-5.156,1.179,1.179,0,0,0-2.189,0,8.163,8.163,0,0,1-7.614,5.156H15.792a1.179,1.179,0,0,0-1.179,1.179v3.538a4.685,4.685,0,0,0-.519.052Zm1.95,11.955a2.358,2.358,0,1,1,0-4.717v1.179a14.07,14.07,0,0,0,.466,3.538Zm2.358-3.538v-5.9h3.084a10.5,10.5,0,0,0,8.709-4.581,10.5,10.5,0,0,0,8.709,4.581h3.084v5.9a11.792,11.792,0,0,1-23.585,0ZM28.764,42.273a14.059,14.059,0,0,0,4.717-.825v1.311a6.82,6.82,0,0,1-4.514,1.7h-.406a6.817,6.817,0,0,1-4.514-1.7V41.448a14.059,14.059,0,0,0,4.717.825ZM6.358,55.35a8.277,8.277,0,0,1,6.055-7.956l10.141-2.8a9.16,9.16,0,0,0,6,2.229h.406a9.163,9.163,0,0,0,6-2.229l6.486,1.792A16.417,16.417,0,0,0,40,67.037H15.792V56.424H13.434V67.037H6.358Zm47.17,16.4A14.151,14.151,0,1,1,67.679,57.6,14.151,14.151,0,0,1,53.528,71.754Z" transform="translate(0 0)"/>
    </g>
  </g>
</svg>
