<svg xmlns="http://www.w3.org/2000/svg" xmlns:xlink="http://www.w3.org/1999/xlink" width="171.368" height="109.894" viewBox="0 0 171.368 109.894">
  <defs>
    <clipPath id="clip-path">
      <rect id="Rectángulo_338802" data-name="Rectángulo 338802" width="81.161" height="63.98" fill="none"/>
    </clipPath>
  </defs>
  <g id="Grupo_991718" data-name="Grupo 991718" transform="translate(-1134.906 -472.351)">
    <g id="Grupo_991446" data-name="Grupo 991446" transform="translate(1134.906 509.24)">
      <g id="Grupo_81065" data-name="Grupo 81065" transform="translate(2.349 2.349)" style="mix-blend-mode: overlay;isolation: isolate">
        <path id="Trazado_115015" data-name="Trazado 115015" d="M200.841,221.971c-4.774,4.885-9.707,9.59-14.735,14.213,2.174-4.915,4.517-9.751,6.581-14.717,2.339-5.63,5.059-13.3,2.109-19.21-6.722-13.461-23.714-.253-29.967,6.523-.666.722-1.3,1.476-1.946,2.221,2.234-5.471,4.246-11.094,3.715-17-.73-8.128-8.181-10.078-14.6-6.3-6.888,4.055-12.421,11.071-17.04,17.443-3.924,5.412,5.054,10.564,8.947,5.23a70.384,70.384,0,0,1,6.994-8.181q-.557,1.021-1.127,2.038a151.872,151.872,0,0,0-7.034,13.7c-3.916,9.035-9.707,21.545-4.781,31.049,2.483,4.79,8.305,5.276,12.689,3.327,5.893-2.62,9.974-8.4,13.908-13.3,4.107-5.111,7.725-10.538,11.526-15.87a77.232,77.232,0,0,1,4.995-6.538c.042-.048.085-.091.127-.138l-.046.144c-1.01,3.139-2.308,6.151-3.623,9.171-2.445,5.619-5.6,11.533-6.5,17.647-.792,5.406,1.4,11.465,7.9,11.073,6.112-.369,11.011-6.256,15.1-10.188,4.948-4.762,9.808-9.618,14.669-14.469C213.785,224.774,205.856,216.842,200.841,221.971Z" transform="translate(-132.989 -184.85)" fill="#3c384f"/>
        <path id="Trazado_115016" data-name="Trazado 115016" d="M178.352,255.5a7.767,7.767,0,0,1-5.916-2.455c-2.059-2.242-2.949-5.895-2.381-9.77.74-5.052,2.944-9.892,5.074-14.57.51-1.121,1.016-2.23,1.493-3.328.453-1.041.929-2.135,1.4-3.267q-.434.6-.859,1.2l-.281.4c-.988,1.385-1.963,2.776-2.937,4.168-2.736,3.9-5.565,7.942-8.624,11.748-.447.556-.9,1.124-1.35,1.7-3.509,4.437-7.485,9.466-12.929,11.885-4.853,2.155-11.209,1.552-13.97-3.776-4.961-9.571.4-21.886,4.307-30.878l.444-1.023c1.15-2.656,2.44-5.25,3.809-7.831q-.476.62-.933,1.248a6.6,6.6,0,0,1-9.308,1.294,5.229,5.229,0,0,1-1.243-7.69c4.931-6.8,10.445-13.657,17.341-17.715,3.827-2.252,8.015-2.618,11.206-.978,2.81,1.444,4.543,4.3,4.879,8.045a30.347,30.347,0,0,1-1.928,12.6c5.088-4.971,14.5-12.021,22.047-10.953,3.468.492,6.152,2.6,7.978,6.254,3,6.014.634,13.5-2.081,20.033-1.292,3.109-2.713,6.211-4.087,9.211l-.486,1.061c4.089-3.835,7.747-7.407,11.1-10.841h0a5.954,5.954,0,0,1,5.931-1.762,7.3,7.3,0,0,1,5.051,5.015,6.007,6.007,0,0,1-1.706,6.008l-.553.551c-4.6,4.594-9.361,9.344-14.129,13.93-.588.566-1.191,1.171-1.813,1.8-3.7,3.711-8.308,8.33-13.911,8.668C178.777,255.49,178.563,255.5,178.352,255.5Zm2.843-39.991a.936.936,0,0,1,.48.128.964.964,0,0,1,.468,1.125l-.047.145c-1.058,3.292-2.438,6.463-3.656,9.261-.483,1.109-.993,2.228-1.507,3.358-2.073,4.554-4.217,9.262-4.917,14.037-.475,3.242.246,6.362,1.88,8.142a5.948,5.948,0,0,0,4.978,1.8c4.851-.293,8.983-4.435,12.628-8.09.632-.633,1.245-1.249,1.842-1.823,4.755-4.575,9.508-9.318,14.1-13.906l.552-.551a4.03,4.03,0,0,0,1.194-4.086,5.334,5.334,0,0,0-3.637-3.616,3.97,3.97,0,0,0-4.015,1.228h0c-4.337,4.436-9.169,9.1-14.774,14.248a.991.991,0,0,1-1.576-1.131c.821-1.858,1.668-3.7,2.514-5.55,1.366-2.984,2.78-6.07,4.059-9.146,2.543-6.117,4.786-13.086,2.138-18.386-1.539-3.084-3.66-4.777-6.485-5.177-7.038-1-16.935,6.585-21.867,11.93-.526.569-1.032,1.159-1.54,1.75l-.383.447a.991.991,0,0,1-1.668-1.022c2.127-5.212,4.161-10.782,3.644-16.543-.277-3.086-1.6-5.32-3.811-6.458-2.584-1.328-6.059-.982-9.3.923-6.581,3.875-11.936,10.543-16.741,17.171a3.285,3.285,0,0,0,.8,4.925,4.584,4.584,0,0,0,6.542-.86,71.756,71.756,0,0,1,7.092-8.3.991.991,0,0,1,1.572,1.174q-.56,1.026-1.133,2.047a151.6,151.6,0,0,0-6.988,13.614l-.445,1.025c-3.753,8.627-8.892,20.443-4.366,29.175,2.2,4.242,7.4,4.656,11.407,2.877,5-2.22,8.648-6.838,12.178-11.3.457-.577.91-1.149,1.36-1.709,3.018-3.756,5.827-7.766,8.545-11.644q1.465-2.093,2.946-4.18l.281-.394a73.725,73.725,0,0,1,4.78-6.227l.088-.1A1.082,1.082,0,0,1,181.194,215.5Zm19.638,6.457h0Z" transform="translate(-132.979 -184.841)" fill="#3c384f"/>
        <path id="Trazado_115017" data-name="Trazado 115017" d="M142.754,223.269c-3.65,7.336-5.71,15.937-2.5,23.822.474,1.166,2.391.656,1.91-.527-3.01-7.4-1.13-15.395,2.3-22.295C145.032,223.132,143.323,222.126,142.754,223.269Z" transform="translate(-133.031 -185.188)" fill="#3c384f"/>
        <path id="Trazado_115018" data-name="Trazado 115018" d="M145.8,244.331c-.017,0-.033-.007-.049-.01-.028-.053-.053-.112-.061-.128l0-.006c0-.008,0,0,0-.014-.128-.443-.219-.891-.316-1.342q-.336-1.568-.673-3.136a1,1,0,0,0-1.219-.692,1.014,1.014,0,0,0-.693,1.219q.38,1.773.762,3.547c.211.984.549,2.275,1.728,2.472a1.015,1.015,0,0,0,1.219-.693A1,1,0,0,0,145.8,244.331Z" transform="translate(-133.069 -185.336)" fill="#3c384f"/>
        <path id="Trazado_115019" data-name="Trazado 115019" d="M189.829,201.722c-1.125-.6-2.126,1.11-1,1.711,1.556.83,2.03,2.521,2.092,4.181a28.657,28.657,0,0,1-.447,5.68,37.7,37.7,0,0,1-3.439,10.644c-.566,1.138,1.142,2.143,1.711,1a39.656,39.656,0,0,0,3.846-12.535C193.059,208.832,193.618,203.744,189.829,201.722Z" transform="translate(-133.474 -184.994)" fill="#3c384f"/>
      </g>
      <g id="Grupo_81068" data-name="Grupo 81068" transform="translate(0 0)">
        <g id="Grupo_81067" data-name="Grupo 81067">
          <g id="Grupo_81066" data-name="Grupo 81066">
            <path id="Trazado_115020" data-name="Trazado 115020" d="M198.47,219.6c-4.774,4.885-9.707,9.59-14.736,14.212,2.174-4.914,4.518-9.751,6.582-14.716,2.339-5.63,5.058-13.3,2.109-19.21-6.722-13.461-23.714-.254-29.967,6.523-.667.721-1.3,1.475-1.946,2.221,2.233-5.471,4.245-11.093,3.715-17-.73-8.128-8.181-10.078-14.6-6.3-6.889,4.056-12.421,11.072-17.041,17.444-3.924,5.412,5.055,10.564,8.948,5.23a70.467,70.467,0,0,1,6.993-8.182q-.557,1.021-1.126,2.039a152,152,0,0,0-7.034,13.7c-3.917,9.036-9.707,21.545-4.781,31.05,2.483,4.79,8.3,5.276,12.689,3.327,5.893-2.62,9.974-8.4,13.908-13.3,4.107-5.111,7.724-10.538,11.525-15.87a77.839,77.839,0,0,1,4.995-6.539c.042-.047.086-.09.128-.138l-.046.145c-1.01,3.139-2.309,6.151-3.623,9.171-2.446,5.618-5.6,11.532-6.5,17.647-.793,5.406,1.4,11.465,7.9,11.073,6.111-.369,11.01-6.256,15.1-10.188,4.949-4.762,9.809-9.619,14.67-14.47C211.413,222.4,203.484,214.471,198.47,219.6Z" transform="translate(-130.618 -182.479)" fill="#6b8dff"/>
            <path id="Trazado_115021" data-name="Trazado 115021" d="M175.98,253.124a7.764,7.764,0,0,1-5.915-2.454c-2.059-2.242-2.949-5.895-2.381-9.771.739-5.051,2.943-9.891,5.074-14.57.509-1.121,1.015-2.229,1.493-3.327.453-1.041.929-2.135,1.4-3.267-.289.4-.576.8-.859,1.2l-.281.394c-.988,1.385-1.963,2.777-2.938,4.167-2.735,3.9-5.564,7.943-8.623,11.748-.447.557-.9,1.125-1.35,1.7-3.509,4.436-7.485,9.465-12.928,11.885-4.854,2.155-11.209,1.551-13.97-3.777-4.961-9.57.4-21.885,4.306-30.878l.445-1.022c1.15-2.656,2.44-5.25,3.808-7.831q-.474.62-.933,1.247a6.593,6.593,0,0,1-9.307,1.3,5.229,5.229,0,0,1-1.243-7.69c4.931-6.8,10.445-13.657,17.34-17.716,3.828-2.251,8.015-2.617,11.207-.977,2.81,1.444,4.542,4.3,4.879,8.044a30.329,30.329,0,0,1-1.929,12.6c5.089-4.97,14.5-12.02,22.047-10.952,3.468.492,6.153,2.6,7.979,6.254,3,6.014.633,13.5-2.081,20.033-1.292,3.108-2.713,6.211-4.087,9.21l-.486,1.061c4.089-3.834,7.747-7.406,11.1-10.84h0a5.953,5.953,0,0,1,5.931-1.761,7.3,7.3,0,0,1,5.05,5.015,6,6,0,0,1-1.705,6.008l-.553.552c-4.6,4.594-9.361,9.343-14.129,13.93-.588.566-1.191,1.171-1.814,1.8-3.7,3.711-8.307,8.33-13.91,8.668C176.4,253.118,176.192,253.124,175.98,253.124Zm2.843-39.991a.934.934,0,0,1,.48.129.963.963,0,0,1,.469,1.125l-.047.145c-1.058,3.291-2.438,6.463-3.656,9.261-.483,1.108-.993,2.227-1.507,3.358-2.074,4.554-4.218,9.262-4.918,14.036-.475,3.242.246,6.362,1.881,8.143a5.95,5.95,0,0,0,4.978,1.8c4.851-.293,8.983-4.435,12.627-8.09.632-.634,1.246-1.249,1.843-1.823,4.755-4.575,9.508-9.318,14.1-13.906l.552-.552a4.028,4.028,0,0,0,1.193-4.086,5.331,5.331,0,0,0-3.637-3.615,3.969,3.969,0,0,0-4.014,1.228h0c-4.337,4.436-9.169,9.1-14.774,14.249a.991.991,0,0,1-1.576-1.131c.821-1.858,1.668-3.7,2.513-5.551,1.367-2.983,2.78-6.069,4.059-9.146,2.542-6.117,4.786-13.086,2.138-18.387-1.54-3.083-3.661-4.776-6.485-5.177-7.038-1-16.936,6.586-21.868,11.93-.525.57-1.031,1.16-1.539,1.75l-.384.448a.991.991,0,0,1-1.668-1.023c2.128-5.211,4.163-10.782,3.645-16.542-.277-3.087-1.6-5.321-3.811-6.459-2.585-1.327-6.059-.981-9.3.923-6.582,3.874-11.936,10.543-16.741,17.171a3.284,3.284,0,0,0,.8,4.923,4.583,4.583,0,0,0,6.542-.859,71.577,71.577,0,0,1,7.092-8.3.991.991,0,0,1,1.571,1.173q-.56,1.027-1.132,2.048a151.607,151.607,0,0,0-6.989,13.614l-.445,1.025c-3.752,8.627-8.891,20.443-4.365,29.174,2.2,4.243,7.4,4.657,11.407,2.878,5-2.22,8.648-6.839,12.178-11.3q.685-.867,1.359-1.71c3.019-3.755,5.828-7.765,8.546-11.643.977-1.4,1.955-2.791,2.946-4.181l.281-.393a73.751,73.751,0,0,1,4.779-6.226l.089-.1A1.081,1.081,0,0,1,178.822,213.133Zm19.638,6.458h0Z" transform="translate(-130.608 -182.47)"/>
          </g>
          <path id="Trazado_115022" data-name="Trazado 115022" d="M140.383,220.9c-3.651,7.336-5.71,15.936-2.5,23.822.475,1.165,2.392.656,1.911-.527-3.011-7.4-1.131-15.395,2.3-22.3C142.66,220.76,140.952,219.755,140.383,220.9Z" transform="translate(-130.66 -182.817)"/>
          <path id="Trazado_115023" data-name="Trazado 115023" d="M143.43,241.96c-.017,0-.033-.007-.049-.01-.028-.054-.053-.112-.062-.128l0-.006c0-.008,0,0,0-.015-.128-.442-.22-.891-.316-1.341q-.337-1.568-.673-3.136a1,1,0,0,0-1.22-.692,1.014,1.014,0,0,0-.692,1.219l.761,3.546c.212.985.55,2.276,1.729,2.473a1.016,1.016,0,0,0,1.219-.693A1,1,0,0,0,143.43,241.96Z" transform="translate(-130.698 -182.965)"/>
          <path id="Trazado_115024" data-name="Trazado 115024" d="M187.458,199.351c-1.125-.6-2.127,1.11-1,1.711,1.556.83,2.029,2.521,2.092,4.18a28.665,28.665,0,0,1-.447,5.682,37.7,37.7,0,0,1-3.439,10.644c-.567,1.138,1.142,2.143,1.711,1a39.7,39.7,0,0,0,3.846-12.535C190.688,206.46,191.247,201.372,187.458,199.351Z" transform="translate(-131.103 -182.623)"/>
        </g>
      </g>
    </g>
    <g id="Grupo_991447" data-name="Grupo 991447" transform="translate(1225.112 472.352)">
      <g id="Grupo_983785" data-name="Grupo 983785" transform="translate(0 0)" clip-path="url(#clip-path)">
        <path id="Trazado_211117" data-name="Trazado 211117" d="M12.6,48.906q-.169.128-.33.267a4.652,4.652,0,0,0,.378.67,3.46,3.46,0,0,0,.466.552,3.129,3.129,0,0,0,2.32.824Z" transform="translate(-3.964 -15.802)"/>
        <path id="Trazado_211118" data-name="Trazado 211118" d="M12.758,48.906l2.833,2.314L12.759,48.9Z" transform="translate(-4.122 -15.801)"/>
        <path id="Trazado_211119" data-name="Trazado 211119" d="M11.68,48.535a1.334,1.334,0,0,0,.32.211c.108-.092.218-.181.331-.267-.183-.309-.224-.747-.618-.865a.758.758,0,0,0-.187-.028.778.778,0,0,0,.154.949" transform="translate(-3.695 -15.375)"/>
        <path id="Trazado_211120" data-name="Trazado 211120" d="M12.463,48.493h0c-.184-.308-.224-.746-.618-.864.394.118.434.556.617.864" transform="translate(-3.827 -15.389)"/>
        <path id="Trazado_211121" data-name="Trazado 211121" d="M11.568,47.581l0-.011-.008.01h0" transform="translate(-3.736 -15.37)"/>
        <path id="Trazado_211122" data-name="Trazado 211122" d="M11.328,47.357l-.356-.458c-.043.071-.132.15-.122.212.047.286.223.356.478.246" transform="translate(-3.505 -15.153)"/>
        <path id="Trazado_211123" data-name="Trazado 211123" d="M11.569,47.57l-.014,0,.005.006Z" transform="translate(-3.733 -15.37)"/>
        <path id="Trazado_211124" data-name="Trazado 211124" d="M19.631,34.528A3.384,3.384,0,0,0,23,31.128a3.627,3.627,0,0,0-3.326-3.613c-1.919.083-3.315.978-3.489,3.092a3.486,3.486,0,0,0,3.443,3.921M19.6,29.839a1.186,1.186,0,0,1,.223.012,1.039,1.039,0,0,1,.819,1.019,2.091,2.091,0,0,1-.007.271,1.02,1.02,0,0,1-.48.842,1.128,1.128,0,0,1-.33.125,1.684,1.684,0,0,1-.268.034c-.678.034-.961-.457-1.023-1.035A1.037,1.037,0,0,1,19.6,29.839" transform="translate(-5.226 -8.889)"/>
        <path id="Trazado_211125" data-name="Trazado 211125" d="M85.827,85.472c-5.766.079-11.247.665-16.543,0,4.836,1.869,12.8,1.975,16.543,0" transform="translate(-22.386 -27.616)"/>
        <path id="Trazado_211126" data-name="Trazado 211126" d="M20.676,33.251a1.625,1.625,0,0,0,.269-.035,1.127,1.127,0,0,0,.33-.124,1.022,1.022,0,0,0,.479-.842,1.943,1.943,0,0,0,.007-.269,1.039,1.039,0,0,0-.819-1.021,1.129,1.129,0,0,0-.223-.012,1.037,1.037,0,0,0-1.066,1.268c.062.577.347,1.068,1.023,1.035" transform="translate(-6.346 -9.999)" fill="#fff"/>
        <path id="Trazado_211127" data-name="Trazado 211127" d="M22.052,33.715a1.02,1.02,0,0,0,.48-.842,1.023,1.023,0,0,1-.48.842" transform="translate(-7.125 -10.621)" fill="#fff"/>
        <path id="Trazado_211128" data-name="Trazado 211128" d="M21.895,34.117a1.128,1.128,0,0,1-.33.125,1.128,1.128,0,0,0,.33-.125" transform="translate(-6.968 -11.023)" fill="#fff"/>
        <path id="Trazado_211129" data-name="Trazado 211129" d="M52.063,11.8C49.092,8.289,39.7,5.821,36.911,7.887c5.113.63,10.267.952,14.523,4.279l.629-.363" transform="translate(-11.926 -2.305)"/>
        <path id="Trazado_211130" data-name="Trazado 211130" d="M10.815,40.443a2.894,2.894,0,0,1,1.916,2.784,11.116,11.116,0,0,0,11.4,10.625c1.007-.013,2.354.353,2.974-.733.676-1.187-.8-1.568-1.272-2.337-1.379-2.262-2.241-4.826-1.327-7.262.684-1.825,3.124-.61,4.654-1.256a1.908,1.908,0,0,1,.27-.04c2.113-.519,2.876.041,3.1,2.473.962,10.287,6.393,17.216,16.5,18.8,1.978.31,3.993.384,5.073.484A48.293,48.293,0,0,0,70.56,61.074,14.361,14.361,0,0,0,75.8,57.686c4.283-4.283,5.515-9.82,5.352-15.421-.222-7.637-2.326-14.759-10.154-18.294-2.052-.927-2.97-1.916-3.269-4.247A11.964,11.964,0,0,0,55.013,9.681c-.954.1-1.855.284-2.269,1.2-.387.85.417,1.279.914,1.778,1.862,1.866,2.062,4.179,1.754,6.613-.305,2.416-2.286,2.377-3.946,2.389-1.512.01-2.385-.7-2.5-2.628C48.414,9.812,43.866,3.84,36.04,1.7A50.77,50.77,0,0,0,27.982.219a40.685,40.685,0,0,0-14.22,1.056C9.217,2.385,3.51,6.078,1.882,10.3A27.414,27.414,0,0,0,.713,26.521c1.361,6.089,4.465,10.974,10.1,13.922M51.257,23.387c1.788-.236,4.06.975,5.329-.955,1.587-2.412,1.415-5.186.786-7.937-.177-.77-.912-1.386-.646-2.276,5.105.446,9.143,4.442,9.017,9.479-.058,2.337.863,3.06,2.751,3.845,7.079,2.944,9.92,8.784,10.348,16.047.408,6.935-1.452,12.914-7.871,16.584a26.567,26.567,0,0,1-12.63,3.167,56.236,56.236,0,0,1-8.486-.216A17.685,17.685,0,0,1,34.57,42.694a1.5,1.5,0,0,1,1.357-1.653c7.947-2.1,12.064-7.481,12.943-15.47.18-1.637.852-1.981,2.387-2.184M2.6,17.1C3.665,8.5,7.618,4.2,16.264,2.795A46.006,46.006,0,0,1,35.758,4.038c7.1,1.915,9.516,7.484,10.816,13.784a21.325,21.325,0,0,1-1.428,12.621c-1.639,3.966-4.581,6.26-8.39,8.128-3.856,1.891-7.805,1.449-11.739,1.688-1.72.1-2.421.726-2.777,2.277a12.9,12.9,0,0,0,1.227,8.741,8.45,8.45,0,0,1-8.477-9.139c.093-1.94-.53-2.625-2.188-3.356C5.817,35.7,3.177,29.709,2.517,22.574A25.618,25.618,0,0,1,2.6,17.1" transform="translate(0 0)"/>
        <path id="Trazado_211131" data-name="Trazado 211131" d="M13.953,39.86c1.658.731,2.281,1.417,2.188,3.356a8.451,8.451,0,0,0,8.477,9.139,12.9,12.9,0,0,1-1.227-8.741c.355-1.551,1.057-2.172,2.777-2.276,3.934-.24,7.884.2,11.739-1.687,3.808-1.869,6.751-4.163,8.39-8.129A21.33,21.33,0,0,0,47.724,18.9C46.425,12.6,44,7.032,36.908,5.117A46.013,46.013,0,0,0,17.414,3.874c-8.647,1.4-12.6,5.709-13.668,14.3a25.53,25.53,0,0,0-.08,5.475c.659,7.135,3.3,13.126,10.286,16.207M32.7,22.843a3.217,3.217,0,0,1,3.691-3.125c2.179.1,3.248,1.523,3.14,3.622a3.285,3.285,0,0,1-3.33,3.375,3.573,3.573,0,0,1-3.5-3.872m9.1,11.5h0l.059-.042.093.029-.147.014-.012.01A7.779,7.779,0,0,1,39.75,36.8a7.985,7.985,0,0,1-3.239,1.462,11.558,11.558,0,0,1-1.625.229c2.137-1.656,4.87-2.318,6.912-4.134l.007-.012m-.518-23.769c.112.315.2.653-.181.814-.073.031-.294-.292-.447-.451C36.4,7.614,31.247,7.291,26.135,6.661c2.787-2.065,12.181.4,15.152,3.916M25.8,19.685a3.243,3.243,0,0,1,3.431,3.4c-.136,1.826-.72,3.443-3.079,3.114-1.993-.027-3.806-1.614-3.7-3.292A3.21,3.21,0,0,1,25.8,19.685M12.112,22.8c.174-2.114,1.57-3.009,3.489-3.092a3.628,3.628,0,0,1,3.326,3.613,3.385,3.385,0,0,1-3.372,3.4A3.485,3.485,0,0,1,12.112,22.8m-3.5,10.028.356.458.014,0,0,.011a.758.758,0,0,1,.187.028c.394.118.435.556.618.864h0L12.618,36.5a3.128,3.128,0,0,1-2.319-.824,3.458,3.458,0,0,1-.466-.552,4.624,4.624,0,0,1-.378-.671,1.334,1.334,0,0,1-.32-.211.778.778,0,0,1-.154-.949h0l0-.007c-.255.11-.431.04-.478-.246-.01-.062.079-.141.122-.213" transform="translate(-1.149 -1.079)" fill="#fcfcfc"/>
        <path id="Trazado_211132" data-name="Trazado 211132" d="M60.06,49.147h0l-.007.012,0,0,.005-.009" transform="translate(-19.403 -15.879)" fill="#fcfcfc"/>
        <path id="Trazado_211133" data-name="Trazado 211133" d="M52.42,46.875a1.5,1.5,0,0,0-1.358,1.653A17.686,17.686,0,0,0,66.347,66.959a56.228,56.228,0,0,0,8.486.216,26.57,26.57,0,0,0,12.63-3.167c6.418-3.669,8.279-9.649,7.87-16.583-.428-7.264-3.268-13.1-10.348-16.048-1.887-.785-2.808-1.509-2.75-3.846.125-5.036-3.912-9.032-9.018-9.478-.265.89.47,1.505.646,2.275.63,2.751.8,5.524-.786,7.937-1.269,1.93-3.54.72-5.329.955-1.534.2-2.207.546-2.387,2.183-.879,7.99-4.995,13.373-12.942,15.471M86.058,35.3l.195.195-.148.269c3.717,1.319,6.072,5.134,6.129,9.8-1.927-3.553-3.443-6.753-6.141-9.775l-.034.062c-.061-.061-.182-.135-.172-.18a1.727,1.727,0,0,1,.172-.368m-2.68,10.2c2.245-.135,3.294,1.2,3.637,3.311-.244,1.977-1.056,3.521-3.324,3.6-2.224.08-3.39-1.2-3.527-3.332-.142-2.2,1.035-3.452,3.214-3.582M69.772,48.714a3.2,3.2,0,0,1,3.384-3.228c2.031-.086,3.46,1.342,3.458,3.683a3.21,3.21,0,0,1-3.35,3.248,3.364,3.364,0,0,1-3.492-3.7M79.934,63.688c-3.742,1.977-11.706,1.87-16.543,0,5.3.663,10.777.079,16.543,0M66.227,49.215a3.123,3.123,0,0,1-3.19,3.2,3.438,3.438,0,0,1-3.586-3.587c.116-2.162,2.034-2.647,3.526-3.137,1.461-.481,3.22,1.573,3.25,3.52" transform="translate(-16.492 -5.833)" fill="#fcfcfc"/>
        <path id="Trazado_211134" data-name="Trazado 211134" d="M53.433,31.155c.108-2.1-.961-3.518-3.14-3.622A3.217,3.217,0,0,0,46.6,30.658a3.573,3.573,0,0,0,3.5,3.872,3.285,3.285,0,0,0,3.33-3.375M48.9,31.071a1.031,1.031,0,0,1-.018-.261c.035-.564.579-.824,1.1-1.028a1.536,1.536,0,0,1,.493.138,1.138,1.138,0,0,1,.642.862,1.531,1.531,0,0,1,.021.24,1.135,1.135,0,0,1-.971,1.125c-.8.138-1.159-.471-1.271-1.076" transform="translate(-15.051 -8.894)"/>
        <path id="Trazado_211135" data-name="Trazado 211135" d="M35.164,33.993c2.36.329,2.942-1.287,3.079-3.114a3.389,3.389,0,0,0-6.774-.179c-.11,1.678,1.7,3.265,3.7,3.292m-.7-4.277a1.862,1.862,0,0,1,.283.005,1.284,1.284,0,0,1,1.035.661,1.83,1.83,0,0,1,.195.549,1.314,1.314,0,0,1-.925,1.2,2.207,2.207,0,0,1-.24.07c-.9.207-1.088-.44-1.133-1.072-.042-.592-.081-1.365.785-1.412" transform="translate(-10.166 -8.877)"/>
        <path id="Trazado_211136" data-name="Trazado 211136" d="M51.465,53.07A7.989,7.989,0,0,0,54.7,51.608a7.767,7.767,0,0,0,2.048-2.443c-2.042,1.817-4.775,2.478-6.912,4.134a11.568,11.568,0,0,0,1.626-.229" transform="translate(-16.103 -15.885)"/>
        <path id="Trazado_211137" data-name="Trazado 211137" d="M57.026,51.607a7.779,7.779,0,0,0,2.051-2.446l0,0a7.767,7.767,0,0,1-2.048,2.443" transform="translate(-18.425 -15.884)"/>
        <path id="Trazado_211138" data-name="Trazado 211138" d="M60.072,49.145h0" transform="translate(-19.407 -15.879)"/>
        <path id="Trazado_211139" data-name="Trazado 211139" d="M60.066,49.124h0l.059-.041Z" transform="translate(-19.408 -15.859)"/>
        <path id="Trazado_211140" data-name="Trazado 211140" d="M60.068,49.146h-.007l-.005.009.012-.01" transform="translate(-19.404 -15.879)"/>
        <path id="Trazado_211141" data-name="Trazado 211141" d="M60.222,49.111l-.093-.029c-.016.016-.035.027-.052.043l.146-.014" transform="translate(-19.411 -15.858)"/>
        <path id="Trazado_211142" data-name="Trazado 211142" d="M60.064,49.145h0" transform="translate(-19.407 -15.878)"/>
        <path id="Trazado_211143" data-name="Trazado 211143" d="M60.125,49.082l-.059.042h.007c.017-.015.035-.027.052-.042" transform="translate(-19.407 -15.858)"/>
        <path id="Trazado_211144" data-name="Trazado 211144" d="M58.814,14.847c.383-.161.294-.5.181-.814l-.63.362c.154.159.375.483.448.451" transform="translate(-18.858 -4.534)"/>
        <path id="Trazado_211145" data-name="Trazado 211145" d="M82.2,65.509a3.21,3.21,0,0,0,3.351-3.247c0-2.341-1.427-3.77-3.458-3.684a3.2,3.2,0,0,0-3.384,3.228,3.363,3.363,0,0,0,3.491,3.7m.025-4.589c.634,0,.931.441.993,1.088-.056.678-.355,1.178-1.152,1.134a1.033,1.033,0,0,1-.984-1.076c-.079-.813.437-1.147,1.143-1.147" transform="translate(-25.427 -18.926)"/>
        <path id="Trazado_211146" data-name="Trazado 211146" d="M97.586,65.5c2.268-.082,3.079-1.625,3.324-3.6-.343-2.111-1.392-3.447-3.637-3.312-2.179.131-3.355,1.378-3.213,3.583.137,2.127,1.3,3.411,3.527,3.331m-.1-4.6a1.127,1.127,0,0,1-.192,2.243c-.669-.023-.906-.537-.938-1.1-.045-.786.474-1.078,1.13-1.145" transform="translate(-30.387 -18.927)"/>
        <path id="Trazado_211147" data-name="Trazado 211147" d="M63.462,61.993a3.439,3.439,0,0,0,3.586,3.588,3.123,3.123,0,0,0,3.19-3.205c-.03-1.947-1.789-4-3.25-3.52-1.492.491-3.41.975-3.527,3.137M66.842,61c.819-.074,1.066.483,1.158,1.139-.13.6-.363,1.061-1.035,1.063-.793,0-1.129-.509-1.16-1.2-.03-.661.459-.946,1.036-1" transform="translate(-20.503 -18.993)"/>
        <path id="Trazado_211148" data-name="Trazado 211148" d="M108.963,54.013c-.056-4.664-2.412-8.479-6.129-9.8l-.013.024c2.7,3.022,4.214,6.221,6.141,9.775" transform="translate(-33.222 -14.286)"/>
        <path id="Trazado_211149" data-name="Trazado 211149" d="M102.69,44.078l.034-.062c-.012-.014-.023-.029-.036-.043l.049.02.148-.268-.2-.2a1.7,1.7,0,0,0-.171.369c-.01.045.11.119.171.18" transform="translate(-33.124 -14.064)"/>
        <path id="Trazado_211150" data-name="Trazado 211150" d="M102.8,44.228l.013-.024c-.017-.005-.033-.014-.049-.02.013.014.024.029.037.043" transform="translate(-33.205 -14.276)"/>
        <path id="Trazado_211151" data-name="Trazado 211151" d="M52.245,32.1a1.53,1.53,0,0,0-.022-.24A1.14,1.14,0,0,0,51.581,31a1.555,1.555,0,0,0-.489-.136c-.527.2-1.072.463-1.107,1.027a1.066,1.066,0,0,0,.018.261c.112.6.474,1.214,1.271,1.076a1.136,1.136,0,0,0,.971-1.125" transform="translate(-16.15 -9.971)" fill="#fff"/>
        <path id="Trazado_211152" data-name="Trazado 211152" d="M52.986,31.924a1.139,1.139,0,0,0-.642-.862,1.14,1.14,0,0,1,.642.862" transform="translate(-16.913 -10.036)" fill="#fff"/>
        <path id="Trazado_211153" data-name="Trazado 211153" d="M35.87,33.268a2.2,2.2,0,0,0,.24-.07,1.31,1.31,0,0,0,.923-1.2,1.821,1.821,0,0,0-.193-.546A1.286,1.286,0,0,0,35.8,30.79a1.863,1.863,0,0,0-.283-.005c-.866.047-.826.82-.785,1.412.045.632.236,1.278,1.133,1.072" transform="translate(-11.218 -9.945)" fill="#fff"/>
        <path id="Trazado_211154" data-name="Trazado 211154" d="M36.773,33.518a1.312,1.312,0,0,0,.924-1.2,1.787,1.787,0,0,0-.195-.549,1.79,1.79,0,0,1,.194.546,1.31,1.31,0,0,1-.923,1.2" transform="translate(-11.882 -10.265)" fill="#fff"/>
        <path id="Trazado_211155" data-name="Trazado 211155" d="M83.2,64.263c.8.044,1.1-.457,1.152-1.134-.061-.648-.359-1.089-.993-1.088-.707,0-1.222.334-1.143,1.147a1.033,1.033,0,0,0,.984,1.076" transform="translate(-26.561 -20.045)" fill="#fff"/>
        <path id="Trazado_211156" data-name="Trazado 211156" d="M98.4,64.252a1.127,1.127,0,0,0,.192-2.243c-.655.066-1.174.359-1.129,1.145.032.561.269,1.076.938,1.1" transform="translate(-31.49 -20.035)" fill="#fff"/>
        <path id="Trazado_211157" data-name="Trazado 211157" d="M68.086,64.258c.671,0,.9-.466,1.035-1.063-.092-.656-.339-1.213-1.159-1.139-.578.052-1.066.338-1.037,1,.031.694.367,1.206,1.161,1.2" transform="translate(-21.624 -20.048)" fill="#fff"/>
      </g>
    </g>
  </g>
</svg>
