<svg xmlns="http://www.w3.org/2000/svg" xmlns:xlink="http://www.w3.org/1999/xlink" width="81.916" height="87.868" viewBox="0 0 81.916 87.868">
  <defs>
    <clipPath id="clip-path">
      <rect id="Rect치ngulo_338807" data-name="Rect치ngulo 338807" width="81.916" height="87.868" fill="none"/>
    </clipPath>
  </defs>
  <g id="Grupo_991452" data-name="Grupo 991452" transform="translate(0 0)">
    <g id="Grupo_983795" data-name="Grupo 983795" transform="translate(0 0)" clip-path="url(#clip-path)">
      <path id="Trazado_211197" data-name="Trazado 211197" d="M421.826,517.248a8,8,0,0,0,3.522-.879,7.913,7.913,0,0,0,3.779-4.78,7.1,7.1,0,0,0-.82-5.506,8.2,8.2,0,0,0-6.736-4.273,6.018,6.018,0,0,0-3.077.854,7.555,7.555,0,0,0-3.593,8.779c.784,2.889,3.231,5.805,6.926,5.805" transform="translate(-403.114 -434.431)" fill="#fff"/>
      <path id="Trazado_211198" data-name="Trazado 211198" d="M541.146,586.936c1.838,0,3.386-1.194,4.248-3.277,0-.026.023-.12.029-.145a5.008,5.008,0,0,0-3.438-6.239,5.281,5.281,0,0,0-1.347-.178,4.2,4.2,0,0,0-4.24,3.228c-.616,2.528.493,5.621,3.414,6.421a5.065,5.065,0,0,0,1.334.189" transform="translate(-535.687 -499.611)" fill="#fff"/>
      <path id="Trazado_211199" data-name="Trazado 211199" d="M44.563,79.017c6.424,0,13.868-2.726,15.495-10.376a.545.545,0,0,1,.532-.431.556.556,0,0,1,.115.013,16.716,16.716,0,0,0,3.534.387A13.1,13.1,0,0,0,77.05,59.488C79.31,53.013,78.1,46.328,73.964,42.46a.544.544,0,0,1,.116-.877c4.823-2.564,8.485-7.8,5.793-13.722a10.835,10.835,0,0,0-9.835-6.606,11.235,11.235,0,0,0-2.831.37.533.533,0,0,1-.137.018.544.544,0,0,1-.533-.438c-1.687-8.539-8.155-17.155-18.8-17.155q-.347,0-.7.012c-8.583.306-15.508,5.421-17.234,12.73a.543.543,0,0,1-.394.4.534.534,0,0,1-.135.017.543.543,0,0,1-.4-.18,10.4,10.4,0,0,0-7.608-3.613,8.507,8.507,0,0,0-4.516,1.3c-5.033,3.1-5.055,8.557-3.4,12.636a.543.543,0,0,1-.262.692,16.26,16.26,0,0,0-8.57,18.783C6,53,10.472,59.241,17.1,59.271a.544.544,0,0,1,.521.693c-.333,1.168-.883,4.075,1.2,5.82a4.758,4.758,0,0,0,3.126,1.16,6.254,6.254,0,0,0,2.8-.713.544.544,0,0,1,.777.381c1.609,8.144,10.8,12.4,19.043,12.4" transform="translate(0.592 -3.505)" fill="#fff"/>
      <path id="Trazado_211205" data-name="Trazado 211205" d="M15,62.7c-1.89-1.585-2.006-4.169-1.374-6.386C6.659,56.279,2.047,49.778.52,43.448a16.8,16.8,0,0,1,8.856-19.4c-2.012-4.951-1.271-10.3,3.616-13.3,4.422-2.721,9.6-1.15,12.813,2.415C27.71,5.094,35.336.305,43.549.013,54.223-.367,61.656,7.734,63.6,17.593A11.248,11.248,0,0,1,76.9,24.13c2.737,6.02-.752,11.621-6.032,14.428C75.6,42.981,76.177,50.2,74.1,56.162c-2.6,7.457-9.6,10.685-16.974,9.087-3.435,16.154-32.605,13.14-35.6-2.037A5.73,5.73,0,0,1,15,62.7m40.777,1.43a.6.6,0,0,1,.6-.552.788.788,0,0,1,.339.017c7.039,1.857,13.206-1.008,15.895-7.837,2.163-5.493,1.421-12.939-3.512-16.709a.809.809,0,0,1-.249-.315.815.815,0,0,1,.546-1.153c4.95-2.33,8.1-6.639,6.337-12.23A9.722,9.722,0,0,0,63.209,19.3a.671.671,0,0,1-.465-.01.6.6,0,0,1-.479-.526c-1.6-9.544-8.005-16.939-18.072-17.22C36.154,1.32,28.105,6.572,27.03,14.866a.79.79,0,0,1-1,.8.6.6,0,0,1-.531-.438C22.923,11.457,18.542,9.847,14.27,11.8c-4.9,2.246-5.285,7.856-3.248,12.223a.822.822,0,0,1,.037.152.623.623,0,0,1-.312.9C3.5,28.339.444,35.392,2,43.04c1.216,5.977,5.843,12.119,12.447,11.7a.637.637,0,0,1,.348,0,.652.652,0,0,1,.642.77.8.8,0,0,1-.061.375c-.837,1.941-.881,4.169.712,5.723,1.538,1.5,3.812.85,5.415-.151a.645.645,0,0,1,.269-.165.681.681,0,0,1,.979.349.8.8,0,0,1,.118.345c1.48,14.809,30.417,17.723,32.911,2.139" transform="translate(4.058 0)"/>
      <path id="Trazado_211206" data-name="Trazado 211206" d="M150.412,34.464c-2.036-4.631-4.028-8.519-8.665-10.993-3.322-1.772-6.85-1.773-10.45-2.4-.113-.02-.094-.178,0-.208,3.609-1.18,8.091.262,11.284,1.994,4.167,2.261,7.574,6.78,7.927,11.583,0,.049-.075.072-.1.026" transform="translate(-86.21 -17.689)"/>
      <path id="Trazado_211207" data-name="Trazado 211207" d="M282.452,24.665c-.339.114-.79.257-1.081-.023a.109.109,0,0,1-.017-.131c.184-.322.6-.361.93-.453a2.155,2.155,0,0,1,1.2-.058.091.091,0,0,1,.022.164,3.927,3.927,0,0,1-1.055.5" transform="translate(-239.409 -20.722)"/>
      <path id="Trazado_211208" data-name="Trazado 211208" d="M253.726,479.94a23.778,23.778,0,0,0,8.308,6.017c3.151,1.289,6.387,1.392,9.667,2.051a.063.063,0,0,1,0,.121c-3.354.613-7.294-.318-10.41-1.545a14.32,14.32,0,0,1-7.725-6.52c-.051-.1.077-.211.16-.124" transform="translate(-223.875 -415.471)"/>
      <path id="Trazado_211209" data-name="Trazado 211209" d="M58.142,430.708c.994-.086,1.961.137,2.96.13a9.827,9.827,0,0,0,3.258-.689c2.237-.809,3.747-2.481,5.553-3.917a.036.036,0,0,1,.057.043c-1.745,3.451-8.2,7.2-11.9,4.717a.154.154,0,0,1,.077-.285" transform="translate(4.155 -368.994)"/>
      <path id="Trazado_211210" data-name="Trazado 211210" d="M524.245,286.36c-1.909-1.227-3.212-3.693-4.023-5.743-1.034-2.613-1.725-5.5-.769-8.228a.117.117,0,0,1,.229.031,31.928,31.928,0,0,0,1.125,7.418c.772,2.449,2.281,4.275,3.491,6.469.018.033-.019.075-.053.053" transform="translate(-512.073 -235.744)"/>
      <path id="Trazado_211211" data-name="Trazado 211211" d="M548.758,252.578a.064.064,0,0,1-.1.028,1.1,1.1,0,0,1-.263-.976,2.949,2.949,0,0,1,.216-.713c.1-.222.227-.257.444-.289a.12.12,0,0,1,.132.053c.178.315.087.513-.066.838-.163.348-.226.709-.358,1.06" transform="translate(-540.993 -216.974)"/>
      <path id="Trazado_211212" data-name="Trazado 211212" d="M414.736,498.689c3.953-2.318,8.446.01,10.557,3.613,2.407,4.108.778,8.76-3.188,11.05-9.52,4.676-16.263-9.447-7.369-14.663m6.594,13.338a6.339,6.339,0,0,0,2.86-8.518,6.548,6.548,0,0,0-7.859-3.864c-8.495,2.643-3.276,16.447,5,12.382" transform="translate(-399.631 -430.927)"/>
      <path id="Trazado_211213" data-name="Trazado 211213" d="M532.384,576.693a4.9,4.9,0,0,1,6.254-3.447,5.546,5.546,0,0,1,3.826,6.9.759.759,0,0,1-.054.218c-1.1,2.648-3.334,4.2-6.228,3.4a5.759,5.759,0,0,1-3.8-7.075m8.548,3.263a4.028,4.028,0,0,0-2.17-5.032,3.4,3.4,0,0,0-4.591,1.394c-2.6,4.512,4.589,8.885,6.761,3.638" transform="translate(-532.202 -496.107)"/>
      <path id="Trazado_211214" data-name="Trazado 211214" d="M432.045,572.305c1.439.088,2.68.41,4.111-.039,1.54-.483,2.343-1.74,3.468-2.748a.043.043,0,0,1,.07.041c-.561,2.926-5.433,5.168-7.734,2.951a.121.121,0,0,1,.085-.2" transform="translate(-415.775 -493.039)"/>
      <path id="Trazado_211215" data-name="Trazado 211215" d="M549.465,610.01a4.222,4.222,0,0,0,2.341-1.09c.666-.708.541-1.6.892-2.416.021-.049.089-.037.114,0,.563.82.125,2.267-.444,2.978a2.321,2.321,0,0,1-2.931.731.112.112,0,0,1,.027-.2" transform="translate(-544.924 -525.041)"/>
      <path id="Trazado_211216" data-name="Trazado 211216" d="M494.3,580.141c.324.219.456.575.775.8a.173.173,0,0,1-.086.32.826.826,0,0,1-.813-1.069.085.085,0,0,1,.124-.05" transform="translate(-479.586 -502.235)"/>
      <g id="Grupo_991384" data-name="Grupo 991384" transform="translate(2.481 -0.372)">
        <path id="Uni칩n_170" data-name="Uni칩n 170" d="M18.741,20.872c-.525,0-.9-.335-1.117-1a132.672,132.672,0,0,1,3.85-17.133Q22.3.5,23.338.5h.246q1.362,0,1.86,3.222l1.492,15.157c-.194.908-.6,1.362-1.235,1.362-.766,0-1.224-.576-1.373-1.734l.127-.617a4.081,4.081,0,0,1-.127-1v-.114h-.119c-2.566,0-3.85.245-3.85.744q-.246,3.353-1.116,3.352Zm2.236-6.217c1.987-.2,2.98-.364,2.98-.5q0-1.469-.744-8.439h-.12ZM5.469,19.5a4.416,4.416,0,0,1,.245-1.234q0-3-1.492-3.982a4.989,4.989,0,0,0-1.619-.5H2.489v5.224c0,.993-.372,1.493-1.116,1.493H1.116C.484,20.5.111,20.083,0,19.253V6.589Q0,1.729,1.619.629A3.36,3.36,0,0,1,3.724,0Q6.671,0,8.077,3.982A9.311,9.311,0,0,1,8.45,6.589a7.4,7.4,0,0,1-2.608,5.7H5.715v.256q2.36,1.289,2.363,5.587,0,2.607-1.374,2.608C6.128,20.745,5.719,20.329,5.469,19.5ZM2.489,5.472v5.213c0,.13.164.29.492.491A4.8,4.8,0,0,0,6.087,6.589,6.4,6.4,0,0,0,4.841,2.864a4.5,4.5,0,0,1-1.235-.5Q2.489,2.363,2.489,5.472ZM36.174,18.287a25.454,25.454,0,0,1-.5-5.216v-1.49q.4-10.429,1.12-10.432l.628-.126h.116c.744.1,1.115.481,1.115,1.116q-.612,8.689-.613,10.313a20.873,20.873,0,0,0,.613,5.589h.258c1.844-.25,2.837-.372,2.979-.372h.245a1.281,1.281,0,0,1,.744,1.116q0,1.473-3.854,1.733A3.03,3.03,0,0,1,36.174,18.287Zm-8.271,0a25.744,25.744,0,0,1-.5-5.216v-1.49Q27.8,1.152,28.521,1.149l.629-.126h.116c.747.1,1.118.481,1.118,1.116q-.618,8.689-.617,10.313a20.692,20.692,0,0,0,.617,5.589h.254c1.845-.25,2.838-.372,2.979-.372h.245a1.275,1.275,0,0,1,.745,1.116q0,1.473-3.851,1.733A3.034,3.034,0,0,1,27.9,18.287ZM44.14,19.465v-.434c0-.8,1.778-7.53,1.778-7.53a34.564,34.564,0,0,1-3.266-9.086V2.276c0-.2.268-.5.807-.893h.829c.67,0,1.21,1.685,1.63,5.057.4,1.417.595,2.172.595,2.258v.007a59.41,59.41,0,0,0,3.259-7.459L50.517.64H51.3a1.391,1.391,0,0,1,.823,1.31q-2.491,6.714-5.736,17.732a1.949,1.949,0,0,1-1.276.607A1.634,1.634,0,0,1,44.14,19.465ZM9.771,18.008q-.258-3.678-.257-6.2,0-8.919,2.116-10.187A6.154,6.154,0,0,1,14.983.875q2.354,0,2.355,1.361v.127a1.2,1.2,0,0,1-.863,1.12c-.908-.086-1.7-.131-2.363-.131h-.126q-1.345,0-1.611,1.864a34.261,34.261,0,0,0-.368,4.6v.127c1.41-.171,2.363-.256,2.849-.256h.127q1.238,0,1.365,1.491a1.266,1.266,0,0,1-1.245,1h-.744a21.968,21.968,0,0,0-2.483.241l.131.246v1.618a21.238,21.238,0,0,0,.241,3.483c.194,0,1.355-.209,3.483-.618q1.116.156,1.115,1.116v.115q0,1.406-4.226,1.749c-.064,0-.309.038-.745.115Q10.229,20.243,9.771,18.008Z" transform="translate(16.514 28.929)"/>
      </g>
    </g>
  </g>
</svg>
