<svg xmlns="http://www.w3.org/2000/svg" xmlns:xlink="http://www.w3.org/1999/xlink" width="147.378" height="321.018" viewBox="0 0 147.378 321.018">
  <defs>
    <clipPath id="clip-path">
      <rect id="Rectángulo_338803" data-name="Rectángulo 338803" width="117.257" height="119.886" fill="none"/>
    </clipPath>
  </defs>
  <g id="Grupo_991717" data-name="Grupo 991717" transform="translate(-928.116 -273.756)">
    <g id="Grupo_991449" data-name="Grupo 991449" transform="translate(958.237 474.889)">
      <g id="Grupo_983787" data-name="Grupo 983787" clip-path="url(#clip-path)">
        <path id="Trazado_211158" data-name="Trazado 211158" d="M98.594,122.487a.384.384,0,0,1-.31-.219c.556-4.456-.326-8.035-2.623-10.636-3.1-3.509-8.625-5.214-16.9-5.214q-1.018,0-2.024.031c-2.98.091-5.966.212-8.955.333-5.858.238-11.914.484-17.858.484h0c-2.162,0-4.164-.031-6.119-.1l-.383-.013c-7.816-.256-16.673-.546-23.935-3.632C9.464,99.27,7.531,89.061,6.506,79.826A343.42,343.42,0,0,1,4.071,36.8c.137-6.386.737-13.724,4.134-19.688C12.087,10.3,18.872,5.958,27.307,4.889A121.3,121.3,0,0,1,42.72,4.05c4.246,0,8.557.134,12.727.264,1.871.058,3.734.116,5.584.163l.931.023c9.206.23,18.726.467,28.021,1.311,6.346.577,15.188,2.383,21.276,7.712,7.348,6.434,8.229,15.83,8.479,24.132.381,12.769-.253,25.871-.814,37.431-.121,2.5-.146,5.031-.172,7.711-.071,7.327-.145,14.9-2.306,21.538-2.84,8.725-8.843,14.832-17.839,18.151Z" transform="translate(-3.322 -3.326)" fill="#fff"/>
        <path id="Trazado_211169" data-name="Trazado 211169" d="M117.14,34.307c-.276-9.215-1.416-18.256-8.725-24.655C102.649,4.6,94.2,2.442,86.727,1.763,77.1.889,67.387.668,57.727.427,46.583.148,34.981-.561,23.894.844,15.611,1.894,8.413,6.129,4.254,13.428.834,19.428.17,26.7.024,33.464A349.4,349.4,0,0,0,2.464,76.58c1.111,10.01,3.344,20.009,13.418,24.287,7.506,3.189,16.567,3.438,24.578,3.7,10.972.361,22.012-.388,32.978-.722,10.44-.317,22.48,1.571,20.8,15.007a1.024,1.024,0,0,0,1.293.985c8.953-3.3,15.313-9.5,18.277-18.606,2.976-9.14,2.054-19.97,2.512-29.438.6-12.478,1.188-24.994.814-37.488M114.83,59.146c-.416,11.507-.783,23.083-1.64,34.566a27.134,27.134,0,0,1-16.782,23.579c.478-9.752-6.554-14.6-16.027-15.476-4.257-.394-8.725.008-12.977.132-11.557.337-23.08,1.045-34.631.161-7.74-.592-17.2-1.537-22.717-7.694C6.16,90.068,5.273,82.842,4.59,77.281A325.186,325.186,0,0,1,2.068,33.464c.155-7.193,1.043-14.411,4.922-20.635C13.128,2.981,25.187,2.457,35.574,2.3c11.058-.168,22.128.1,33.177.513,7.478.278,15.356.14,22.713,1.679,12.153,2.543,21.407,8.888,23.1,21.849,1.41,10.764.653,22,.261,32.806" transform="translate(0 0)"/>
        <path id="Trazado_211170" data-name="Trazado 211170" d="M50.85,40.991c7.133-9.447,17.765-10.805,28.827-11.068,9.4-.224,18.764-.128,28.151-.682a.288.288,0,0,0,0-.575c-10.693-1.229-21.521-1.042-32.264-.677-9.471.322-21.449,2.8-24.991,12.885-.062.176.183.243.277.117" transform="translate(-41.519 -22.758)"/>
        <path id="Trazado_211171" data-name="Trazado 211171" d="M572.113,425.082c-1.172,6.007-1.471,12.128-2.559,18.151-1.292,7.153-4.347,12.469-8.476,18.3-.069.1.067.231.165.164,10.833-7.418,11.066-24.919,11.169-36.575,0-.168-.265-.211-.3-.04" transform="translate(-460.714 -348.967)"/>
        <path id="Trazado_211172" data-name="Trazado 211172" d="M622.559,389.095a6.464,6.464,0,0,0-.379,2.379c-.033.679-.213,1.672.314,2.2a.057.057,0,0,0,.08,0c.478-.461.4-1.266.468-1.883a5.272,5.272,0,0,0-.161-2.651c-.051-.12-.253-.2-.321-.042" transform="translate(-510.856 -319.433)"/>
        <path id="Trazado_211173" data-name="Trazado 211173" d="M69,450.994c-5.777-.7-11.787-1.081-17.2-3.368-7.287-3.078-9.722-10.8-10.324-18.09a.056.056,0,0,0-.11-.015c-2.015,5.883,1.186,14.3,6.252,17.778,6.263,4.3,14.02,5.01,21.378,4.189a.248.248,0,0,0,0-.5" transform="translate(-33.469 -352.669)"/>
        <path id="Trazado_211174" data-name="Trazado 211174" d="M382.457,32.758a2.417,2.417,0,0,0,1.865-.413.2.2,0,0,0,0-.282,3.137,3.137,0,0,0-2.358-.4c-.207.008-1.345.157-1.109.611.273.525,1.1.469,1.6.482" transform="translate(-312.713 -25.968)"/>
        <path id="Trazado_692889" data-name="Trazado 692889" d="M-14.751-32.508q2.078.26,4.323,3.024a29.794,29.794,0,0,1,2.6,11.04q0,12.988-6.494,19.056a7.793,7.793,0,0,1-2.375.649q-6.29,0-6.29-16.235,0-11.3,4.991-16.885A5.769,5.769,0,0,1-14.751-32.508Zm-1.095,4.323a26.119,26.119,0,0,0-2.8,12.339v2.6q0,8.127,1.948,10.187,4.546-4.212,4.546-15.159v-.445a19.164,19.164,0,0,0-2.394-9.3l-1.076-.223Zm23.3-5.622q1.893,0,2.152,2.8v2.6Q9.036.186,7.663.186a2.387,2.387,0,0,1-1.5.649H5.715Q3.767.482,3.767-1.113a25.152,25.152,0,0,0,.872-6.513q-6.271.445-6.271,1.317-.223,4.36-.223,6.049a2.794,2.794,0,0,1-1.3,1.521H-4.676a2.235,2.235,0,0,1-1.3-1.948v-.427Q-4.88-17.571-4.88-28.185V-31q0-2.375,2.152-2.375,1.6,0,1.948,2.171v9.3a96.117,96.117,0,0,1-.427,10.836,23.246,23.246,0,0,1,4.973-.649H4.861q.649-11.114.649-17.534,0-.353-.223-2.6Q6.086-33.807,7.459-33.807Zm-39.633,40.6q2.375,0,2.375,5.2.223,1.058,1.521,16.439h.223q1.206-4.36,3.024-5.2h1.521q1.021,0,3.024,7.144.705,0,2.375-10.595,2.171-8.35,2.171-10.391V8.739A2.916,2.916,0,0,1-13.118,7q1.726.575,1.726,1.948v.223Q-16.161,31.32-17.46,38.612q-1.039,1.3-1.3,1.3h-1.076q-2.319,0-4.546-8.442h-.427q-2.152,8.22-4.342,8.22H-30q-1.243,0-1.948-6.049l-2.394-24.9Q-33.751,6.791-32.174,6.791Zm28.964-1.3q2.078.26,4.323,3.024a29.794,29.794,0,0,1,2.6,11.04q0,12.988-6.494,19.056a7.793,7.793,0,0,1-2.375.649q-6.29,0-6.29-16.235,0-11.3,4.991-16.885A5.769,5.769,0,0,1-3.21,5.492ZM-4.3,9.815a26.119,26.119,0,0,0-2.8,12.339v2.6q0,8.127,1.948,10.187Q-.612,30.727-.612,19.779v-.445a19.164,19.164,0,0,0-2.394-9.3l-1.076-.223ZM6.605,6.791q2.375,0,2.375,5.2Q9.2,13.044,10.5,28.426h.223q1.206-4.36,3.024-5.2h1.521q1.021,0,3.024,7.144.705,0,2.375-10.595,2.171-8.35,2.171-10.391V8.739A2.916,2.916,0,0,1,25.661,7q1.726.575,1.726,1.948v.223Q22.618,31.32,21.319,38.612q-1.039,1.3-1.3,1.3H18.944q-2.319,0-4.546-8.442h-.427q-2.152,8.22-4.342,8.22H8.776q-1.243,0-1.948-6.049L4.435,8.739Q5.028,6.791,6.605,6.791ZM31.524,4.4H32.4q1.948.278,1.948,1.948v.445a99.515,99.515,0,0,0-2.171,19.26v1.521q-.3,2.152-2.171,2.152-1.948-.445-1.948-2.152V24.325Q29.149,4.4,31.524,4.4ZM30,32.118h.445q3.024.371,3.024,2.6v.223q0,2.468-3.024,3.247h-.223q-3.47-.538-3.47-3.47Q26.756,32.638,30,32.118Z" transform="translate(60.096 49.11)"/>
      </g>
    </g>
    <g id="Grupo_991450" data-name="Grupo 991450" transform="translate(995.774 272.945) rotate(70)">
      <g id="Grupo_81059" data-name="Grupo 81059" transform="translate(0 0)">
        <g id="Grupo_81053" data-name="Grupo 81053" transform="translate(2.371 0)" style="mix-blend-mode: overlay;isolation: isolate">
          <path id="Trazado_114995" data-name="Trazado 114995" d="M51.237,53.8l8.2-33.442L0,0Z" transform="translate(1 1)" fill="#3c384f"/>
          <path id="Trazado_114996" data-name="Trazado 114996" d="M1,0A1,1,0,0,0,.276,1.689L51.512,55.494a1,1,0,0,0,1.695-.451l8.2-33.443a1,1,0,0,0-.647-1.184L1.324.054A.988.988,0,0,0,1,0ZM51.7,52.791,4.543,3.271l54.7,18.741Z" transform="translate(0 0)" fill="#3c384f"/>
          <path id="Trazado_114997" data-name="Trazado 114997" d="M57.391,48.778,0,0l79.517,32.57Z" transform="translate(1 1)" fill="#3c384f"/>
          <path id="Trazado_114998" data-name="Trazado 114998" d="M1,0A1,1,0,0,0,.352,1.762L57.743,50.54a1,1,0,0,0,1.239.045L81.108,34.377a1,1,0,0,0-.212-1.732L1.379.075A.992.992,0,0,0,1,0ZM58.437,48.505l-52-44.2L78.485,33.819Z" transform="translate(0 0)" fill="#3c384f"/>
          <path id="Trazado_114999" data-name="Trazado 114999" d="M51.237,53.8,0,0,33.724,66.762Z" transform="translate(1 1)" fill="#3c384f"/>
          <path id="Trazado_115000" data-name="Trazado 115000" d="M1,0A1,1,0,0,0,.107,1.451L33.831,68.212a1,1,0,0,0,1.488.353L52.831,55.608a1,1,0,0,0,.129-1.493L1.724.31A1,1,0,0,0,1,0ZM35.082,66.252,4.946,6.594l45.785,48.08Z" transform="translate(0 0)" fill="#3c384f"/>
          <path id="Trazado_115001" data-name="Trazado 115001" d="M9.014,18.7Q4.8,9.982.133,1.5C-.488.375,1.238-.635,1.86.494q4.67,8.477,8.881,17.193C11.3,18.841,9.575,19.856,9.014,18.7Z" transform="translate(21.704 35.774)" fill="#3c384f"/>
          <path id="Trazado_115002" data-name="Trazado 115002" d="M2.982,3.4a1.018,1.018,0,0,1-.46.6,1.008,1.008,0,0,1-.77.1.987.987,0,0,1-.6-.46Q.644,2.573.135,1.507a1.07,1.07,0,0,1-.1-.77,1.018,1.018,0,0,1,.46-.6,1.008,1.008,0,0,1,.77-.1.983.983,0,0,1,.6.46q.51,1.065,1.019,2.131A1.069,1.069,0,0,1,2.982,3.4Z" transform="translate(25.933 37.218)" fill="#3c384f"/>
          <path id="Trazado_115003" data-name="Trazado 115003" d="M19.924,10.45Q10.177,6.238.518,1.827C-.651,1.293.364-.431,1.527.1q9.658,4.411,19.406,8.623C22.112,9.232,21.094,10.956,19.924,10.45Z" transform="translate(45.432 22.769)" fill="#3c384f"/>
        </g>
        <g id="Grupo_81058" data-name="Grupo 81058" transform="translate(0 2.371)">
          <g id="Grupo_81057" data-name="Grupo 81057">
            <g id="Grupo_81054" data-name="Grupo 81054" transform="translate(0 0)">
              <path id="Trazado_115004" data-name="Trazado 115004" d="M51.237,53.8l8.2-33.442L0,0Z" transform="translate(1 1)" fill="#fff"/>
              <path id="Trazado_115005" data-name="Trazado 115005" d="M1,0A1,1,0,0,0,.276,1.69l51.237,53.8a1,1,0,0,0,1.7-.451l8.2-33.442a1,1,0,0,0-.647-1.184L1.325.054A1.016,1.016,0,0,0,1,0ZM51.7,52.792,4.544,3.271l54.7,18.741Z" transform="translate(0 0)"/>
            </g>
            <g id="Grupo_81055" data-name="Grupo 81055" transform="translate(0 0)">
              <path id="Trazado_115006" data-name="Trazado 115006" d="M57.391,48.778,0,0l79.517,32.57Z" transform="translate(1 1)" fill="#fff"/>
              <path id="Trazado_115007" data-name="Trazado 115007" d="M1,0A1,1,0,0,0,.353,1.762L57.744,50.541a1,1,0,0,0,1.238.044L81.108,34.378a1,1,0,0,0-.212-1.732L1.379.075A.988.988,0,0,0,1,0ZM58.437,48.505l-52-44.2L78.486,33.82Z" transform="translate(0 0)"/>
            </g>
            <g id="Grupo_81056" data-name="Grupo 81056" transform="translate(0 0)">
              <path id="Trazado_115008" data-name="Trazado 115008" d="M51.237,53.8,0,0,33.724,66.762Z" transform="translate(1 1)" fill="#fff"/>
              <path id="Trazado_115009" data-name="Trazado 115009" d="M1,0A1,1,0,0,0,.108,1.451L33.832,68.212a1,1,0,0,0,1.487.353L52.832,55.609a1,1,0,0,0,.129-1.494L1.725.311A1,1,0,0,0,1,0ZM35.082,66.253,4.947,6.594l45.785,48.08Z"/>
            </g>
            <path id="Trazado_115010" data-name="Trazado 115010" d="M9.014,18.7Q4.8,9.983.133,1.5C-.489.375,1.238-.635,1.86.494Q6.53,8.97,10.741,17.687C11.3,18.841,9.574,19.857,9.014,18.7Z" transform="translate(21.704 35.774)"/>
            <path id="Trazado_115011" data-name="Trazado 115011" d="M2.982,3.4a1.02,1.02,0,0,1-.46.6,1.01,1.01,0,0,1-.771.1.983.983,0,0,1-.6-.459Q.644,2.573.135,1.507a1.069,1.069,0,0,1-.1-.77,1.021,1.021,0,0,1,.459-.6,1.01,1.01,0,0,1,.771-.1.988.988,0,0,1,.6.46l1.02,2.131A1.077,1.077,0,0,1,2.982,3.4Z" transform="translate(25.933 37.218)"/>
            <path id="Trazado_115012" data-name="Trazado 115012" d="M19.925,10.45Q10.178,6.239.519,1.827C-.651,1.293.365-.431,1.528.1q9.658,4.41,19.406,8.623C22.112,9.233,21.095,10.956,19.925,10.45Z" transform="translate(45.432 22.769)"/>
          </g>
        </g>
      </g>
      <g id="Grupo_81063" data-name="Grupo 81063" transform="translate(58.302 56.359)">
        <g id="Grupo_81060" data-name="Grupo 81060" transform="translate(0 0)">
          <path id="Trazado_115013" data-name="Trazado 115013" d="M1,0A1,1,0,0,0,.247,1.659,101.136,101.136,0,0,0,8.755,10.28a1,1,0,0,0,1.337-1.487A99.055,99.055,0,0,1,1.753.342,1,1,0,0,0,1,0ZM17.176,14.847a1,1,0,0,0-.593,1.805c2.159,1.59,4.407,3.114,6.683,4.532a1,1,0,0,0,1.058-1.7c-2.232-1.39-4.438-2.885-6.556-4.444A1,1,0,0,0,17.176,14.847ZM132.1,19.26a.991.991,0,0,0-.53.153q-.909.569-1.828,1.119a1,1,0,0,0,1.026,1.717q.938-.561,1.865-1.142a1,1,0,0,0-.533-1.847ZM34.323,25.081a1,1,0,0,0-.428,1.9c3.036,1.437,6.172,2.74,9.321,3.872a1,1,0,1,0,.677-1.881c-3.089-1.112-6.165-2.39-9.142-3.8A.988.988,0,0,0,34.323,25.081Zm87.1,0a1,1,0,0,0-.424.1,101.855,101.855,0,0,1-11.029,4.406,1,1,0,0,0,.633,1.9,103.855,103.855,0,0,0,11.246-4.493,1,1,0,0,0-.426-1.906ZM51.18,31.327a1,1,0,0,0-.263,1.964,100.855,100.855,0,0,0,11.854,2.492,1,1,0,0,0,.292-1.979,99.016,99.016,0,0,1-11.619-2.441A.965.965,0,0,0,51.18,31.327Zm51.432.441a.963.963,0,0,0-.243.03c-3.193.8-6.46,1.448-9.709,1.934a1,1,0,0,0,.3,1.978c3.312-.5,6.642-1.159,9.9-1.972a1,1,0,0,0-.241-1.97ZM72.865,34.754a1,1,0,0,0-.045,2c2.674.123,5.39.142,8.076.054a1,1,0,1,0-.065-2c-2.635.086-5.3.068-7.919-.053Z" transform="translate(0 0)"/>
        </g>
      </g>
    </g>
  </g>
</svg>
