<svg xmlns="http://www.w3.org/2000/svg" xmlns:xlink="http://www.w3.org/1999/xlink" width="117" height="116" viewBox="0 0 117 116">
  <defs>
    <filter id="Elipse_4893" x="0" y="0" width="117" height="116" filterUnits="userSpaceOnUse">
      <feOffset dy="3" input="SourceAlpha"/>
      <feGaussianBlur stdDeviation="3" result="blur"/>
      <feFlood flood-opacity="0.161"/>
      <feComposite operator="in" in2="blur"/>
      <feComposite in="SourceGraphic"/>
    </filter>
  </defs>
  <g id="Grupo_991118" data-name="Grupo 991118" transform="translate(8.52 5.908)">
    <g transform="matrix(1, 0, 0, 1, -8.52, -5.91)" filter="url(#Elipse_4893)">
      <ellipse id="Elipse_4893-2" data-name="Elipse 4893" cx="49.5" cy="49" rx="49.5" ry="49" transform="translate(9 6)" fill="#3c3fa7"/>
    </g>
    <g id="iniciativa" transform="translate(17.773 17.092)">
      <g id="Grupo_991129" data-name="Grupo 991129">
        <g id="Grupo_991119" data-name="Grupo 991119">
          <path id="Trazado_692544" data-name="Trazado 692544" d="M28,8V23H25a5.022,5.022,0,0,1-3.54-1.46,1.538,1.538,0,0,1-.12-.13A11.886,11.886,0,0,1,15.39,23H15a5.029,5.029,0,0,1-2.88-.91l1.14,10.25a12.961,12.961,0,0,0,6.59,9.91q.495.27,1.02.51L20,48l-4.11.69v-.01l-.29-.89a3,3,0,0,0-2.48-2.02l-.64-.08a6.261,6.261,0,0,1-4.82-9.01L9,34l-.63-.54A18.262,18.262,0,0,1,2,19.62,17.607,17.607,0,0,1,19.61,2H28Z" fill="#656d78"/>
        </g>
        <g id="Grupo_991120" data-name="Grupo 991120">
          <path id="Trazado_692545" data-name="Trazado 692545" d="M28,56v6H2v-.35a12.639,12.639,0,0,1,.78-4.36,12.418,12.418,0,0,1,2.25-3.82,12.554,12.554,0,0,1,7.48-4.22l3.38-.56L20,48v9l8-5Z" fill="#4fc1e9"/>
        </g>
        <g id="Grupo_991121" data-name="Grupo 991121">
          <path id="Trazado_692546" data-name="Trazado 692546" d="M28,52l-8,5V48Z" fill="#3bafda"/>
        </g>
        <g id="Grupo_991122" data-name="Grupo 991122">
          <path id="Trazado_692547" data-name="Trazado 692547" d="M28,48v4l-8-4,.87-5.24A13.8,13.8,0,0,0,26.6,44H28Z" fill="#f0d0b4"/>
        </g>
        <g id="Grupo_991123" data-name="Grupo 991123">
          <path id="Trazado_692548" data-name="Trazado 692548" d="M28,38v6H26.6a13.8,13.8,0,0,1-5.73-1.24q-.525-.24-1.02-.51a12.961,12.961,0,0,1-6.59-9.91L12.12,22.09A5.029,5.029,0,0,0,15,23h.39a11.886,11.886,0,0,0,5.95-1.59,1.538,1.538,0,0,0,.12.13A5.022,5.022,0,0,0,25,23h3V38Z" fill="#f0d0b4"/>
        </g>
        <g id="Grupo_991124" data-name="Grupo 991124">
          <path id="Trazado_692549" data-name="Trazado 692549" d="M28,56h9a7.178,7.178,0,0,1-7,6H28Z" fill="#aab2bd"/>
        </g>
        <g id="Grupo_991125" data-name="Grupo 991125">
          <path id="Trazado_692550" data-name="Trazado 692550" d="M39,52v3a1,1,0,0,1-1,1H28V52Z" fill="#ccd1d9"/>
        </g>
        <g id="Grupo_991126" data-name="Grupo 991126">
          <path id="Trazado_692551" data-name="Trazado 692551" d="M39,49v3H28V48H38A1,1,0,0,1,39,49Z" fill="#ccd1d9"/>
        </g>
        <g id="Grupo_991127" data-name="Grupo 991127">
          <path id="Trazado_692552" data-name="Trazado 692552" d="M28.54,2H28V48h9a14.352,14.352,0,0,1,1.36-6c2.37-5.27,7.19-9.61,8.96-16A18.145,18.145,0,0,0,48,21.03C48.02,10.56,39.01,2,28.54,2Z" fill="#ffeaa7"/>
        </g>
        <g id="Grupo_991128" data-name="Grupo 991128">
          <path id="Trazado_692553" data-name="Trazado 692553" d="M31,32.95V34H28V26.92A6.634,6.634,0,0,0,29,27a6,6,0,0,0,0-12,6.634,6.634,0,0,0-1,.08V8h3V9.05a2.911,2.911,0,0,0,1.8,2.7c.01,0,.03.01.04.01a2.907,2.907,0,0,0,3.19-.62l.75-.75,2.83,2.83-.75.75a2.907,2.907,0,0,0-.62,3.19c0,.01.01.03.01.04a2.911,2.911,0,0,0,2.7,1.8H42v4H40.95a2.911,2.911,0,0,0-2.7,1.8c0,.01-.01.03-.01.04a2.907,2.907,0,0,0,.62,3.19l.75.75-2.83,2.83-.75-.75a2.907,2.907,0,0,0-3.19-.62c-.01,0-.03.01-.04.01A2.911,2.911,0,0,0,31,32.95Z" fill="#fcd770"/>
        </g>
      </g>
      <g id="Grupo_991130" data-name="Grupo 991130">
        <path id="Trazado_692555" data-name="Trazado 692555" d="M51,17h2v2H51Z"/>
        <path id="Trazado_692556" data-name="Trazado 692556" d="M55,17h2v2H55Z"/>
        <path id="Trazado_692557" data-name="Trazado 692557" d="M59,17h2v2H59Z"/>
        <path id="Trazado_692558" data-name="Trazado 692558" d="M58.707,21.293l-1.414,1.414L59.586,25H48.591A19.766,19.766,0,0,0,49,21.032,19.257,19.257,0,0,0,46.167,11H59.585l-2.293,2.293,1.414,1.414L63.414,10,58.707,5.293,57.293,6.707,59.586,9H44.792A20.521,20.521,0,0,0,28.544,1H19.612A18.616,18.616,0,0,0,1,19.616a19.208,19.208,0,0,0,6.715,14.6l.042.036-.99,1.98a7.255,7.255,0,0,0,5.588,10.446l.645.081A2,2,0,0,1,14.542,47.9l-2.2.367A13.576,13.576,0,0,0,1,61.651V63H30.012A8.168,8.168,0,0,0,37.8,57H38a2,2,0,0,0,2-2V49a2,2,0,0,0-1.934-1.993A13.517,13.517,0,0,1,39.038,43H59.586l-2.293,2.293,1.414,1.414L63.414,42l-4.707-4.707-1.414,1.414L59.586,41H39.994a52.527,52.527,0,0,1,2.954-4.637A35.572,35.572,0,0,0,48.07,27H59.586l-2.293,2.293,1.414,1.414L63.414,26ZM32.451,12.686a3.906,3.906,0,0,0,4.287-.84l.042-.042L38.2,13.22l-.042.042A3.96,3.96,0,0,0,40.945,20H41v2h-.055a3.96,3.96,0,0,0-2.791,6.738l.042.042L36.78,30.2l-.042-.042A3.959,3.959,0,0,0,30,32.945V33H29V28a7,7,0,1,0,0-14V9h1v.055a3.914,3.914,0,0,0,2.451,3.631ZM38,49v2H29V49ZM21.163,22.608A5.974,5.974,0,0,0,25,24h2c.008,6.928.334,16.3.208,19.33-.085,2.035.421.838.552-.152-.131,0-.891-.411-.759-.178h-.4a12.917,12.917,0,0,1-6.259-1.622,11.991,11.991,0,0,1-6.085-9.144l-.942-8.48A5.948,5.948,0,0,0,15,24h.4a12.9,12.9,0,0,0,5.768-1.392ZM29,16a5,5,0,0,1,0,10ZM26.6,45H27v5.382l-5.892-2.946.548-3.289A14.918,14.918,0,0,0,26.6,45ZM21,49.618,25.958,52.1,21,55.195Zm-4.453-2.14a4.021,4.021,0,0,0-3.3-2.7l-.645-.081a5.257,5.257,0,0,1-4.049-7.567l1.688-3.377L9.016,32.7A17.206,17.206,0,0,1,3,19.616,16.614,16.614,0,0,1,19.612,3H27V22H25a4,4,0,0,1,0-8V12a5.988,5.988,0,0,0-5.165,9.038,10.914,10.914,0,0,1-4.44.962H15a4,4,0,1,1,0-8V12a6,6,0,0,0-3.826,10.618l1.093,9.837a14,14,0,0,0,7.1,10.671c.13.072.264.136.4.2l-.634,3.8-2.557.426ZM5.786,54.119a11.591,11.591,0,0,1,6.885-3.884L19,49.181v9.624l8-5V61H3.019A11.578,11.578,0,0,1,5.786,54.119ZM30,61H29V57h6.693A6.16,6.16,0,0,1,30,61Zm-1-6V53h9v2ZM41.3,35.228C38.868,38.756,36.36,42.4,36.037,47H33V42.162a3.385,3.385,0,0,1,2.316-3.214l-.633-1.9A5.379,5.379,0,0,0,31,42.162V47H29V35h3V32.945a1.96,1.96,0,0,1,3.325-1.377l1.456,1.456,4.244-4.244L39.57,27.324a1.934,1.934,0,0,1-.393-2.141A1.906,1.906,0,0,1,40.945,24H43V18H40.945a1.96,1.96,0,0,1-1.377-3.325l1.455-1.456L36.78,8.976l-1.457,1.456a1.931,1.931,0,0,1-2.141.392A1.908,1.908,0,0,1,32,9.055V7H29V3.023a18.8,18.8,0,0,1,12.726,5.5A17.6,17.6,0,0,1,47,21.028c-.009,5.948-2.9,10.143-5.7,14.2Z"/>
        <path id="Trazado_692559" data-name="Trazado 692559" d="M51,33h2v2H51Z"/>
        <path id="Trazado_692560" data-name="Trazado 692560" d="M55,33h2v2H55Z"/>
        <path id="Trazado_692561" data-name="Trazado 692561" d="M59,33h2v2H59Z"/>
      </g>
    </g>
  </g>
</svg>
