<svg xmlns="http://www.w3.org/2000/svg" xmlns:xlink="http://www.w3.org/1999/xlink" width="117" height="116" viewBox="0 0 117 116">
  <defs>
    <filter id="Elipse_4893" x="0" y="0" width="117" height="116" filterUnits="userSpaceOnUse">
      <feOffset dy="3" input="SourceAlpha"/>
      <feGaussianBlur stdDeviation="3" result="blur"/>
      <feFlood flood-opacity="0.161"/>
      <feComposite operator="in" in2="blur"/>
      <feComposite in="SourceGraphic"/>
    </filter>
  </defs>
  <g id="Grupo_991132" data-name="Grupo 991132" transform="translate(8.52 5.908)">
    <g transform="matrix(1, 0, 0, 1, -8.52, -5.91)" filter="url(#Elipse_4893)">
      <ellipse id="Elipse_4893-2" data-name="Elipse 4893" cx="49.5" cy="49" rx="49.5" ry="49" transform="translate(9 6)" fill="#3c3fa7"/>
    </g>
    <g id="apreciacion" transform="translate(16.936 16.048)">
      <g id="Grupo_991152" data-name="Grupo 991152" transform="translate(2.034 2.034)">
        <g id="Grupo_991133" data-name="Grupo 991133" transform="translate(26.876 35.146)">
          <path id="Trazado_692562" data-name="Trazado 692562" d="M32.135,36,34.2,53.573H28L30.067,36Z" transform="translate(-28 -36)" fill="#e6e9ed"/>
        </g>
        <g id="Grupo_991134" data-name="Grupo 991134" transform="translate(27.289 29.977)">
          <path id="Trazado_692563" data-name="Trazado 692563" d="M33.775,33.688l-1.654,2.481H30.054L28.4,33.688,31.088,31Z" transform="translate(-28.4 -31)" fill="#ccd1d9"/>
        </g>
        <g id="Grupo_991135" data-name="Grupo 991135" transform="translate(2.067 45.482)">
          <path id="Trazado_692564" data-name="Trazado 692564" d="M19.505,51.168,23.64,55.3l-4.662,4.662a8.933,8.933,0,0,1-2.853,1.912A8.785,8.785,0,0,1,4,53.763,9.346,9.346,0,0,1,7.732,46.3l.4-.3.951.269a12.4,12.4,0,0,1,8.073,7.246L18.472,52.2Z" transform="translate(-4 -46)" fill="#4fc1e9"/>
        </g>
        <g id="Grupo_991136" data-name="Grupo 991136" transform="translate(31.011 28.943)">
          <path id="Trazado_692565" data-name="Trazado 692565" d="M33.654,33.721,36.135,36.2l3.1-6.2H44.4v1.209A7.066,7.066,0,0,1,42.337,36.2L44.4,38.27v12.4l-1.209-1.209A2.924,2.924,0,1,0,39.06,53.6l.176.176H34.067L32,36.2Z" transform="translate(-32 -30)" fill="#b4dd7f"/>
        </g>
        <g id="Grupo_991137" data-name="Grupo 991137" transform="translate(16.539 28.943)">
          <path id="Trazado_692566" data-name="Trazado 692566" d="M30.4,36.2,28.337,53.775h-3.1l.176-.176a2.924,2.924,0,1,0-4.135-4.135l-2.243,2.243L18,52.741V44.058a3.728,3.728,0,0,0,2.067-3.349V38.27L22.135,36.2a7.066,7.066,0,0,1-2.067-4.993V30h3.1l3.1,6.2,2.481-2.481Z" transform="translate(-18 -30)" fill="#b4dd7f"/>
        </g>
        <g id="Grupo_991138" data-name="Grupo 991138" transform="translate(6.202 16.539)">
          <path id="Trazado_692567" data-name="Trazado 692567" d="M14.409,22.135H8V18h6.2v2.067A10.544,10.544,0,0,0,14.409,22.135Z" transform="translate(-8 -18)" fill="#b4dd7f"/>
        </g>
        <g id="Grupo_991139" data-name="Grupo 991139" transform="translate(29.977 27.507)">
          <path id="Trazado_692568" data-name="Trazado 692568" d="M35.114,28.61a4.086,4.086,0,0,0,3.122,1.437H39.27l-3.1,6.2-2.481-2.481L31,31.081l4.1-2.46Z" transform="translate(-31 -28.61)" fill="#a0d468"/>
        </g>
        <g id="Grupo_991140" data-name="Grupo 991140" transform="translate(21.708 27.507)">
          <path id="Trazado_692569" data-name="Trazado 692569" d="M31.27,31.081l-2.688,2.688L26.1,36.249l-3.1-6.2h1.034a4.086,4.086,0,0,0,3.122-1.437l.01.01Z" transform="translate(-23 -28.61)" fill="#a0d468"/>
        </g>
        <g id="Grupo_991141" data-name="Grupo 991141" transform="translate(40.314 45.482)">
          <path id="Trazado_692570" data-name="Trazado 692570" d="M47.481,53.515a12.4,12.4,0,0,1,8.073-7.246L56.505,46l.4.3a9.391,9.391,0,0,1,2.75,3.3c.165.341.31.682.444,1.044a9.348,9.348,0,0,1,.538,3.122,8.771,8.771,0,0,1-14.978,6.2L41,55.3l4.135-4.135Z" transform="translate(-41 -46)" fill="#fcd770"/>
        </g>
        <g id="Grupo_991142" data-name="Grupo 991142" transform="translate(39.28 20.674)">
          <path id="Trazado_692571" data-name="Trazado 692571" d="M48.27,30.27H44.135a4.135,4.135,0,1,1,0-8.27H48.27A14.474,14.474,0,0,1,62.741,36.472v8.021a10.6,10.6,0,0,1-2.6,6.957c-.134-.362-.279-.7-.444-1.044a9.391,9.391,0,0,0-2.75-3.3l-.4-.3V36.472a6.207,6.207,0,0,0-6.2-6.2Z" transform="translate(-40 -22)" fill="#656d78"/>
        </g>
        <g id="Grupo_991143" data-name="Grupo 991143" transform="translate(0 20.674)">
          <path id="Trazado_692572" data-name="Trazado 692572" d="M14.4,28.2H12.337A4.134,4.134,0,0,0,8.2,32.337,2.082,2.082,0,0,0,6.135,34.4v.176a2.074,2.074,0,0,0,.61,1.468L8.2,37.505v5.168l-3.215-2.15A6.521,6.521,0,0,1,2.8,38.115,6.712,6.712,0,0,1,2.7,31.954l.331-.651-.413-.827A5.854,5.854,0,0,1,7.851,22H18.539a4.129,4.129,0,0,1,4.135,4.135,4.145,4.145,0,0,1-4.135,4.135H16.472A2.082,2.082,0,0,1,14.4,28.2Z" transform="translate(-2 -22)" fill="#656d78"/>
        </g>
        <g id="Grupo_991144" data-name="Grupo 991144" transform="translate(16.539)">
          <path id="Trazado_692573" data-name="Trazado 692573" d="M24.347,2H34.539a8.267,8.267,0,0,1,8.27,8.27v6.212a9.3,9.3,0,0,1-4.373,7.887l-3.9,2.44V21.64l2.367-1.189A3.189,3.189,0,0,0,35.48,14.4h-.941A4.129,4.129,0,0,0,30.4,10.27H26.755a2.547,2.547,0,0,1-2.284-1.416l-1.333,5.53-3.4-2.036A3.571,3.571,0,0,1,18.6,7.3L20.9,3.84A4.138,4.138,0,0,1,24.347,2Z" transform="translate(-18 -2)" fill="#b27946"/>
        </g>
        <g id="Grupo_991145" data-name="Grupo 991145" transform="translate(47.55 4.135)">
          <path id="Trazado_692574" data-name="Trazado 692574" d="M50.067,10.135V9.1a3.1,3.1,0,0,1,6.2,0v9.3h-6.2l-.858-.858A4.139,4.139,0,0,1,48,14.621V12.2a2.082,2.082,0,0,1,2.067-2.067Z" transform="translate(-48 -6)" fill="#f0d0b4"/>
        </g>
        <g id="Grupo_991146" data-name="Grupo 991146" transform="translate(6.202 4.135)">
          <path id="Trazado_692575" data-name="Trazado 692575" d="M14.2,10.135A2.082,2.082,0,0,1,16.27,12.2v2.419a4.139,4.139,0,0,1-1.209,2.925L14.2,18.4H8V9.1a3.1,3.1,0,0,1,6.2,0Z" transform="translate(-8 -6)" fill="#f0d0b4"/>
        </g>
        <g id="Grupo_991147" data-name="Grupo 991147" transform="translate(20.674 6.853)">
          <path id="Trazado_692576" data-name="Trazado 692576" d="M27.189,29.283a4.036,4.036,0,0,0,1.013-2.7H27.168a3.1,3.1,0,0,1-3.1-3.1v-3.1H23.85A1.848,1.848,0,0,1,22,18.533a2.075,2.075,0,0,1,.052-.434L23,14.16l1.333-5.53a2.547,2.547,0,0,0,2.284,1.416H30.27A4.129,4.129,0,0,1,34.4,14.181h.941a3.191,3.191,0,0,1,1.426,6.047L34.4,21.417v5.168a4.129,4.129,0,0,0,1.013,2.7l-.01.01-4.1,2.46-4.1-2.46Z" transform="translate(-22 -8.63)" fill="#f0d0b4"/>
        </g>
        <g id="Grupo_991148" data-name="Grupo 991148" transform="translate(37.213 47.55)">
          <path id="Trazado_692577" data-name="Trazado 692577" d="M44.2,50.067,45.236,51.1,41.1,55.236l-2.067-2.067-.176-.176a2.924,2.924,0,1,1,4.135-4.135Z" transform="translate(-38 -48)" fill="#f0d0b4"/>
        </g>
        <g id="Grupo_991149" data-name="Grupo 991149" transform="translate(41.348 28.943)">
          <path id="Trazado_692578" data-name="Trazado 692578" d="M50.27,44.058l-1.706.341a3.466,3.466,0,0,1-.734.072,3.763,3.763,0,0,1-3.763-3.763V38.27L42,36.2a7.066,7.066,0,0,0,2.067-4.993V30h6.2a6.207,6.207,0,0,1,6.2,6.2V46.539l-.951.269a12.425,12.425,0,0,0-5.251,3.049Z" transform="translate(-42 -30)" fill="#f0d0b4"/>
        </g>
        <g id="Grupo_991150" data-name="Grupo 991150" transform="translate(17.573 47.55)">
          <path id="Trazado_692579" data-name="Trazado 692579" d="M26.236,50.925a2.927,2.927,0,0,1-.858,2.067l-.176.176-2.067,2.067L19,51.1l2.243-2.243a2.925,2.925,0,0,1,4.993,2.067Z" transform="translate(-19 -48)" fill="#f0d0b4"/>
        </g>
        <g id="Grupo_991151" data-name="Grupo 991151" transform="translate(4.135 26.876)">
          <path id="Trazado_692580" data-name="Trazado 692580" d="M8.067,46.606V37.3L6.61,35.846A2.074,2.074,0,0,1,6,34.378V34.2a2.082,2.082,0,0,1,2.067-2.067A4.134,4.134,0,0,1,12.2,28H14.27a2.082,2.082,0,0,0,2.067,2.067H18.4a4.124,4.124,0,0,0,2.067-.558v1.768a7.066,7.066,0,0,0,2.067,4.993l-2.067,2.067v2.44A3.728,3.728,0,0,1,18.4,44.126a3.606,3.606,0,0,1-1.7.413,3.466,3.466,0,0,1-.734-.072l-1.706-.341v5.8a12.425,12.425,0,0,0-5.251-3.049Z" transform="translate(-6 -28)" fill="#f0d0b4"/>
        </g>
      </g>
      <g id="Grupo_991153" data-name="Grupo 991153" transform="translate(1 1)">
        <path id="Trazado_692581" data-name="Trazado 692581" d="M65.089,37.179a15.475,15.475,0,0,0-6.241-12.4h.039V9.27a4.135,4.135,0,0,0-8.27,0v.19a3.1,3.1,0,0,0-2.067,2.911v2.422a5.135,5.135,0,0,0,1.513,3.654l.554.554V20.64a9.447,9.447,0,0,1-.068,1.082c-.321-.02-.64-.049-.965-.049H45.449a5.119,5.119,0,0,0-3.139,1.092,10.277,10.277,0,0,0,2.106-6.248V10.3a9.315,9.315,0,0,0-9.3-9.3H24.921a5.157,5.157,0,0,0-4.3,2.3L18.312,6.764a4.577,4.577,0,0,0-.773,2.552,4.625,4.625,0,0,0,2.235,3.947l2.753,1.652-.772,3.2a2.881,2.881,0,0,0,1.987,3.44v2.185a4.131,4.131,0,0,0,3.95,4.116,3.094,3.094,0,0,1-2.916,2.086H22.681a5.115,5.115,0,0,0,1.061-3.1,5.174,5.174,0,0,0-5.168-5.168h-3.04a9.565,9.565,0,0,1-.061-1.034V19l.554-.554a5.133,5.133,0,0,0,1.513-3.654V12.371A3.1,3.1,0,0,0,15.472,9.46V9.27a4.135,4.135,0,1,0-8.27,0V21.709a6.888,6.888,0,0,0-5.475,9.933l.185.369-.1.19a7.736,7.736,0,0,0,2.628,9.9L7.2,43.934V47a10.418,10.418,0,0,0-4.135,8.285A9.8,9.8,0,0,0,19.8,62.217l6.432-6.432H39.852l6.432,6.432a9.8,9.8,0,0,0,16.738-6.933,10.324,10.324,0,0,0-.419-2.9A11.619,11.619,0,0,0,65.089,45.2ZM50.617,12.371a1.034,1.034,0,0,1,2.067,0V13.4h2.067V12.371A3.1,3.1,0,0,0,52.685,9.46V9.27a2.067,2.067,0,0,1,4.135,0v8.27H52.079l-.554-.554a3.122,3.122,0,0,1-.908-2.192Zm2.067,8.27V19.606h4.135v3.87a15.368,15.368,0,0,0-4.221-1.5A11.49,11.49,0,0,0,52.685,20.64Zm4.135,26.1-.2.057a13.487,13.487,0,0,0-3.934,1.86v-2.77l2.27-.454L54.548,43.4l-4.8.96a2.7,2.7,0,0,1-.533.053,2.726,2.726,0,0,1-2.638-2.067H48.55a4.139,4.139,0,0,0,4.135-4.135H50.617A2.069,2.069,0,0,1,48.55,40.28H46.482V38.819L44.8,37.134a8.026,8.026,0,0,0,1.685-4.945v-.178h5.168a5.174,5.174,0,0,1,5.168,5.168ZM46.482,51.223v-5.6a4.766,4.766,0,0,0,3.67.768l.465-.093v4.129a13.368,13.368,0,0,0-2.093,2.841Zm-8.063,2.5H36.031L34.115,37.437l.743-1.115,2.6,2.6,3.458-6.913h3.5v.177a5.986,5.986,0,0,1-1.765,4.261l-.731.731,2.5,2.5v9.579a3.951,3.951,0,0,0-6.2,3.254,3.966,3.966,0,0,0,.207,1.21Zm-14.5-5.168a3.929,3.929,0,0,0-2.8,1.16l-1.513,1.513v-5.6a4.789,4.789,0,0,0,2.067-3.935V39.675l2.5-2.5-.731-.731a5.984,5.984,0,0,1-1.765-4.261v-.177H23.1l3.457,6.913,2.6-2.6.743,1.115L27.991,53.718h-.321a3.913,3.913,0,0,0-3.751-5.168ZM7.505,36.02a1.029,1.029,0,0,1-.3-.732v-.177a1.035,1.035,0,0,1,1.034-1.034H9.27V33.044a3.1,3.1,0,0,1,3.1-3.1h1.224a3.1,3.1,0,0,0,2.911,2.067h2.067a5.164,5.164,0,0,0,1.034-.1v.281a8.033,8.033,0,0,0,1.685,4.945l-1.685,1.686V40.28H17.539a2.069,2.069,0,0,1-2.067-2.067H13.4a4.139,4.139,0,0,0,4.135,4.135h1.977a2.72,2.72,0,0,1-3.173,2.015l-4.8-.96-.406,2.027,2.27.454v2.77a13.487,13.487,0,0,0-3.934-1.86l-.2-.057V37.785ZM15.472,46.3l.464.093a4.792,4.792,0,0,0,.942.093,4.657,4.657,0,0,0,.662-.067v6.8a13.328,13.328,0,0,0-2.067-2.8Zm20.523-15.47a5.116,5.116,0,0,0,2.644,1.124L36.9,35.435l-3.219-3.219Zm-2.627,4-.877,1.316H31.53l-.878-1.316,1.358-1.357ZM31.9,38.213h.229L33.95,53.718H30.073Zm7.351-8.27A3.1,3.1,0,0,1,36.2,27.382l3.356-2.1a10.4,10.4,0,0,0,1.536-1.2,5.071,5.071,0,0,0,.248,5.857ZM20.838,11.49a2.534,2.534,0,0,1-.805-3.58l2.308-3.462a3.094,3.094,0,0,1,2.58-1.381H35.112A7.244,7.244,0,0,1,42.348,10.3v6.215a8.223,8.223,0,0,1-3.887,7.013l-2.315,1.447V22.314l1.8-.9a4.228,4.228,0,0,0-1.891-8.01h-.01A5.178,5.178,0,0,0,30.977,9.27H27.33a1.522,1.522,0,0,1-.68-2.883L27.3,6.06l-.925-1.849-.653.327a3.539,3.539,0,0,0-1.762,4.414l-.93,3.858Zm4.971,12.251h2.067a4.139,4.139,0,0,0,4.135-4.135H29.943a2.069,2.069,0,0,1-2.067,2.067H25.809V19.606H24.556a.816.816,0,0,1-.815-.815.793.793,0,0,1,.023-.191l1.86-7.715a3.543,3.543,0,0,0,1.707.452h3.647a3.1,3.1,0,0,1,3.1,3.1v1.034h1.974a2.16,2.16,0,0,1,.967,4.092l-2.941,1.471v5.807a5.109,5.109,0,0,0,.6,2.363l-2.666,1.6-2.666-1.6a5.073,5.073,0,0,0,.494-1.329h2.172V25.809H27.876a2.069,2.069,0,0,1-2.067-2.067Zm2.218,7.085,2.317,1.39-3.219,3.219L25.382,31.95a5.124,5.124,0,0,0,2.645-1.124ZM13.456,21.674H9.27V19.606H13.4V20.64C13.4,20.985,13.425,21.331,13.456,21.674ZM11.337,7.2A2.069,2.069,0,0,1,13.4,9.27v.19a3.1,3.1,0,0,0-2.067,2.911V13.4H13.4V12.371a1.034,1.034,0,0,1,2.067,0v2.422a3.122,3.122,0,0,1-.908,2.192l-.554.554H9.27V9.27A2.069,2.069,0,0,1,11.337,7.2ZM5.591,40.376a5.669,5.669,0,0,1-1.925-7.251l.557-1.114-.647-1.292a4.822,4.822,0,0,1,4.312-6.977H18.573a3.1,3.1,0,0,1,0,6.2H16.505a1.034,1.034,0,0,1,0-2.067h1.034V25.809H16.505a3.1,3.1,0,0,0-2.911,2.067H12.371a5.177,5.177,0,0,0-5.093,4.286,3.108,3.108,0,0,0-2.143,2.95v.177a3.082,3.082,0,0,0,.909,2.193L7.2,38.641v2.81ZM18.343,60.756A7.738,7.738,0,0,1,5.135,55.284a8.343,8.343,0,0,1,3.311-6.633l.456.13a11.271,11.271,0,0,1,7.113,6.033l-1.451,1.451a1.873,1.873,0,0,1-1.336.554,1.892,1.892,0,0,1-1.891-1.891V52.685H9.27v2.244a3.957,3.957,0,0,0,6.756,2.8l3.581-3.581,2.673,2.673Zm5.4-5.4-2.673-2.673,1.513-1.513a1.89,1.89,0,1,1,2.673,2.673Zm16.539-2.85a1.89,1.89,0,0,1,3.227-1.337l1.513,1.513-2.673,2.673-1.513-1.513A1.877,1.877,0,0,1,40.28,52.508ZM53.217,63.021a7.689,7.689,0,0,1-5.471-2.266l-3.936-3.936,2.673-2.673,3.581,3.581a3.957,3.957,0,0,0,6.756-2.8V52.685H54.752v2.244a1.89,1.89,0,0,1-3.227,1.337l-1.451-1.451a11.271,11.271,0,0,1,7.113-6.033l.456-.13a8.341,8.341,0,0,1,3.312,6.633,7.746,7.746,0,0,1-7.737,7.737Zm9.8-17.824a9.554,9.554,0,0,1-1.375,4.938A10.366,10.366,0,0,0,58.887,47v-9.82a7.244,7.244,0,0,0-7.236-7.236H49.583a3.1,3.1,0,0,1-3.1-3.1H44.415a5.115,5.115,0,0,0,1.061,3.1h-.027a3.1,3.1,0,0,1,0-6.2h4.135A13.454,13.454,0,0,1,63.021,37.179Z" transform="translate(-1 -1)"/>
      </g>
    </g>
  </g>
</svg>
