<svg xmlns="http://www.w3.org/2000/svg" xmlns:xlink="http://www.w3.org/1999/xlink" width="117" height="116" viewBox="0 0 117 116">
  <defs>
    <filter id="Elipse_4893" x="0" y="0" width="117" height="116" filterUnits="userSpaceOnUse">
      <feOffset dy="3" input="SourceAlpha"/>
      <feGaussianBlur stdDeviation="3" result="blur"/>
      <feFlood flood-opacity="0.161"/>
      <feComposite operator="in" in2="blur"/>
      <feComposite in="SourceGraphic"/>
    </filter>
  </defs>
  <g id="Grupo_991108" data-name="Grupo 991108" transform="translate(8.52 5.908)">
    <g transform="matrix(1, 0, 0, 1, -8.52, -5.91)" filter="url(#Elipse_4893)">
      <ellipse id="Elipse_4893-2" data-name="Elipse 4893" cx="49.5" cy="49" rx="49.5" ry="49" transform="translate(9 6)" fill="#3c3fa7"/>
    </g>
    <g id="perjudicar" transform="translate(12.249 11.364)">
      <g id="Grupo_991113" data-name="Grupo 991113" transform="translate(7.5 7.495)">
        <path id="Trazado_692516" data-name="Trazado 692516" d="M166.718,98.912l.094-6.707c0-7.842-5.5-14.8-13.347-14.8h0a14.623,14.623,0,0,0-1.82-.129,14.333,14.333,0,0,0-12.163,11.708c.489,1.325.707,1.794-.217,2.364,0,.046,0,.091,0,.137v7.423h27.454Z" transform="translate(-123.234 -68.775)" fill="#99e6fc"/>
        <path id="Trazado_692517" data-name="Trazado 692517" d="M257.062,90.767v7.422h-3.641V90.767A14.341,14.341,0,0,0,241.04,76.558a14.044,14.044,0,0,1,1.82-.118,14.293,14.293,0,0,1,13.983,11.826c-.252,1.081-.424,1.674.218,2.364Q257.062,90.7,257.062,90.767Z" transform="translate(-212.629 -68.052)" fill="#62dbfb"/>
        <path id="Trazado_692518" data-name="Trazado 692518" d="M159.278,241.086h1.444a2.433,2.433,0,0,1,2.433,2.433v1.207a3.64,3.64,0,0,1-3.641,3.64H136.942a3.64,3.64,0,0,1-3.641-3.64v-1.207a2.433,2.433,0,0,1,2.433-2.433h23.544Z" transform="translate(-117.997 -212.668)" fill="#ffc7b6"/>
        <path id="Trazado_692519" data-name="Trazado 692519" d="M115.794,360.865l-6.516-.739a4.42,4.42,0,0,1-2.944-3.808v-6.6l-7.974-.378.955,2.692-.955,1.837v2.45a3.235,3.235,0,0,1-2.537,3.159l-7.459,1.648-1.567-.26-1.985,1.045a4.314,4.314,0,0,0-3.383,4.212v1.48a.608.608,0,0,0,.608.608H88.5l27.978-2.084Z" transform="translate(-72.435 -307.753)" fill="#ffc7b6"/>
        <path id="Trazado_692520" data-name="Trazado 692520" d="M238.336,363.194l-8.776-2.137a3.234,3.234,0,0,1-2.536-3.158v-1.936a.771.771,0,0,0-.932-.754,5.723,5.723,0,0,1-3.306-.284,17.326,17.326,0,0,1-2.186-1.058v-4.528l6.423.281,2.19.1v6.6a3.234,3.234,0,0,0,2.536,3.158l6.285,1.388Z" transform="translate(-194.675 -307.752)" fill="#ffb5a5"/>
        <path id="Trazado_692521" data-name="Trazado 692521" d="M166.226,147.5v-6.075a8.622,8.622,0,0,1,3.812-7.056,11.989,11.989,0,0,1,14.27-.015,8.587,8.587,0,0,1,3.76,7.07v6.555a15.221,15.221,0,0,1-9.569,14.133h0a3.642,3.642,0,0,1-2.7,0h0a15.222,15.222,0,0,1-9.569-14.133Z" transform="translate(-146.916 -116.861)" fill="#ffdcd0"/>
        <path id="Trazado_692522" data-name="Trazado 692522" d="M157.25,432.808a3.38,3.38,0,0,0-1.926,1.635h0a8.225,8.225,0,0,1-7.273,4.384h-6.293a8.225,8.225,0,0,1-7.273-4.384h0a3.4,3.4,0,0,0-4.968-1.189h0l.466,1.9a26.084,26.084,0,0,1,.751,6.213H165.1l-5.451-5.436A18.38,18.38,0,0,1,157.25,432.808Z" transform="translate(-114.673 -380.911)" fill="#9b7f95"/>
        <g id="Grupo_991109" data-name="Grupo 991109" transform="translate(40.39 40.39)">
          <path id="Trazado_692523" data-name="Trazado 692523" d="M349.537,339.5a10.037,10.037,0,0,0-8.315,15.658,11.178,11.178,0,0,0,8.548,3.647c5.543,0,9.206-3.725,9.206-9.269a10.982,10.982,0,0,0-3.818-8.316A9.989,9.989,0,0,0,349.537,339.5Zm6.376,9.658a6.38,6.38,0,0,1-.525,2.942.366.366,0,0,1-.594.113l-7.934-7.934a.366.366,0,0,1,.113-.594,6.389,6.389,0,0,1,8.94,5.473Zm-12.752.757a6.38,6.38,0,0,1,.525-2.942.366.366,0,0,1,.594-.113l7.934,7.934a.366.366,0,0,1-.113.594,6.39,6.39,0,0,1-8.94-5.473Z" transform="translate(-339.5 -339.5)" fill="#ff99ca"/>
          <path id="Trazado_692524" data-name="Trazado 692524" d="M367.586,353.64a10.04,10.04,0,0,1,.226,10.889.05.05,0,0,1-.006.011.254.254,0,0,1-.036.057,10.075,10.075,0,0,1-3.164,3.164.274.274,0,0,1-.062.038l-.015.009a10.038,10.038,0,0,1-10.878-.23,10.037,10.037,0,1,0,13.936-13.938Z" transform="translate(-351.929 -351.92)" fill="#fe7ab6"/>
        </g>
        <g id="Grupo_991110" data-name="Grupo 991110" transform="translate(39.173 0)">
          <path id="Trazado_692525" data-name="Trazado 692525" d="M337.415,12.12h0a31.65,31.65,0,0,1-4.214,5.208l-3.222,3.217a1.635,1.635,0,0,0,0,2.315h0a1.642,1.642,0,0,0,2.319,0l5.2-5.188c-.217.972-.273,1.369-.454,2.423a2.165,2.165,0,0,0,.811.95l4.373,2.83a3.174,3.174,0,0,0,3.969-.42h0a17.458,17.458,0,0,0,3.882-5.887l.687-1.721a.365.365,0,0,0,.026-.135V7.861a.365.365,0,0,0-.365-.365h-4.165a.365.365,0,0,0-.261.109L344.828,8.8a2.433,2.433,0,0,1-1.226.675l-3.414.734A4.4,4.4,0,0,0,337.415,12.12Z" transform="translate(-329.499 -7.496)" fill="#e88f77"/>
        </g>
        <g id="Grupo_991111" data-name="Grupo 991111" transform="translate(0 0)">
          <path id="Trazado_692526" data-name="Trazado 692526" d="M20.874,12.12h0a31.653,31.653,0,0,0,4.214,5.208l3.222,3.217a1.635,1.635,0,0,1,0,2.315h0a1.642,1.642,0,0,1-2.319,0l-5.2-5.188c.217.972.273,1.369.454,2.423a2.165,2.165,0,0,1-.811.95l-4.373,2.83a3.174,3.174,0,0,1-3.969-.42h0a17.459,17.459,0,0,1-3.882-5.887l-.687-1.721A.365.365,0,0,1,7.5,15.71V7.86A.365.365,0,0,1,7.865,7.5H12.03a.365.365,0,0,1,.261.109L13.461,8.8a2.433,2.433,0,0,0,1.226.675l3.414.734A4.4,4.4,0,0,1,20.874,12.12Z" transform="translate(-7.5 -7.495)" fill="#ffdcd0"/>
        </g>
        <g id="Grupo_991112" data-name="Grupo 991112" transform="translate(0 43.572)">
          <path id="Trazado_692527" data-name="Trazado 692527" d="M20.875,377.921h0a31.653,31.653,0,0,1,4.214-5.208L28.31,369.5a1.635,1.635,0,0,0,0-2.315h0a1.642,1.642,0,0,0-2.319,0l-5.2,5.188c.217-.972.273-1.369.454-2.423a2.165,2.165,0,0,0-.811-.95l-4.373-2.83a3.174,3.174,0,0,0-3.969.42h0a17.459,17.459,0,0,0-3.882,5.887l-.687,1.721a.366.366,0,0,0-.026.135v7.85a.365.365,0,0,0,.365.365h4.165a.365.365,0,0,0,.261-.109l1.17-1.193a2.433,2.433,0,0,1,1.226-.675l3.414-.734A4.4,4.4,0,0,0,20.875,377.921Z" transform="translate(-7.501 -365.657)" fill="#e88f77"/>
        </g>
      </g>
      <g id="Grupo_991116" data-name="Grupo 991116" transform="translate(7.5 7.496)">
        <g id="Grupo_991115" data-name="Grupo 991115" transform="translate(8.994 8.387)">
          <g id="Grupo_991114" data-name="Grupo 991114">
            <path id="Trazado_692528" data-name="Trazado 692528" d="M141.422,132.008a14.312,14.312,0,0,0-2.159,7.567v6.357" transform="translate(-132.227 -125.248)" fill="none" stroke="#000" stroke-linecap="round" stroke-linejoin="round" stroke-miterlimit="10" stroke-width="2"/>
            <path id="Trazado_692529" data-name="Trazado 692529" d="M186.372,76.6a14.055,14.055,0,0,0-2.094-.156h0a14.077,14.077,0,0,0-9.934,4.114" transform="translate(-163.04 -76.439)" fill="none" stroke="#000" stroke-linecap="round" stroke-linejoin="round" stroke-miterlimit="10" stroke-width="2"/>
            <path id="Trazado_692530" data-name="Trazado 692530" d="M310.283,90.785A14.306,14.306,0,0,0,306.5,88.1" transform="translate(-279.12 -86.679)" fill="none" stroke="#000" stroke-linecap="round" stroke-linejoin="round" stroke-miterlimit="10" stroke-width="2"/>
            <path id="Trazado_692531" data-name="Trazado 692531" d="M357.146,145.931v-6.357a14.311,14.311,0,0,0-2.159-7.567" transform="translate(-321.707 -125.248)" fill="none" stroke="#000" stroke-linecap="round" stroke-linejoin="round" stroke-miterlimit="10" stroke-width="2"/>
            <path id="Trazado_692532" data-name="Trazado 692532" d="M168.168,155.422a15.2,15.2,0,0,1-1.942-7.44v-6.555a8.622,8.622,0,0,1,3.812-7.056,11.989,11.989,0,0,1,14.27-.015,8.587,8.587,0,0,1,3.76,7.07v6.555a15.221,15.221,0,0,1-9.569,14.133h0a3.642,3.642,0,0,1-2.7,0h0a15.2,15.2,0,0,1-5.059-3.317" transform="translate(-155.91 -125.249)" fill="none" stroke="#000" stroke-linecap="round" stroke-linejoin="round" stroke-miterlimit="10" stroke-width="2"/>
            <path id="Trazado_692533" data-name="Trazado 692533" d="M137.972,248.366h-1.031a3.64,3.64,0,0,1-3.641-3.64v-1.207a2.433,2.433,0,0,1,2.433-2.433h1.546" transform="translate(-126.99 -221.056)" fill="none" stroke="#000" stroke-linecap="round" stroke-linejoin="round" stroke-miterlimit="10" stroke-width="2"/>
            <path id="Trazado_692534" data-name="Trazado 692534" d="M340.444,248.366h1.013a3.64,3.64,0,0,0,3.641-3.64v-1.207a2.433,2.433,0,0,0-2.433-2.433H341.12" transform="translate(-308.933 -221.056)" fill="none" stroke="#000" stroke-linecap="round" stroke-linejoin="round" stroke-miterlimit="10" stroke-width="2"/>
            <line id="Línea_1633" data-name="Línea 1633" y2="2.34" transform="translate(0 49.729)" fill="none" stroke="#000" stroke-linecap="round" stroke-linejoin="round" stroke-miterlimit="10" stroke-width="2"/>
            <path id="Trazado_692535" data-name="Trazado 692535" d="M171.853,367.061v4.822a3.235,3.235,0,0,1-2.537,3.159l-4.215.931" transform="translate(-154.922 -331.705)" fill="none" stroke="#000" stroke-linecap="round" stroke-linejoin="round" stroke-miterlimit="10" stroke-width="2"/>
            <path id="Trazado_692536" data-name="Trazado 692536" d="M291.4,367.061v4.822a3.235,3.235,0,0,0,2.537,3.159l3.515.776" transform="translate(-265.855 -331.705)" fill="none" stroke="#000" stroke-linecap="round" stroke-linejoin="round" stroke-miterlimit="10" stroke-width="2"/>
            <line id="Línea_1634" data-name="Línea 1634" y1="3.175" x2="3.175" transform="translate(32.191 12.971)" fill="none" stroke="#000" stroke-linecap="round" stroke-linejoin="round" stroke-miterlimit="10" stroke-width="2"/>
            <line id="Línea_1635" data-name="Línea 1635" x1="3.15" y1="3.15" transform="translate(7.127 12.989)" fill="none" stroke="#000" stroke-linecap="round" stroke-linejoin="round" stroke-miterlimit="10" stroke-width="2"/>
          </g>
          <path id="Trazado_692537" data-name="Trazado 692537" d="M309.241,449.482a8.222,8.222,0,0,0,3.942-3.68h0q.065-.124.139-.239" transform="translate(-281.527 -400.657)" fill="none" stroke="#000" stroke-linecap="round" stroke-linejoin="round" stroke-miterlimit="10" stroke-width="2"/>
          <path id="Trazado_692538" data-name="Trazado 692538" d="M143.633,432.64a3.4,3.4,0,0,1,3.25,1.8h0a8.225,8.225,0,0,0,7.273,4.384h5.453" transform="translate(-136.066 -389.299)" fill="none" stroke="#000" stroke-linecap="round" stroke-linejoin="round" stroke-miterlimit="10" stroke-width="2"/>
          <path id="Trazado_692539" data-name="Trazado 692539" d="M132.685,453.822h0a26.091,26.091,0,0,0-.751-6.213l-.2-.8" transform="translate(-125.619 -401.752)" fill="none" stroke="#000" stroke-linecap="round" stroke-linejoin="round" stroke-miterlimit="10" stroke-width="2"/>
          <line id="Línea_1636" data-name="Línea 1636" x2="8.516" transform="translate(16.98 40.432)" fill="none" stroke="#000" stroke-linecap="round" stroke-linejoin="round" stroke-miterlimit="10" stroke-width="2"/>
        </g>
        <path id="Trazado_692540" data-name="Trazado 692540" d="M350.79,15.785l-.713,1.786a17.458,17.458,0,0,1-3.882,5.887h0a3.178,3.178,0,0,1-3.971.419l-4.37-2.828a2.18,2.18,0,0,1-.356-3.374l.408-.408-5.606,5.6a1.642,1.642,0,0,1-2.319,0h0a1.635,1.635,0,0,1,0-2.315l3.222-3.217a31.65,31.65,0,0,0,4.214-5.208h0a4.4,4.4,0,0,1,2.772-1.912l3.414-.734a2.433,2.433,0,0,0,1.226-.675l1.277-1.3" transform="translate(-290.327 -7.5)" fill="none" stroke="#000" stroke-linecap="round" stroke-linejoin="round" stroke-miterlimit="10" stroke-width="2"/>
        <path id="Trazado_692541" data-name="Trazado 692541" d="M7.5,15.785l.713,1.786A17.457,17.457,0,0,0,12.1,23.458h0a3.178,3.178,0,0,0,3.971.419l4.37-2.828a2.181,2.181,0,0,0,.356-3.374l-.408-.408,5.606,5.6a1.642,1.642,0,0,0,2.319,0h0a1.635,1.635,0,0,0,0-2.315l-3.222-3.217a31.653,31.653,0,0,1-4.214-5.208h0A4.4,4.4,0,0,0,18.1,10.212l-3.414-.734A2.433,2.433,0,0,1,13.461,8.8L12.184,7.5" transform="translate(-7.5 -7.5)" fill="none" stroke="#000" stroke-linecap="round" stroke-linejoin="round" stroke-miterlimit="10" stroke-width="2"/>
        <path id="Trazado_692542" data-name="Trazado 692542" d="M7.5,374.237l.713-1.786a17.458,17.458,0,0,1,3.882-5.887h0a3.178,3.178,0,0,1,3.971-.419l4.37,2.828a2.18,2.18,0,0,1,.356,3.374l-.408.408,5.606-5.6a1.642,1.642,0,0,1,2.319,0h0a1.635,1.635,0,0,1,0,2.315l-3.222,3.217a31.655,31.655,0,0,0-4.214,5.208h0A4.4,4.4,0,0,1,18.1,379.81l-3.427.737a2.432,2.432,0,0,0-1.209.658l-1.324,1.324" transform="translate(-7.5 -322.066)" fill="none" stroke="#000" stroke-linecap="round" stroke-linejoin="round" stroke-miterlimit="10" stroke-width="2"/>
        <line id="Línea_1637" data-name="Línea 1637" x2="2.368" transform="translate(44.247 32.057)" fill="none" stroke="#000" stroke-linecap="round" stroke-linejoin="round" stroke-miterlimit="10" stroke-width="2"/>
        <line id="Línea_1638" data-name="Línea 1638" x2="1.189" y2="1.189" transform="translate(43.901 34.863)" fill="none" stroke="#000" stroke-linecap="round" stroke-linejoin="round" stroke-miterlimit="10" stroke-width="2"/>
        <line id="Línea_1639" data-name="Línea 1639" x1="2.368" transform="translate(13.847 32.057)" fill="none" stroke="#000" stroke-linecap="round" stroke-linejoin="round" stroke-miterlimit="10" stroke-width="2"/>
        <line id="Línea_1640" data-name="Línea 1640" x1="1.197" y2="1.197" transform="translate(15.372 34.855)" fill="none" stroke="#000" stroke-linecap="round" stroke-linejoin="round" stroke-miterlimit="10" stroke-width="2"/>
        <path id="Trazado_692543" data-name="Trazado 692543" d="M349.537,339.5a10.037,10.037,0,1,0,10.037,10.037A10.037,10.037,0,0,0,349.537,339.5Zm5.567,6.9a6.4,6.4,0,0,1,.052,6.172l-8.657-8.657a6.4,6.4,0,0,1,5.495-.278m-8.844,5.9a6.359,6.359,0,0,1,.768-3.038l8.657,8.657a6.389,6.389,0,0,1-9.425-5.619Z" transform="translate(-299.11 -299.11)" fill="none" stroke="#000" stroke-linecap="round" stroke-linejoin="round" stroke-miterlimit="10" stroke-width="2"/>
      </g>
    </g>
  </g>
</svg>
