<svg xmlns="http://www.w3.org/2000/svg" width="72.078" height="72.079" viewBox="0 0 72.078 72.079">
  <g id="apoyo_2_" data-name="apoyo (2)" transform="translate(0)">
    <path id="Trazado_676805" data-name="Trazado 676805" d="M329.072,8.533h15.617a4.805,4.805,0,0,1,4.805,4.805V25.351a4.805,4.805,0,0,1-4.805,4.805h-3.6v6.007l-6.007-6.007h-6.007a4.805,4.805,0,0,1-4.805-4.805V13.338A4.806,4.806,0,0,1,329.072,8.533Z" transform="translate(-323.065 -7.332)" fill="#f0e4d6"/>
    <path id="Trazado_676806" data-name="Trazado 676806" d="M338.41,13.466c4.958,11.818,14.709,17.3,21.217,19.728a4.76,4.76,0,0,1-3.145,1.2h-3.6V40.4L346.872,34.4h-6.007a4.805,4.805,0,0,1-4.805-4.805V17.577A4.788,4.788,0,0,1,338.41,13.466Z" transform="translate(-334.858 -11.57)" fill="#ebdcca"/>
    <path id="Trazado_676807" data-name="Trazado 676807" d="M20.545,284.707,8.532,261.883h9.61l6.007,10.812v-9.611a7.207,7.207,0,0,1,7.208-7.208h7.208a3.6,3.6,0,0,0,3.6-3.6v-4.805h9.61v4.805a3.6,3.6,0,0,0,3.6,3.6h7.208a7.207,7.207,0,0,1,7.208,7.208v21.624Z" transform="translate(1.079 -212.629)" fill="#fec9a3"/>
    <g id="Grupo_951647" data-name="Grupo 951647" transform="translate(30.033 53.946)">
      <path id="Trazado_676808" data-name="Trazado 676808" d="M42.677,401.33h2.4v-3.194a11.974,11.974,0,0,0,.5-13.554L44.7,383.2l-2.029,1.288.878,1.383a9.57,9.57,0,0,1-.607,11.107,1.2,1.2,0,0,0-.263.751v3.6Z" transform="translate(-11.402 -383.198)" fill="#f5b789"/>
      <path id="Trazado_676809" data-name="Trazado 676809" d="M267.132,401.33h2.4v-3.6a1.2,1.2,0,0,0-.263-.751,9.568,9.568,0,0,1-.607-11.106l.878-1.384-2.029-1.288-.878,1.384a11.974,11.974,0,0,0,.5,13.554Z" transform="translate(-264.772 -383.198)" fill="#f5b789"/>
    </g>
    <path id="Trazado_676810" data-name="Trazado 676810" d="M51.2,37.364V25.351A16.818,16.818,0,0,1,68.018,8.533h0A16.818,16.818,0,0,1,84.837,25.351V37.364a7.207,7.207,0,0,1-7.208,7.208H58.408A7.207,7.207,0,0,1,51.2,37.364Z" transform="translate(-19.966 -7.332)" fill="#645e39"/>
    <path id="Trazado_676811" data-name="Trazado 676811" d="M153.352,8.533a16.821,16.821,0,0,1,4.805.705,16.82,16.82,0,0,0-12.013,16.113V37.364a7.207,7.207,0,0,0,7.208,7.208h-9.61a7.207,7.207,0,0,1-7.208-7.208V25.351A16.818,16.818,0,0,1,153.352,8.533Z" transform="translate(-105.3 -7.332)" fill="#4f4a26"/>
    <path id="Trazado_676812" data-name="Trazado 676812" d="M382.675,305.875h10.812a7.207,7.207,0,0,0-7.208-7.208H375.467A7.207,7.207,0,0,0,382.675,305.875Z" transform="translate(-374.265 -256.621)" fill="#fec9a3"/>
    <g id="Grupo_951648" data-name="Grupo 951648" transform="translate(6.007 6.007)">
      <rect id="Rectángulo_337407" data-name="Rectángulo 337407" width="8.409" height="2.403" transform="translate(7.208)" fill="#ccbfb0"/>
      <rect id="Rectángulo_337408" data-name="Rectángulo 337408" width="4.805" height="2.403" fill="#ccbfb0"/>
      <rect id="Rectángulo_337409" data-name="Rectángulo 337409" width="15.617" height="2.403" transform="translate(0 4.805)" fill="#ccbfb0"/>
      <rect id="Rectángulo_337410" data-name="Rectángulo 337410" width="8.409" height="2.403" transform="translate(7.208 9.61)" fill="#ccbfb0"/>
    </g>
    <path id="Trazado_676813" data-name="Trazado 676813" d="M136.54,252.333v-4.866h9.616v4.866a10.724,10.724,0,0,1-9.622,0Z" transform="translate(-93.299 -212.629)" fill="#f7c097"/>
    <path id="Trazado_676814" data-name="Trazado 676814" d="M115.49,92.6V97.77a10.812,10.812,0,1,1-21.623,0V88.16a10.753,10.753,0,0,1,1.294-5.13Z" transform="translate(-56.626 -71.341)" fill="#fec9a3"/>
    <rect id="Rectángulo_337411" data-name="Rectángulo 337411" width="16.818" height="13.214" transform="translate(39.643 50.455)" fill="#13c6cc"/>
    <path id="Trazado_676815" data-name="Trazado 676815" d="M18.143,313.207l6.007,10.812v-9.611a7.207,7.207,0,0,1,7.208-7.208H35.2l11.773,15.617L58.147,307.2h4.445a7.207,7.207,0,0,1,7.208,7.208v21.623H20.546L8.533,313.207Z" transform="translate(1.078 -263.953)" fill="#4398d1"/>
    <path id="Trazado_676816" data-name="Trazado 676816" d="M137.037,313.485h9.611l6.007,10.812v-9.61a7.208,7.208,0,0,1,6.416-7.162c2.162,16.781,12.242,24.891,21.143,28.786H149.05Z" transform="translate(-127.426 -264.231)" fill="#3f8fc4"/>
    <g id="Grupo_951649" data-name="Grupo 951649" transform="translate(30.033 53.946)">
      <path id="Trazado_676817" data-name="Trazado 676817" d="M42.677,401.33h2.4v-3.194a11.974,11.974,0,0,0,.5-13.554L44.7,383.2l-2.029,1.288.878,1.383a9.57,9.57,0,0,1-.607,11.107,1.2,1.2,0,0,0-.263.751v3.6Z" transform="translate(-11.402 -383.198)" fill="#3685ba"/>
      <path id="Trazado_676818" data-name="Trazado 676818" d="M267.132,401.33h2.4v-3.6a1.2,1.2,0,0,0-.263-.751,9.568,9.568,0,0,1-.607-11.106l.878-1.384-2.029-1.288-.878,1.384a11.974,11.974,0,0,0,.5,13.554Z" transform="translate(-264.772 -383.198)" fill="#3685ba"/>
    </g>
    <path id="Trazado_676819" data-name="Trazado 676819" d="M170.667,97.769v-9.61a10.754,10.754,0,0,1,1.294-5.13l3.049,1.434a16.744,16.744,0,0,0-.739,4.9v12.013a7.207,7.207,0,0,0,7.208,7.208,10.811,10.811,0,0,1-10.812-10.812Z" transform="translate(-133.426 -71.34)" fill="#f7c097"/>
    <path id="Trazado_676820" data-name="Trazado 676820" d="M51.075,37.24h1.2v2.4h-1.2a8.418,8.418,0,0,1-8.409-8.409V18.02a18.02,18.02,0,1,1,36.039,0V31.234A8.418,8.418,0,0,1,70.3,39.643h-1.2v-2.4h1.2A6.013,6.013,0,0,0,76.3,31.234V18.02a15.617,15.617,0,0,0-31.234,0V31.234A6.013,6.013,0,0,0,51.075,37.24Z" transform="translate(-12.633)"/>
    <path id="Trazado_676821" data-name="Trazado 676821" d="M42.668,384.486,44.7,383.2l.878,1.384a11.974,11.974,0,0,1-.5,13.554v3.194h-2.4v-3.6a1.2,1.2,0,0,1,.263-.751,9.57,9.57,0,0,0,.607-11.107Z" transform="translate(18.633 -329.252)"/>
    <path id="Trazado_676822" data-name="Trazado 676822" d="M321.74,0h15.617a6.014,6.014,0,0,1,6.007,6.007V18.02a6.014,6.014,0,0,1-6.007,6.007h-2.4v4.805a1.2,1.2,0,0,1-.741,1.11,1.2,1.2,0,0,1-1.309-.261l-5.655-5.654H321.74a6.014,6.014,0,0,1-6.007-6.007V6.007A6.014,6.014,0,0,1,321.74,0Zm-3.6,18.02a3.6,3.6,0,0,0,3.6,3.6h6.007a1.2,1.2,0,0,1,.849.352l3.956,3.956V22.825a1.2,1.2,0,0,1,1.2-1.2h3.6a3.6,3.6,0,0,0,3.6-3.6V6.007a3.6,3.6,0,0,0-3.6-3.6H321.74a3.6,3.6,0,0,0-3.6,3.6Z" transform="translate(-315.733)"/>
    <rect id="Rectángulo_337412" data-name="Rectángulo 337412" width="8.409" height="2.403" transform="translate(13.215 6.007)"/>
    <rect id="Rectángulo_337413" data-name="Rectángulo 337413" width="4.805" height="2.403" transform="translate(6.007 6.007)"/>
    <rect id="Rectángulo_337414" data-name="Rectángulo 337414" width="15.617" height="2.403" transform="translate(6.007 10.812)"/>
    <rect id="Rectángulo_337415" data-name="Rectángulo 337415" width="8.409" height="2.403" transform="translate(13.215 15.617)"/>
    <path id="Trazado_676823" data-name="Trazado 676823" d="M269.535,397.727v3.6h-2.4v-3.194a11.974,11.974,0,0,1-.5-13.554l.878-1.384,2.029,1.288-.878,1.384a9.569,9.569,0,0,0,.607,11.106A1.2,1.2,0,0,1,269.535,397.727Z" transform="translate(-234.739 -329.252)"/>
    <path id="Trazado_676824" data-name="Trazado 676824" d="M69.676,114.47a6.013,6.013,0,0,0-6.007-6.007H59.847L49.029,123.579a1.2,1.2,0,0,1-.961.5h-.016a1.2,1.2,0,0,1-.961-.48L35.679,108.464H32.435a6.013,6.013,0,0,0-6.007,6.007v9.61a1.2,1.2,0,0,1-2.251.583l-5.663-10.193H11.627L23.34,136.094H20.607L8.89,114.471h-.48A8.418,8.418,0,0,1,0,106.062a1.2,1.2,0,0,1,1.2-1.2H12.013a8.409,8.409,0,0,1,8.392,8.067l3.621,6.518V114.47a8.418,8.418,0,0,1,8.409-8.409h4.391l.032-.025.022.025h2.763a2.4,2.4,0,0,0,2.4-2.4v-2.827a12.014,12.014,0,0,1-6.007-10.388v-9.61a12.033,12.033,0,0,1,1.442-5.7,1.2,1.2,0,0,1,1.562-.517l20.333,9.567a1.2,1.2,0,0,1,.69,1.087v5.174a12.014,12.014,0,0,1-6.007,10.388v2.827a2.4,2.4,0,0,0,2.4,2.4h7.208a8.418,8.418,0,0,1,8.409,8.409v21.624h-2.4Zm-57.663-7.208H2.523a6.016,6.016,0,0,0,5.886,4.805H17.9A6.016,6.016,0,0,0,12.013,107.263Zm36.014,13.589,3.707-5.18H44.123Zm9.636-30.407V86.033L39.113,77.3a9.616,9.616,0,0,0-.672,3.529v9.61a9.61,9.61,0,1,0,19.221,0Zm-1.2,18.02a4.805,4.805,0,0,1-4.805-4.805V101.9a12,12,0,0,1-7.208,0v1.755a4.805,4.805,0,0,1-4.805,4.805h-.961l3.623,4.805H53.458l3.439-4.805Z" transform="translate(0 -64.016)"/>
  </g>
</svg>
