<svg id="Grupo_991489" data-name="Grupo 991489" xmlns="http://www.w3.org/2000/svg" xmlns:xlink="http://www.w3.org/1999/xlink" width="90" height="90" viewBox="0 0 90 90">
  <defs>
    <clipPath id="clip-path">
      <rect id="Rectángulo_339003" data-name="Rectángulo 339003" width="66.363" height="71" fill="none"/>
    </clipPath>
  </defs>
  <g id="Grupo_982989" data-name="Grupo 982989">
    <path id="Trazado_207349" data-name="Trazado 207349" d="M45,0A45,45,0,1,0,90,45,45,45,0,0,0,45,0Z" transform="translate(0)" fill="#ffe891"/>
    <g id="Grupo_984156" data-name="Grupo 984156" transform="translate(11.818 9.5)">
      <g id="Grupo_984156-2" data-name="Grupo 984156" transform="translate(0 0)" clip-path="url(#clip-path)">
        <path id="Trazado_212545" data-name="Trazado 212545" d="M11.42,63.841s-6.184,10,2.9,9.7a10,10,0,0,0,2.935-8.984Z" transform="translate(-2.619 -17.853)" fill="#793625"/>
        <path id="Trazado_212546" data-name="Trazado 212546" d="M70.306,18.124a15.94,15.94,0,0,0-1.887-5.954C55.344-12,26.912,7.291,26.912,7.291l4.979,16.934c11.853-7.17,25.955-10.1,38.415-6.1" transform="translate(-7.526 0)" fill="#793625"/>
        <path id="Trazado_212547" data-name="Trazado 212547" d="M33.824,30.1,39.38,52.07S74.148,42.086,72.239,24c-12.46-4-24.8-5.7-38.415,6.1" transform="translate(-9.459 -5.875)" fill="#6b2a1d"/>
        <path id="Trazado_212548" data-name="Trazado 212548" d="M56.717,57.078a7.128,7.128,0,1,0,5.1-8.7,7.128,7.128,0,0,0-5.1,8.7" transform="translate(-15.796 -13.465)" fill="#e8803a"/>
        <path id="Trazado_212549" data-name="Trazado 212549" d="M39.953,86.553,39.2,74.392,17.589,55.744,15.676,83.68c7.682,2.631,15.964,3.053,24.277,2.873" transform="translate(-4.384 -15.589)" fill="#fc9753"/>
        <path id="Trazado_212550" data-name="Trazado 212550" d="M43.45,90.482s-13.857-.594-14.89-14.566L42.8,80.034Z" transform="translate(-7.987 -21.23)" fill="#2f1a2a"/>
        <path id="Trazado_212551" data-name="Trazado 212551" d="M53.075,15.167s4.542,28.908.99,38.011S42.621,67.854,30.4,65.153c0,0-14.252-1.106-16.835-21.8C9.679,12.2,39.006-1.773,53.075,15.167" transform="translate(-3.696 -2.207)" fill="#fc9753"/>
        <path id="Trazado_212552" data-name="Trazado 212552" d="M65.241,50.321a1.631,1.631,0,1,0,1.24-1.945,1.63,1.63,0,0,0-1.24,1.945" transform="translate(-18.234 -13.518)" fill="#171717"/>
        <path id="Trazado_212553" data-name="Trazado 212553" d="M46.1,49.955a1.631,1.631,0,1,0,1.24-1.945,1.63,1.63,0,0,0-1.24,1.945" transform="translate(-12.883 -13.415)" fill="#171717"/>
        <path id="Trazado_212554" data-name="Trazado 212554" d="M60.7,52.744l1.567,5.574-2.639,1.315" transform="translate(-16.674 -14.75)" fill="none" stroke="#2f1a2a" stroke-linecap="round" stroke-linejoin="round" stroke-width="0.983"/>
        <path id="Trazado_212555" data-name="Trazado 212555" d="M42.413,34.463s5.068-1.227,5.429,1.514c0,0,.206,1.861-4.228,2.818s-6.222.881-6.828-.813,3.223-3.186,5.627-3.519" transform="translate(-10.269 -9.561)" fill="#221914"/>
        <path id="Trazado_212556" data-name="Trazado 212556" d="M68.907,33.954s-4.718-1.168-5.228,1.516c0,0-.311,1.837,3.829,2.731,3.014.65,4.089.067,4.318-1.164.272-1.459-1.145-2.809-2.92-3.083" transform="translate(-17.807 -9.424)" fill="#221914"/>
        <path id="Trazado_212557" data-name="Trazado 212557" d="M48.743,65.624l9.456.7s-.094,3.695-4.914,3.369-4.542-4.065-4.542-4.065" transform="translate(-13.63 -18.352)" fill="#fff"/>
        <path id="Trazado_212558" data-name="Trazado 212558" d="M17.36,41.462l1.391-10.523s8.335-2.652,10.326-18.4c0,0-3.5-7.245-14.182-3.931S-5.064,19.649,6.651,39.047Z" transform="translate(-0.337 -2.164)" fill="#793625"/>
        <path id="Trazado_212559" data-name="Trazado 212559" d="M.282,56.407A8.65,8.65,0,1,0,6.469,45.854,8.651,8.651,0,0,0,.282,56.407" transform="translate(0 -12.744)" fill="#fc9753"/>
        <path id="Trazado_212560" data-name="Trazado 212560" d="M6.736,53.807s6.408-1.572,7.82,5.468" transform="translate(-1.884 -15.005)" fill="none" stroke="#2f1a2a" stroke-linecap="round" stroke-linejoin="round" stroke-width="0.983"/>
        <path id="Trazado_212561" data-name="Trazado 212561" d="M36.708,11.959a32.88,32.88,0,0,1,21.044,4.974L55.541,7.581,41.7,5.666,28.5,10.637l3.258.308Z" transform="translate(-7.969 -1.584)" fill="#793625"/>
        <path id="Trazado_212562" data-name="Trazado 212562" d="M68.626,20.078s15.937.04,16,11.652a.2.2,0,0,0,.4.035c.747-4.314-.055-16.119-17.645-14.741Z" transform="translate(-18.843 -4.73)" fill="#793625"/>
      </g>
    </g>
  </g>
</svg>
