<svg xmlns="http://www.w3.org/2000/svg" width="172" height="250" viewBox="0 0 172 250">
  <g id="Grupo_991716" data-name="Grupo 991716" transform="translate(-635 -932)">
    <rect id="Rectángulo_338981" data-name="Rectángulo 338981" width="172" height="250" rx="11" transform="translate(635 932)" fill="#c4d1ff"/>
    <g id="fabrica-ecologica_3_" data-name="fabrica-ecologica (3)" transform="translate(660 996)">
      <path id="Trazado_692044" data-name="Trazado 692044" d="M71.691,19.418H53.26l.447-7.829A3.805,3.805,0,0,1,57.506,8h9.939a3.805,3.805,0,0,1,3.8,3.59Z" transform="translate(-40.59 -6.097)" fill="#edebfd"/>
      <path id="Trazado_692045" data-name="Trazado 692045" d="M70.491,65.515H50.97L51.515,56H69.946Z" transform="translate(-38.845 -42.679)" fill="#595965"/>
      <path id="Trazado_692046" data-name="Trazado 692046" d="M64.74,141.674H40L42.61,96H62.13Z" transform="translate(-30.485 -73.163)" fill="#edebfd"/>
      <path id="Trazado_692047" data-name="Trazado 692047" d="M86.652,19.418H77.136l-.447-7.829A3.805,3.805,0,0,0,72.89,8h9.515a3.805,3.805,0,0,1,3.8,3.59Z" transform="translate(-55.551 -6.097)" fill="#d2d2fc"/>
      <path id="Trazado_692048" data-name="Trazado 692048" d="M100.8,65.515H91.285L90.74,56h9.515Z" transform="translate(-69.154 -42.679)" fill="#44454e"/>
      <path id="Trazado_692049" data-name="Trazado 692049" d="M105.155,141.674H95.64L93.03,96h9.515Z" transform="translate(-70.9 -73.163)" fill="#d2d2fc"/>
      <path id="Trazado_692050" data-name="Trazado 692050" d="M80.316,339.383H8V291.806A3.806,3.806,0,0,1,11.806,288h68.51Z" transform="translate(-6.097 -219.49)" fill="#edebfd"/>
      <path id="Trazado_692051" data-name="Trazado 692051" d="M280,288h7.612v51.383H280Z" transform="translate(-213.393 -219.49)" fill="#d2d2fc"/>
      <path id="Trazado_692052" data-name="Trazado 692052" d="M167.612,384.74H160v-5.709A19.031,19.031,0,0,1,179.031,360h7.612v5.709A19.031,19.031,0,0,1,167.612,384.74Z" transform="translate(-121.939 -274.362)" fill="#79cb9c"/>
      <path id="Trazado_692053" data-name="Trazado 692053" d="M186.643,360v5.709a19.031,19.031,0,0,1-19.031,19.031H160a19.031,19.031,0,0,0,19.031-19.031V360Z" transform="translate(-121.939 -274.362)" fill="#63ac7d"/>
      <path id="Trazado_692054" data-name="Trazado 692054" d="M67.031,384.74h7.612v-5.709A19.031,19.031,0,0,0,55.612,360H48v5.709A19.031,19.031,0,0,0,67.031,384.74Z" transform="translate(-36.582 -274.362)" fill="#79cb9c"/>
      <path id="Trazado_692055" data-name="Trazado 692055" d="M74.643,379.031v5.709H67.031v-5.709A19.031,19.031,0,0,0,48,360h7.612A19.031,19.031,0,0,1,74.643,379.031Z" transform="translate(-36.582 -274.362)" fill="#63ac7d"/>
      <path id="Trazado_692056" data-name="Trazado 692056" d="M312,217.395h45.674V143.176c-42.839-16.32-39.585-15.225-40.852-15.225A4.822,4.822,0,0,0,312,132.773Z" transform="translate(-237.78 -97.502)" fill="#edebfd"/>
      <path id="Trazado_692057" data-name="Trazado 692057" d="M358.329,143.175v74.22h-9.515V145.078l-35.954-13.7a4.824,4.824,0,0,1,4.617-3.43C318.745,127.951,315.489,126.856,358.329,143.175Z" transform="translate(-238.436 -97.502)" fill="#d2d2fc"/>
      <path id="Trazado_692058" data-name="Trazado 692058" d="M207.691,19.418H189.26l.447-7.829a3.805,3.805,0,0,1,3.8-3.59h9.939a3.805,3.805,0,0,1,3.8,3.59Z" transform="translate(-144.238 -6.097)" fill="#edebfd"/>
      <path id="Trazado_692059" data-name="Trazado 692059" d="M206.491,65.515H186.97L187.515,56h18.431Z" transform="translate(-142.493 -42.679)" fill="#595965"/>
      <path id="Trazado_692060" data-name="Trazado 692060" d="M200.74,141.674H176L178.61,96H198.13Z" transform="translate(-134.133 -73.163)" fill="#edebfd"/>
      <path id="Trazado_692061" data-name="Trazado 692061" d="M222.652,19.418h-9.515l-.447-7.829A3.805,3.805,0,0,0,208.89,8h9.515a3.805,3.805,0,0,1,3.8,3.59Z" transform="translate(-159.199 -6.097)" fill="#d2d2fc"/>
      <path id="Trazado_692062" data-name="Trazado 692062" d="M236.8,65.515h-9.515L226.74,56h9.515Z" transform="translate(-172.802 -42.679)" fill="#44454e"/>
      <path id="Trazado_692063" data-name="Trazado 692063" d="M241.155,141.674H231.64L229.03,96h9.515Z" transform="translate(-174.548 -73.163)" fill="#d2d2fc"/>
      <path id="Trazado_692064" data-name="Trazado 692064" d="M312,224h45.674v7.612H312Z" transform="translate(-237.78 -170.714)" fill="#595965"/>
      <path id="Trazado_692065" data-name="Trazado 692065" d="M464,224h9.515v7.612H464Z" transform="translate(-353.622 -170.714)" fill="#44454e"/>
      <path id="Trazado_692066" data-name="Trazado 692066" d="M387.031,424.74H368V403.806A3.806,3.806,0,0,1,371.806,400h11.418a3.806,3.806,0,0,1,3.806,3.806Z" transform="translate(-280.459 -304.847)" fill="#595965"/>
      <path id="Trazado_692067" data-name="Trazado 692067" d="M411.418,403.806V424.74h-7.612V403.806A3.805,3.805,0,0,0,400,400h7.612A3.805,3.805,0,0,1,411.418,403.806Z" transform="translate(-304.847 -304.847)" fill="#44454e"/>
      <path id="Trazado_692068" data-name="Trazado 692068" d="M120.571,43.9C77.917,27.646,80.8,28.546,79.041,28.546a6.733,6.733,0,0,0-6.725,6.725V66.607H68.4l-3.5-61.224A5.713,5.713,0,0,0,59.206,0H49.268a5.713,5.713,0,0,0-5.7,5.384l-3.5,61.224H36.053l-3.5-61.224A5.713,5.713,0,0,0,26.854,0H16.916a5.713,5.713,0,0,0-5.7,5.384l-3.5,61.224H5.709A5.716,5.716,0,0,0,0,72.316v47.577a1.9,1.9,0,0,0,1.9,1.9h117.99a1.9,1.9,0,0,0,1.9-1.9V45.674a1.9,1.9,0,0,0-1.226-1.778ZM79.041,32.352c.779,0-2.145-1.022,38.949,14.633v4.4H76.123V35.271a2.922,2.922,0,0,1,2.919-2.919ZM117.99,58.995H76.123V55.189H117.99ZM46.818,15.225H61.656l.326,5.709H46.492Zm2.45-11.418h9.938a1.9,1.9,0,0,1,1.9,1.795l.333,5.818h-14.4L47.368,5.6A1.9,1.9,0,0,1,49.268,3.806ZM46.275,24.74H62.2l2.393,41.867H43.882ZM14.466,15.225H29.3l.326,5.709H14.14Zm2.45-11.418h9.938a1.9,1.9,0,0,1,1.9,1.795l.333,5.818h-14.4L15.016,5.6A1.9,1.9,0,0,1,16.916,3.806ZM13.923,24.74H29.848L32.24,66.607H11.53ZM3.806,72.316a1.905,1.905,0,0,1,1.9-1.9H72.316V117.99H39.964v-5.709h5.709A20.958,20.958,0,0,0,66.607,91.347V85.638a1.9,1.9,0,0,0-1.9-1.9H57.092A20.961,20.961,0,0,0,38.061,95.953,20.961,20.961,0,0,0,19.031,83.735H11.418a1.9,1.9,0,0,0-1.9,1.9v5.709a20.958,20.958,0,0,0,20.934,20.934h5.709v5.709H3.806ZM54.718,95.8a1.9,1.9,0,0,0-2.685-.179l-12.069,10.56v-1.515A17.147,17.147,0,0,1,57.092,87.541H62.8v3.806a17.147,17.147,0,0,1-17.128,17.128H43.126l11.413-9.986a1.9,1.9,0,0,0,.179-2.685Zm-18.56,10.381L24.09,95.624a1.9,1.9,0,1,0-2.506,2.864L33,108.475H30.449A17.147,17.147,0,0,1,13.321,91.347V87.541h5.709a17.147,17.147,0,0,1,17.128,17.128ZM89.444,117.99V98.959a1.905,1.905,0,0,1,1.9-1.9h11.418a1.905,1.905,0,0,1,1.9,1.9V117.99Zm19.031,0V98.959a5.716,5.716,0,0,0-5.709-5.709H91.347a5.716,5.716,0,0,0-5.709,5.709V117.99H76.123V62.8H117.99V117.99Z"/>
      <path id="Trazado_692069" data-name="Trazado 692069" d="M349.709,352H345.9a1.9,1.9,0,1,0,0,3.806h3.806a1.9,1.9,0,1,0,0-3.806Z" transform="translate(-262.168 -268.265)"/>
      <path id="Trazado_692070" data-name="Trazado 692070" d="M397.709,352H393.9a1.9,1.9,0,1,0,0,3.806h3.806a1.9,1.9,0,1,0,0-3.806Z" transform="translate(-298.75 -268.265)"/>
      <path id="Trazado_692071" data-name="Trazado 692071" d="M445.709,352H441.9a1.9,1.9,0,1,0,0,3.806h3.806a1.9,1.9,0,1,0,0-3.806Z" transform="translate(-335.332 -268.265)"/>
      <path id="Trazado_692072" data-name="Trazado 692072" d="M349.709,320H345.9a1.9,1.9,0,1,0,0,3.806h3.806a1.9,1.9,0,1,0,0-3.806Z" transform="translate(-262.168 -243.877)"/>
      <path id="Trazado_692073" data-name="Trazado 692073" d="M397.709,320H393.9a1.9,1.9,0,1,0,0,3.806h3.806a1.9,1.9,0,1,0,0-3.806Z" transform="translate(-298.75 -243.877)"/>
      <path id="Trazado_692074" data-name="Trazado 692074" d="M445.709,320H441.9a1.9,1.9,0,1,0,0,3.806h3.806a1.9,1.9,0,1,0,0-3.806Z" transform="translate(-335.332 -243.877)"/>
      <path id="Trazado_692075" data-name="Trazado 692075" d="M349.709,288H345.9a1.9,1.9,0,1,0,0,3.806h3.806a1.9,1.9,0,1,0,0-3.806Z" transform="translate(-262.168 -219.49)"/>
      <path id="Trazado_692076" data-name="Trazado 692076" d="M397.709,288H393.9a1.9,1.9,0,1,0,0,3.806h3.806a1.9,1.9,0,1,0,0-3.806Z" transform="translate(-298.75 -219.49)"/>
      <path id="Trazado_692077" data-name="Trazado 692077" d="M445.709,288H441.9a1.9,1.9,0,1,0,0,3.806h3.806a1.9,1.9,0,1,0,0-3.806Z" transform="translate(-335.332 -219.49)"/>
    </g>
  </g>
</svg>
