<svg xmlns="http://www.w3.org/2000/svg" width="172" height="228" viewBox="0 0 172 228">
  <g id="Grupo_991717" data-name="Grupo 991717" transform="translate(-1695 10739)">
    <rect id="Rectángulo_341387" data-name="Rectángulo 341387" width="172" height="228" rx="11" transform="translate(1695 -10739)" fill="#c4d1ff"/>
    <g id="Grupo_991694" data-name="Grupo 991694" transform="translate(7 -15.833)">
      <g id="lanza-libre_1_" data-name="lanza-libre (1)" transform="translate(1713 -10668.167)">
        <path id="Trazado_692991" data-name="Trazado 692991" d="M22.031,31H56.286A19.031,19.031,0,0,1,75.316,50.031V76.674h-64.7A7.612,7.612,0,0,1,3,69.061V50.031A19.031,19.031,0,0,1,22.031,31Z" transform="translate(2.709 26.092)" fill="#ebf7fe"/>
        <path id="Trazado_692992" data-name="Trazado 692992" d="M58.286,33H24.031a19.292,19.292,0,0,0-7.518,1.542A18.945,18.945,0,0,0,5,52.031V71.061a7.559,7.559,0,0,0,.685,3.121,7.559,7.559,0,0,0,3.121.685h64.7V48.225a18.922,18.922,0,0,0-3.822-11.405A18.92,18.92,0,0,0,58.286,33Z" transform="translate(4.515 27.898)" fill="#c7e2fb"/>
        <path id="Trazado_692993" data-name="Trazado 692993" d="M1,55H118.99V68.321H1Z" transform="translate(0.903 47.766)" fill="#3b435e"/>
        <path id="Trazado_692994" data-name="Trazado 692994" d="M27.709,59.515H41.035L44.837,50H22v3.806a5.709,5.709,0,0,0,5.709,5.709Z" transform="translate(19.867 43.25)" fill="#858489"/>
        <path id="Trazado_692995" data-name="Trazado 692995" d="M37.711,31h43.77a5.709,5.709,0,0,1,5.709,5.709V70.964a5.709,5.709,0,0,1-5.709,5.709H32V36.709A5.709,5.709,0,0,1,37.711,31Z" transform="translate(28.9 26.092)" fill="#717075"/>
        <circle id="Elipse_5039" data-name="Elipse 5039" cx="7.612" cy="7.612" r="7.612" transform="translate(80.884 72.316)" fill="#858489"/>
        <path id="Trazado_692996" data-name="Trazado 692996" d="M20,48A13.321,13.321,0,0,1,33.321,61.321H20Z" transform="translate(18.061 41.444)" fill="#efc599"/>
        <path id="Trazado_692997" data-name="Trazado 692997" d="M3,57H117.184v9.515H3Z" transform="translate(2.709 49.572)" fill="#2b3144"/>
        <path id="Trazado_692998" data-name="Trazado 692998" d="M17.5,26H34.628V36.467a8.564,8.564,0,0,1-17.128,0Z" transform="translate(15.804 21.577)" fill="#edb27c"/>
        <path id="Trazado_692999" data-name="Trazado 692999" d="M33.288,2A23.788,23.788,0,0,0,9.5,25.788v8.564H57.077V25.788A23.788,23.788,0,0,0,33.288,2Z" transform="translate(8.579 -0.097)" fill="#a17a4e"/>
        <path id="Trazado_693000" data-name="Trazado 693000" d="M35.288,4A23.788,23.788,0,0,0,11.5,27.788v4.758H55.27V23.982a23.668,23.668,0,0,0-5.183-14.8A23.669,23.669,0,0,0,35.288,4Z" transform="translate(10.385 1.709)" fill="#956938"/>
        <path id="Trazado_693001" data-name="Trazado 693001" d="M30.5,16V27.418h1.9A5.709,5.709,0,0,0,32.4,16Z" transform="translate(27.543 12.546)" fill="#edb27c"/>
        <path id="Trazado_693002" data-name="Trazado 693002" d="M15.209,27.418h1.9V16h-1.9a5.709,5.709,0,0,0,0,11.418Z" transform="translate(8.579 12.546)" fill="#edb27c"/>
        <path id="Trazado_693003" data-name="Trazado 693003" d="M38.5,11a29.729,29.729,0,0,1-21.8,9.515H13.5V30.982a16.176,16.176,0,0,0,32.352,0V20.515Z" transform="translate(12.191 8.031)" fill="#efbe9c"/>
        <path id="Trazado_693004" data-name="Trazado 693004" d="M119.893,101.862h-2.957a7.525,7.525,0,0,0,1.059-3.806V63.8a7.621,7.621,0,0,0-7.612-7.612H66.612a7.564,7.564,0,0,0-2.92.587A20.81,20.81,0,0,0,59,56.189H52.339V54.726A18.077,18.077,0,0,0,59.7,42.867h.247a7.621,7.621,0,0,0,7.612-7.612V26.691a25.691,25.691,0,1,0-51.383,0v8.564a7.621,7.621,0,0,0,7.612,7.612h.247A18.077,18.077,0,0,0,31.4,54.726v1.462H24.744A20.957,20.957,0,0,0,3.81,77.123V96.153a9.423,9.423,0,0,0,1.952,5.709H1.9a1.9,1.9,0,0,0-1.9,1.9v13.321a1.9,1.9,0,0,0,1.9,1.9h117.99a1.9,1.9,0,0,0,1.9-1.9V103.766A1.9,1.9,0,0,0,119.893,101.862ZM110.382,60a3.81,3.81,0,0,1,3.806,3.806V98.056a3.81,3.81,0,0,1-3.806,3.806H62.806V63.8A3.81,3.81,0,0,1,66.612,60ZM53.158,101.862a15.1,15.1,0,0,0-1.928-5.709H59v5.709ZM39.969,92.52a11.437,11.437,0,0,1,9.356,9.343H39.969ZM59.951,39.061V31.449a3.806,3.806,0,0,1,0,7.612ZM41.872,4.806A21.909,21.909,0,0,1,63.757,26.691V28.7a7.523,7.523,0,0,0-3.806-1.059h-.968L52.2,18.867a1.9,1.9,0,0,0-2.9-.13,27.91,27.91,0,0,1-20.4,8.906h-5.1A7.524,7.524,0,0,0,19.987,28.7V26.691A21.91,21.91,0,0,1,41.872,4.806ZM19.987,35.255a3.81,3.81,0,0,1,3.806-3.806v7.612a3.81,3.81,0,0,1-3.806-3.806ZM27.6,40.013V31.449h1.3a31.745,31.745,0,0,0,21.619-8.541L56.145,30.2v9.817a14.273,14.273,0,1,1-28.546,0ZM41.872,58.092A17.961,17.961,0,0,0,48.533,56.8v2.239a6.661,6.661,0,1,1-13.321,0V56.8a17.961,17.961,0,0,0,6.661,1.287ZM7.617,96.153V77.123A17.147,17.147,0,0,1,24.744,60h6.709a10.462,10.462,0,0,0,20.837,0H59c.337,0,.681.049,1.021.071A7.519,7.519,0,0,0,59,63.8V92.347H48.1a15.144,15.144,0,0,0-10.036-3.806H19.035a1.9,1.9,0,1,0,0,3.806H36.163v9.515H13.326A5.715,5.715,0,0,1,7.617,96.153ZM117.99,115.184H3.806v-9.515H117.99Z" transform="translate(0 -1)"/>
        <path id="Trazado_693005" data-name="Trazado 693005" d="M51.018,57.031A9.515,9.515,0,1,0,41.5,47.515a9.515,9.515,0,0,0,9.515,9.515Zm0-15.225a5.709,5.709,0,1,1-5.709,5.709,5.709,5.709,0,0,1,5.709-5.709Z" transform="translate(37.479 32.413)"/>
      </g>
      <g id="Grupo_991692" data-name="Grupo 991692" transform="translate(1798.18 -10663.867)">
        <path id="Trazado_692095" data-name="Trazado 692095" d="M19.273,41,3,57.273h8.137V83.717H27.41V57.273h8.137Z" transform="translate(-0.965 -38.965)" fill="#fed947"/>
        <path id="Trazado_692104" data-name="Trazado 692104" d="M21.746,40.6a2.032,2.032,0,0,0-2.876,0L2.6,56.87a2.034,2.034,0,0,0,1.438,3.472h6.1V76.615h4.068V58.308a2.034,2.034,0,0,0-2.034-2.034H8.945L20.308,44.911,31.671,56.274H28.444a2.034,2.034,0,0,0-2.034,2.034V84.752h4.068V60.342h6.1a2.034,2.034,0,0,0,1.438-3.472Z" transform="translate(-2 -40)"/>
        <path id="Trazado_692108" data-name="Trazado 692108" d="M6,60h4.068v4.068H6Z" transform="translate(2.137 -19.316)"/>
      </g>
    </g>
  </g>
</svg>
