<svg id="Grupo_991284" data-name="Grupo 991284" xmlns="http://www.w3.org/2000/svg" xmlns:xlink="http://www.w3.org/1999/xlink" width="90" height="90" viewBox="0 0 90 90">
  <defs>
    <clipPath id="clip-path">
      <rect id="Rect치ngulo_338890" data-name="Rect치ngulo 338890" width="68.295" height="57.883" fill="none"/>
    </clipPath>
    <clipPath id="clip-path-3">
      <rect id="Rect치ngulo_338888" data-name="Rect치ngulo 338888" width="55.435" height="24.453" fill="none"/>
    </clipPath>
  </defs>
  <path id="Trazado_207348" data-name="Trazado 207348" d="M45,0A45,45,0,1,0,90,45,45,45,0,0,0,45,0Z" fill="#ffe891"/>
  <g id="Grupo_983963" data-name="Grupo 983963" transform="translate(18.852 16.059)">
    <g id="Grupo_983968" data-name="Grupo 983968" clip-path="url(#clip-path)">
      <g id="Grupo_983967" data-name="Grupo 983967" transform="translate(0 0)">
        <g id="Grupo_983966" data-name="Grupo 983966" clip-path="url(#clip-path)">
          <path id="Trazado_211697" data-name="Trazado 211697" d="M23.4,9.9c3.5-9,20-12.5,31.5-2.5,5.342,4.645,6.474,13.065,6.157,20.751a3.941,3.941,0,0,1,.684-.274c2.341-.584,4.693,1.181,5.394,3.382a6.34,6.34,0,0,1-.821,5.277,7.979,7.979,0,0,1-3.626,3.03,10.251,10.251,0,0,1-3.121.308A23.223,23.223,0,0,1,51.91,52.915a21.012,21.012,0,0,1-17.864,4.521C29.067,56.4,21.7,53.212,19.869,48.044a13.1,13.1,0,0,1-.537-4.225C19.2,32.927,19.4,20.191,23.4,9.9" transform="translate(-18.407 0)" fill="#e29579"/>
          <path id="Trazado_211698" data-name="Trazado 211698" d="M61.954,27.963c0,1.669-.661,3.023-1.477,3.023S59,29.632,59,27.963s.661-3.023,1.476-3.023,1.477,1.354,1.477,3.023" transform="translate(-52.66 0)" fill="#3d1525"/>
          <path id="Trazado_211699" data-name="Trazado 211699" d="M46.213,27.963c0,1.669.661,3.023,1.477,3.023s1.476-1.354,1.476-3.023S48.5,24.94,47.69,24.94s-1.477,1.354-1.477,3.023" transform="translate(-27.084 0)" fill="#3d1525"/>
          <path id="Trazado_211700" data-name="Trazado 211700" d="M52.529,42.468a2.431,2.431,0,0,0,1.555.527,2.545,2.545,0,0,0,1.555-.527,7.966,7.966,0,0,1-1.556.174,6.726,6.726,0,0,1-1.554-.174" transform="translate(-39.873 0)" fill="#3d1525"/>
          <path id="Trazado_211701" data-name="Trazado 211701" d="M58.457,35.708l-9.688,1.125s2.563,5.25,6.438,4.187,3.25-5.312,3.25-5.312" transform="translate(-38.968 0)" fill="#fff"/>
          <path id="Trazado_211702" data-name="Trazado 211702" d="M42.22,17.478a3.5,3.5,0,0,1,2.288-.847,7.04,7.04,0,0,1,2.437.346,5.928,5.928,0,0,1,2.145,1.229,6.239,6.239,0,0,1,1.465,1.877.707.707,0,0,1-1.1.864l-.06-.055a8.722,8.722,0,0,0-1.458-1.158,5.113,5.113,0,0,0-1.61-.661,6.285,6.285,0,0,0-1.744-.169,6.7,6.7,0,0,1-1.865-.108l-.186-.046a.739.739,0,0,1-.316-1.272" transform="translate(-24.319 0)" fill="#3d1525"/>
          <path id="Trazado_211703" data-name="Trazado 211703" d="M65.948,17.478a3.5,3.5,0,0,0-2.288-.847,7.04,7.04,0,0,0-2.437.346,5.928,5.928,0,0,0-2.145,1.229,6.239,6.239,0,0,0-1.465,1.877.707.707,0,0,0,1.1.864l.06-.055a8.762,8.762,0,0,1,1.458-1.158,5.113,5.113,0,0,1,1.61-.661,6.285,6.285,0,0,1,1.744-.169,6.7,6.7,0,0,0,1.865-.108l.187-.046a.74.74,0,0,0,.315-1.272" transform="translate(-55.427 0)" fill="#3d1525"/>
          <path id="Trazado_211704" data-name="Trazado 211704" d="M56.379,23.063c-.261,1.139-.453,2.27-.664,3.391s-.424,2.232-.742,3.291c-.074.266-.156.527-.251.78a2.794,2.794,0,0,0-.256.976,1.964,1.964,0,0,0,1.06,1.792,2.381,2.381,0,0,0,1.927.1,4.7,4.7,0,0,0,1.526-.913c-1.06.4-2.3.709-3.044.146a1.166,1.166,0,0,1-.524-1.078,2.158,2.158,0,0,1,.222-.671q.171-.424.3-.854a16.094,16.094,0,0,0,.554-3.478,18.456,18.456,0,0,0-.107-3.485" transform="translate(-45.148 0)" fill="#3d1525"/>
          <path id="Trazado_211705" data-name="Trazado 211705" d="M27.38,32.612a2.514,2.514,0,0,0-.787-2,2.34,2.34,0,0,0-2.281-.22,4.292,4.292,0,0,0-1.841,1.343,6.888,6.888,0,0,0-1.145,1.93.5.5,0,0,0,.827.543l.033-.034a4.448,4.448,0,0,1,1.692-1.2.783.783,0,0,1,.711.078,1.882,1.882,0,0,1,.508.784c.258.663.413,1.438-.152,1.746a3.788,3.788,0,0,1-2.237.152,3.517,3.517,0,0,0,2.458.331,1.388,1.388,0,0,0,.868-1.16,3.589,3.589,0,0,0-.144-1.338,2.511,2.511,0,0,0-.715-1.235,1.692,1.692,0,0,0-1.547-.319,4.866,4.866,0,0,0-2.2,1.482l.86.509a5.394,5.394,0,0,1,2.321-2.9,1.89,1.89,0,0,1,1.718-.1,2.522,2.522,0,0,1,1.056,1.613" transform="translate(19.625 0)" fill="#3d1525"/>
          <path id="Trazado_211706" data-name="Trazado 211706" d="M21.347.038A26.377,26.377,0,0,1,38.22,4.763,7.774,7.774,0,0,1,41.054,2.1a12.891,12.891,0,0,1,15.118,2.02C58.8,6.759,60.1,10.4,61.814,13.707c1.4,2.711,3.334,5.415,5.982,6.766a.876.876,0,0,1-.011,1.587c-5.5,2.424-11.586,3.261-17.337,1.467-.326-.1-.648-.216-.969-.332a33.817,33.817,0,0,1,.528,4.683c.59,13.76-9.7,17.415-11.787,18.775.44-4.55,2.757-5.435,2.977-6.775a9.88,9.88,0,0,0,3.09-.31,7.987,7.987,0,0,0,3.62-3.03,6.34,6.34,0,0,0,.83-5.28c-.71-2.2-3.06-3.96-5.4-3.38a2.854,2.854,0,0,0-.383.143c-.629.69-1.259,1.381-1.915,2.046a3.866,3.866,0,0,1-6.007-.671,17.454,17.454,0,0,1-2.6-6.571c-.562-3.679-.375-7.886-3.005-10.519a7.022,7.022,0,0,0-5.487-1.932,8.613,8.613,0,0,0-5.3,2.545c-1.048,1.049-1.851,2.337-2.988,3.288a3.841,3.841,0,0,1-4.107.818c-1.109-.594-1.627-1.889-2.3-2.981a3.347,3.347,0,0,0-4.465-1.206l-.032.02a3.111,3.111,0,0,0-1.29,1.835A85.441,85.441,0,0,0,.977,34.188a28.279,28.279,0,0,1-.97-8.15c.34-15.33,4.5-25.16,21.34-26" transform="translate(0 0)" fill="#3d1525"/>
          <g id="Grupo_983965" data-name="Grupo 983965" transform="translate(8.202 1.861)" opacity="0.5" style="mix-blend-mode: screen;isolation: isolate">
            <g id="Grupo_983964" data-name="Grupo 983964">
              <g id="Grupo_983963-2" data-name="Grupo 983963" clip-path="url(#clip-path-3)">
                <path id="Trazado_211707" data-name="Trazado 211707" d="M4.657,7.068A5.485,5.485,0,0,1,7.676,5a6.726,6.726,0,0,1,3.592-.077A11.468,11.468,0,0,1,17.114,9.1c1.561,1.925,2.749,4.171,4.2,6.283a24.226,24.226,0,0,0,2.4,3.019,11.8,11.8,0,0,0,3.066,2.3,13.539,13.539,0,0,1-2.7-2.629,24.072,24.072,0,0,1-2.116-3.106,54.337,54.337,0,0,0-4.07-6.495,11.321,11.321,0,0,0-6.46-4.3,7.276,7.276,0,0,0-3.917.365A5.384,5.384,0,0,0,4.657,7.068" transform="translate(28.658 -1.86)" fill="#3d1525"/>
                <path id="Trazado_211708" data-name="Trazado 211708" d="M11.2,11.508a6.4,6.4,0,0,1,3.758.46A5.586,5.586,0,0,1,17.6,14.409c.627,1.077,1.03,2.378,1.827,3.538a5.373,5.373,0,0,0,3.338,2.285,6.589,6.589,0,0,1-2.672-2.693c-.59-1.111-.94-2.392-1.624-3.624a5.7,5.7,0,0,0-3.233-2.673,5.276,5.276,0,0,0-4.036.266" transform="translate(26.134 -1.86)" fill="#3d1525"/>
                <path id="Trazado_211709" data-name="Trazado 211709" d="M37.856,15.512a21.344,21.344,0,0,1,2.7-5.183,19.885,19.885,0,0,1,3.982-4.157,18.707,18.707,0,0,1,5-2.831,10.635,10.635,0,0,1,5.695-.759,9.01,9.01,0,0,0-5.942.019,16.045,16.045,0,0,0-5.368,2.784A16.854,16.854,0,0,0,39.906,9.9a14.943,14.943,0,0,0-2.05,5.611" transform="translate(-32.994 -1.86)" fill="#3d1525"/>
                <path id="Trazado_211710" data-name="Trazado 211710" d="M31.031,10.052A16.261,16.261,0,0,1,42.273,6.894a9.221,9.221,0,0,0-11.242,3.158" transform="translate(-13.211 -1.86)" fill="#3d1525"/>
                <path id="Trazado_211711" data-name="Trazado 211711" d="M54.092,11.579a34.792,34.792,0,0,1,2.555-5.134,35.337,35.337,0,0,1,3.446-4.584,10.875,10.875,0,0,0-4.3,4.058,10.923,10.923,0,0,0-1.7,5.66" transform="translate(-54.092 -1.86)" fill="#3d1525"/>
                <path id="Trazado_211712" data-name="Trazado 211712" d="M25.1,15.81a11.677,11.677,0,0,1,10.088-1.965A7.122,7.122,0,0,0,25.1,15.81" transform="translate(-0.203 -1.86)" fill="#3d1525"/>
                <path id="Trazado_211713" data-name="Trazado 211713" d="M26.65,19.561a4.814,4.814,0,0,0-.713,2.8,4.368,4.368,0,0,0,1.183,2.786A3.591,3.591,0,0,0,29.961,26.3a2.819,2.819,0,0,0,2.419-1.57,3.251,3.251,0,0,1-2.423.789,3.284,3.284,0,0,1-2.114-1.067,4.452,4.452,0,0,1-1.134-2.194,8.2,8.2,0,0,1-.059-2.7" transform="translate(1.783 -1.86)" fill="#3d1525"/>
              </g>
            </g>
          </g>
        </g>
      </g>
    </g>
  </g>
</svg>
