<svg id="alerta" xmlns="http://www.w3.org/2000/svg" width="101.814" height="101.814" viewBox="0 0 101.814 101.814">
  <g id="Grupo_80778" data-name="Grupo 80778" transform="translate(16.702 23.857)">
    <path id="Trazado_114329" data-name="Trazado 114329" d="M63,35.865A24.854,24.854,0,0,0,38.148,60.719V98.366H87.853V60.719A24.854,24.854,0,0,0,63,35.865Z" transform="translate(-28.797 -35.865)" fill="#e5384f"/>
    <path id="Trazado_114330" data-name="Trazado 114330" d="M50.667,75.37l12.819-9.6-12.819-9.6Z" transform="translate(-29.28 -36.648)" fill="#fdbe00"/>
    <path id="Trazado_114331" data-name="Trazado 114331" d="M64,65.769l12.819,9.6v-19.2Z" transform="translate(-29.795 -36.648)" fill="#fdbe00"/>
    <path id="Trazado_114332" data-name="Trazado 114332" d="M33.064,96.442l-4.642,18.034H96.833L92.191,96.442Z" transform="translate(-28.422 -38.202)" fill="#223b59"/>
  </g>
  <g id="Grupo_80779" data-name="Grupo 80779" transform="translate(0 0)">
    <path id="Trazado_114333" data-name="Trazado 114333" d="M37.707,63.494a1.683,1.683,0,0,0-1.682,1.682V92.356H33a1.682,1.682,0,0,0-1.63,1.259l-4.644,18.037a1.683,1.683,0,0,0,1.634,2.1H72.212a1.682,1.682,0,1,0,0-3.365H30.523L34.3,95.718H90.82L94.6,110.389H90.883a1.682,1.682,0,1,0,0,3.365h5.884a1.683,1.683,0,0,0,1.634-2.1L93.753,93.615a1.682,1.682,0,0,0-1.63-1.259H89.095v-31.7A26.535,26.535,0,0,0,36.137,58.29a1.682,1.682,0,1,0,3.349.294A23.17,23.17,0,0,1,85.73,60.658v31.7H64.242V68.283L74.37,75.869a1.682,1.682,0,0,0,2.692-1.346v-19.2a1.682,1.682,0,0,0-2.692-1.346L62.56,62.818,50.75,53.973a1.682,1.682,0,0,0-2.692,1.346v19.2a1.682,1.682,0,0,0,2.692,1.346l10.128-7.586V92.356H39.39V65.176a1.683,1.683,0,0,0-1.682-1.682ZM73.7,58.681V71.16l-8.33-6.24ZM51.424,71.16V58.681l8.33,6.24Z" transform="translate(-11.653 -11.943)"/>
    <path id="Trazado_114334" data-name="Trazado 114334" d="M86.2,116.815a1.682,1.682,0,0,0,0-3.365H80.952a1.682,1.682,0,1,0,0,3.365Z" transform="translate(-13.682 -15.001)"/>
    <path id="Trazado_114335" data-name="Trazado 114335" d="M65.615,26.064V12.732a1.682,1.682,0,0,0-3.365,0V26.064a1.682,1.682,0,0,0,3.365,0Z" transform="translate(-13.025 -11.05)"/>
    <path id="Trazado_114336" data-name="Trazado 114336" d="M91.521,38.345l9.427-9.422a1.682,1.682,0,1,0-2.379-2.379l-9.422,9.422a1.682,1.682,0,0,0,2.379,2.379Z" transform="translate(-14.044 -11.629)"/>
    <path id="Trazado_114337" data-name="Trazado 114337" d="M37.154,38.838a1.682,1.682,0,0,0,1.189-2.872l-9.422-9.422a1.682,1.682,0,0,0-2.379,2.379l9.422,9.427A1.676,1.676,0,0,0,37.154,38.838Z" transform="translate(-11.629 -11.629)"/>
    <path id="Trazado_114338" data-name="Trazado 114338" d="M26.064,65.615a1.682,1.682,0,0,0,0-3.365H12.732a1.682,1.682,0,1,0,0,3.365Z" transform="translate(-11.05 -13.026)"/>
    <path id="Trazado_114339" data-name="Trazado 114339" d="M114.6,65.615a1.682,1.682,0,1,0,0-3.365H101.265a1.682,1.682,0,1,0,0,3.365Z" transform="translate(-14.466 -13.026)"/>
  </g>
</svg>
