<svg xmlns="http://www.w3.org/2000/svg" width="172" height="276" viewBox="0 0 172 276">
  <g id="Grupo_991718" data-name="Grupo 991718" transform="translate(-1695 10170)">
    <rect id="Rectángulo_341389" data-name="Rectángulo 341389" width="172" height="276" rx="11" transform="translate(1695 -10170)" fill="#c4d1ff"/>
    <g id="Grupo_991695" data-name="Grupo 991695" transform="translate(9 -16.839)">
      <g id="Grupo_990979" data-name="Grupo 990979" transform="translate(1743.399 -10083.161)">
        <path id="Trazado_692134" data-name="Trazado 692134" d="M258.515,44.8,257.2,52.69l7.887-5.258,2.629,7.886,2.629-7.886,7.886,5.258L276.917,44.8l9.2,1.314-6.572-6.572,7.886-2.629-6.572-5.258,6.572-5.258-7.886-1.314,6.572-6.572-9.2,1.314,1.314-7.886-7.886,3.943L267.716,8l-2.629,7.886L257.2,11.943l1.314,7.886-9.2-1.314,6.572,6.572L248,26.4l6.572,5.258L248,36.917l7.886,2.629-6.572,6.572Z" transform="translate(-246.686 -6.686)" fill="#eebe33"/>
        <ellipse id="Elipse_5027" data-name="Elipse 5027" cx="2.7" cy="2.7" rx="2.7" ry="2.7" transform="translate(18.331 31.386)" fill="#e44b4d"/>
        <path id="Trazado_692135" data-name="Trazado 692135" d="M349.258,94.459h-2.629L344,80h7.886Z" transform="translate(-326.913 -66.856)" fill="#e44b4d"/>
        <path id="Trazado_692154" data-name="Trazado 692154" d="M240.493,29.205l5.289-4.231-5.289-4.231a1.314,1.314,0,0,1,.605-2.323l5.367-.895L241.7,12.759a1.314,1.314,0,0,1,1.115-2.231l7.423,1.061-1.019-6.115A1.314,1.314,0,0,1,251.1,4.082l6.531,3.265L259.783.9a1.314,1.314,0,0,1,2.494,0l2.15,6.449,6.531-3.265a1.314,1.314,0,0,1,1.884,1.392l-1.019,6.115,7.423-1.061a1.314,1.314,0,0,1,1.115,2.231L275.6,17.525l5.367.895a1.314,1.314,0,0,1,.605,2.323l-5.289,4.231.36.288L275,27.315,273.353,26a1.315,1.315,0,0,1,0-2.053l4.273-3.419-4.983-.83a1.314,1.314,0,0,1-.713-2.226l3.784-3.784-5.3.757a1.314,1.314,0,0,1-1.482-1.517l.89-5.34-5.578,2.789a1.314,1.314,0,0,1-1.835-.76L261.03,5.471l-1.382,4.146a1.315,1.315,0,0,1-1.835.76l-5.578-2.789.89,5.34a1.314,1.314,0,0,1-1.482,1.517l-5.3-.757,3.784,3.784a1.315,1.315,0,0,1-.713,2.226l-4.983.83,4.273,3.419a1.314,1.314,0,0,1,0,2.053l-4.685,3.748,5.594,1.865a1.314,1.314,0,0,1,.514,2.177l-3.784,3.784,5.3-.757a1.314,1.314,0,0,1,1.482,1.517l-.816,4.894,5.362-3.575a1.314,1.314,0,0,1,1.976.678l1.382,4.146,1.382-4.146a1.314,1.314,0,0,1,1.976-.678l6.572,4.381L269.5,46.222l-5.14-3.427-2.085,6.254a1.314,1.314,0,0,1-2.494,0L257.7,42.8l-6.455,4.3a1.314,1.314,0,0,1-2.026-1.31l1.019-6.115-7.423,1.061A1.314,1.314,0,0,1,241.7,38.5l5.068-5.068L240.9,31.479a1.315,1.315,0,0,1-.405-2.273Z" transform="translate(-240 0)"/>
        <path id="Trazado_692155" data-name="Trazado 692155" d="M351.886,187.943A3.943,3.943,0,1,1,347.943,184,3.943,3.943,0,0,1,351.886,187.943Zm-5.258,0a1.314,1.314,0,1,0,1.314-1.314A1.314,1.314,0,0,0,346.629,187.943Z" transform="translate(-326.913 -153.768)"/>
        <path id="Trazado_692156" data-name="Trazado 692156" d="M336.305,72.472A1.314,1.314,0,0,1,337.314,72H345.2a1.314,1.314,0,0,1,1.293,1.549l-2.629,14.459a1.314,1.314,0,0,1-1.293,1.079h-2.629a1.314,1.314,0,0,1-1.293-1.079l-2.629-14.459A1.314,1.314,0,0,1,336.305,72.472Zm4.735,13.986h.435l2.151-11.83h-4.737Z" transform="translate(-320.227 -60.17)"/>
        <path id="Trazado_692157" data-name="Trazado 692157" d="M56.537,78.69l-.33-7.212,6.907,1.457" transform="translate(-26.461 -33.65)" fill="none" stroke="#000" stroke-linecap="round" stroke-width="5"/>
        <path id="Trazado_692158" data-name="Trazado 692158" d="M51.155,37.233l7.186,5.027" transform="translate(-17.014 -12.096)" stroke="#000" stroke-linecap="round" stroke-width="4"/>
      </g>
      <g id="persona-de-libre-dedicacion" transform="translate(1711 -10067.065)">
        <path id="Trazado_692109" data-name="Trazado 692109" d="M134.973,442.041H62.723v-2.371a4.2,4.2,0,0,1,4.2-4.2h63.855a4.2,4.2,0,0,1,4.2,4.2Z" transform="translate(-47.802 -331.882)" fill="#617881"/>
        <path id="Trazado_692110" data-name="Trazado 692110" d="M249.954,123.642a21.216,21.216,0,0,1-2.262-5.71h-1.066a4.431,4.431,0,0,0-4.431,4.431,8.706,8.706,0,0,0,8.706,8.706h.167l-.477-7.479-.3.152A.255.255,0,0,1,249.954,123.642Z" transform="translate(-184.581 -89.878)" fill="#ffddce"/>
        <path id="Trazado_692111" data-name="Trazado 692111" d="M284.554,7.5A21.352,21.352,0,0,0,265.736,39.48a.255.255,0,0,0,.334.1l20.7-10.349a7.329,7.329,0,0,0,4.051-6.555v1.746a6.719,6.719,0,0,0,1.968,4.751l9.849,9.849a.263.263,0,0,0,.417-.059,21.354,21.354,0,0,0-18.5-31.46Z" transform="translate(-200.364 -5.717)" fill="#f6e266"/>
        <path id="Trazado_692112" data-name="Trazado 692112" d="M430.234,117.931h-1.069a21.211,21.211,0,0,1-1.974,5.193.263.263,0,0,1-.417.059l-.452-.452-.532,8.336h.167a8.706,8.706,0,0,0,8.706-8.706A4.43,4.43,0,0,0,430.234,117.931Z" transform="translate(-324.503 -89.877)" fill="#ffcbbe"/>
        <path id="Trazado_692113" data-name="Trazado 692113" d="M394.063,192.347a5.035,5.035,0,0,0,3.651,4.841l5.556,1.587a19.03,19.03,0,0,1,3.46,1.365l-4.907-26.986h-.212l-.006.1a17.409,17.409,0,0,1-7.541,13.268v5.822Z" transform="translate(-300.322 -131.964)" fill="#f1d333"/>
        <path id="Trazado_692114" data-name="Trazado 692114" d="M125.728,472.684a.252.252,0,0,1-.251.251H7.751a.252.252,0,0,1-.251-.251v-9.35a.252.252,0,0,1,.251-.251H125.476a.252.252,0,0,1,.251.251v9.35Z" transform="translate(-5.716 -352.924)" fill="#e28424"/>
        <path id="Trazado_692115" data-name="Trazado 692115" d="M74.921,173.167H12.331A4.83,4.83,0,0,0,7.5,178v42.886a4.83,4.83,0,0,0,4.83,4.83H35.744l1.314-6.568H50.194l1.314,6.568H74.921a4.83,4.83,0,0,0,4.83-4.83V178a4.83,4.83,0,0,0-4.83-4.83Z" transform="translate(-5.717 -131.974)" fill="#d0e2e7"/>
        <path id="Trazado_692116" data-name="Trazado 692116" d="M123.175,442.041H90.334v-3.884a2.684,2.684,0,0,1,2.684-2.684h27.473a2.684,2.684,0,0,1,2.684,2.684Z" transform="translate(-68.845 -331.882)" fill="#d0e2e7"/>
        <path id="Trazado_692117" data-name="Trazado 692117" d="M330.259,281.681v16.13a9.74,9.74,0,0,0,2.853,6.887l.362.362a.238.238,0,0,1,.07.168v9.4a.35.35,0,0,1-.349.349H315.868a.352.352,0,0,1-.315-.2,5.588,5.588,0,0,0-5-3.089h-7.9a5.233,5.233,0,0,0-5.233,5.233v1.336h12.223a4.2,4.2,0,0,1,4.2,4.2v2.37H343.4V299.757A19,19,0,0,0,330.259,281.681Z" transform="translate(-226.667 -214.674)" fill="#ffece4"/>
        <path id="Trazado_692118" data-name="Trazado 692118" d="M303.9,77.791a6.719,6.719,0,0,1-1.968-4.751V71.294a7.328,7.328,0,0,1-4.051,6.555l-20.393,10.2.477,7.479v0h2.717a4.83,4.83,0,0,1,4.83,4.83v8.537h0a17.431,17.431,0,0,0,27.247-13.268l.538-8.438Z" transform="translate(-211.481 -54.334)" fill="#ffece4"/>
        <path id="Trazado_692119" data-name="Trazado 692119" d="M334.58,240.024a5.034,5.034,0,0,1-3.651-4.841v-5.822a17.434,17.434,0,0,1-19.705,0v16.191a16.426,16.426,0,0,0,24.268-5.268Z" transform="translate(-237.188 -174.8)" fill="#ffcbbe"/>
        <path id="Trazado_692120" data-name="Trazado 692120" d="M214.584,394.056h9.852v9.852h-9.852Z" transform="translate(-163.538 -300.317)" fill="#ffece4"/>
        <path id="Trazado_692121" data-name="Trazado 692121" d="M137.65,382.866h-19.7l3.284-16.421h13.137Z" transform="translate(-89.888 -279.274)" fill="#9bb9c1"/>
        <path id="Trazado_692122" data-name="Trazado 692122" d="M271.085,306.817h7.9a5.588,5.588,0,0,1,5,3.089.353.353,0,0,0,.315.2h17.325a.35.35,0,0,0,.349-.349v-9.4a.238.238,0,0,0-.07-.168l-.362-.362q-.3-.3-.57-.622a9.739,9.739,0,0,1-2.282-6.265V276.8q-.319-.1-.643-.2l-4.646-1.327a16.426,16.426,0,0,1-24.268,5.268V298.7a4.83,4.83,0,0,1-4.83,4.83H256v9.852h9.852V312.05a5.233,5.233,0,0,1,5.233-5.233Z" transform="translate(-195.102 -209.794)" fill="#dd636e"/>
        <path id="Trazado_692123" data-name="Trazado 692123" d="M100.186,204.062a3.284,3.284,0,0,1,3.284-3.284H90.334a3.284,3.284,0,1,1,0,6.568H103.47A3.284,3.284,0,0,1,100.186,204.062Z" transform="translate(-68.845 -153.016)" fill="#b4d0d5"/>
        <path id="Trazado_692124" data-name="Trazado 692124" d="M183.02,204.062a3.284,3.284,0,0,1,3.284-3.284H173.168a3.284,3.284,0,1,1,0,6.568H186.3A3.284,3.284,0,0,1,183.02,204.062Z" transform="translate(-131.974 -153.016)" fill="#b4d0d5"/>
        <g id="Grupo_990978" data-name="Grupo 990978" transform="translate(11.637 47.762)">
          <path id="Trazado_692125" data-name="Trazado 692125" d="M141.6,207.346h-6.568a3.284,3.284,0,0,1,0-6.568H141.6a3.284,3.284,0,0,1,0,6.568Z" transform="translate(-112.045 -200.778)" fill="#617881"/>
          <path id="Trazado_692126" data-name="Trazado 692126" d="M58.769,207.346H52.2a3.284,3.284,0,0,1,0-6.568h6.568a3.284,3.284,0,0,1,0,6.568Z" transform="translate(-48.917 -200.778)" fill="#617881"/>
          <path id="Trazado_692127" data-name="Trazado 692127" d="M224.435,207.346h-6.568a3.284,3.284,0,0,1,0-6.568h6.568a3.284,3.284,0,0,1,0,6.568Z" transform="translate(-175.174 -200.778)" fill="#617881"/>
        </g>
        <path id="Trazado_692128" data-name="Trazado 692128" d="M212.86,173.167h-4.687c0,.024,0,.048,0,.072v35.779a11.937,11.937,0,0,1-11.937,11.937H188.5l.952,4.758H212.86a4.83,4.83,0,0,0,4.83-4.83V178A4.83,4.83,0,0,0,212.86,173.167Z" transform="translate(-143.655 -131.974)" fill="#b4d0d5"/>
        <path id="Trazado_692129" data-name="Trazado 692129" d="M7.5,374.055a4.83,4.83,0,0,0,4.829,4.758H35.746l.952-4.758Z" transform="translate(-5.718 -285.074)" fill="#b4d0d5"/>
        <path id="Trazado_692130" data-name="Trazado 692130" d="M329.611,77.791a6.719,6.719,0,0,1-1.968-4.751V71.294a7.329,7.329,0,0,1-3.219,6.068l2.6,2.6a7.709,7.709,0,0,1,2.242,5.942l-.316,4.96a17.429,17.429,0,0,1-17.394,16.319q-.169,0-.338,0v1.709h0a17.431,17.431,0,0,0,27.247-13.268l.538-8.438Z" transform="translate(-237.188 -54.334)" fill="#ffddce"/>
        <path id="Trazado_692131" data-name="Trazado 692131" d="M340.026,148.525h.442a4.631,4.631,0,0,0,4.626-4.626v-3.726a1.784,1.784,0,0,0-3.568,0V143.9a1.059,1.059,0,0,1-1.058,1.058h-.442a1.784,1.784,0,1,0,0,3.568Z" transform="translate(-257.78 -105.468)"/>
        <path id="Trazado_692132" data-name="Trazado 692132" d="M119.761,108.376h-1.246V85.083A20.725,20.725,0,0,0,108.009,67.01l-.718-3.947a1.784,1.784,0,1,0-3.511.638l.288,1.586c-.467-.15-.226-.075-6.186-1.779a3.264,3.264,0,0,1-2.357-3.125V55.454a19.344,19.344,0,0,0,5.542-6.678l1.222,6.718a1.784,1.784,0,0,0,3.511-.638l-2.2-12.1a10.509,10.509,0,0,0,8.347-10.27,6.225,6.225,0,0,0-5.155-6.124,23.131,23.131,0,1,0-45.809,0,6.225,6.225,0,0,0-5.152,6.124,10.447,10.447,0,0,0,2.617,6.925H18.2a1.784,1.784,0,1,0,0,3.568h51a3.049,3.049,0,0,1,3.046,3.046V88.91A3.049,3.049,0,0,1,69.2,91.955H47.254l-.6-3h4.392a1.784,1.784,0,1,0,0-3.568H24.773a1.784,1.784,0,0,0,0,3.568h4.392l-.6,3H6.614A3.049,3.049,0,0,1,3.568,88.91V46.023a3.049,3.049,0,0,1,3.046-3.046H9.879a1.784,1.784,0,0,0,0-3.568H6.614A6.622,6.622,0,0,0,0,46.023V88.909a6.621,6.621,0,0,0,6.614,6.614H27.851l-1.257,6.284H19.118a5.988,5.988,0,0,0-5.982,5.982v.586H2.036A2.038,2.038,0,0,0,0,110.411v9.35A2.038,2.038,0,0,0,2.036,121.8H119.761a2.038,2.038,0,0,0,2.036-2.036v-9.35a2.038,2.038,0,0,0-2.036-2.036Zm-4.814-23.293v23.293H88.955v-.586a5.988,5.988,0,0,0-5.982-5.982H72.564a3.454,3.454,0,0,1,3.42-3h7.9a3.783,3.783,0,0,1,3.4,2.1,2.125,2.125,0,0,0,1.912,1.182h17.325c.061,0,.122,0,.182-.008s.111.008.167.008h3.284a1.784,1.784,0,1,0,0-3.568h-1.5v-7.97a2.009,2.009,0,0,0-.592-1.43l-.362-.362a7.9,7.9,0,0,1-2.33-5.625V69.652a17.165,17.165,0,0,1,9.571,15.431Zm-6.568-52.6a6.934,6.934,0,0,1-5.173,6.7l.274-4.288a2.052,2.052,0,0,0,.781-.8,22.945,22.945,0,0,0,1.761-4.24,2.65,2.65,0,0,1,2.357,2.631ZM70.151,9.2a19.584,19.584,0,0,1,33.3,14.251,19.628,19.628,0,0,1-.49,4.078,1.8,1.8,0,0,0-.054.227,19.174,19.174,0,0,1-.895,2.763L93.685,22.2a4.9,4.9,0,0,1-1.446-3.49V11.637a1.784,1.784,0,0,0-3.568,0V16.96a5.515,5.515,0,0,1-3.065,4.959L66.247,31.6a19.55,19.55,0,0,1,3.9-22.4Zm-8.4,20.652a22.992,22.992,0,0,0,2.074,4.8,2.024,2.024,0,0,0,.493.574l.252,3.955a6.934,6.934,0,0,1-5.173-6.7A2.65,2.65,0,0,1,61.752,29.854ZM69.2,39.41H68.162l-.3-4.632L87.2,25.111a9.151,9.151,0,0,0,2.68-2.024,8.564,8.564,0,0,0,1.279,1.632l8.827,8.827L99.5,41.179A15.648,15.648,0,0,1,75.819,53.588V46.023A6.622,6.622,0,0,0,69.2,39.41Zm6.614,18.214a19.2,19.2,0,0,0,16.138-.011v2.77a6.854,6.854,0,0,0,3.632,6.026,14.644,14.644,0,0,1-19.769,3.42v-12.2Zm0,31.286V73.94a18.227,18.227,0,0,0,23.308-6.366l2.68.766v14.8a11.445,11.445,0,0,0,3.284,8.056v7.33H90.023a7.326,7.326,0,0,0-6.136-3.284h-7.9a7.026,7.026,0,0,0-7,6.568h-6.3V95.523H69.2a6.621,6.621,0,0,0,6.614-6.613Zm-22.989,12.9V95.523h6.284v6.284Zm-.284,4.468v2.1H23.273v-2.1a.9.9,0,0,1,.9-.9H51.646A.9.9,0,0,1,52.546,106.275ZM49.262,95.523v6.284h-.037l-1.257-6.284ZM32.8,88.955H43.015l2.57,12.852H30.233L32.8,88.955ZM16.7,107.789a2.416,2.416,0,0,1,2.414-2.414H19.8a4.468,4.468,0,0,0-.091.9v2.1h-3Zm101.523,10.439H3.568v-6.284H66.01a1.784,1.784,0,0,0,0-3.568h-9.9v-2.1a4.469,4.469,0,0,0-.091-.9h26.95a2.416,2.416,0,0,1,2.414,2.414v.586H74.574a1.784,1.784,0,1,0,0,3.568h43.653Z" transform="translate(0 0)"/>
        <path id="Trazado_692133" data-name="Trazado 692133" d="M41.417,198.346a5.074,5.074,0,0,0,5.068,5.068H92.463a5.068,5.068,0,1,0,0-10.137H46.485A5.074,5.074,0,0,0,41.417,198.346Zm31.341-1.5a1.5,1.5,0,0,1,0,3H66.19a1.5,1.5,0,1,1,0-3Zm4.842,0h3.453a5.078,5.078,0,0,0,0,3H77.6A5.078,5.078,0,0,0,77.6,196.846Zm-16.251,3H57.9a5.078,5.078,0,0,0,0-3h3.453a5.074,5.074,0,0,0,0,3Zm32.614-1.5a1.5,1.5,0,0,1-1.5,1.5H85.894a1.5,1.5,0,1,1,0-3h6.568A1.5,1.5,0,0,1,93.963,198.346Zm-47.478-1.5h6.568a1.5,1.5,0,1,1,0,3H46.485a1.5,1.5,0,0,1,0-3Z" transform="translate(-31.565 -147.301)"/>
      </g>
    </g>
  </g>
</svg>
