<svg xmlns="http://www.w3.org/2000/svg" width="139" height="139" viewBox="0 0 139 139">
  <g id="Grupo_991638" data-name="Grupo 991638" transform="translate(4179 9240.711)">
    <rect id="Rectángulo_339685" data-name="Rectángulo 339685" width="139" height="139" rx="10" transform="translate(-4179 -9240.711)" fill="#feb0b3"/>
    <g id="trabaja" transform="translate(-4152 -9213.71)">
      <rect id="Rectángulo_339688" data-name="Rectángulo 339688" width="53.569" height="33.833" transform="translate(26.785 7.049)" fill="#87ced9"/>
      <path id="Trazado_604263" data-name="Trazado 604263" d="M193.86,76.5h48.328V42.667h-8.107Z" transform="translate(-161.834 -35.618)" fill="#7dc6d1"/>
      <path id="Trazado_604264" data-name="Trazado 604264" d="M257.618,87l-5.639-1.41-.685,2.735,2.64.66-10.7,7.49L237.011,91.5a1.411,1.411,0,0,0-1.7-.045L225.443,98.5l1.638,2.292,9-6.428,6.215,4.974a1.409,1.409,0,0,0,1.692.054l11.877-8.315v2.931h2.819V88.367A1.409,1.409,0,0,0,257.618,87Z" transform="translate(-188.2 -71.45)" fill="#88b337"/>
      <path id="SVGCleanerId_0" d="M415.239,366.933h0a5.639,5.639,0,0,1,5.639,5.639v2.819a5.639,5.639,0,0,1-5.639,5.639h0a5.639,5.639,0,0,1-5.639-5.639v-2.819A5.639,5.639,0,0,1,415.239,366.933Z" transform="translate(-341.934 -306.315)" fill="#fec9a3"/>
      <path id="Trazado_604265" data-name="Trazado 604265" d="M398.1,452.267h-8.458A5.639,5.639,0,0,0,384,457.906v4.229h19.736v-4.229A5.639,5.639,0,0,0,398.1,452.267Z" transform="translate(-320.563 -377.552)" fill="#4398d1"/>
      <path id="Trazado_604266" data-name="Trazado 604266" d="M295.773,366.933h0a5.639,5.639,0,0,1,5.639,5.639v2.819a5.639,5.639,0,0,1-5.639,5.639h0a5.639,5.639,0,0,1-5.639-5.639v-2.819A5.639,5.639,0,0,1,295.773,366.933Z" transform="translate(-242.204 -306.315)" fill="#fec9a3"/>
      <path id="Trazado_604267" data-name="Trazado 604267" d="M278.631,452.267h-8.458a5.639,5.639,0,0,0-5.639,5.639v4.229H284.27v-4.229A5.639,5.639,0,0,0,278.631,452.267Z" transform="translate(-220.833 -377.552)" fill="#4398d1"/>
      <path id="Trazado_604268" data-name="Trazado 604268" d="M176.306,366.933h0a5.639,5.639,0,0,1,5.639,5.639v2.819a5.639,5.639,0,0,1-5.639,5.639h0a5.639,5.639,0,0,1-5.639-5.639v-2.819A5.639,5.639,0,0,1,176.306,366.933Z" transform="translate(-142.473 -306.315)" fill="#fec9a3"/>
      <g id="Grupo_987376" data-name="Grupo 987376" transform="translate(32.815 60.873)">
        <path id="Trazado_604269" data-name="Trazado 604269" d="M201.244,368.478a7,7,0,0,1,1.232,3.974v3.524a7.02,7.02,0,0,1-3.837,6.241,5.588,5.588,0,0,0,6.657-5.536v-2.819A5.62,5.62,0,0,0,201.244,368.478Z" transform="translate(-198.639 -368.478)" fill="#fabd91"/>
        <path id="Trazado_604270" data-name="Trazado 604270" d="M320.71,368.478a7,7,0,0,1,1.232,3.974v3.524a7.02,7.02,0,0,1-3.837,6.241,5.588,5.588,0,0,0,6.657-5.536v-2.819A5.62,5.62,0,0,0,320.71,368.478Z" transform="translate(-298.369 -368.478)" fill="#fabd91"/>
      </g>
      <g id="Grupo_987377" data-name="Grupo 987377" transform="translate(67.666 60.618)">
        <path id="SVGCleanerId_0_1_" d="M415.239,366.933h0a5.639,5.639,0,0,1,5.639,5.639v2.819a5.639,5.639,0,0,1-5.639,5.639h0a5.639,5.639,0,0,1-5.639-5.639v-2.819A5.639,5.639,0,0,1,415.239,366.933Z" transform="translate(-409.6 -366.933)" fill="#fec9a3"/>
      </g>
      <path id="Trazado_604271" data-name="Trazado 604271" d="M440.177,368.478a7,7,0,0,1,1.232,3.974v3.524a7.02,7.02,0,0,1-3.837,6.241,5.589,5.589,0,0,0,6.657-5.536v-2.819A5.62,5.62,0,0,0,440.177,368.478Z" transform="translate(-365.285 -307.605)" fill="#fabd91"/>
      <path id="Trazado_604272" data-name="Trazado 604272" d="M159.164,452.267h-8.458a5.639,5.639,0,0,0-5.639,5.639v4.229H164.8v-4.229A5.639,5.639,0,0,0,159.164,452.267Z" transform="translate(-121.102 -377.552)" fill="#4398d1"/>
      <path id="Trazado_604273" data-name="Trazado 604273" d="M281.436,260.34l-9.158-5.233v-7.641h-2.819v7.641L260.3,260.34l1.4,2.447,7.759-4.434v4.62h2.819v-4.62l7.759,4.434Z" transform="translate(-217.299 -206.585)" fill="#3b86b8"/>
      <g id="Grupo_987378" data-name="Grupo 987378" transform="translate(23.965 1.41)">
        <rect id="Rectángulo_339689" data-name="Rectángulo 339689" width="59.208" height="5.639" fill="#4398d1"/>
        <rect id="Rectángulo_339690" data-name="Rectángulo 339690" width="59.208" height="2.819" transform="translate(0 38.062)" fill="#4398d1"/>
      </g>
      <path id="Trazado_604274" data-name="Trazado 604274" d="M48.306,93.867h0a5.639,5.639,0,0,1,5.639,5.639v2.819a5.639,5.639,0,0,1-5.639,5.639h0a5.639,5.639,0,0,1-5.639-5.639V99.506A5.639,5.639,0,0,1,48.306,93.867Z" transform="translate(-35.618 -78.36)" fill="#fec9a3"/>
      <path id="Trazado_604275" data-name="Trazado 604275" d="M42.517,321.222H25.6l2.819-4.229V298.667H39.7v18.326Z" transform="translate(-21.371 -249.327)" fill="#4398d1"/>
      <rect id="Rectángulo_339691" data-name="Rectángulo 339691" width="2.819" height="18.326" transform="translate(11.278 53.569)" fill="#3685ba"/>
      <rect id="Rectángulo_339692" data-name="Rectángulo 339692" width="5.639" height="5.639" transform="translate(1.41 46.521)" fill="#fec9a3"/>
      <path id="Trazado_604276" data-name="Trazado 604276" d="M33.267,184.839l-.768,2.115-1.374-3.779A6.039,6.039,0,0,0,25.45,179.2H14.173a5.639,5.639,0,0,0-5.639,5.639v11.278h5.639v2.819H25.451v-14.1l3.025,6.052a4.355,4.355,0,0,0,7.938-.331l2.288-5.721H33.267Z" transform="translate(-7.124 -149.596)" fill="#f0e4d6"/>
      <path id="Trazado_604277" data-name="Trazado 604277" d="M165.941,179.2H160.3l-2.051,5.639h5.434Z" transform="translate(-132.108 -149.596)" fill="#fec9a3"/>
      <rect id="Rectángulo_339693" data-name="Rectángulo 339693" width="2.819" height="14.097" transform="translate(5.639 35.243)" fill="#e0d2c1"/>
      <rect id="Rectángulo_339694" data-name="Rectángulo 339694" width="2.819" height="15.507" transform="translate(11.278 29.604)" fill="#4398d1"/>
      <rect id="Rectángulo_339695" data-name="Rectángulo 339695" width="53.569" height="2.819" transform="translate(26.785 7.049)" fill="#7dc6d1"/>
      <g id="Grupo_987379" data-name="Grupo 987379" transform="translate(28.985 74.943)">
        <path id="Trazado_604278" data-name="Trazado 604278" d="M190.17,459.059a5.62,5.62,0,0,0-4.137-5.41,31.88,31.88,0,0,1-10.579,9.64H190.17Z" transform="translate(-175.454 -453.649)" fill="#3e8fc9"/>
        <path id="Trazado_604279" data-name="Trazado 604279" d="M309.637,459.059a5.62,5.62,0,0,0-4.137-5.41,31.88,31.88,0,0,1-10.578,9.64h14.716Z" transform="translate(-275.185 -453.649)" fill="#3e8fc9"/>
        <path id="Trazado_604280" data-name="Trazado 604280" d="M429.1,459.059a5.62,5.62,0,0,0-4.137-5.41,31.881,31.881,0,0,1-10.579,9.64H429.1Z" transform="translate(-374.916 -453.649)" fill="#3e8fc9"/>
      </g>
      <path id="Trazado_604281" data-name="Trazado 604281" d="M73.244,95.411a7,7,0,0,1,1.232,3.974v3.524a7.02,7.02,0,0,1-3.837,6.241,5.588,5.588,0,0,0,6.657-5.536v-2.819A5.621,5.621,0,0,0,73.244,95.411Z" transform="translate(-58.969 -79.649)" fill="#fabd91"/>
      <path id="Trazado_604282" data-name="Trazado 604282" d="M192.782,372.625a6.968,6.968,0,0,0,1.551-4.358v-2.819a7.049,7.049,0,0,0-14.1,0v2.819a6.968,6.968,0,0,0,1.551,4.358,7.028,7.028,0,0,0-4.37,2.735,7.029,7.029,0,0,0-4.37-2.735,6.968,6.968,0,0,0,1.551-4.358v-2.819a7.049,7.049,0,1,0-14.1,0v2.82a6.968,6.968,0,0,0,1.551,4.358,7.028,7.028,0,0,0-4.37,2.735,7.028,7.028,0,0,0-4.37-2.735,6.968,6.968,0,0,0,1.551-4.358v-2.82a7.049,7.049,0,0,0-14.1,0v2.82a6.968,6.968,0,0,0,1.551,4.358,7.05,7.05,0,0,0-5.78,6.92v4.229h2.819v-4.229a4.229,4.229,0,0,1,4.229-4.229h8.458a4.229,4.229,0,0,1,4.229,4.229v4.229h2.819v-4.229a4.229,4.229,0,0,1,4.229-4.229h8.458a4.229,4.229,0,0,1,4.229,4.229v4.229h2.819v-4.229a4.229,4.229,0,0,1,4.229-4.229h8.458a4.229,4.229,0,0,1,4.229,4.229v4.229h2.819v-4.229A7.049,7.049,0,0,0,192.782,372.625Zm-49.2-7.177a4.229,4.229,0,0,1,8.458,0v2.82a4.229,4.229,0,0,1-8.458,0Zm19.736,0a4.229,4.229,0,0,1,8.458,0v2.82a4.229,4.229,0,0,1-8.458,0Zm19.736,0a4.229,4.229,0,0,1,8.458,0v2.82a4.229,4.229,0,0,1-8.458,0Z" transform="translate(-113.978 -299.191)"/>
      <path id="Trazado_604283" data-name="Trazado 604283" d="M1.41,124.805H5.639v13.674l-2.583,3.87a1.41,1.41,0,0,0,1.173,2.192H21.146a1.41,1.41,0,0,0,1.173-2.192l-2.583-3.87V112.45l.355.7a5.765,5.765,0,0,0,10.507-.437L32.887,107l2.255-5.639a1.41,1.41,0,0,0-1.31-1.927H28.194a1.41,1.41,0,0,0-1.325.928l-1.494,4.109-.049-.134a7.471,7.471,0,0,0-7-4.9H18.29A6.977,6.977,0,0,0,19.736,95.2V92.382a7.049,7.049,0,1,0-14.1,0V95.2A6.977,6.977,0,0,0,7.085,99.43H7.048A7.056,7.056,0,0,0,0,106.479V123.4A1.41,1.41,0,0,0,1.41,124.805Zm1.41-2.819v-2.819H5.639v2.819ZM14.1,141.722V124.805H11.278v16.917H6.864l1.358-2.037a1.421,1.421,0,0,0,.237-.782V121.986h8.458V138.9a1.42,1.42,0,0,0,.237.782l1.358,2.037ZM29.181,102.25h2.57l-1.128,2.819H28.156ZM8.458,95.2V92.382a4.229,4.229,0,0,1,8.458,0V95.2a4.229,4.229,0,0,1-8.458,0ZM2.819,106.479a4.229,4.229,0,0,1,4.229-4.229h4.229v14.1H14.1v-14.1h4.229a4.64,4.64,0,0,1,4.349,3.046l1.374,3.779a1.41,1.41,0,0,0,2.65,0l.431-1.187H29.5l-1.515,3.789a2.945,2.945,0,0,1-5.367.223l-3.018-6.052a1.41,1.41,0,0,0-2.679.63v12.687H8.458V106.479a1.41,1.41,0,0,0-2.819,0v9.868H2.819Z" transform="translate(0 -71.236)"/>
      <path id="Trazado_604284" data-name="Trazado 604284" d="M197.152,0H137.944a1.41,1.41,0,0,0-1.41,1.41V7.048a1.41,1.41,0,0,0,1.41,1.41h1.41V25.375h2.819V8.458h50.75V39.472H147.812v2.819h18.326v6.231l-9.163,5.233,1.4,2.447,7.765-4.434v4.62h2.819v-4.62l7.753,4.434,1.4-2.447-9.152-5.233V42.291h29.6V39.472h-2.82V8.458h1.41a1.41,1.41,0,0,0,1.41-1.41V1.41A1.41,1.41,0,0,0,197.152,0Zm-1.41,5.639H139.353V2.819h56.389Z" transform="translate(-113.978)"/>
      <path id="Trazado_604285" data-name="Trazado 604285" d="M237.011,91.5a1.411,1.411,0,0,0-1.7-.045L225.443,98.5l1.638,2.294,9-6.43,6.215,4.974a1.409,1.409,0,0,0,1.692.054l11.877-8.315v2.931h2.819V88.367A1.408,1.408,0,0,0,257.618,87l-5.639-1.41-.685,2.735,2.64.66-10.7,7.49Z" transform="translate(-188.2 -71.45)"/>
    </g>
  </g>
</svg>
