<svg xmlns="http://www.w3.org/2000/svg" width="172" height="250" viewBox="0 0 172 250">
  <g id="Grupo_991719" data-name="Grupo 991719" transform="translate(-1695 9564)">
    <rect id="Rectángulo_341391" data-name="Rectángulo 341391" width="172" height="250" rx="11" transform="translate(1695 -9564)" fill="#c4d1ff"/>
    <g id="Fill_out_line" data-name="Fill out line" transform="translate(1704 -9516)">
      <path id="Trazado_692159" data-name="Trazado 692159" d="M68.259,106.128a10.114,10.114,0,0,1-4.052,8.1v4.052H52.05v-4.052a10.13,10.13,0,1,1,16.209-8.1Z" transform="translate(-23.893 -59.736)" fill="#eedc9a"/>
      <path id="Trazado_692160" data-name="Trazado 692160" d="M160.1,152h9.117v16.209H160.1a8.1,8.1,0,0,1-8.1-8.1h0A8.1,8.1,0,0,1,160.1,152Z" transform="translate(-101.556 -101.557)" fill="#f2c194"/>
      <path id="Trazado_692161" data-name="Trazado 692161" d="M8.1,0h8.1V16.209H8.1A8.1,8.1,0,0,1,0,8.1H0A8.1,8.1,0,0,1,8.1,0Z" transform="translate(119.331 66.652) rotate(180)" fill="#f2c194"/>
      <path id="Trazado_692162" data-name="Trazado 692162" d="M189.3,346.652H88a37.44,37.44,0,0,1,3.35-15.476,33.347,33.347,0,0,1,22.723-18.667l8.449-1.988,3.8-.9a8.106,8.106,0,0,0,6.248-7.887V296h12.157v5.739a8.106,8.106,0,0,0,6.248,7.887l3.8.9,8.449,1.988a33.352,33.352,0,0,1,22.72,18.66,37.438,37.438,0,0,1,3.353,15.482Z" transform="translate(-53.765 -209.087)" fill="#c4d4e0"/>
      <path id="Trazado_692163" data-name="Trazado 692163" d="M128.522,389.47H88a37.44,37.44,0,0,1,3.35-15.476A33.346,33.346,0,0,1,112.2,355.827c.618-.185,1.243-.35,1.874-.5l8.449-1.988,3.723,16.128a88.845,88.845,0,0,1,2.251,17.961Q128.523,388.447,128.522,389.47Z" transform="translate(-53.765 -251.905)" fill="#396795"/>
      <path id="Trazado_692164" data-name="Trazado 692164" d="M180.052,379.34l4.052-10.13H176l1.912-13.382c.618-.185,1.243-.35,1.874-.5l8.449-1.988,3.723,16.128a88.844,88.844,0,0,1,2.251,17.961Z" transform="translate(-119.478 -251.905)" fill="#26507a"/>
      <path id="Trazado_692165" data-name="Trazado 692165" d="M368.522,389.47H328q0-1.022.025-2.041a88.844,88.844,0,0,1,2.251-17.961L334,353.34l8.449,1.988q.946.22,1.874.5a33.352,33.352,0,0,1,20.846,18.161A37.44,37.44,0,0,1,368.522,389.47Z" transform="translate(-232.982 -251.905)" fill="#396795"/>
      <path id="Trazado_692166" data-name="Trazado 692166" d="M338.205,369.209l4.052,10.13L328.1,387.429a88.844,88.844,0,0,1,2.251-17.961l3.723-16.128,8.449,1.988q.946.22,1.874.5l1.912,13.382Z" transform="translate(-233.057 -251.905)" fill="#26507a"/>
      <path id="Trazado_692167" data-name="Trazado 692167" d="M234.235,342.078l-8.1,10.13L216,340.052,222.078,336Z" transform="translate(-149.348 -238.956)" fill="#a6b2bc"/>
      <path id="Trazado_692168" data-name="Trazado 692168" d="M306.235,340.052,296.1,352.209l-8.1-10.13L300.157,336Z" transform="translate(-203.113 -238.956)" fill="#a6b2bc"/>
      <path id="Trazado_692169" data-name="Trazado 692169" d="M244.574,104v28.365a22.287,22.287,0,0,1-22.287,22.287h0A22.287,22.287,0,0,1,200,132.365v-28.2Z" transform="translate(-137.4 -65.713)" fill="#f4ceaf"/>
      <path id="Trazado_692170" data-name="Trazado 692170" d="M218.757,44.261V56.418H214.7l-10.13-8.1L178.123,55.87A14.217,14.217,0,0,1,160,42.2V36.157a6.71,6.71,0,0,1,6.762-6.729,6.575,6.575,0,0,1,4.7,1.981,6.714,6.714,0,0,0,9.5,0l3.847-3.847A12.157,12.157,0,0,1,193.4,24h5.1a12.157,12.157,0,0,1,12.157,12.156,8.105,8.105,0,0,1,8.1,8.1Z" transform="translate(-107.53 -5.974)" fill="#ad7d4d"/>
      <path id="Trazado_692171" data-name="Trazado 692171" d="M72,200h8.1v2.026a4.052,4.052,0,0,1-4.052,4.052h0A4.052,4.052,0,0,1,72,202.026Z" transform="translate(-41.817 -137.4)" fill="#eebe33"/>
      <rect id="Rectángulo_341393" data-name="Rectángulo 341393" width="15.796" height="6.318" rx="3.159" transform="translate(26.531 56.48)" fill="#a6b2bc"/>
      <path id="Trazado_692172" data-name="Trazado 692172" d="M270.832,307.8l-8.811,4.4-8.811-4.4a8.09,8.09,0,0,0,2.733-6.066V296H268.1v5.739A8.09,8.09,0,0,0,270.832,307.8Z" transform="translate(-177.134 -209.087)" fill="#f4ceaf"/>
      <path id="Trazado_692173" data-name="Trazado 692173" d="M50.339,412.052v18.235H24V412.052A4.051,4.051,0,0,1,28.052,408H46.287a4.051,4.051,0,0,1,4.052,4.052Z" transform="translate(-5.974 -292.722)" fill="#396795"/>
      <path id="Trazado_692174" data-name="Trazado 692174" d="M60.261,308.052V312.1a4.051,4.051,0,0,1-4.052,4.052v1.788a9.52,9.52,0,0,1-.271,2.259,9.349,9.349,0,0,1-.742,2.031,9.566,9.566,0,0,0-1.013,4.29v3.814H40V308.052A4.051,4.051,0,0,1,44.052,304H56.209A4.051,4.051,0,0,1,60.261,308.052Z" transform="translate(-17.922 -215.061)" fill="#f4ceaf"/>
      <path id="Trazado_692175" data-name="Trazado 692175" d="M76.052,248h0a4.052,4.052,0,0,1,4.052,4.052v10.13H72v-10.13A4.052,4.052,0,0,1,76.052,248Z" transform="translate(-41.817 -173.243)" fill="#f4ceaf"/>
      <path id="Trazado_692176" data-name="Trazado 692176" d="M40.313,280.522H38.287v-1.787a7.606,7.606,0,0,1,.8-3.385,11.681,11.681,0,0,0,1.227-5.2v-.108a6.089,6.089,0,0,0,4.052-5.731v-4.052a6.088,6.088,0,0,0-4.052-5.73v-8.453a6.078,6.078,0,1,0-12.157,0v8.1H26.13a6.085,6.085,0,0,0-6.078,6.078V280.87A6.088,6.088,0,0,0,16,286.6v18.235h4.052V286.6a2.028,2.028,0,0,1,2.026-2.026H40.313a2.028,2.028,0,0,1,2.026,2.026v18.235h4.052V286.6A6.085,6.085,0,0,0,40.313,280.522Zm-8.1-34.444a2.026,2.026,0,1,1,4.052,0v8.1H32.209ZM26.13,258.235H38.287a2.028,2.028,0,0,1,2.026,2.026v4.052a2.026,2.026,0,0,1-4.052,0,2.026,2.026,0,1,0-4.052,0,6.089,6.089,0,0,0,4.052,5.731v.108a7.606,7.606,0,0,1-.8,3.385,11.681,11.681,0,0,0-1.227,5.2v1.787H24.1V260.261A2.028,2.028,0,0,1,26.13,258.235Z" transform="translate(0 -167.27)"/>
      <path id="Trazado_692182" data-name="Trazado 692182" d="M2.131,8.746A2.026,2.026,0,0,0,5.975,7.464L3.949,1.386A2.026,2.026,0,0,0,.1,2.668Z" transform="matrix(-0.035, -0.999, 0.999, -0.035, 82.06, 75.197)"/>
      <path id="Trazado_692179" data-name="Trazado 692179" d="M219.615,129.217a39.571,39.571,0,0,0-2.641-7.972,35.372,35.372,0,0,0-24.1-19.794l-4.952-1.167v0a2.009,2.009,0,0,0-.732-.874l-6.078-4.052a2.032,2.032,0,0,0-2.031-.127l-1.983.993a6.066,6.066,0,0,1-1.162-3.571V89.58a24.423,24.423,0,0,0,16.123-20.9h2.112A10.132,10.132,0,0,0,196.2,48.62V38.287a10.148,10.148,0,0,0-8.223-9.951A14.205,14.205,0,0,0,173.91,16h-5.1a14.1,14.1,0,0,0-10.029,4.153L154.938,24a4.69,4.69,0,0,1-6.63,0,8.74,8.74,0,0,0-14.92,6.18v6.043a16.193,16.193,0,0,0,5.828,12.45,10.131,10.131,0,0,0,2.277,20h2.11a24.111,24.111,0,0,0,7.038,15.163,24.357,24.357,0,0,0,9.087,5.739v3.072a6.066,6.066,0,0,1-1.162,3.571l-1.983-.993a2.032,2.032,0,0,0-2.031.127l-6.078,4.052a2.008,2.008,0,0,0-.732.874v0l-4.952,1.167a35.454,35.454,0,0,0-15.713,8.277l2.728,3a31.39,31.39,0,0,1,9.095-5.771l-1.438,10.065a2.026,2.026,0,0,0,2.006,2.313h5.112l-2.941,7.352a2.026,2.026,0,0,0,.876,2.512l13.156,7.517c0,.285.006.569.006.854h4.052a91.16,91.16,0,0,0-2.324-20.438l-1.116-4.835h0l1.882,2.257a2.028,2.028,0,0,0,3.14-.03l6.521-8.153,6.521,8.153a2.029,2.029,0,0,0,1.563.76h.02a2.029,2.029,0,0,0,1.558-.729l1.879-2.252,0-.005h0l-1.111,4.816a91.212,91.212,0,0,0-2.329,20.458h4.052c0-.285,0-.569.006-.854l13.156-7.517a2.026,2.026,0,0,0,.876-2.512l-2.941-7.352H196.2a2.026,2.026,0,0,0,2.006-2.313l-1.437-10.057a31.554,31.554,0,0,1,16.52,15.96,35.416,35.416,0,0,1,3.172,14.644h4.052a39.461,39.461,0,0,0-.893-8.342ZM194.171,52.47a6.078,6.078,0,0,1,0,12.157h-2.026V52.47ZM143.518,64.626h-2.026a6.078,6.078,0,1,1,0-12.157h2.026Zm-6.078-28.4V30.183a4.689,4.689,0,0,1,8-3.315,8.746,8.746,0,0,0,12.359,0l3.85-3.847a10.057,10.057,0,0,1,7.162-2.968h5.1a10.144,10.144,0,0,1,10.1,9.323l-1.4,1.4a2.027,2.027,0,0,0,2.867,2.867l1.38-1.383a6.088,6.088,0,0,1,5.291,6.028v10.13H190.83l-8.816-7.051V40.313a2.026,2.026,0,1,0-4.052,0v.5L152.98,47.949a12.193,12.193,0,0,1-15.54-11.724Zm8.614,90.325,3.4-8.494a2.026,2.026,0,0,0-1.881-2.778H141.8l1.393-9.751c.174-.044.347-.091.522-.132l5.705-1.344,1.113,1.336,2.914,12.63a87.184,87.184,0,0,1,2.04,13.925Zm13.64-16.5-7.1-8.517,3.224-2.15,8.862,4.432Zm2.523-12a10.112,10.112,0,0,0,1.563-5.4V88.1a2.029,2.029,0,0,0-1.474-1.95,20.283,20.283,0,0,1-14.735-19.5V52.338c.672.086,13.276-1.894,31.969-7.762l8.553,6.843V66.652a20.325,20.325,0,0,1-14.735,19.5,2.029,2.029,0,0,0-1.474,1.95v4.554a10.112,10.112,0,0,0,1.563,5.4l-5.615,2.809Zm13.752,12-4.989-6.235,8.862-4.432,3.224,2.15Zm17.892,5.23h-5.768a2.026,2.026,0,0,0-1.881,2.778l3.4,8.494-9.436,5.392a87.189,87.189,0,0,1,2.04-13.924l2.915-12.631,1.113-1.336,5.706,1.344c.174.041.347.087.521.131Z" transform="translate(-82.944)"/>
      <rect id="Rectángulo_341394" data-name="Rectángulo 341394" width="4.212" height="4.212" transform="translate(31.796 28.047)"/>
      <rect id="Rectángulo_341395" data-name="Rectángulo 341395" width="4.052" height="4.052" transform="translate(42.831 34.93) rotate(-45)"/>
      <rect id="Rectángulo_341396" data-name="Rectángulo 341396" width="4.212" height="4.212" transform="translate(48.645 43.843)"/>
      <rect id="Rectángulo_341397" data-name="Rectángulo 341397" width="4.052" height="4.052" transform="translate(19.908 34.93) rotate(-45)"/>
      <rect id="Rectángulo_341398" data-name="Rectángulo 341398" width="4.212" height="4.212" transform="translate(16 43.843)"/>
      <path id="Trazado_692181" data-name="Trazado 692181" d="M44.089,109.231a5.066,5.066,0,0,0,1.988,9.044v.1a6.078,6.078,0,1,0,12.157,0v-.1a5.066,5.066,0,0,0,1.988-9.044,12.157,12.157,0,1,0-16.133,0Zm6.486-5.985h3.161l-1,4.979c-.193.013-.388.02-.585.02s-.393-.008-.585-.02Zm1.58,17.156a2.029,2.029,0,0,1-2.026-2.026h4.052A2.029,2.029,0,0,1,52.155,120.4Zm5.065-6.078H47.09a1.013,1.013,0,1,1,0-2.026H57.22a1.013,1.013,0,1,1,0,2.026ZM52.155,92.037a8.1,8.1,0,0,1,5.07,14.423l.967-4.842a2.024,2.024,0,0,0-1.986-2.424H48.1a2.024,2.024,0,0,0-1.986,2.424l.967,4.842a8.1,8.1,0,0,1,5.07-14.423Z" transform="translate(-17.92 -53.75)"/>
    </g>
  </g>
</svg>
