<svg xmlns="http://www.w3.org/2000/svg" xmlns:xlink="http://www.w3.org/1999/xlink" width="117" height="116" viewBox="0 0 117 116">
  <defs>
    <filter id="Elipse_4893" x="0" y="0" width="117" height="116" filterUnits="userSpaceOnUse">
      <feOffset dy="3" input="SourceAlpha"/>
      <feGaussianBlur stdDeviation="3" result="blur"/>
      <feFlood flood-opacity="0.161"/>
      <feComposite operator="in" in2="blur"/>
      <feComposite in="SourceGraphic"/>
    </filter>
  </defs>
  <g id="Grupo_991071" data-name="Grupo 991071" transform="translate(8.52 5.908)">
    <g transform="matrix(1, 0, 0, 1, -8.52, -5.91)" filter="url(#Elipse_4893)">
      <ellipse id="Elipse_4893-2" data-name="Elipse 4893" cx="49.5" cy="49" rx="49.5" ry="49" transform="translate(9 6)" fill="#3c3fa7"/>
    </g>
    <g id="obrero" transform="translate(15.868 13.658)">
      <path id="Trazado_692468" data-name="Trazado 692468" d="M57.656,86.468a5.766,5.766,0,0,0-4.395-5L42.539,78.908l-.425-5a16.188,16.188,0,0,1-2.2,1.359,5.851,5.851,0,0,1-5.319,0,16.134,16.134,0,0,1-2.2-1.359l-.424,5L21.241,81.469a5.766,5.766,0,0,0-4.394,5L15.928,95.1H58.576Z" transform="translate(-15.151 -43.146)" fill="#6e5a64"/>
      <path id="Trazado_692469" data-name="Trazado 692469" d="M61.206,16.363s0-10.056-10.982-10.056S39.241,16.363,39.241,16.363a40.247,40.247,0,0,1,10.982-1.309A40.247,40.247,0,0,1,61.206,16.363Z" transform="translate(-28.123 -5.531)" fill="#ffd164"/>
      <path id="Trazado_692470" data-name="Trazado 692470" d="M34.867,44.388s-2.48-1.19-3.315,1a3.3,3.3,0,0,0,4.04,4.256H56.107a3.3,3.3,0,0,0,4.04-4.256c-.834-2.194-3.315-1-3.315-1Z" transform="translate(-23.749 -26.541)" fill="#feb983"/>
      <path id="Trazado_692471" data-name="Trazado 692471" d="M39.276,35.518q-.035.433-.035.876v3.238c0,8.637,5.072,12.613,8.323,14.274a5.851,5.851,0,0,0,5.319,0c3.25-1.661,8.323-5.637,8.323-14.274V36.394q0-.444-.035-.876Z" transform="translate(-28.123 -21.785)" fill="#fcd0a3"/>
      <path id="Trazado_692472" data-name="Trazado 692472" d="M57.669,27.335l2.819,2.9h-27.6l2.819-2.9a40.247,40.247,0,0,1,10.982-1.309,40.247,40.247,0,0,1,10.982,1.309Z" transform="translate(-24.586 -16.503)" fill="#ffe17d"/>
      <path id="Trazado_692473" data-name="Trazado 692473" d="M63.26,6.581l-1.149,8.5c-.568-.018-1.153-.027-1.761-.027s-1.193.009-1.761.027l-1.149-8.5a15.781,15.781,0,0,1,5.82,0Z" transform="translate(-38.249 -5.533)" fill="#ffe17d"/>
      <path id="Trazado_692474" data-name="Trazado 692474" d="M60.491,101.377V87.212l-8.5-2.031-5.288,16.2-5.288-16.2-8.5,2.031v14.165Z" transform="translate(-24.598 -49.418)" fill="#ff9664"/>
      <path id="Trazado_692475" data-name="Trazado 692475" d="M62.231,73.906a16.187,16.187,0,0,1-2.2,1.359,5.851,5.851,0,0,1-5.319,0,16.132,16.132,0,0,1-2.2-1.359l-.427,5L53.1,82.025a5.289,5.289,0,0,0,8.539,0L62.66,78.9l-.425-5Z" transform="translate(-35.269 -43.144)" fill="#feb983"/>
      <path id="Trazado_692476" data-name="Trazado 692476" d="M61.322,54.327A14.742,14.742,0,0,1,53.457,64.37a5.828,5.828,0,0,1-5.318,0A14.746,14.746,0,0,1,40.27,54.327l1.615.461a3.079,3.079,0,0,1,1.357.807l1.89,1.916a.887.887,0,0,0,1.393-.164l.169-.279a3.981,3.981,0,0,1,3.42-1.934h1.371a3.986,3.986,0,0,1,3.42,1.934l.169.279a.887.887,0,0,0,1.393.164l1.89-1.916a3.079,3.079,0,0,1,1.357-.807Z" transform="translate(-28.695 -32.25)" fill="#cd916e"/>
      <g id="Grupo_991072" data-name="Grupo 991072" transform="translate(0 0)">
        <path id="Trazado_692482" data-name="Trazado 692482" d="M111.113,113.515l-.6-5.678a.776.776,0,1,0-1.544.165l.6,5.678a.776.776,0,0,0,.771.694.587.587,0,0,0,.083,0,.776.776,0,0,0,.689-.854Z" transform="translate(-66.916 -61.639)"/>
        <path id="Trazado_692483" data-name="Trazado 692483" d="M107.7,97.494a.776.776,0,0,0,.527-.963,6.521,6.521,0,0,0-.986-2,.776.776,0,1,0-1.256.912,4.981,4.981,0,0,1,.752,1.529.776.776,0,0,0,.963.527Z" transform="translate(-65.18 -54.44)"/>
        <path id="Trazado_692484" data-name="Trazado 692484" d="M52.28,42.081l-9.99-2.386-.341-4.018a15.254,15.254,0,0,0,5.125-7.163c.129.009.258.019.384.019a3.891,3.891,0,0,0,3.084-1.366,4.226,4.226,0,0,0,.758-4.033,2.71,2.71,0,0,0-1.517-1.628,3.234,3.234,0,0,0-1.746-.142v-2.2c0-.033,0-.067,0-.1h2.047a.776.776,0,0,0,.557-1.317l-2.617-2.692c-.124-1.812-1.275-10.5-11.741-10.5A11.715,11.715,0,0,0,27.886,7.5a.777.777,0,0,0,1.071,1.124,8.714,8.714,0,0,1,3.756-2.056l.919,6.807a42.378,42.378,0,0,0-7.467.987,11.264,11.264,0,0,1,.745-2.714.776.776,0,1,0-1.432-.6,12.7,12.7,0,0,0-.949,4.016L21.919,17.75a.776.776,0,0,0,.557,1.317h2.047c0,.033,0,.067,0,.1v2.2a3.234,3.234,0,0,0-1.746.142,2.71,2.71,0,0,0-1.517,1.628,4.226,4.226,0,0,0,.758,4.033A3.888,3.888,0,0,0,25.1,28.533c.126,0,.255-.01.384-.019A15.254,15.254,0,0,0,30.6,35.676l-.341,4.018L20.086,42.125A6.554,6.554,0,0,0,15.1,47.8l-.92,8.637a.777.777,0,0,0,.69.854c.028,0,.056,0,.083,0a.777.777,0,0,0,.771-.694l.919-8.637a5,5,0,0,1,3.8-4.326l1.262-.3V56.515a.776.776,0,1,0,1.553,0V42.963l7.212-1.722,5.066,15.515a.777.777,0,0,0,1.476,0L42.08,41.241l7.212,1.722V56.515a.776.776,0,1,0,1.552,0V43.334l1.075.257a.789.789,0,0,0,.181.021.776.776,0,0,0,.177-1.531ZM49.21,22.948a1.177,1.177,0,0,1,.638.736,2.682,2.682,0,0,1-.5,2.484,2.345,2.345,0,0,1-1.832.81,19.345,19.345,0,0,0,.5-4.023A1.973,1.973,0,0,1,49.21,22.948ZM46.4,14.361a42.361,42.361,0,0,0-7.476-.99l.92-6.81a9.007,9.007,0,0,1,6.557,7.8ZM34.236,6.249a14.806,14.806,0,0,1,2.04-.139,14.659,14.659,0,0,1,2.04.14l-.955,7.067c-.355-.007-.714-.013-1.085-.013s-.73.006-1.085.013Zm-8.528,9.828a41.271,41.271,0,0,1,10.569-1.221,41.46,41.46,0,0,1,10.569,1.221l1.4,1.437H24.312Zm20.771,2.99c0,.033,0,.067,0,.1V22.4a18.294,18.294,0,0,1-.346,3.613l-1.16.331a3.9,3.9,0,0,0-1.7,1.009L41.39,29.275a.114.114,0,0,1-.092.032.105.105,0,0,1-.082-.054l-.167-.277a4.794,4.794,0,0,0-4.087-2.31h-1.37a4.793,4.793,0,0,0-4.087,2.312l-.168.278a.1.1,0,0,1-.082.053.11.11,0,0,1-.092-.032l-1.889-1.918a3.9,3.9,0,0,0-1.7-1.008l-1.16-.331a18.294,18.294,0,0,1-.346-3.613V19.168c0-.033,0-.067,0-.1ZM23.2,26.168a2.683,2.683,0,0,1-.5-2.484,1.175,1.175,0,0,1,.638-.736,1.974,1.974,0,0,1,1.185.007,19.319,19.319,0,0,0,.5,4.023A2.346,2.346,0,0,1,23.2,26.168Zm3.672,1.6.276.079a2.342,2.342,0,0,1,1.02.6l1.889,1.918a1.651,1.651,0,0,0,1.181.5,1.615,1.615,0,0,0,.2-.012,1.651,1.651,0,0,0,1.228-.794l.168-.278a3.233,3.233,0,0,1,2.756-1.559h1.37a3.234,3.234,0,0,1,2.757,1.56l.167.277a1.663,1.663,0,0,0,2.61.311l1.889-1.917a2.339,2.339,0,0,1,1.02-.605l.276-.079a14.083,14.083,0,0,1-7.1,8.224,5.082,5.082,0,0,1-4.613,0,14.083,14.083,0,0,1-7.1-8.226Zm6.391,9.6a6.638,6.638,0,0,0,6.025,0c.371-.189.771-.413,1.188-.671l.3,3.53-.926,2.835a4.5,4.5,0,0,1-7.15,0l-.926-2.835.3-3.53C32.492,36.957,32.893,37.179,33.264,37.369Zm3.013,16.645-2.7-8.271a6.013,6.013,0,0,0,5.4,0Z" transform="translate(-14.176 -4.557)"/>
      </g>
    </g>
    <g id="obrero-2" data-name="obrero" transform="translate(35.891 27.792)">
      <path id="Trazado_692468-2" data-name="Trazado 692468" d="M57.656,86.468a5.766,5.766,0,0,0-4.395-5L42.539,78.908l-.425-5a16.188,16.188,0,0,1-2.2,1.359,5.851,5.851,0,0,1-5.319,0,16.134,16.134,0,0,1-2.2-1.359l-.424,5L21.241,81.469a5.766,5.766,0,0,0-4.394,5L15.928,95.1H58.576Z" transform="translate(-15.151 -43.146)" fill="#6e5a64"/>
      <path id="Trazado_692469-2" data-name="Trazado 692469" d="M61.206,16.363s0-10.056-10.982-10.056S39.241,16.363,39.241,16.363a40.247,40.247,0,0,1,10.982-1.309A40.247,40.247,0,0,1,61.206,16.363Z" transform="translate(-28.123 -5.531)" fill="#ffd164"/>
      <path id="Trazado_692470-2" data-name="Trazado 692470" d="M34.867,44.388s-2.48-1.19-3.315,1a3.3,3.3,0,0,0,4.04,4.256H56.107a3.3,3.3,0,0,0,4.04-4.256c-.834-2.194-3.315-1-3.315-1Z" transform="translate(-23.749 -26.541)" fill="#feb983"/>
      <path id="Trazado_692471-2" data-name="Trazado 692471" d="M39.276,35.518q-.035.433-.035.876v3.238c0,8.637,5.072,12.613,8.323,14.274a5.851,5.851,0,0,0,5.319,0c3.25-1.661,8.323-5.637,8.323-14.274V36.394q0-.444-.035-.876Z" transform="translate(-28.123 -21.785)" fill="#fcd0a3"/>
      <path id="Trazado_692472-2" data-name="Trazado 692472" d="M57.669,27.335l2.819,2.9h-27.6l2.819-2.9a40.247,40.247,0,0,1,10.982-1.309,40.247,40.247,0,0,1,10.982,1.309Z" transform="translate(-24.586 -16.503)" fill="#ffe17d"/>
      <path id="Trazado_692473-2" data-name="Trazado 692473" d="M63.26,6.581l-1.149,8.5c-.568-.018-1.153-.027-1.761-.027s-1.193.009-1.761.027l-1.149-8.5a15.781,15.781,0,0,1,5.82,0Z" transform="translate(-38.25 -5.532)" fill="#ffe17d"/>
      <path id="Trazado_692474-2" data-name="Trazado 692474" d="M60.491,101.377V87.212l-8.5-2.031-5.288,16.2-5.288-16.2-8.5,2.031v14.165Z" transform="translate(-24.598 -49.418)" fill="#ff9664"/>
      <path id="Trazado_692475-2" data-name="Trazado 692475" d="M62.231,73.906a16.187,16.187,0,0,1-2.2,1.359,5.851,5.851,0,0,1-5.319,0,16.132,16.132,0,0,1-2.2-1.359l-.427,5L53.1,82.025a5.289,5.289,0,0,0,8.539,0L62.66,78.9l-.425-5Z" transform="translate(-35.269 -43.144)" fill="#feb983"/>
      <path id="Trazado_692476-2" data-name="Trazado 692476" d="M61.322,54.327A14.742,14.742,0,0,1,53.457,64.37a5.828,5.828,0,0,1-5.318,0A14.746,14.746,0,0,1,40.27,54.327l1.615.461a3.079,3.079,0,0,1,1.357.807l1.89,1.916a.887.887,0,0,0,1.393-.164l.169-.279a3.981,3.981,0,0,1,3.42-1.934h1.371a3.986,3.986,0,0,1,3.42,1.934l.169.279a.887.887,0,0,0,1.393.164l1.89-1.916a3.079,3.079,0,0,1,1.357-.807Z" transform="translate(-28.696 -32.25)" fill="#cd916e"/>
      <g id="Grupo_991072-2" data-name="Grupo 991072" transform="translate(0 0)">
        <path id="Trazado_692482-2" data-name="Trazado 692482" d="M111.113,113.515l-.6-5.678a.776.776,0,1,0-1.544.165l.6,5.678a.776.776,0,0,0,.771.694.587.587,0,0,0,.083,0,.776.776,0,0,0,.689-.854Z" transform="translate(-66.916 -61.639)"/>
        <path id="Trazado_692483-2" data-name="Trazado 692483" d="M107.7,97.494a.776.776,0,0,0,.527-.963,6.521,6.521,0,0,0-.986-2,.776.776,0,1,0-1.256.912,4.981,4.981,0,0,1,.752,1.529.776.776,0,0,0,.963.527Z" transform="translate(-65.18 -54.44)"/>
        <path id="Trazado_692484-2" data-name="Trazado 692484" d="M52.28,42.081l-9.99-2.386-.341-4.018a15.254,15.254,0,0,0,5.125-7.163c.129.009.258.019.384.019a3.891,3.891,0,0,0,3.084-1.366,4.226,4.226,0,0,0,.758-4.033,2.71,2.71,0,0,0-1.517-1.628,3.234,3.234,0,0,0-1.746-.142v-2.2c0-.033,0-.067,0-.1h2.047a.776.776,0,0,0,.557-1.317l-2.617-2.692c-.124-1.812-1.275-10.5-11.741-10.5A11.715,11.715,0,0,0,27.886,7.5a.777.777,0,0,0,1.071,1.124,8.714,8.714,0,0,1,3.756-2.056l.919,6.807a42.378,42.378,0,0,0-7.467.987,11.264,11.264,0,0,1,.745-2.714.776.776,0,1,0-1.432-.6,12.7,12.7,0,0,0-.949,4.016L21.919,17.75a.776.776,0,0,0,.557,1.317h2.047c0,.033,0,.067,0,.1v2.2a3.234,3.234,0,0,0-1.746.142,2.71,2.71,0,0,0-1.517,1.628,4.226,4.226,0,0,0,.758,4.033A3.888,3.888,0,0,0,25.1,28.533c.126,0,.255-.01.384-.019A15.254,15.254,0,0,0,30.6,35.676l-.341,4.018L20.086,42.125A6.554,6.554,0,0,0,15.1,47.8l-.92,8.637a.777.777,0,0,0,.69.854c.028,0,.056,0,.083,0a.777.777,0,0,0,.771-.694l.919-8.637a5,5,0,0,1,3.8-4.326l1.262-.3V56.515a.776.776,0,1,0,1.553,0V42.963l7.212-1.722,5.066,15.515a.777.777,0,0,0,1.476,0L42.08,41.241l7.212,1.722V56.515a.776.776,0,1,0,1.552,0V43.334l1.075.257a.789.789,0,0,0,.181.021.776.776,0,0,0,.177-1.531ZM49.21,22.948a1.177,1.177,0,0,1,.638.736,2.682,2.682,0,0,1-.5,2.484,2.345,2.345,0,0,1-1.832.81,19.345,19.345,0,0,0,.5-4.023A1.973,1.973,0,0,1,49.21,22.948ZM46.4,14.361a42.361,42.361,0,0,0-7.476-.99l.92-6.81a9.007,9.007,0,0,1,6.557,7.8ZM34.236,6.249a14.806,14.806,0,0,1,2.04-.139,14.659,14.659,0,0,1,2.04.14l-.955,7.067c-.355-.007-.714-.013-1.085-.013s-.73.006-1.085.013Zm-8.528,9.828a41.271,41.271,0,0,1,10.569-1.221,41.46,41.46,0,0,1,10.569,1.221l1.4,1.437H24.312Zm20.771,2.99c0,.033,0,.067,0,.1V22.4a18.294,18.294,0,0,1-.346,3.613l-1.16.331a3.9,3.9,0,0,0-1.7,1.009L41.39,29.275a.114.114,0,0,1-.092.032.105.105,0,0,1-.082-.054l-.167-.277a4.794,4.794,0,0,0-4.087-2.31h-1.37a4.793,4.793,0,0,0-4.087,2.312l-.168.278a.1.1,0,0,1-.082.053.11.11,0,0,1-.092-.032l-1.889-1.918a3.9,3.9,0,0,0-1.7-1.008l-1.16-.331a18.294,18.294,0,0,1-.346-3.613V19.168c0-.033,0-.067,0-.1ZM23.2,26.168a2.683,2.683,0,0,1-.5-2.484,1.175,1.175,0,0,1,.638-.736,1.974,1.974,0,0,1,1.185.007,19.319,19.319,0,0,0,.5,4.023A2.346,2.346,0,0,1,23.2,26.168Zm3.672,1.6.276.079a2.342,2.342,0,0,1,1.02.6l1.889,1.918a1.651,1.651,0,0,0,1.181.5,1.615,1.615,0,0,0,.2-.012,1.651,1.651,0,0,0,1.228-.794l.168-.278a3.233,3.233,0,0,1,2.756-1.559h1.37a3.234,3.234,0,0,1,2.757,1.56l.167.277a1.663,1.663,0,0,0,2.61.311l1.889-1.917a2.339,2.339,0,0,1,1.02-.605l.276-.079a14.083,14.083,0,0,1-7.1,8.224,5.082,5.082,0,0,1-4.613,0,14.083,14.083,0,0,1-7.1-8.226Zm6.391,9.6a6.638,6.638,0,0,0,6.025,0c.371-.189.771-.413,1.188-.671l.3,3.53-.926,2.835a4.5,4.5,0,0,1-7.15,0l-.926-2.835.3-3.53C32.492,36.957,32.893,37.179,33.264,37.369Zm3.013,16.645-2.7-8.271a6.013,6.013,0,0,0,5.4,0Z" transform="translate(-14.176 -4.557)"/>
      </g>
    </g>
  </g>
</svg>
