<svg xmlns="http://www.w3.org/2000/svg" width="172" height="227" viewBox="0 0 172 227">
  <g id="Grupo_991720" data-name="Grupo 991720" transform="translate(-1695 8943)">
    <rect id="Rectángulo_341400" data-name="Rectángulo 341400" width="172" height="227" rx="11" transform="translate(1695 -8943)" fill="#c4d1ff"/>
    <g id="Grupo_991696" data-name="Grupo 991696" transform="translate(1101 -12359.336)">
      <g id="levantar-la-mano" transform="translate(619 3478.385)">
        <g id="Grupo_990986" data-name="Grupo 990986" transform="translate(1.784 37.973)">
          <path id="Trazado_692183" data-name="Trazado 692183" d="M61.981,398.031H89.162v9.612H61.981Z" transform="translate(-49.021 -341.32)" fill="#dff6fd"/>
          <path id="Trazado_692184" data-name="Trazado 692184" d="M54.282,438.437H81.464v15.715H51.879V440.84A2.4,2.4,0,0,1,54.282,438.437Z" transform="translate(-41.322 -372.114)" fill="#fd8087"/>
          <path id="Trazado_692185" data-name="Trazado 692185" d="M143.919,438.437h7.69v15.715h-7.69Z" transform="translate(-111.467 -372.114)" fill="#fe646f"/>
          <path id="Trazado_692186" data-name="Trazado 692186" d="M143.919,398.031h7.69v9.612h-7.69Z" transform="translate(-111.467 -341.32)" fill="#c8effe"/>
          <path id="Trazado_692187" data-name="Trazado 692187" d="M43.983,169.247a3.845,3.845,0,0,0-4.031,3.84v-4.7a3.916,3.916,0,0,0-3.659-3.949,3.845,3.845,0,0,0-4.031,3.84v-4.7a3.916,3.916,0,0,0-3.659-3.949,3.845,3.845,0,0,0-4.031,3.84v4.806a3.845,3.845,0,0,0-4.031-3.84,3.916,3.916,0,0,0-3.659,3.949v23.932l-2.266-3.671a3.845,3.845,0,1,0-6.544,4.038L19.6,211.368a5.766,5.766,0,0,1,.859,3.029v1.945H47.642V173.2a3.917,3.917,0,0,0-3.659-3.948Z" transform="translate(-7.501 -159.631)" fill="#ca6e59"/>
          <path id="Trazado_692188" data-name="Trazado 692188" d="M152.589,200.043a3.829,3.829,0,0,0-2.583.836,4.011,4.011,0,0,1,1.484,3.113v43.146h4.758V203.992A3.916,3.916,0,0,0,152.589,200.043Z" transform="translate(-116.106 -190.426)" fill="#bb5d4c"/>
        </g>
        <g id="Grupo_990987" data-name="Grupo 990987" transform="translate(79.871 23.555)">
          <path id="Trazado_692189" data-name="Trazado 692189" d="M390.236,337.421h27.181v9.612H390.236Z" transform="translate(-377.276 -280.71)" fill="#dff6fd"/>
          <path id="Trazado_692190" data-name="Trazado 692190" d="M382.538,377.827h27.181V407.96H380.135V380.23A2.4,2.4,0,0,1,382.538,377.827Z" transform="translate(-369.578 -311.504)" fill="#ffe177"/>
          <path id="Trazado_692191" data-name="Trazado 692191" d="M472.175,377.827h7.69V407.96h-7.69Z" transform="translate(-439.723 -311.504)" fill="#ffd15b"/>
          <path id="Trazado_692192" data-name="Trazado 692192" d="M472.175,337.421h7.69v9.612h-7.69Z" transform="translate(-439.723 -280.71)" fill="#c8effe"/>
          <path id="Trazado_692193" data-name="Trazado 692193" d="M372.239,108.637a3.845,3.845,0,0,0-4.031,3.84v-4.7a3.916,3.916,0,0,0-3.659-3.949,3.845,3.845,0,0,0-4.031,3.84v-4.7a3.916,3.916,0,0,0-3.659-3.949,3.845,3.845,0,0,0-4.031,3.84v4.806a3.845,3.845,0,0,0-4.031-3.84,3.916,3.916,0,0,0-3.659,3.949v23.932l-2.266-3.671a3.845,3.845,0,1,0-6.544,4.038l11.527,18.679a5.766,5.766,0,0,1,.859,3.029v1.945H375.9V112.586A3.916,3.916,0,0,0,372.239,108.637Z" transform="translate(-335.757 -99.021)" fill="#ea9b58"/>
          <path id="Trazado_692194" data-name="Trazado 692194" d="M480.845,139.433a3.829,3.829,0,0,0-2.583.836,4.011,4.011,0,0,1,1.484,3.113v43.146H484.5V143.382a3.916,3.916,0,0,0-3.659-3.949Z" transform="translate(-444.362 -129.816)" fill="#d88a55"/>
        </g>
        <g id="Grupo_990988" data-name="Grupo 990988" transform="translate(39.73 1.784)">
          <path id="Trazado_692195" data-name="Trazado 692195" d="M221.495,245.9h27.181v9.612H221.495Z" transform="translate(-208.535 -189.187)" fill="#dff6fd"/>
          <path id="Trazado_692196" data-name="Trazado 692196" d="M213.8,286.3h27.181v51.905H211.393v-49.5A2.4,2.4,0,0,1,213.8,286.3Z" transform="translate(-200.836 -219.981)" fill="#528fd8"/>
          <path id="Trazado_692197" data-name="Trazado 692197" d="M303.433,286.3h7.69v51.9h-7.69Z" transform="translate(-270.981 -219.981)" fill="#0573ce"/>
          <path id="Trazado_692198" data-name="Trazado 692198" d="M303.433,245.9h7.69v9.612h-7.69Z" transform="translate(-270.981 -189.187)" fill="#c8effe"/>
          <path id="Trazado_692199" data-name="Trazado 692199" d="M203.5,17.116a3.845,3.845,0,0,0-4.031,3.84v-4.7a3.916,3.916,0,0,0-3.659-3.949,3.845,3.845,0,0,0-4.031,3.84v-4.7A3.916,3.916,0,0,0,188.118,7.5a3.845,3.845,0,0,0-4.031,3.84V16.15a3.845,3.845,0,0,0-4.031-3.84,3.916,3.916,0,0,0-3.659,3.949V40.191l-2.266-3.671a3.845,3.845,0,1,0-6.544,4.038l11.527,18.679a5.766,5.766,0,0,1,.859,3.029V64.21h27.181V21.065a3.916,3.916,0,0,0-3.659-3.949Z" transform="translate(-167.015 -7.5)" fill="#fed2a4"/>
          <path id="Trazado_692200" data-name="Trazado 692200" d="M312.1,47.911a3.829,3.829,0,0,0-2.583.836A4.011,4.011,0,0,1,311,51.86V95.006h4.758V51.86a3.916,3.916,0,0,0-3.659-3.949Z" transform="translate(-275.62 -38.294)" fill="#ffbd86"/>
        </g>
        <g id="Grupo_990989" data-name="Grupo 990989" transform="translate(0 0)">
          <circle id="Elipse_5028" data-name="Elipse 5028" cx="1.922" cy="1.922" r="1.922" transform="translate(32.314 109.031)"/>
          <circle id="Elipse_5029" data-name="Elipse 5029" cx="1.922" cy="1.922" r="1.922" transform="translate(110.4 94.613)"/>
          <circle id="Elipse_5030" data-name="Elipse 5030" cx="1.922" cy="1.922" r="1.922" transform="translate(110.4 102.302)"/>
          <path id="Trazado_692201" data-name="Trazado 692201" d="M38.351,161.75a5.625,5.625,0,0,0-2.354.389,5.629,5.629,0,0,0-7.691-4.806,5.663,5.663,0,0,0-5.334-5.2,5.578,5.578,0,0,0-4.153,1.548,5.664,5.664,0,0,0-1.728,3.645,5.638,5.638,0,0,0-7.707,5.346V168.5a1.784,1.784,0,0,0,3.568,0v-5.821a2.143,2.143,0,0,1,1.959-2.169,2.061,2.061,0,0,1,2.163,2.057v17.349a1.784,1.784,0,0,0,3.568,0V157.761A2.06,2.06,0,0,1,22.8,155.7a2.141,2.141,0,0,1,1.958,2.167v22.045a1.784,1.784,0,0,0,3.568,0V162.566s0-.006,0-.009a2.063,2.063,0,0,1,2.164-2.05,2.142,2.142,0,0,1,1.958,2.169v17.237a1.784,1.784,0,0,0,3.568,0V167.376s0,0,0,0a2.06,2.06,0,0,1,2.162-2.057,2.141,2.141,0,0,1,1.958,2.167v41.361H16.528v-.162a7.553,7.553,0,0,0-1.125-3.965L3.877,186.039a2.061,2.061,0,1,1,3.506-2.168l3.935,6.377a6.067,6.067,0,0,0,2.907,2.455l4.238,1.715a5.886,5.886,0,0,1,3.476,3.965,1.784,1.784,0,0,0,3.455-.894A9.469,9.469,0,0,0,19.8,191.11L15.564,189.4a2.525,2.525,0,0,1-1.209-1.021l-1.4-2.275v-9.277a1.784,1.784,0,1,0-3.568,0v3.938a5.628,5.628,0,0,0-8.543,7.15l11.527,18.678a3.987,3.987,0,0,1,.594,2.092v1.946h0v8.233a4.189,4.189,0,0,0-2.4,3.782v13.312a1.784,1.784,0,0,0,3.568,0V222.641a.62.62,0,0,1,.619-.619h25.4v13.931a1.784,1.784,0,0,0,3.568,0V167.481A5.677,5.677,0,0,0,38.351,161.75Zm1.791,56.7H16.528V212.41H40.141Z" transform="translate(0 -115.941)"/>
          <path id="Trazado_692202" data-name="Trazado 692202" d="M241.574,57.082a1.784,1.784,0,0,0,1.784-1.784V37.122a5.638,5.638,0,0,0-7.715-5.341,5.628,5.628,0,0,0-7.689-4.807,5.662,5.662,0,0,0-5.334-5.2,5.589,5.589,0,0,0-4.156,1.549,5.662,5.662,0,0,0-1.728,3.643,5.636,5.636,0,0,0-7.7,5.346V50.4a5.678,5.678,0,0,0-5.814-1.046V15.35a5.677,5.677,0,0,0-5.359-5.731h0a5.63,5.63,0,0,0-2.354.39,5.63,5.63,0,0,0-7.69-4.806,5.663,5.663,0,0,0-5.335-5.2,5.593,5.593,0,0,0-4.155,1.549A5.659,5.659,0,0,0,176.6,5.2a5.638,5.638,0,0,0-7.706,5.345V28.631a5.662,5.662,0,0,0-6.631-.646,5.629,5.629,0,0,0-1.913,7.794l11.527,18.679a3.983,3.983,0,0,1,.594,2.092V66.726a4.191,4.191,0,0,0-2.4,3.785V84.829a1.784,1.784,0,1,0,3.568,0V70.511a.62.62,0,0,1,.611-.62H199.65v50.122a1.784,1.784,0,0,0,3.568,0V61.973l8.8,14.258a3.966,3.966,0,0,1,.594,2.09V88.5a4.189,4.189,0,0,0-2.4,3.782v27.73a1.784,1.784,0,0,0,3.568,0V92.282a.62.62,0,0,1,.619-.619h25.4v28.349a1.784,1.784,0,0,0,3.568,0V63.624a1.784,1.784,0,1,0-3.568,0V78.482H216.178v-.162a7.533,7.533,0,0,0-1.127-3.965l-11.527-18.68a2.06,2.06,0,0,1,.7-2.852,2.069,2.069,0,0,1,2.805.688l3.936,6.377a6.069,6.069,0,0,0,2.907,2.454l4.239,1.715a5.886,5.886,0,0,1,3.475,3.965,1.784,1.784,0,0,0,3.455-.894,9.469,9.469,0,0,0-5.591-6.378l-4.239-1.715A2.525,2.525,0,0,1,214,58.014l-1.4-2.273V32.316a2.142,2.142,0,0,1,1.957-2.169,2.062,2.062,0,0,1,2.163,2.06c0,.008,0,.015,0,.023V49.553a1.784,1.784,0,1,0,3.568,0V27.4a2.062,2.062,0,0,1,2.164-2.06,2.14,2.14,0,0,1,1.958,2.167V49.553a1.784,1.784,0,0,0,3.568,0V32.207a2.062,2.062,0,0,1,2.162-2.06,2.142,2.142,0,0,1,1.958,2.169V49.553a1.784,1.784,0,1,0,3.568,0V37.012s0-.008,0-.012a2.061,2.061,0,0,1,2.163-2.046,2.14,2.14,0,0,1,1.958,2.167V55.3a1.784,1.784,0,0,0,1.784,1.785ZM199.65,66.321H176.036V60.279H199.65Zm0-9.611H176.036V56.55a7.55,7.55,0,0,0-1.125-3.966L163.384,33.905a2.061,2.061,0,0,1,.7-2.853,2.07,2.07,0,0,1,2.807.689l3.935,6.376a6.069,6.069,0,0,0,2.907,2.454l4.239,1.715a5.886,5.886,0,0,1,3.475,3.965,1.784,1.784,0,0,0,3.455-.894,9.47,9.47,0,0,0-5.591-6.378l-4.239-1.715a2.525,2.525,0,0,1-1.209-1.021l-1.4-2.274V10.543a2.141,2.141,0,0,1,1.958-2.167,2.061,2.061,0,0,1,2.163,2.058V27.782a1.784,1.784,0,1,0,3.568,0V5.629a2.061,2.061,0,0,1,2.163-2.058,2.141,2.141,0,0,1,1.959,2.167V27.781a1.784,1.784,0,1,0,3.568,0V10.435A2.061,2.061,0,0,1,190,8.376a2.141,2.141,0,0,1,1.959,2.167V27.781a1.784,1.784,0,1,0,3.568,0V15.241a2.061,2.061,0,0,1,2.162-2.058,2.141,2.141,0,0,1,1.959,2.167Zm16.527,25.34H239.79v6.044H216.177Z" transform="translate(-121.562 0)"/>
          <path id="Trazado_692203" data-name="Trazado 692203" d="M205.674,384.1a1.784,1.784,0,0,0-1.784,1.784v26.857a1.784,1.784,0,1,0,3.568,0V385.884A1.784,1.784,0,0,0,205.674,384.1Z" transform="translate(-155.388 -292.729)"/>
          <circle id="Elipse_5031" data-name="Elipse 5031" cx="1.922" cy="1.922" r="1.922" transform="translate(70.259 74)"/>
          <circle id="Elipse_5032" data-name="Elipse 5032" cx="1.922" cy="1.922" r="1.922" transform="translate(70.259 81.689)"/>
        </g>
      </g>
      <g id="cruz" transform="translate(707.24 3459.336)">
        <path id="Trazado_692204" data-name="Trazado 692204" d="M33.188,6.936,28.341,2.088a.95.95,0,0,0-1.344,0l-9.359,9.359L8.279,2.088a.95.95,0,0,0-1.344,0L2.088,6.936a.95.95,0,0,0,0,1.344l9.359,9.359L2.088,27a.95.95,0,0,0,0,1.344l4.847,4.847a.95.95,0,0,0,1.344,0l9.359-9.359L27,33.188a.95.95,0,0,0,1.344,0l4.847-4.847a.95.95,0,0,0,0-1.344L23.83,17.638l9.359-9.359a.95.95,0,0,0,0-1.344Z" transform="translate(-0.861 -0.861)" fill="#f74354"/>
        <path id="Trazado_692205" data-name="Trazado 692205" d="M6.747,33.556A1.889,1.889,0,0,1,5.4,33L.556,28.153a1.9,1.9,0,0,1,0-2.688l8.687-8.687L.556,8.091a1.9,1.9,0,0,1,0-2.687L5.4.557a1.9,1.9,0,0,1,2.688,0l8.687,8.687L25.465.556a1.9,1.9,0,0,1,2.688,0L33,5.4a1.9,1.9,0,0,1,0,2.689l-8.686,8.686L33,25.465a1.9,1.9,0,0,1,0,2.688L28.152,33a1.9,1.9,0,0,1-2.688,0l-8.687-8.686L8.091,33a1.889,1.889,0,0,1-1.344.557ZM16.778,22.019a.946.946,0,0,1,.672.278l9.359,9.358,4.847-4.847L22.3,17.45a.95.95,0,0,1,0-1.344l9.358-9.359L26.808,1.9l-9.359,9.359a.95.95,0,0,1-1.344,0L6.746,1.9,1.9,6.747l9.359,9.359a.95.95,0,0,1,0,1.344L1.9,26.809l4.847,4.847L16.105,22.3a.949.949,0,0,1,.672-.278Z" transform="translate(0 -0.001)"/>
      </g>
    </g>
  </g>
</svg>
